<svg xmlns="http://www.w3.org/2000/svg" width="14.853" height="13.368" viewBox="0 0 14.853 13.368"><defs><style>.a{fill:#fff;}</style></defs><path class="a" d="M8368.485-675.633a1.488,1.488,0,0,1-1.484-1.485v-8.911a1.489,1.489,0,0,1,1.484-1.487h2.377L8372.2-689h4.456l1.338,1.485h2.377a1.491,1.491,0,0,1,1.484,1.487v8.911a1.49,1.49,0,0,1-1.484,1.485Zm2.229-5.94a3.676,3.676,0,0,0,3.712,3.713,3.676,3.676,0,0,0,3.713-3.713,3.675,3.675,0,0,0-3.713-3.713A3.675,3.675,0,0,0,8370.714-681.573Zm1.337,0a2.377,2.377,0,0,1,2.378-2.377,2.376,2.376,0,0,1,2.375,2.377,2.376,2.376,0,0,1-2.375,2.377A2.377,2.377,0,0,1,8372.051-681.573Z" transform="translate(-8367.001 689.001)"/></svg>