<svg xmlns="http://www.w3.org/2000/svg" width="16.414" height="17.103" viewBox="0 0 16.414 17.103"><defs><style>.a{fill:#fff;}</style></defs><path class="a" d="M2969.73,147.1a2.45,2.45,0,0,1-1.691-.661,2.241,2.241,0,0,1-.695-1.629V135.44a1.646,1.646,0,0,1-1.328-1.792,1.756,1.756,0,0,1,1.793-1.423h2.423v-.535a1.6,1.6,0,0,1,.546-1.2,1.961,1.961,0,0,1,1.328-.49h4.2a1.96,1.96,0,0,1,1.328.49,1.6,1.6,0,0,1,.546,1.2v.535h2.424a1.757,1.757,0,0,1,1.793,1.423,1.648,1.648,0,0,1-1.329,1.792v9.373a2.244,2.244,0,0,1-.694,1.629,2.452,2.452,0,0,1-1.691.661Zm-1.439-2.29a1.418,1.418,0,0,0,1.439,1.434h8.955a1.418,1.418,0,0,0,1.438-1.434v-9.336h-11.832Zm-1.335-10.962a.814.814,0,0,0,.852.77h12.8a.774.774,0,1,0,0-1.541h-12.8A.814.814,0,0,0,2966.956,133.852Zm4.49-2.756a.788.788,0,0,0-.268.595v.535h6.058v-.535a.784.784,0,0,0-.268-.595.961.961,0,0,0-.66-.239h-4.22A.96.96,0,0,0,2971.446,131.1Zm5.081,13.783v-7.533a.48.48,0,0,1,.946,0v7.533a.48.48,0,0,1-.946,0Zm-2.793,0v-7.533a.48.48,0,0,1,.946,0v7.533a.48.48,0,0,1-.946,0Zm-2.793,0v-7.533a.481.481,0,0,1,.947,0v7.533a.48.48,0,0,1-.947,0Z" transform="translate(-2966 -130)"/></svg>