<svg xmlns="http://www.w3.org/2000/svg" width="20" height="20" viewBox="0 0 20 20">
    <defs>
        <style>
            .aattachment,
            .battachment {
                fill: #6a6a6a;
            }

            .aattachment {
                opacity: 0;
            }
        </style>
    </defs>
    <g transform="translate(-1244 -582)">
        <rect class="aattachment" width="20" height="20" transform="translate(1244 582)" />
        <path class="battachment"
            d="M18.156,8.718l-8.375,8.4a4.167,4.167,0,0,1-5.893-5.894L12.745,2.4a2.5,2.5,0,1,1,3.536,3.535L9.191,12.988A.833.833,0,0,1,8.013,11.81l5.911-5.875L12.745,4.756,6.834,10.631a2.5,2.5,0,1,0,3.535,3.537l7.089-7.054a4.167,4.167,0,1,0-5.894-5.892l-8.856,8.82a5.834,5.834,0,0,0,8.25,8.251l8.375-8.4L18.156,8.718Z"
            transform="translate(1244.181 581.999)" />
    </g>
</svg>