<svg xmlns="http://www.w3.org/2000/svg" xmlns:xlink="http://www.w3.org/1999/xlink" width="31.777" height="32.702" viewBox="0 0 31.777 32.702"><defs><style>.a{fill:#fff;}.b{filter:url(#a);}</style><filter id="a" x="0" y="0" width="31.777" height="32.702" filterUnits="userSpaceOnUse"><feOffset dy="3" input="SourceAlpha"/><feGaussianBlur stdDeviation="3" result="b"/><feFlood flood-opacity="0.451"/><feComposite operator="in" in2="b"/><feComposite in="SourceGraphic"/></filter></defs><g class="b" transform="matrix(1, 0, 0, 1, 0, 0)"><path class="a" d="M-1769.266,4688.915a2.616,2.616,0,0,1-.734-1.818,2.552,2.552,0,0,1,2.548-2.55,2.538,2.538,0,0,1,.922.173v-6.737a.815.815,0,0,1,.616-.789l4.538-1.133,4.142-1.037a.815.815,0,0,1,1.01.79v9.113a.807.807,0,0,1-.008.109,2.382,2.382,0,0,1-2.38,2.295,2.381,2.381,0,0,1-2.382-2.382,2.383,2.383,0,0,1,2.382-2.382,2.355,2.355,0,0,1,.761.125v-2.355l-7.052,1.823v4.936a2.625,2.625,0,0,1-.734,1.818,2.506,2.506,0,0,1-1.815.787A2.506,2.506,0,0,1-1769.266,4688.915Z" transform="translate(1779 -4669)"/></g></svg>