<svg xmlns="http://www.w3.org/2000/svg" xmlns:xlink="http://www.w3.org/1999/xlink" width="36" height="33" viewBox="0 0 36 33"><defs><style>.a{fill:#fff;}.b{filter:url(#a);}</style><filter id="a" x="0" y="0" width="36" height="33" filterUnits="userSpaceOnUse"><feOffset dy="3" input="SourceAlpha"/><feGaussianBlur stdDeviation="3" result="b"/><feFlood flood-opacity="0.451"/><feComposite operator="in" in2="b"/><feComposite in="SourceGraphic"/></filter></defs><g transform="translate(-2109.2 -3622.79)"><g class="b" transform="matrix(1, 0, 0, 1, 2109.2, 3622.79)"><path class="a" d="M-1820,4321.79a2,2,0,0,1-2-2v-11a2,2,0,0,1,2-2h14a2,2,0,0,1,2,2v11a2,2,0,0,1-2,2Zm-1.2-12.518v8.032l4.078-2.965c.025-.019.05-.037.076-.054l.009-.006.011-.007.019-.012h0a1.668,1.668,0,0,1,.9-.261,1.673,1.673,0,0,1,1.133.44l2.718,2.373a1.76,1.76,0,0,0,1.136.417,1.76,1.76,0,0,0,.891-.244l5.561-3.262v-4.449a1.484,1.484,0,0,0-1.483-1.482h-13.569A1.484,1.484,0,0,0-1821.2,4309.272Zm8.3,2.571a1.582,1.582,0,0,1,1.582-1.582,1.582,1.582,0,0,1,1.581,1.582,1.582,1.582,0,0,1-1.581,1.583A1.582,1.582,0,0,1-1812.9,4311.843Z" transform="translate(1831 -4300.79)"/></g></g></svg>