<svg version="1.2" baseProfile="tiny-ps" xmlns="http://www.w3.org/2000/svg" viewBox="0 0 14 15" width="14" height="15">
	<title>Layer</title>
	<style>
		tspan { white-space:pre }
		.shp0 { fill: #ffffff } 
	</style>
	<g id="Layer">
		<path id="Layer" class="shp0" d="M0.73 13.91C0.62 13.79 0.51 13.66 0.42 13.52C0.33 13.38 0.25 13.23 0.19 13.08C0.13 12.92 0.08 12.76 0.05 12.6C0.02 12.43 0 12.26 0 12.1C0 11.76 0.07 11.43 0.19 11.12C0.32 10.81 0.51 10.53 0.75 10.3C0.98 10.06 1.26 9.87 1.57 9.74C1.88 9.61 2.21 9.55 2.55 9.55C2.63 9.55 2.71 9.55 2.78 9.56C2.86 9.57 2.94 9.58 3.02 9.59C3.09 9.61 3.17 9.62 3.25 9.64C3.32 9.67 3.4 9.69 3.47 9.72L3.47 2.98C3.47 2.89 3.49 2.8 3.51 2.72C3.54 2.63 3.59 2.55 3.64 2.48C3.7 2.41 3.76 2.35 3.84 2.3C3.92 2.25 4 2.22 4.09 2.19L8.62 1.06L12.77 0.02C12.89 -0.01 13.01 -0.01 13.13 0.02C13.25 0.04 13.37 0.1 13.46 0.17C13.56 0.25 13.64 0.35 13.69 0.46C13.75 0.57 13.78 0.69 13.78 0.81L13.78 9.93C13.78 9.94 13.78 9.95 13.78 9.95C13.78 9.96 13.77 9.97 13.77 9.98C13.77 9.99 13.77 10 13.77 10.01C13.77 10.02 13.77 10.03 13.77 10.04C13.76 10.34 13.69 10.64 13.56 10.92C13.44 11.2 13.26 11.45 13.04 11.66C12.82 11.88 12.56 12.04 12.28 12.16C12 12.27 11.69 12.33 11.39 12.33C11.08 12.33 10.77 12.27 10.48 12.15C10.19 12.03 9.92 11.85 9.7 11.63C9.48 11.41 9.31 11.15 9.19 10.86C9.07 10.57 9.01 10.26 9.01 9.95C9.01 9.64 9.07 9.33 9.19 9.04C9.31 8.75 9.48 8.49 9.7 8.26C9.93 8.04 10.19 7.87 10.48 7.75C10.77 7.63 11.08 7.57 11.39 7.57C11.45 7.57 11.52 7.57 11.58 7.57C11.65 7.58 11.71 7.59 11.77 7.6C11.84 7.61 11.9 7.62 11.96 7.64C12.03 7.65 12.09 7.67 12.15 7.69L12.15 5.34L5.1 7.16L5.1 12.1C5.1 12.26 5.08 12.43 5.05 12.6C5.02 12.76 4.97 12.92 4.91 13.08C4.84 13.23 4.77 13.38 4.67 13.52C4.58 13.66 4.48 13.79 4.36 13.91C4.25 14.04 4.12 14.15 3.98 14.25C3.84 14.34 3.69 14.43 3.54 14.49C3.38 14.56 3.22 14.61 3.05 14.65C2.89 14.68 2.72 14.7 2.55 14.7C2.38 14.7 2.21 14.68 2.04 14.65C1.88 14.61 1.72 14.56 1.56 14.49C1.4 14.43 1.26 14.34 1.12 14.25C0.98 14.15 0.85 14.04 0.73 13.91Z" />
	</g>
</svg>