<svg xmlns="http://www.w3.org/2000/svg" viewBox="0 0 34 34" width="34" height="34">
	<style>
		tspan { white-space:pre }
		.shp0 { fill: #2cdb00 } 
		.shp1 { fill: #ffffff } 
	</style>
	<g id="Layer">
		<g id="Layer">
			<path id="Layer" class="shp0" d="M17.5 34C8.37 34 1 26.62 1 17.5C1 8.37 8.37 1 17.5 1C26.62 1 34 8.37 34 17.5C34 26.62 26.62 34 17.5 34Z" />
		</g>
		<path id="Layer" class="shp1" d="M11.16 22.44C11.01 22.44 10.85 22.41 10.71 22.35C10.57 22.29 10.44 22.2 10.34 22.09C10.23 21.99 10.14 21.86 10.08 21.71C10.03 21.57 10 21.42 10 21.26L10 14.18C10 14.03 10.03 13.87 10.08 13.73C10.14 13.59 10.23 13.46 10.34 13.35C10.44 13.24 10.57 13.15 10.71 13.09C10.85 13.03 11.01 13 11.16 13L20.44 13C20.6 13 20.75 13.03 20.89 13.09C21.03 13.15 21.16 13.24 21.27 13.35C21.38 13.46 21.46 13.59 21.52 13.73C21.58 13.87 21.6 14.03 21.6 14.18L21.6 15.46L23.75 13.81C23.78 13.78 23.81 13.76 23.84 13.75C23.88 13.73 23.91 13.72 23.95 13.7C23.98 13.69 24.02 13.68 24.05 13.68C24.09 13.67 24.12 13.67 24.16 13.67C24.24 13.66 24.32 13.68 24.4 13.7C24.47 13.73 24.54 13.78 24.6 13.83C24.66 13.89 24.71 13.95 24.75 14.02C24.78 14.1 24.8 14.18 24.8 14.26L24.8 21.18C24.8 21.26 24.78 21.34 24.75 21.42C24.71 21.49 24.66 21.56 24.6 21.61C24.54 21.67 24.47 21.71 24.4 21.74C24.32 21.76 24.24 21.78 24.16 21.77C24.12 21.77 24.09 21.77 24.05 21.77C24.02 21.76 23.98 21.75 23.94 21.74C23.91 21.73 23.88 21.71 23.84 21.7C23.81 21.68 23.78 21.66 23.75 21.64L21.6 19.98L21.6 21.26C21.6 21.42 21.58 21.57 21.52 21.71C21.46 21.85 21.38 21.98 21.27 22.09C21.16 22.2 21.03 22.29 20.89 22.35C20.75 22.41 20.6 22.44 20.44 22.44L11.16 22.44Z" />
	</g>
</svg>