<svg xmlns="http://www.w3.org/2000/svg" viewBox="0 0 34 34" width="34" height="34">
	<style>
		tspan { white-space:pre }
		.shp01 { fill: #f43753 } 
		.shp1 { fill: #ffffff } 
	</style>
	<g id="Layer">
		<g id="Layer">
			<path id="Layer" class="shp01" d="M17.5 34C8.37 34 1 26.62 1 17.5C1 8.37 8.37 1 17.5 1C26.62 1 34 8.37 34 17.5C34 26.62 26.62 34 17.5 34Z" />
		</g>
		<path id="Layer" class="shp1" d="M22.66 21.48L19.13 17.95L22.66 14.42C22.81 14.26 22.9 14.05 22.9 13.83C22.9 13.61 22.81 13.4 22.66 13.24C22.5 13.09 22.29 13 22.07 13C21.85 13 21.64 13.09 21.48 13.24L17.95 16.77L14.42 13.24C14.26 13.09 14.05 13.01 13.83 13.01C13.62 13.01 13.41 13.1 13.25 13.25C13.1 13.41 13.01 13.62 13.01 13.84C13.01 14.05 13.09 14.26 13.24 14.42L16.77 17.95L13.24 21.48C13.08 21.64 12.99 21.85 12.99 22.07C12.99 22.3 13.08 22.51 13.23 22.67C13.39 22.82 13.61 22.91 13.83 22.91C14.05 22.91 14.26 22.82 14.42 22.66L17.95 19.13L21.48 22.66C21.64 22.81 21.85 22.9 22.07 22.9C22.29 22.9 22.5 22.81 22.66 22.66C22.81 22.5 22.9 22.29 22.9 22.07C22.9 21.85 22.81 21.64 22.66 21.48L22.66 21.48Z" />
	</g>
</svg>