<svg xmlns="http://www.w3.org/2000/svg" width="24" height="24"
    viewBox="0 0 24 24">
    <path fill="none" d="M0 0h24v24H0z" />
    <path
        d="M14.592 22.049a9.922 9.922 0 01-3.57-1.054 19.181 19.181 0 01-6.375-4.991 17.4 17.4 0 01-3.111-5.187 6.953 6.953 0 01-.521-2.992 2.879 2.879 0 01.859-1.841l1.4-1.4a1.915 1.915 0 011.333-.58 1.859 1.859 0 011.317.576c.255.235.513.5.762.753.128.13.251.257.381.387l1.116 1.116a1.9 1.9 0 01.621 1.346 1.91 1.91 0 01-.621 1.346q-.175.176-.344.349c-.318.324-.649.657-1 .978a8.171 8.171 0 001.144 1.823 14.184 14.184 0 003.388 3.083c.123.078.264.149.413.226.119.058.247.123.37.194l1.341-1.339a1.873 1.873 0 011.333-.6 1.819 1.819 0 011.317.607l2.25 2.246a1.805 1.805 0 01.009 2.688c-.173.18-.353.357-.528.523a9.358 9.358 0 00-.723.749c0 .009-.013.015-.015.02a2.96 2.96 0 01-2.293.984c-.084-.001-.166-.006-.253-.01zM3.918 5.239L2.525 6.633a1.98 1.98 0 00-.595 1.27 6.036 6.036 0 00.472 2.609 16.63 16.63 0 002.957 4.917 18.231 18.231 0 006.068 4.751 9.063 9.063 0 003.228.965c.065 0 .132.006.195.006a2.058 2.058 0 001.607-.679 10.219 10.219 0 01.781-.812c.177-.171.342-.331.5-.5a.9.9 0 00.013-1.41l-2.259-2.25a.935.935 0 00-.662-.333.993.993 0 00-.686.333l-1.4 1.4a.793.793 0 01-.558.256.788.788 0 01-.363-.094l-.041-.023a4.366 4.366 0 00-.411-.223 5.169 5.169 0 01-.5-.271 14.941 14.941 0 01-3.608-3.284 8.843 8.843 0 01-1.315-2.135.249.249 0 00-.011-.03.733.733 0 01.188-.831l.017-.018c.361-.317.686-.651 1.034-1 .117-.114.232-.235.348-.351a1.017 1.017 0 00.353-.7 1.023 1.023 0 00-.353-.7L6.408 6.382c-.13-.134-.262-.266-.389-.4-.253-.26-.489-.5-.74-.733a.958.958 0 00-.675-.324 1.009 1.009 0 00-.686.314zm12.85 7.806a.367.367 0 010-.515l5.633-5.645h-2.75a.364.364 0 01-.359-.418.371.371 0 01.37-.307h3.613a.362.362 0 01.361.361v3.991a.362.362 0 01-.415.359.373.373 0 01-.309-.37v-3.1l-5.633 5.645a.36.36 0 01-.255.105.36.36 0 01-.255-.106zM11.82 7.991a.364.364 0 01-.361-.363V3.637a.362.362 0 01.415-.359.372.372 0 01.309.37v3.1l5.633-5.642a.358.358 0 01.511 0 .364.364 0 010 .513l-5.633 5.645h2.75a.363.363 0 01.359.417.373.373 0 01-.37.31z"
        fill="#333" stroke="#333" stroke-linejoin="round" stroke-width=".5" />
</svg>