<svg xmlns="http://www.w3.org/2000/svg" width="27.084" height="27.084"><path fill="#fff" d="M20.317 9.479H6.771a1.354 1.354 0 110-2.708h13.546a1.354 1.354 0 010 2.708zm0 5.417H6.771a1.354 1.354 0 110-2.708h13.546a1.354 1.354 0 010 2.708z"/><path fill="#4879f9" d="M23.021 0H4.063A4.067 4.067 0 000 4.063V17.6a4.067 4.067 0 004.063 4.063h15.69l5.02 5.02a1.354 1.354 0 002.312-.957V4.063A4.067 4.067 0 0023.021 0zm-2.708 14.9H6.771a1.354 1.354 0 010-2.708h13.542a1.354 1.354 0 110 2.708zm0-5.417H6.771a1.354 1.354 0 010-2.708h13.542a1.354 1.354 0 110 2.708z"/></svg>