<svg fill="currentColor" xmlns="http://www.w3.org/2000/svg" width="19" height="17" viewBox="0 0 19 17">
    <g transform="translate(-39.841 19.776)">
        <g transform="translate(39.841 -19.776)">
            <g transform="translate(14.311 6.075)">
                <path d="M365.018,204.271l1.544-1.544a.469.469,0,1,0-.663-.663l-1.544,1.544-1.544-1.544a.469.469,0,1,0-.663.663l1.544,1.544-1.544,1.544a.469.469,0,1,0,.663.663l1.544-1.544,1.544,1.544a.469.469,0,1,0,.663-.663Z"
                    transform="translate(-362.011 -201.927)" />
            </g>
            <g transform="translate(0 0)">
                <path d="M12.447.147a1.487,1.487,0,0,0-1.594.205l-6.539,3.5H1.5A1.5,1.5,0,0,0,0,5.35v6.308a1.5,1.5,0,0,0,1.5,1.494H4.313l6.539,3.5a1.5,1.5,0,0,0,2.457-1.148V1.5A1.48,1.48,0,0,0,12.447.147ZM3.995,12.162H1.5a.5.5,0,0,1-.5-.5V5.35a.5.5,0,0,1,.5-.5h2.5v7.311Zm8.316,3.345a.5.5,0,0,1-.819.383l-6.5-3.469V4.587l6.5-3.469a.5.5,0,0,1,.819.383Z"
                    transform="translate(0 -0.004)" />
            </g>
        </g>
    </g>
</svg>