<svg xmlns="http://www.w3.org/2000/svg" width="31.27" height="40.578" viewBox="0 0 31.27 40.578"><defs><style>.a{fill:#7487b8;}.b{fill:#7a9fff;}.c{fill:#fff;}</style></defs><g transform="translate(-67.003 -4.363)"><path class="a" d="M94.487,100.439H68.171A1.168,1.168,0,0,1,67,99.27V63.646a1.168,1.168,0,0,1,1.168-1.168H95.655V99.27A1.168,1.168,0,0,1,94.487,100.439Z" transform="translate(0 -55.497)"/><path class="b" d="M122.474,72.451H96.158a1.168,1.168,0,0,1-1.168-1.168V35.659a1.168,1.168,0,0,1,1.168-1.168h26.315a1.168,1.168,0,0,1,1.168,1.168V71.283A1.168,1.168,0,0,1,122.474,72.451Z" transform="translate(-25.369 -30.128)"/><g transform="translate(75.185 8.668)"><rect class="c" width="17.522" height="1.46" transform="translate(0)"/><rect class="c" width="17.522" height="1.46" transform="translate(0 5.196)"/><rect class="c" width="17.522" height="1.46" transform="translate(0 10.391)"/><rect class="c" width="17.522" height="1.46" transform="translate(0 15.587)"/></g><g transform="translate(75.185 29.373)"><rect class="c" width="17.522" height="1.46" transform="translate(0)"/><rect class="c" width="17.522" height="1.46" transform="translate(0 5.196)"/></g></g></svg>