<svg xmlns="http://www.w3.org/2000/svg" width="16" height="24" viewBox="0 0 16 24"><defs><style>.a{fill:#fff;}</style></defs><g transform="translate(-76.8)"><g transform="translate(87.79 0.557)"><g transform="translate(0)"><path class="a" d="M291.84,10.24v2.227a2.233,2.233,0,0,0,2.227,2.227h2.227Z" transform="translate(-291.84 -10.24)"/></g></g><g transform="translate(83.882 17.725)"><g transform="translate(0)"><path class="a" d="M215.23,342.573a1.013,1.013,0,0,0-.334-.418.939.939,0,0,0-.473-.139.771.771,0,0,0-.362.084,1.088,1.088,0,0,0-.278.223,1.275,1.275,0,0,0-.195.39,1.8,1.8,0,0,0-.083.557,1.851,1.851,0,0,0,.083.584,1.454,1.454,0,0,0,.195.417.526.526,0,0,0,.278.223.837.837,0,0,0,.807-.056.86.86,0,0,0,.334-.417,1.9,1.9,0,0,0,.139-.751A1.739,1.739,0,0,0,215.23,342.573Z" transform="translate(-213.504 -342.016)"/></g></g><g transform="translate(76.8)"><path class="a" d="M90.133,5.867a3.209,3.209,0,0,1-3.2-3.2V0H79.467A2.675,2.675,0,0,0,76.8,2.667V21.333A2.675,2.675,0,0,0,79.467,24H90.133A2.675,2.675,0,0,0,92.8,21.333V5.867ZM79.467,7.523H84.8a.533.533,0,0,1,0,1.067H79.467a.533.533,0,0,1,0-1.067Zm0,2.1H90.133a.533.533,0,1,1,0,1.067H79.467a.533.533,0,0,1,0-1.067Zm0,2.667H90.133a.533.533,0,1,1,0,1.067H79.467a.533.533,0,0,1,0-1.067Zm0,2.667H90.133a.533.533,0,1,1,0,1.067H79.467a.533.533,0,0,1,0-1.067Z" transform="translate(-76.8)"/></g><g transform="translate(79.881 17.783)"><path class="a" d="M137.444,343.43a.593.593,0,0,0-.334-.306,1.565,1.565,0,0,0-.557-.083h-.362v2.422h.724a.709.709,0,0,0,.195-.056.607.607,0,0,0,.139-.083,1.4,1.4,0,0,0,.334-1.085A1.91,1.91,0,0,0,137.444,343.43Z" transform="translate(-136.192 -343.04)"/></g></g></svg>