<svg xmlns="http://www.w3.org/2000/svg" width="9" height="10" viewBox="0 0 9 10"><g isolation="isolate" transform="translate(-69.543 -4.363)"><path fill="#c5c5c5" d="M102.664,43.491H95.316a.3.3,0,0,1-.326-.277V34.768a.3.3,0,0,1,.326-.277h7.348a.3.3,0,0,1,.326.277v8.446A.3.3,0,0,1,102.664,43.491Z" transform="translate(-25.447 -29.128)"/><path fill="#767676" d="M102.664,43.491H95.316a.3.3,0,0,1-.326-.277V34.768a.3.3,0,0,1,.326-.277h7.348a.3.3,0,0,1,.326.277v8.446A.3.3,0,0,1,102.664,43.491Z" transform="translate(-24.447 -30.128)"/><g transform="translate(72.179 5.724)"><rect fill="#fff" width="4.728" height="0.394" rx="0.197" transform="translate(0)"/><rect fill="#fff" width="4.728" height="0.394" rx="0.197" transform="translate(0 1.316)"/><rect fill="#fff" width="4.728" height="0.394" rx="0.197" transform="translate(0 2.633)"/><rect fill="#fff" width="4.728" height="0.394" rx="0.197" transform="translate(0 3.949)"/><rect fill="#fff" width="4.728" height="0.394" rx="0.197" transform="translate(0 5.283)"/></g></g></svg>