<svg xmlns="http://www.w3.org/2000/svg" width="6.964" height="6.963" viewBox="0 0 6.964 6.963"><defs><style>.a{fill:#bac0c2;}</style></defs><g transform="translate(0 0)"><g transform="translate(0 0)"><g transform="translate(0 0)"><path class="a" d="M4.231-41.521,6.81-44.1a.527.527,0,0,0,0-.745.527.527,0,0,0-.745,0L3.486-42.266.907-44.846a.527.527,0,0,0-.745,0,.527.527,0,0,0,0,.745l2.579,2.579L.156-38.936a.527.527,0,0,0,0,.745.525.525,0,0,0,.373.155A.525.525,0,0,0,.9-38.191l2.585-2.585L6.065-38.2a.526.526,0,0,0,.373.155A.526.526,0,0,0,6.81-38.2a.527.527,0,0,0,0-.745Z" transform="translate(-0.001 45)"/></g></g></g></svg>