<svg xmlns="http://www.w3.org/2000/svg" width="28.012" height="18.007" viewBox="0 0 28.012 18.007"><defs><style>.a{fill:#fff;}</style></defs><g transform="translate(0 -91.365)"><path class="a" d="M27.7,99.29a16.7,16.7,0,0,0-5.886-5.752,15.115,15.115,0,0,0-15.616,0A16.691,16.691,0,0,0,.313,99.29a2.018,2.018,0,0,0,0,2.157A16.687,16.687,0,0,0,6.2,107.2a15.141,15.141,0,0,0,15.616.008,16.584,16.584,0,0,0,5.886-5.76,2.018,2.018,0,0,0,0-2.157ZM10.653,95.015a4.574,4.574,0,0,1,3.353-1.4.75.75,0,1,1,0,1.5,3.256,3.256,0,0,0-3.251,3.251.751.751,0,1,1-1.5,0A4.575,4.575,0,0,1,10.653,95.015ZM20.8,105.473a13.095,13.095,0,0,1-13.584,0A16.134,16.134,0,0,1,2,100.369a15.363,15.363,0,0,1,5.956-5.518A6.831,6.831,0,0,0,7,98.368a6.745,6.745,0,0,0,2.056,4.947,6.744,6.744,0,0,0,4.947,2.056,6.745,6.745,0,0,0,4.947-2.056,6.743,6.743,0,0,0,2.056-4.947,6.83,6.83,0,0,0-.954-3.517,15.365,15.365,0,0,1,5.956,5.518A16.13,16.13,0,0,1,20.8,105.473Z" transform="translate(0 0)"/></g></svg>