<svg xmlns="http://www.w3.org/2000/svg" width="35.141" height="35.188" viewBox="0 0 35.141 35.188"><g fill="#fff" transform="translate(0 0)"><g><path fill="#2c2c2c" d="M 17.57062721252441 34.43827819824219 C 13.07786750793457 34.43827819824219 8.853957176208496 32.68630599975586 5.676997184753418 29.50509643554688 C 2.499777317047119 26.32361793518066 0.7499971985816956 22.09355735778809 0.7499971985816956 17.59413719177246 C 0.7499971985816956 13.09471702575684 2.499777317047119 8.864657402038574 5.676997184753418 5.68317699432373 C 8.853957176208496 2.501967191696167 13.07786750793457 0.7499971985816956 17.57062721252441 0.7499971985816956 C 22.06338691711426 0.7499971985816956 26.28729629516602 2.501967191696167 29.46425628662109 5.68317699432373 C 32.64147567749023 8.864657402038574 34.39125823974609 13.09471702575684 34.39125823974609 17.59413719177246 C 34.39125823974609 22.09355735778809 32.64147567749023 26.32361793518066 29.46425628662109 29.50509643554688 C 26.28729629516602 32.68630599975586 22.06338691711426 34.43827819824219 17.57062721252441 34.43827819824219 Z"/><path d="M 17.57062721252441 1.499996185302734 C 13.27838706970215 1.499996185302734 9.242946624755859 3.173828125 6.207687377929688 6.213157653808594 C 3.171886444091797 9.253017425537109 1.499996185302734 13.29485702514648 1.499996185302734 17.59413719177246 C 1.499996185302734 21.89341735839844 3.171886444091797 25.93525695800781 6.207687377929688 28.97511672973633 C 9.242946624755859 32.01444625854492 13.27838706970215 33.68827819824219 17.57062721252441 33.68827819824219 C 21.86286735534668 33.68827819824219 25.89830780029297 32.01444625854492 28.93356704711914 28.97511672973633 C 31.96936798095703 25.93525695800781 33.64125823974609 21.89341735839844 33.64125823974609 17.59413719177246 C 33.64125823974609 13.29485702514648 31.96936798095703 9.253017425537109 28.93356704711914 6.213157653808594 C 25.89830780029297 3.173828125 21.86286735534668 1.499996185302734 17.57062721252441 1.499996185302734 M 17.57062721252441 -3.814697265625e-06 C 27.27461624145508 -3.814697265625e-06 35.14125823974609 7.877166748046875 35.14125823974609 17.59413719177246 C 35.14125823974609 27.31110763549805 27.27461624145508 35.18827819824219 17.57062721252441 35.18827819824219 C 7.866636276245117 35.18827819824219 -3.814697265625e-06 27.31110763549805 -3.814697265625e-06 17.59413719177246 C -3.814697265625e-06 7.877166748046875 7.866636276245117 -3.814697265625e-06 17.57062721252441 -3.814697265625e-06 Z"/></g><path fill="#fff" d="M234.36,206.513a2.7,2.7,0,1,0,2.664,2.7A2.681,2.681,0,0,0,234.36,206.513Zm7.1-2.7h-2.131a.792.792,0,0,1-.7-.512l-.551-1.674a.792.792,0,0,0-.7-.512h-6.038a.792.792,0,0,0-.7.512l-.551,1.674a.793.793,0,0,1-.7.512h-2.131a1.793,1.793,0,0,0-1.776,1.8v8.095a1.793,1.793,0,0,0,1.776,1.8h14.206a1.793,1.793,0,0,0,1.776-1.8v-8.095A1.793,1.793,0,0,0,241.463,203.815Zm-7.1,9.893a4.5,4.5,0,1,1,4.439-4.5A4.469,4.469,0,0,1,234.36,213.709Zm6.482-6.837a.63.63,0,1,1,.621-.63A.626.626,0,0,1,240.842,206.872Z" transform="translate(-216.414 -190.923)"/></g></svg>