<svg xmlns="http://www.w3.org/2000/svg" width="14.2" height="14.2" viewBox="0 0 14.2 14.2"><g transform="translate(0.1 0.1)"><path fill="#858585" stroke="#858585" stroke-width="0.2px" d="M7,14a7,7,0,1,1,7-7A7.008,7.008,0,0,1,7,14ZM7,.875A6.125,6.125,0,1,0,13.125,7,6.132,6.132,0,0,0,7,.875Z"/><path fill="#858585" stroke="#858585" stroke-width="0.2px" d="M7.537,8.94a.448.448,0,0,1-.448-.448.6.6,0,0,0-1.194,0,.448.448,0,0,1-.9,0,1.492,1.492,0,0,1,2.985,0A.448.448,0,0,1,7.537,8.94Z" transform="translate(-2.101 -2.932)"/><path fill="#858585" stroke="#858585" stroke-width="0.2px" d="M16.537,8.94a.448.448,0,0,1-.448-.448.6.6,0,1,0-1.194,0,.448.448,0,1,1-.9,0,1.492,1.492,0,1,1,2.985,0A.448.448,0,0,1,16.537,8.94Z" transform="translate(-5.884 -2.932)"/><path fill="#858585" stroke="#858585" stroke-width="0.2px" d="M9.683,18.594a4.652,4.652,0,0,1-3.3-1.365.448.448,0,0,1,.633-.633,3.773,3.773,0,0,0,5.337,0,.448.448,0,0,1,.633.633A4.657,4.657,0,0,1,9.683,18.594Z" transform="translate(-2.683 -6.899)"/></g></svg>