<svg xmlns="http://www.w3.org/2000/svg" width="124.95" height="90.012" viewBox="0 0 124.95 90.012"><g transform="translate(-117 -275.415)"><g transform="translate(118 276.415)"><path fill="#ebf1ff" stroke-width="2px" stroke="#c7d6f6" stroke-miterlimit="10" d="M331.886,162.722H264.855c-9.255,0-16.758,8.409-16.758,18.783v37.072c0,9.02,5.673,16.551,13.237,18.365L257.8,249.223l16.388-11.863h57.7c9.255,0,16.758-8.409,16.758-18.783V181.505C348.644,171.131,341.142,162.722,331.886,162.722Z" transform="translate(-248.097 -162.722)"/><g transform="translate(12.811 24.964)"><line fill="none" stroke-linecap="round" stroke-width="2.064px" stroke="#c7d6f6" stroke-miterlimit="10" x2="88.454"/><line fill="none" stroke-linecap="round" stroke-width="2.064px" stroke="#c7d6f6" stroke-miterlimit="10" x2="88.454" transform="translate(0 9.104)"/><line fill="none" stroke-linecap="round" stroke-width="2.064px" stroke="#c7d6f6" stroke-miterlimit="10" x2="88.454" transform="translate(0 18.208)"/><line fill="none" stroke-linecap="round" stroke-width="2.064px" stroke="#c7d6f6" stroke-miterlimit="10" x2="88.454" transform="translate(0 27.312)"/></g><g transform="translate(78.988 17.445)"><ellipse fill="#fff" stroke="#c1d3f8" cx="22.231" cy="21.228" rx="22.231" ry="21.228"/></g></g><path fill="#dfe9ff" d="M.472,5.374c.191,1.7,0,11.352,0,11.352A44.415,44.415,0,0,0,5.11,18.95a17.01,17.01,0,0,1,0,3.921l5.208-4.389h9.129V11.46s-4.74.351-6.32-2.984S14.247,3.5,11.02,3.5H3.062S.281,3.677.472,5.374Z" transform="translate(208.027 303.255)"/><path fill="#9dbafc" d="M310.158,64.172H307.85V61.864a.839.839,0,1,0-1.678,0v2.308h-2.308a.839.839,0,0,0,0,1.678h2.308v2.308a.839.839,0,1,0,1.678,0V65.85h2.308a.839.839,0,0,0,0-1.678Z" transform="translate(-81.075 243.834)"/><g transform="translate(208.017 305.964)"><path fill="#9dbafc" d="M5.136,197.063a.666.666,0,0,0,.27.052.7.7,0,0,0,.472-.187l4.7-4.5h8.839a3.331,3.331,0,0,0,3.329-3.329v-5.016a.682.682,0,0,0-1.365,0V189.1a1.966,1.966,0,0,1-1.964,1.964H10.3a.7.7,0,0,0-.472.187L6.08,194.836v-3.081a.685.685,0,0,0-.682-.682H3.329a1.966,1.966,0,0,1-1.964-1.964v-9.822a1.973,1.973,0,0,1,1.964-1.972h8.045a.682.682,0,0,0,0-1.365H3.329A3.331,3.331,0,0,0,0,179.279V189.1a3.331,3.331,0,0,0,3.329,3.329H4.723v4.011A.68.68,0,0,0,5.136,197.063Z" transform="translate(0 -175.95)"/></g></g></svg>