<svg data-name="empty state_img" xmlns="http://www.w3.org/2000/svg" width="101.791" height="105.8"><defs><filter id="prefix__a" x=".038" y="6.483" width="98.221" height="99.317" filterUnits="userSpaceOnUse"><feOffset dy="3"/><feGaussianBlur stdDeviation="9" result="blur"/><feFlood flood-color="#c9cfd7"/><feComposite operator="in" in2="blur"/><feComposite in="SourceGraphic"/></filter></defs><g data-name="Messages Icon"><path data-name="Path" d="M37.232 67.847a1.8 1.8 0 01-1.8-1.8l-.442-36.425a7.1 7.1 0 017.089-7.092h29.6a7.1 7.1 0 017.089 7.092l.443 21.008a7.1 7.1 0 01-7.089 7.088H46.011l-7.355 9.434a1.8 1.8 0 01-1.423.7z" fill="#e8e9ee"/><g transform="translate(-.002 -.005)" filter="url(#prefix__a)"><path data-name="Path" d="M29.282 75.797a1.8 1.8 0 01-1.8-1.8l-.442-36.425a7.1 7.1 0 017.089-7.092h29.6a7.1 7.1 0 017.089 7.092l.443 21.008a7.1 7.1 0 01-7.089 7.088H38.061l-7.355 9.434a1.8 1.8 0 01-1.423.7z" fill="#fff"/></g><path data-name="Fill 5" d="M80.203 34.968v1.214h-4.856v-.951l2.772-3.278h-2.701v-1.214h4.694v.951l-2.772 3.278z" fill="#b3c3cd"/><path data-name="Fill 7" d="M77.774 24.122v2.054l-8.218.004v-1.609l4.689-5.55h-4.572v-2.056h7.945v1.609l-4.689 5.55z" fill="#b3c3cd"/><path data-name="Fill 3" d="M48.677 52.168a1.718 1.718 0 101.718 1.718 1.718 1.718 0 00-1.718-1.718" fill="#c9cfd7"/><path data-name="Fill 1" d="M54.056 45.887a4.9 4.9 0 01-4.431-3.193l-.129-.3-.125-.292.274-.161 1.1-.644.347-.21.164.378.129.3a2.974 2.974 0 002.671 1.962 2.974 2.974 0 002.666-1.959l.13-.3.161-.381.354.208 1.1.644.274.161-.125.292-.129.3a4.9 4.9 0 01-4.431 3.195zm-11.115 0a4.9 4.9 0 01-4.432-3.192l-.129-.308-.124-.288.274-.161 1.1-.644.35-.207.161.378.129.3a2.974 2.974 0 002.671 1.962 2.974 2.974 0 002.67-1.959l.129-.3.161-.381.355.208 1.1.643.274.161-.129.288-.13.3a4.9 4.9 0 01-4.43 3.2z" fill="#c9cfd7"/></g><circle data-name="Ellipse 25" cx="2.386" cy="2.386" r="2.386" transform="translate(0 31.81)" fill="#b3c3cd"/><circle data-name="Ellipse 28" cx="2.386" cy="2.386" r="2.386" transform="translate(81.91 62.824)" fill="#b3c3cd"/><g data-name="Ellipse 26" transform="translate(14.314 6.362)" fill="none" stroke="#bdc1c3"><circle cx="2.386" cy="2.386" r="2.386" stroke="none"/><circle cx="2.386" cy="2.386" r="1.886"/></g><g data-name="Ellipse 27" transform="translate(73.163)" fill="none" stroke="#bdc1c3"><circle cx="2.386" cy="2.386" r="2.386" stroke="none"/><circle cx="2.386" cy="2.386" r="1.886"/></g><path data-name="Path 9648" d="M14.314 60.996h-1.828v1.828h-.61v-1.828h-1.829v-.61h1.829v-1.829h.61v1.829h1.828z" fill="#d2d7d9"/><g data-name="add-plus-button"><g data-name="add"><path data-name="Path 9648" d="M46.919 11.691h-1.828v1.828h-.61v-1.828h-1.829v-.61h1.829V9.252h.61v1.829h1.828z" fill="#d2d7d9"/></g></g><g data-name="add-plus-button"><g data-name="add"><path data-name="Path 9648" d="M101.791 38.729h-1.828v1.828h-.61v-1.828h-1.829v-.61h1.829V36.29h.61v1.829h1.828z" fill="#d2d7d9"/></g></g></svg>