<svg xmlns="http://www.w3.org/2000/svg" width="18" height="18" viewBox="0 0 18 18"><defs><style>.a{fill:#e24848;}</style></defs><g transform="translate(0 -0.85)"><g transform="translate(0 0.85)"><path class="a" d="M8.97,17.35H2.243A.749.749,0,0,1,1.5,16.6V3.1a.749.749,0,0,1,.747-.75H8.97a.75.75,0,0,0,0-1.5H2.243A2.249,2.249,0,0,0,0,3.1V16.6a2.249,2.249,0,0,0,2.243,2.25H8.97a.75.75,0,0,0,0-1.5Z" transform="translate(0 -0.85)"/></g><g transform="translate(5.98 4.618)"><path class="a" d="M181.9,111.865l-4.545-4.485a.747.747,0,1,0-1.049,1.064l3.248,3.205h-8.7a.748.748,0,0,0,0,1.5h8.7L176.3,116.35a.747.747,0,1,0,1.049,1.064l4.545-4.485a.747.747,0,0,0,0-1.064Z" transform="translate(-170.1 -107.165)"/></g></g></svg>