<svg xmlns="http://www.w3.org/2000/svg" xmlns:xlink="http://www.w3.org/1999/xlink" width="36.297" height="31.833" viewBox="0 0 36.297 31.833">
  <defs>
    <filter id="Path_13786" x="0" y="0" width="36.297" height="31.833" filterUnits="userSpaceOnUse">
      <feOffset dy="3" input="SourceAlpha"/>
      <feGaussianBlur stdDeviation="3" result="blur"/>
      <feFlood flood-opacity="0.451"/>
      <feComposite operator="in" in2="blur"/>
      <feComposite in="SourceGraphic"/>
    </filter>
  </defs>
  <g id="noun_Audio_3408360" transform="translate(6.5 -8)">
    <g id="Group_15648" data-name="Group 15648" transform="translate(2.5 14)">
      <g transform="matrix(1, 0, 0, 1, -9, -6)" filter="url(#Path_13786)">
        <path id="Path_13786-2" data-name="Path 13786" d="M18.3,21.657v-.981a6.657,6.657,0,1,0-13.314,0v.981a2.728,2.728,0,0,0,.25,5.445h.25v.1a.641.641,0,0,0,.635.635h.5a.641.641,0,0,0,.635-.635V21.542a.641.641,0,0,0-.635-.635H6.386v-.231a5.252,5.252,0,0,1,10.5,0v.231H16.66a.641.641,0,0,0-.635.635V27.2a.641.641,0,0,0,.635.635h.5A.641.641,0,0,0,17.8,27.2v-.1h.269A2.73,2.73,0,0,0,20.8,24.37,2.769,2.769,0,0,0,18.3,21.657Z" transform="translate(6.5 -8)" fill="#fff"/>
      </g>
    </g>
  </g>
</svg>
