
<svg version="1.2" baseProfile="tiny-ps" xmlns="http://www.w3.org/2000/svg" viewBox="0 0 25 25" width="25" height="25">
	<path class="plus" fill="#ffffff" d="M17.39 1.78C17.31 1.78 17.24 1.81 17.18 1.84C17.11 1.87 17.06 1.92 17.01 1.97C16.96 2.03 16.92 2.09 16.9 2.16C16.87 2.23 16.86 2.3 16.86 2.38L16.86 5.95L13.23 5.95C13.06 5.93 12.89 6 12.77 6.12C12.64 6.24 12.58 6.4 12.59 6.57C12.59 6.75 12.68 6.9 12.81 7.01C12.94 7.12 13.12 7.17 13.29 7.14L16.86 7.14L16.86 10.71C16.84 10.88 16.89 11.05 17 11.18C17.12 11.31 17.28 11.38 17.45 11.38C17.62 11.38 17.79 11.31 17.9 11.18C18.02 11.05 18.07 10.88 18.05 10.71L18.05 7.14L21.62 7.14C21.79 7.16 21.96 7.11 22.09 7C22.22 6.88 22.29 6.72 22.29 6.55C22.29 6.38 22.22 6.21 22.09 6.1C21.96 5.98 21.79 5.93 21.62 5.95L18.05 5.95L18.05 2.38C18.05 2.3 18.03 2.21 18 2.14C17.96 2.06 17.91 1.99 17.85 1.93C17.79 1.88 17.72 1.83 17.64 1.81C17.56 1.78 17.47 1.77 17.39 1.78L17.39 1.78Z" />
	<path fill="#ffffff" d="M4.05 2.47L1.11 5.49C1 5.61 0.9 5.74 0.82 5.88C0.74 6.01 0.67 6.16 0.62 6.31C0.56 6.46 0.52 6.61 0.5 6.77C0.47 6.93 0.46 7.09 0.47 7.25C0.47 9.66 2.47 13.54 5.96 17.03C9.46 20.53 13.34 22.53 15.75 22.53C15.91 22.54 16.07 22.53 16.23 22.5C16.39 22.48 16.54 22.44 16.69 22.38C16.84 22.33 16.99 22.26 17.12 22.18C17.26 22.1 17.39 22 17.51 21.89L20.53 18.95L15.75 14.17L12.89 16.8C12.54 16.61 12.2 16.4 11.86 16.18C11.53 15.97 11.2 15.74 10.88 15.5C10.56 15.26 10.25 15.01 9.95 14.75C9.64 14.49 9.35 14.22 9.07 13.93C8.79 13.65 8.52 13.36 8.26 13.05C8 12.75 7.75 12.44 7.51 12.12C7.27 11.8 7.04 11.47 6.82 11.14C6.6 10.8 6.4 10.46 6.2 10.11L8.83 7.25L4.05 2.47Z" />
</svg>