<svg xmlns="http://www.w3.org/2000/svg" width="13.569" height="13.569" viewBox="0 0 13.569 13.569">
    <path  fill="#6a92c5" d="M12.018,96.647H1.559A1.556,1.556,0,0,1,0,95.093v-8.2A1.556,1.556,0,0,1,1.559,85.34H3.538a.424.424,0,0,1,0,.848H1.559a.708.708,0,0,0-.707.707v8.2a.708.708,0,0,0,.707.707h10.46a.708.708,0,0,0,.707-.707V90.287a.424.424,0,1,1,.848,0v4.806a1.556,1.556,0,0,1-1.555,1.555Zm0,0"
        transform="translate(-0.004 -83.078)" />
    <path  fill="#6a92c5" d="M128.427,9.039a.373.373,0,0,1-.093-.011.418.418,0,0,1-.33-.405V7.775a5.519,5.519,0,0,1,5.512-5.512h.141V.425a.424.424,0,0,1,.729-.294l3.675,3.816a.423.423,0,0,1,0,.588l-3.675,3.816a.424.424,0,0,1-.729-.294V6.22h-.672A4.638,4.638,0,0,0,128.814,8.8.437.437,0,0,1,128.427,9.039Zm5.089-5.929a4.672,4.672,0,0,0-4.629,4.082,5.482,5.482,0,0,1,4.1-1.82h1.1a.424.424,0,0,1,.424.424v1.21l2.662-2.765-2.662-2.765v1.21a.424.424,0,0,1-.424.424Zm0,0"
        transform="translate(-124.611 0)" />
</svg>