<svg xmlns="http://www.w3.org/2000/svg" width="19" height="19" viewBox="0 0 19 19"><g transform="translate(-46 -212)"><path class="group-mail-a" d="M9.5,0A9.5,9.5,0,1,1,0,9.5,9.5,9.5,0,0,1,9.5,0Z" transform="translate(46 212)"/><g transform="translate(50.557 163.044)"><g transform="translate(0 54.82)"><path class="group-mail-b" d="M1.009,57.366q.2.141,1.2.836t1.537,1.071L4,59.451q.191.138.317.223t.305.191a1.77,1.77,0,0,0,.337.158.929.929,0,0,0,.293.053h.012a.93.93,0,0,0,.293-.053,1.772,1.772,0,0,0,.337-.158q.179-.106.305-.191t.317-.223l.249-.179L9.51,57.366a2.787,2.787,0,0,0,.716-.722,1.549,1.549,0,0,0,.288-.886.947.947,0,0,0-.939-.939H.939a.838.838,0,0,0-.7.305A1.184,1.184,0,0,0,0,55.888a1.37,1.37,0,0,0,.323.8A2.912,2.912,0,0,0,1.009,57.366Z" transform="translate(0 -54.82)"/><path class="group-mail-b" d="M9.926,184.947Q8,186.25,7,186.971q-.334.246-.543.384a3.35,3.35,0,0,1-.554.282,1.688,1.688,0,0,1-.645.144H5.25a1.689,1.689,0,0,1-.645-.144,3.351,3.351,0,0,1-.554-.282q-.208-.138-.543-.384-.792-.581-2.916-2.024a3.107,3.107,0,0,1-.593-.51v4.658a.9.9,0,0,0,.276.663.9.9,0,0,0,.663.276H9.574a.941.941,0,0,0,.939-.939v-4.658A3.234,3.234,0,0,1,9.926,184.947Z" transform="translate(0 -181.774)"/></g></g></g></svg>
