<svg xmlns="http://www.w3.org/2000/svg" width="85" height="85" viewBox="0 0 85 85"><defs><style>.a{fill:#f3f7ff;}.b{opacity:0.75;}.c{fill:#c1d4f8;}.d{fill:#9dbafc;}.e{opacity:0.3;}</style></defs><g transform="translate(-17.871 -378.871)"><circle class="a" cx="42.5" cy="42.5" r="42.5" transform="translate(17.871 378.871)"/><g class="b" transform="translate(27.375 407.773)"><g transform="translate(5.034)"><path class="c" d="M117.743,0a6.952,6.952,0,1,0,6.952,6.952A6.97,6.97,0,0,0,117.743,0Z" transform="translate(-110.791)"/></g><g transform="translate(0 14.401)"><path class="d" d="M48.081,252.9a6.482,6.482,0,0,0-.7-1.275,8.641,8.641,0,0,0-5.98-3.764,1.279,1.279,0,0,0-.88.213,7.41,7.41,0,0,1-8.743,0,1.139,1.139,0,0,0-.88-.213,8.578,8.578,0,0,0-5.98,3.764,7.473,7.473,0,0,0-.7,1.275.645.645,0,0,0,.03.577,12.107,12.107,0,0,0,.82,1.214,11.536,11.536,0,0,0,1.4,1.579,18.2,18.2,0,0,0,1.4,1.214,13.844,13.844,0,0,0,16.515,0,13.348,13.348,0,0,0,1.4-1.214,14.017,14.017,0,0,0,1.4-1.579,10.636,10.636,0,0,0,.82-1.214A.518.518,0,0,0,48.081,252.9Z" transform="translate(-24.165 -247.841)"/></g></g><g class="e" transform="translate(69.269 407.773)"><g transform="translate(5.034)"><path class="c" d="M117.743,0a6.952,6.952,0,1,0,6.952,6.952A6.97,6.97,0,0,0,117.743,0Z" transform="translate(-110.791)"/></g><g transform="translate(0 14.401)"><path class="d" d="M48.081,252.9a6.482,6.482,0,0,0-.7-1.275,8.641,8.641,0,0,0-5.98-3.764,1.279,1.279,0,0,0-.88.213,7.41,7.41,0,0,1-8.743,0,1.139,1.139,0,0,0-.88-.213,8.578,8.578,0,0,0-5.98,3.764,7.473,7.473,0,0,0-.7,1.275.645.645,0,0,0,.03.577,12.107,12.107,0,0,0,.82,1.214,11.536,11.536,0,0,0,1.4,1.579,18.2,18.2,0,0,0,1.4,1.214,13.844,13.844,0,0,0,16.515,0,13.348,13.348,0,0,0,1.4-1.214,14.017,14.017,0,0,0,1.4-1.579,10.636,10.636,0,0,0,.82-1.214A.518.518,0,0,0,48.081,252.9Z" transform="translate(-24.165 -247.841)"/></g></g><g transform="translate(41.227 399.938)"><g transform="translate(8.146)"><path class="c" d="M122.042,0a11.251,11.251,0,1,0,11.251,11.251A11.281,11.281,0,0,0,122.042,0Z" transform="translate(-110.791)"/></g><g transform="translate(0 23.307)"><path class="d" d="M62.871,256.027a10.492,10.492,0,0,0-1.13-2.064,13.985,13.985,0,0,0-9.679-6.092,2.071,2.071,0,0,0-1.425.344,11.993,11.993,0,0,1-14.15,0,1.844,1.844,0,0,0-1.425-.344,13.884,13.884,0,0,0-9.679,6.092,12.1,12.1,0,0,0-1.13,2.064,1.045,1.045,0,0,0,.049.934,19.6,19.6,0,0,0,1.327,1.965,18.679,18.679,0,0,0,2.26,2.555,29.454,29.454,0,0,0,2.26,1.965,22.405,22.405,0,0,0,26.728,0,21.6,21.6,0,0,0,2.26-1.965,22.691,22.691,0,0,0,2.26-2.555,17.225,17.225,0,0,0,1.327-1.965A.838.838,0,0,0,62.871,256.027Z" transform="translate(-24.165 -247.841)"/></g></g></g></svg>