<svg xmlns="http://www.w3.org/2000/svg" width="18.682" height="19.927" viewBox="0 0 18.682 19.927">
    <g transform="translate(-16)">
        <g transform="translate(20.359)">
            <path fill="#fff" d="M137.906,9.083a.621.621,0,0,0-.567-.365h-2.491V.623A.623.623,0,0,0,134.225,0h-2.491a.623.623,0,0,0-.623.623v8.1h-2.491a.622.622,0,0,0-.468,1.032l4.359,4.982a.621.621,0,0,0,.937,0l4.359-4.982A.621.621,0,0,0,137.906,9.083Z"
                transform="translate(-127.998)" />
        </g>
        <g transform="translate(16 13.7)">
            <path fill="#fff" d="M32.191,352v3.736h-13.7V352H16v4.982a1.245,1.245,0,0,0,1.245,1.245H33.436a1.244,1.244,0,0,0,1.245-1.245V352Z"
                transform="translate(-16 -352)" />
        </g>
    </g>
</svg>