<svg xmlns="http://www.w3.org/2000/svg" width="24" height="24" viewBox="0 0 24 24"><defs><style>.a{fill:none;}.b,.c{fill:#bac0c2;}.c{stroke:#bac0c2;stroke-width:0.4px;}</style></defs><g transform="translate(-285 -23)"><rect fill="none" width="24" height="24" transform="translate(285 23)"/><g transform="translate(-2459 50.975)"><path fill="#bac0c2" d="M309.478,63.872H307.39V61.784a.759.759,0,1,0-1.518,0v2.088h-2.088a.759.759,0,0,0,0,1.518h2.088v2.088a.759.759,0,1,0,1.518,0V65.39h2.088a.759.759,0,0,0,0-1.518Z" transform="translate(2455.579 -87)"/><g transform="translate(2746 -24.975)"><path fill="#bac0c2" stroke="#bac0c2" stroke-width="0.4px" d="M4.646,195.05a.6.6,0,0,0,.244.047.63.63,0,0,0,.427-.17l4.253-4.07h8a3.013,3.013,0,0,0,3.011-3.011v-4.538a.617.617,0,1,0-1.234,0v4.538a1.779,1.779,0,0,1-1.777,1.777H9.319a.63.63,0,0,0-.427.17L5.5,193.035v-2.788a.619.619,0,0,0-.617-.617H3.011a1.779,1.779,0,0,1-1.777-1.777v-8.885a1.785,1.785,0,0,1,1.777-1.784h7.278a.617.617,0,0,0,0-1.234H3.011A3.013,3.013,0,0,0,0,178.961v8.885a3.013,3.013,0,0,0,3.011,3.011H4.273v3.629A.616.616,0,0,0,4.646,195.05Z" transform="translate(0 -175.95)"/></g></g></g></svg>