<svg xmlns="http://www.w3.org/2000/svg" width="23.668" height="23.173" viewBox="0 0 23.668 23.173"><defs><style>.a{fill:#d9d9d9;}.b{fill:#333;}</style></defs><g transform="translate(-112.455 -414.488)"><path fill="#d9d9d9" d="M2146.369,642.6v13.347l3.8,1.257.877,4.062,5.457-4.062,11.444-.717s.792-7.243-2.28-7.243c-1.9-.22-6.827-1.227-6.827-5.053,0-4.931-10.289-2.6-11.664-2.245S2146.369,642.6,2146.369,642.6Z" transform="translate(-2033 -225)"/><g transform="translate(-2633.545 440.463)"><path fill="#333" d="M310.447,64.3h-2.4V61.9a.873.873,0,1,0-1.746,0v2.4h-2.4a.873.873,0,0,0,0,1.746h2.4v2.4a.873.873,0,1,0,1.746,0v-2.4h2.4a.873.873,0,0,0,0-1.746Z" transform="translate(2457.472 -87)"/><g transform="translate(2746 -24.824)"><path fill="#333" d="M5.344,197.918a.694.694,0,0,0,.281.055.724.724,0,0,0,.491-.2l4.891-4.681h9.2a3.466,3.466,0,0,0,3.464-3.464v-5.219a.71.71,0,0,0-1.42,0v5.219a2.046,2.046,0,0,1-2.044,2.044H10.719a.724.724,0,0,0-.491.2l-3.9,3.729v-3.206a.712.712,0,0,0-.71-.71H3.464a2.046,2.046,0,0,1-2.044-2.044V179.421a2.053,2.053,0,0,1,2.044-2.052h8.371a.71.71,0,0,0,0-1.42H3.464A3.466,3.466,0,0,0,0,179.414v10.219A3.466,3.466,0,0,0,3.464,193.1H4.915v4.174A.708.708,0,0,0,5.344,197.918Z" transform="translate(0 -175.95)"/></g></g></g></svg>