<svg xmlns="http://www.w3.org/2000/svg" width="76" height="86" viewBox="0 0 76 86"><defs><style>.a,.b,.c{fill:#ebf1ff;}.a,.b{stroke:#c1d4f8;}.a{opacity:0.26;}.d{fill:#9dbafc;}.e{stroke:none;}.f{fill:none;}</style></defs><g transform="translate(-99.606 -229.836)"><g class="a" transform="translate(110.606 232.836)"><rect class="e" width="65" height="83" rx="10"/><rect class="f" x="0.5" y="0.5" width="64" height="82" rx="9.5"/></g><g class="b" transform="translate(106.606 229.836)"><rect class="e" width="66" height="82" rx="10"/><rect class="f" x="0.5" y="0.5" width="65" height="81" rx="9.5"/></g><g class="b" transform="translate(99.606 239.836)"><rect class="e" width="16" height="9" rx="4.5"/><rect class="f" x="0.5" y="0.5" width="15" height="8" rx="4"/></g><g class="b" transform="translate(99.606 252.836)"><rect class="e" width="16" height="10" rx="5"/><rect class="f" x="0.5" y="0.5" width="15" height="9" rx="4.5"/></g><g class="b" transform="translate(99.606 279.836)"><rect class="e" width="16" height="9" rx="4.5"/><rect class="f" x="0.5" y="0.5" width="15" height="8" rx="4"/></g><g class="b" transform="translate(99.606 294.836)"><rect class="e" width="16" height="9" rx="4.5"/><rect class="f" x="0.5" y="0.5" width="15" height="8" rx="4"/></g><g transform="translate(122.37 250.519)"><path class="c" d="M15.929,31.74l-5.595,3.052a5.028,5.028,0,0,0-.9.639,18.738,18.738,0,0,0,24.076.062,4.964,4.964,0,0,0-.986-.661l-5.991-3a2.285,2.285,0,0,1-1.263-2.043v-2.35a9.048,9.048,0,0,0,.567-.729A13.785,13.785,0,0,0,27.7,22.961a1.882,1.882,0,0,0,1.334-1.79V18.662a1.873,1.873,0,0,0-.627-1.39V13.645S29.154,8,21.511,8s-6.9,5.644-6.9,5.644v3.627a1.87,1.87,0,0,0-.627,1.39v2.509a1.881,1.881,0,0,0,.867,1.579,12.451,12.451,0,0,0,2.268,4.693v2.292A2.287,2.287,0,0,1,15.929,31.74Z" transform="translate(-2.76 -2.34)"/><g transform="translate(0 0)"><path class="d" d="M19.07,0A18.738,18.738,0,0,0,6.685,33.085a4.982,4.982,0,0,1,.889-.633L13.169,29.4a2.285,2.285,0,0,0,1.191-2.006V25.1a12.439,12.439,0,0,1-2.268-4.693,1.882,1.882,0,0,1-.867-1.579V16.322a1.873,1.873,0,0,1,.627-1.39V11.3s-.745-5.644,6.9-5.644,6.9,5.644,6.9,5.644v3.627a1.87,1.87,0,0,1,.627,1.39v2.509a1.882,1.882,0,0,1-1.334,1.79,13.785,13.785,0,0,1-1.862,3.753,9.048,9.048,0,0,1-.567.729v2.35A2.284,2.284,0,0,0,23.774,29.5l5.991,3a4.988,4.988,0,0,1,.983.659A18.746,18.746,0,0,0,19.07,0Z" transform="translate(0 0)"/></g></g></g></svg>