<svg xmlns="http://www.w3.org/2000/svg" width="23.969" height="11.607" viewBox="0 0 23.969 11.607"><defs><style>.avideo{fill:none;stroke-width:1px;}.avideo,.bvideo{stroke:#47c06a;}.bvideo12{fill:#47c06a;stroke-width:0.3px;}</style></defs><g transform="translate(-177.601 -193.641)"><g transform="translate(5 34)"><line class="avideo" y1="2.387" x2="2.387" transform="translate(194.382 163.5) rotate(45)"/><line class="avideo" y1="2.387" x2="2.387" transform="translate(194.575 162.382) rotate(180)"/><line class="avideo" y1="2.387" x2="2.387" transform="translate(194.575 167.995) rotate(90)"/></g><g transform="translate(-139 52)"><path class="bvideo12" d="M337.893,170H326.729a1.389,1.389,0,0,0-1.4,1.384v8.3a1.389,1.389,0,0,0,1.4,1.384h11.164a1.389,1.389,0,0,0,1.4-1.384v-8.3A1.389,1.389,0,0,0,337.893,170Z" transform="translate(-8.582 -27.972)"/><path class="bvideo12" d="M341.992,170.779a.692.692,0,0,0-.443.162l-3.042,2.514v4.151l3.042,2.514a.7.7,0,0,0,1.144-.531v-8.116A.7.7,0,0,0,341.992,170.779Z" transform="translate(-8.498 -27.966)"/></g></g></svg>