<svg xmlns="http://www.w3.org/2000/svg" width="26.7" height="23.076" viewBox="0 0 26.7 23.076">
    <g data-name="Group 15787">
        <g data-name="Group 15788">
            <g data-name="noun_Add User_368922">
                <path data-name="Path 13836"
                    d="M7.4 19.59a3.191 3.191 0 011.231-2.538 31.255 31.255 0 015.127-3.217.207.207 0 00.1-.151v-1.407a5.353 5.353 0 01-.653-1.935c-.226-.025-.5-.327-.8-1.407-.427-1.483.025-1.709.4-1.659a3.882 3.882 0 01-.1-2.262 4.3 4.3 0 011.156-2.01 5.771 5.771 0 011.055-.88 3.63 3.63 0 011.03-.528 2.905 2.905 0 01.93-.176 3.807 3.807 0 012.362.5 2.938 2.938 0 011.156 1.081s2.086.151 1.181 4.549c.276.1.477.477.151 1.633-.4 1.432-.779 1.508-.98 1.357a5.145 5.145 0 01-.477 1.533v1.633a.138.138 0 00.1.151 31.377 31.377 0 015.1 3.192A3.228 3.228 0 0126.7 19.59v1.131a.955.955 0 01-.955.955H8.355a.955.955 0 01-.955-.955V19.59z"
                    fill="#fff" />
            </g>
        </g>
        <g data-name="Group 15787">
            <g data-name="noun_Add User_368922">
                <g data-name="Path 13836" fill="#fff">
                    <path
                        d="M19.745 22.376H2.355A1.657 1.657 0 01.7 20.721v-1.13c0-1.226.548-2.353 1.503-3.093 1.445-1.13 3.196-2.24 4.956-3.144v-.891a5.793 5.793 0 01-.582-1.663c-.424-.349-.667-1.02-.85-1.674-.286-.997-.264-1.668.07-2.112.05-.066.104-.124.164-.176a4.68 4.68 0 01.061-1.988c.263-1.083.867-1.865 1.332-2.332a6.423 6.423 0 011.156-.966c.35-.26.758-.468 1.213-.62A3.65 3.65 0 0110.84.721c.154-.014.309-.021.46-.021.82 0 1.589.206 2.283.614a3.835 3.835 0 011.248 1.08c.283.1.672.31 1.007.752.662.874.83 2.267.5 4.143.101.14.186.323.228.564.068.388.013.886-.167 1.523-.204.728-.506 1.544-1.07 1.823-.089.36-.21.708-.361 1.036v1.144c1.759.902 3.5 2.003 4.933 3.121a3.928 3.928 0 011.5 3.09v1.131c0 .913-.742 1.655-1.655 1.655z" />
                    <path
                        d="M19.745 21.676a.955.955 0 00.955-.955v-1.13c0-.981-.452-1.936-1.231-2.54-2.287-1.783-4.599-2.94-5.102-3.19-.075-.026-.1-.076-.1-.151v-1.634c.251-.503.402-1.03.477-1.533.201.15.578.075.98-1.357.327-1.156.126-1.533-.15-1.634.904-4.397-1.181-4.548-1.181-4.548s-.327-.628-1.156-1.08c-.553-.328-1.332-.604-2.363-.503-.326 0-.628.075-.93.175a3.63 3.63 0 00-1.03.528 5.77 5.77 0 00-1.055.88c-.503.502-.955 1.181-1.156 2.01-.176.73-.176 1.483.1 2.262-.377-.05-.83.176-.402 1.659.302 1.08.578 1.382.804 1.407.1.628.277 1.307.654 1.935v1.407c0 .05-.05.126-.1.151-.504.251-2.816 1.407-5.128 3.217A3.191 3.191 0 001.4 19.59v1.131c0 .528.427.955.955.955h17.39m0 1.4H2.355A2.358 2.358 0 010 20.721v-1.13c0-1.443.646-2.77 1.771-3.644A31.905 31.905 0 016.46 12.93v-.293a6.413 6.413 0 01-.522-1.48c-.526-.564-.759-1.395-.883-1.84-.22-.764-.437-1.868.165-2.697a5.431 5.431 0 01.123-1.933A5.688 5.688 0 016.85 2.032 7.093 7.093 0 018.107.98c.407-.3.876-.539 1.395-.712.33-.11.774-.236 1.3-.247.167-.014.333-.021.496-.021a5.14 5.14 0 012.63.706c.633.35 1.065.773 1.338 1.107.387.174.793.466 1.129.91.75.992.976 2.48.673 4.43.087.176.15.37.186.58.088.5.03 1.083-.182 1.834-.185.658-.392 1.156-.632 1.519-.16.24-.332.42-.505.551a6.4 6.4 0 01-.268.747v.57a31.9 31.9 0 014.66 2.992A4.634 4.634 0 0122.1 19.59v1.131a2.358 2.358 0 01-2.355 2.355z"
                        fill="#0c121e" />
                </g>
            </g>
        </g>
    </g>
</svg>