<svg xmlns="http://www.w3.org/2000/svg" width="23" height="23" viewBox="0 0 23 23">
    <g data-name="Group 277">
        <path data-name="Rectangle 188" fill="rgba(139,68,68,0)" d="M0 0h23v23H0z" />
    </g>
    <g data-name="forward">
        <path data-name="Path 1555"
            d="M13.388 1.193a.8.8 0 00-1.358.565v4.253c-4.3.171-6.456 1.956-6.785 2.253a12.087 12.087 0 00-4.19 7.025 12.384 12.384 0 00-.142 4.048c0 .012 0 .024.005.036l.169.974a.8.8 0 001.468.273l.507-.846a11.191 11.191 0 015.772-5.109 8.359 8.359 0 013.2-.469v4.405a.8.8 0 001.361.562l8.417-8.467a.8.8 0 000-1.127z"
            fill="#fff" />
    </g>
</svg>