<svg fill= "#363636" xmlns="http://www.w3.org/2000/svg" width="13.247" height="18.738" viewBox="0 0 13.247 18.738">
    <path  stroke="#363636" stroke-width="0.2px" d="M286.688,622.657V620.18a6.448,6.448,0,0,1-6.022-6.352.5.5,0,0,1,1,0,5.521,5.521,0,0,0,11.04,0,.5.5,0,0,1,1,0,6.431,6.431,0,0,1-6.021,6.352v2.477m3.262-14.96v6.131a3.764,3.764,0,0,1-7.527,0V607.7a3.764,3.764,0,0,1,7.527,0Zm-1,0a2.761,2.761,0,0,0-5.52,0v6.131a2.761,2.761,0,0,0,5.52,0Z"
        transform="translate(-280.567 -603.919)" />
</svg>