<svg height="24" width="24" viewBox="0 0 32 32"><path d="M16 12c-2.125 0-4.188.313-6.125.938v4.125c0 .5-.313 1.063-.75 1.25a13.87 13.87 0 00-3.563 2.438c-.25.25-.563.375-.938.375s-.688-.125-.938-.375L.373 17.438c-.25-.25-.375-.563-.375-.938s.125-.688.375-.938c4.063-3.875 9.563-6.25 15.625-6.25s11.563 2.375 15.625 6.25c.25.25.375.563.375.938s-.125.688-.375.938l-3.313 3.313c-.25.25-.563.375-.938.375s-.688-.125-.938-.375a13.87 13.87 0 00-3.563-2.438c-.438-.188-.75-.625-.75-1.188V13c-1.938-.625-4-1-6.125-1z"></path></svg>