<svg xmlns="http://www.w3.org/2000/svg" width="72" height="68" viewBox="0 0 38 34">
    <rect fill="#959595" width="72" height="68" rx="2" />
    <path fill="#fff"
        d="M27.229 25.917H16.44a.792.792 0 01-.771-.81v-3.176a.8.8 0 00.771.743h7.706a.812.812 0 000-1.621H16.44a.791.791 0 00-.771.743v-3.107a.8.8 0 00.771.743h7.706a.812.812 0 000-1.621H16.44a.791.791 0 00-.771.743v-3.109a.8.8 0 00.771.744h7.706a.812.812 0 000-1.622H16.44a.791.791 0 00-.771.744v-3.108a.8.8 0 00.771.743h7.706a.812.812 0 000-1.621H16.44a.791.791 0 00-.771.743V8.894a.792.792 0 01.771-.811h10.789a.793.793 0 01.772.811v16.213a.793.793 0 01-.772.81z" />
    <path fill="#e4e8ee"
        d="M20.66 5.187a.5.5 0 00-.5-.171l-9.67 2.4a.774.774 0 00-.49.789v17.6a.773.773 0 00.493.786l9.67 2.4a.442.442 0 00.111.014.521.521 0 00.386-.184.919.919 0 00.219-.616v-22.4a.915.915 0 00-.219-.618z" />
    </svg>