<svg xmlns="http://www.w3.org/2000/svg" width="13" height="13" viewBox="0 0 13 13">
  <g id="Group_9076" data-name="Group 9076" transform="translate(-2626 -1597)">
    <g id="Path_11025" data-name="Path 11025" transform="translate(2626 1597)" fill="#fff" opacity="0">
      <path d="M 12.5 12.5 L 0.5 12.5 L 0.5 0.5 L 12.5 0.5 L 12.5 12.5 Z" stroke="none"/>
      <path d="M 1 1 L 1 12 L 12 12 L 12 1 L 1 1 M 0 0 L 13 0 L 13 13 L 0 13 L 0 0 Z" stroke="none" fill="#707070"/>
    </g>
    <path id="Path_11024" data-name="Path 11024" d="M8372.21-1415.456a.519.519,0,0,1-.52-.519.519.519,0,0,1,.52-.517h3.71a2.736,2.736,0,0,0,2.732-2.732,2.736,2.736,0,0,0-2.732-2.732h-7.262l1.878,2.149a.519.519,0,0,1-.048.732.519.519,0,0,1-.341.128.519.519,0,0,1-.392-.179l-2.629-3.007a.567.567,0,0,1-.037-.049l0,0-.008-.012-.007-.011a.007.007,0,0,1,0,0,.513.513,0,0,1-.071-.261.52.52,0,0,1,.138-.352l2.619-3a.52.52,0,0,1,.732-.048.519.519,0,0,1,.048.732l-1.876,2.147h7.26a3.773,3.773,0,0,1,3.769,3.769,3.773,3.773,0,0,1-3.769,3.769Z" transform="translate(-5740.999 3024)" fill="#fff"/>
  </g>
</svg>
