<svg xmlns="http://www.w3.org/2000/svg" width="43" height="43" viewBox="0 0 43 43"><defs><style>.a{fill:#f3f7ff;}.b{opacity:0.75;}.c{fill:#c1d4f8;}.d{fill:#9dbafc;}.e{opacity:0.3;}</style></defs><g transform="translate(-18 -379)"><circle class="a" cx="21.5" cy="21.5" r="21.5" transform="translate(18 379)"/><g class="b" transform="translate(22.761 393.601)"><g transform="translate(2.554)"><path class="c" d="M114.318,0a3.527,3.527,0,1,0,3.527,3.527A3.536,3.536,0,0,0,114.318,0Z" transform="translate(-110.791)"/></g><g transform="translate(0 7.306)"><path class="d" d="M36.3,250.407a3.288,3.288,0,0,0-.354-.647,4.384,4.384,0,0,0-3.034-1.91.649.649,0,0,0-.447.108,3.759,3.759,0,0,1-4.436,0,.578.578,0,0,0-.447-.108,4.352,4.352,0,0,0-3.034,1.91,3.792,3.792,0,0,0-.354.647.328.328,0,0,0,.015.293,6.142,6.142,0,0,0,.416.616,5.855,5.855,0,0,0,.708.8,9.23,9.23,0,0,0,.708.616,7.023,7.023,0,0,0,8.378,0,6.771,6.771,0,0,0,.708-.616,7.113,7.113,0,0,0,.708-.8,5.4,5.4,0,0,0,.416-.616A.263.263,0,0,0,36.3,250.407Z" transform="translate(-24.165 -247.841)"/></g></g><g class="e" transform="translate(44.014 393.601)"><g transform="translate(2.554)"><path class="c" d="M114.318,0a3.527,3.527,0,1,0,3.527,3.527A3.536,3.536,0,0,0,114.318,0Z" transform="translate(-110.791)"/></g><g transform="translate(0 7.306)"><path class="d" d="M36.3,250.407a3.288,3.288,0,0,0-.354-.647,4.384,4.384,0,0,0-3.034-1.91.649.649,0,0,0-.447.108,3.759,3.759,0,0,1-4.436,0,.578.578,0,0,0-.447-.108,4.352,4.352,0,0,0-3.034,1.91,3.792,3.792,0,0,0-.354.647.328.328,0,0,0,.015.293,6.142,6.142,0,0,0,.416.616,5.855,5.855,0,0,0,.708.8,9.23,9.23,0,0,0,.708.616,7.023,7.023,0,0,0,8.378,0,6.771,6.771,0,0,0,.708-.616,7.113,7.113,0,0,0,.708-.8,5.4,5.4,0,0,0,.416-.616A.263.263,0,0,0,36.3,250.407Z" transform="translate(-24.165 -247.841)"/></g></g><g transform="translate(29.788 389.626)"><g transform="translate(4.133)"><path class="c" d="M116.5,0a5.708,5.708,0,1,0,5.708,5.708A5.723,5.723,0,0,0,116.5,0Z" transform="translate(-110.791)"/></g><g transform="translate(0 11.824)"><path class="d" d="M43.8,251.994a5.322,5.322,0,0,0-.573-1.047,7.1,7.1,0,0,0-4.91-3.091,1.051,1.051,0,0,0-.723.175,6.084,6.084,0,0,1-7.179,0,.935.935,0,0,0-.723-.175,7.043,7.043,0,0,0-4.91,3.091,6.137,6.137,0,0,0-.573,1.047.53.53,0,0,0,.025.474,9.943,9.943,0,0,0,.673,1,9.475,9.475,0,0,0,1.147,1.3,14.941,14.941,0,0,0,1.147,1,11.367,11.367,0,0,0,13.56,0,10.959,10.959,0,0,0,1.147-1,11.512,11.512,0,0,0,1.147-1.3,8.738,8.738,0,0,0,.673-1A.425.425,0,0,0,43.8,251.994Z" transform="translate(-24.165 -247.841)"/></g></g></g></svg>