<svg xmlns="http://www.w3.org/2000/svg" width="150" height="150" viewBox="0 0 150 150"><defs><style>.a{fill:#f3f7ff;}.b{fill:#c1d4f8;}.c{fill:#9dbafc;}</style></defs><g transform="translate(-609 -186)"><circle class="a" cx="75" cy="75" r="75" transform="translate(609 186)"/><g transform="translate(629.835 227.346)"><g transform="translate(36.123)"><path class="b" d="M127.837,0a17.046,17.046,0,1,0,17.046,17.046A17.091,17.091,0,0,0,127.837,0Z" transform="translate(-110.791)"/></g><g transform="translate(24.165 34.658)"><g transform="translate(0)"><path class="c" d="M82.041,260.243a15.956,15.956,0,0,0-1.69-3.126,20.882,20.882,0,0,0-14.472-9.23,3.065,3.065,0,0,0-2.13.521,17.744,17.744,0,0,1-21.158,0,2.729,2.729,0,0,0-2.13-.521,20.731,20.731,0,0,0-14.472,9.23,18.4,18.4,0,0,0-1.69,3.126,1.6,1.6,0,0,0,.073,1.414,29.722,29.722,0,0,0,1.984,2.978,28.174,28.174,0,0,0,3.379,3.871,44.208,44.208,0,0,0,3.379,2.977,33.151,33.151,0,0,0,39.965,0,32.427,32.427,0,0,0,3.379-2.977,34.233,34.233,0,0,0,3.379-3.871,26.118,26.118,0,0,0,1.984-2.978A1.283,1.283,0,0,0,82.041,260.243Z" transform="translate(-24.165 -247.841)"/></g></g></g></g></svg>