<svg xmlns="http://www.w3.org/2000/svg" fill="#383636" width="14.781" height="19"><path d="M5.803 1.147h3.175v.534h1.147v-.609A1.073 1.073 0 009.053 0H5.727a1.073 1.073 0 00-1.072 1.072v.609h1.147zm0 0M12.773 6.225H2.012a.505.505 0 00-.5.546l.9 11.129A1.2 1.2 0 003.603 19h7.59a1.2 1.2 0 001.191-1.1l.9-11.129a.5.5 0 00-.5-.546zM4.612 17.813h-.036a.573.573 0 01-.572-.538L3.44 8.138a.574.574 0 111.145-.071l.564 9.136a.573.573 0 01-.537.61zm3.356-.572a.574.574 0 01-1.147 0V8.104a.574.574 0 011.147 0zm3.368-9.1l-.539 9.137a.573.573 0 01-.572.54h-.034a.573.573 0 01-.539-.606l.538-9.137a.574.574 0 111.145.068zm0 0M14.757 4.456l-.377-1.129a.729.729 0 00-.692-.5H1.093a.729.729 0 00-.692.5L.025 4.456a.474.474 0 00.449.623h13.834a.467.467 0 00.25-.072.472.472 0 00.2-.55zm0 0"/></svg>