<svg xmlns="http://www.w3.org/2000/svg" width="25.249" height="25.236" viewBox="0 0 25.249 25.236"><path fill="#363636" d="M0,12.618A12.625,12.625,0,1,1,12.625,25.236,12.635,12.635,0,0,1,0,12.618Zm1.1,0A11.527,11.527,0,1,0,12.625,1.1,11.537,11.537,0,0,0,1.1,12.618Zm6.177,3.658a.549.549,0,0,1,.818-.733,6.109,6.109,0,0,0,9.062,0,.549.549,0,1,1,.818.733,7.208,7.208,0,0,1-10.7,0Zm8.1-5.854a1.643,1.643,0,1,1,1.643,1.643A1.643,1.643,0,0,1,15.372,10.422Zm-8.781,0a1.643,1.643,0,1,1,1.643,1.643A1.643,1.643,0,0,1,6.591,10.422Z"/></svg>