<svg xmlns="http://www.w3.org/2000/svg" width="14.8" height="12.8" viewBox="0 0 14.8 12.8"><g transform="translate(-22.1 -62.1)"><path fill="none" stroke="#3d71b4" stroke-width="0.8px" d="M238.082,203.367H236.4a.629.629,0,0,1-.553-.427l-.434-1.4a.629.629,0,0,0-.553-.427H230.1a.628.628,0,0,0-.553.427l-.434,1.4a.629.629,0,0,1-.553.427h-1.68a1.457,1.457,0,0,0-1.4,1.5v6.75a1.457,1.457,0,0,0,1.4,1.5h11.2a1.457,1.457,0,0,0,1.4-1.5v-6.75A1.457,1.457,0,0,0,238.082,203.367Z" transform="translate(-202.982 -138.617)"/><g fill="none" stroke="#3d71b4" stroke-width="0.8px" transform="translate(26.8 66)"><circle stroke="none" cx="3" cy="3" r="3"/><circle fill="none" cx="3" cy="3" r="2.6"/></g></g></svg>