<svg xmlns="http://www.w3.org/2000/svg" width="14" height="14" viewBox="0 0 14 14"><g transform="translate(-8.5 -8.825)"><g fill="none" stroke="#3d71b4" stroke-width="0.75px" transform="translate(8.5 8.825)"><rect fill="none" stroke="none" width="14" height="14" rx="2"/><rect class="d" x="0.375" y="0.375" width="13.25" height="13.25" rx="1.625"/></g><path fill="#3d71b4" d="M206.647,170.191a.366.366,0,0,0-.6,0l-2.409,3.072a.553.553,0,0,0,.021.689.362.362,0,0,0,.576-.024l1.69-2.164V177.1a.417.417,0,1,0,.822,0v-5.334l1.7,2.164a.392.392,0,0,0,.3.156.376.376,0,0,0,.279-.132.553.553,0,0,0,.021-.689Zm0,0" transform="translate(-190.528 -158.233)"/></g></svg>