
<svg xmlns="http://www.w3.org/2000/svg" width="88.747" height="88.747" viewBox="0 0 88.747 88.747">
  <g id="Group_626" data-name="Group 626" transform="translate(0 0)">
    <path id="Forma_1" data-name="Forma 1" d="M44.381.008A44.374,44.374,0,1,0,88.755,44.381,44.375,44.375,0,0,0,44.381.008Zm0,13.268A14.678,14.678,0,1,1,29.706,27.953,14.678,14.678,0,0,1,44.381,13.276Zm-.01,63.877a32.564,32.564,0,0,1-21.206-7.82,6.253,6.253,0,0,1-2.195-4.756,14.8,14.8,0,0,1,14.874-14.8h17.08a14.781,14.781,0,0,1,14.85,14.8,6.242,6.242,0,0,1-2.195,4.754A32.554,32.554,0,0,1,44.372,77.153Z" transform="translate(-0.008 -0.008)" fill="#dedede"/>
  </g>
</svg>
