<svg id="Video_disabled" data-name="Video disabled" xmlns="http://www.w3.org/2000/svg" width="18.758" height="17.139" viewBox="0 0 18.758 17.139">
  <path id="Subtraction_1" data-name="Subtraction 1" d="M2.4,11.712h-.92A1.472,1.472,0,0,1,0,10.248V1.464A1.472,1.472,0,0,1,1.476,0H13.251L2.4,11.711Zm10.89,0H4.75L14.684.992a1.45,1.45,0,0,1,.078.471V3.05L17.243,1a.731.731,0,0,1,.469-.171.74.74,0,0,1,.742.733v8.586a.74.74,0,0,1-.742.734.729.729,0,0,1-.469-.171l-2.48-2.049v1.586A1.472,1.472,0,0,1,13.287,11.711Z" transform="translate(0.304 2.648)" fill="#4879f9"/>
  <path id="Rounded_Rectangle_1" data-name="Rounded Rectangle 1" d="M88.749,522.512,74.125,538.787l-.951-.864L87.8,521.648" transform="translate(-73.174 -521.648)" fill="#4879f9"/>
</svg>
