<svg xmlns="http://www.w3.org/2000/svg" viewBox="0 0 25 25">
    <path fill="gray"
        d="M12.465,17a1.5,1.5,0,1,0,1.5,1.5A1.5,1.5,0,0,0,12.465,17Zm0,2a.5.5,0,1,1,.5-.5A.5.5,0,0,1,12.465,19Zm10.014-8.809a.5.5,0,0,1-.706-.036,12.5,12.5,0,0,0-18.617,0,.5.5,0,1,1-.742-.67,13.5,13.5,0,0,1,20.1,0A.5.5,0,0,1,22.479,10.191Zm-2.794,2.144a.5.5,0,0,1-.76.65,8.483,8.483,0,0,0-12.92,0,.5.5,0,1,1-.76-.65,9.483,9.483,0,0,1,14.44,0ZM16.864,15.2a.5.5,0,0,1-.8.6,4.5,4.5,0,0,0-7.2,0,.5.5,0,0,1-.8-.6,5.5,5.5,0,0,1,8.8,0ZM22,15.5v2.458a.5.5,0,0,1-1,0V15.5a.5.5,0,0,1,1,0Zm-.15,3.65a.469.469,0,0,1,.15.35.406.406,0,0,1-.04.19.372.372,0,0,1-.11.16.353.353,0,0,1-.161.11A.426.426,0,0,1,21.5,20a.473.473,0,0,1-.351-.15.361.361,0,0,1-.109-.16A.406.406,0,0,1,21,19.5a.472.472,0,0,1,.149-.35.492.492,0,0,1,.54-.11A.353.353,0,0,1,21.85,19.15Z"
        data-name="Network Error" /></svg>