<?xml version="1.0" standalone="no"?>
<!DOCTYPE svg PUBLIC "-//W3C//DTD SVG 1.1//EN" "http://www.w3.org/Graphics/SVG/1.1/DTD/svg11.dtd" >
<svg>
<metadata>
Created by FontForge 20090622 at Wed Jun 10 02:53:03 2020
 By deploy user
&#194;&#169; 2015 Apple Inc. All rights reserved.
</metadata>
<defs>
<font id="SFUIDisplay-Black" horiz-adv-x="0" >
  <font-face 
    font-family="SF UI Display"
    font-weight="900"
    font-stretch="normal"
    units-per-em="2048"
    panose-1="0 0 10 0 0 0 0 0 0 0"
    ascent="1638"
    descent="-410"
    x-height="1124"
    cap-height="1443"
    bbox="-660 -854 2718 2231"
    underline-thickness="260"
    underline-position="-120"
    unicode-range="U+0020-U+FB02"
  />
<missing-glyph horiz-adv-x="2048" 
d="M100 -494v128h1848v-128h-1848zM100 -31v128h1848v-128h-1848zM100 432v129h1848v-129h-1848zM100 896v128h1848v-128h-1848zM100 1359v128h1848v-128h-1848zM100 1822v128h1848v-128h-1848z" />
    <glyph glyph-name=".notdef" horiz-adv-x="2048" 
d="M100 -494v128h1848v-128h-1848zM100 -31v128h1848v-128h-1848zM100 432v129h1848v-129h-1848zM100 896v128h1848v-128h-1848zM100 1359v128h1848v-128h-1848zM100 1822v128h1848v-128h-1848z" />
    <glyph glyph-name=".null" 
 />
    <glyph glyph-name="nonmarkingreturn" 
 />
    <glyph glyph-name="space" unicode=" " horiz-adv-x="390" 
 />
    <glyph glyph-name="exclam" unicode="!" horiz-adv-x="749" 
d="M165 1443h420l-36 -972h-348zM375 -40q-89 0 -151 58t-62 142q0 83 62 141t151 58q87 0 149.5 -58t62.5 -141q0 -84 -62.5 -142t-149.5 -58z" />
    <glyph glyph-name="quotedbl" unicode="&#x22;" horiz-adv-x="1050" 
d="M421 826h-340v617h340v-617zM969 826h-340v617h340v-617z" />
    <glyph glyph-name="numbersign" unicode="#" horiz-adv-x="1336" 
d="M1266 821h-207l-34 -177h201l-53 -287h-204l-70 -357h-301l71 357h-161l-71 -357h-299l70 357h-196l54 287h197l35 177h-194l54 284h196l67 339h299l-66 -339h161l66 339h301l-66 -339h203zM578 854l-49 -244h214l51 244h-216z" />
    <glyph glyph-name="dollar" unicode="$" horiz-adv-x="1413" 
d="M793 -136h-148v121q-269 12 -415 127.5t-147 315.5h401q2 -55 48.5 -97t112.5 -48v261l-131 27q-201 42 -304 151.5t-103 281.5q0 203 140 323.5t398 137.5v135h148v-137q233 -23 370 -143t138 -303h-387q-2 49 -37 89t-84 50v-257l129 -22q202 -35 305 -142t103 -281
q0 -204 -138.5 -324.5t-398.5 -142.5v-123zM936 404q0 92 -143 116v-236q67 6 105 38t38 82zM514 1045q0 -89 131 -117v230q-59 -4 -95 -35t-36 -78z" />
    <glyph glyph-name="percent" unicode="%" horiz-adv-x="1733" 
d="M497 0h-340l1051 1443h340zM1693 363q0 -180 -95.5 -284.5t-259.5 -104.5t-259.5 104.5t-95.5 284.5q0 179 94.5 281.5t260.5 102.5t260.5 -102t94.5 -282zM1338 202q32 0 50 42.5t18 118.5q0 156 -68 156q-67 0 -67 -157q0 -74 18 -117t49 -43zM750 1121
q0 -180 -95.5 -284.5t-259.5 -104.5t-259.5 104.5t-95.5 284.5q0 179 94.5 281.5t260.5 102.5t260.5 -102t94.5 -282zM395 960q32 0 50 42.5t18 118.5q0 156 -68 156q-67 0 -67 -157q0 -74 18 -117t49 -43z" />
    <glyph glyph-name="ampersand" unicode="&#x26;" horiz-adv-x="1504" 
d="M1097 0l-89 94q-69 -57 -183.5 -89.5t-248.5 -32.5q-245 0 -384 106t-139 293q0 120 59.5 206.5t192.5 162.5l74 41q-98 99 -138 172t-40 153q0 152 128 251t325 99q196 0 317.5 -93t121.5 -244q0 -226 -275 -380l192 -207q34 56 34 161v109h321v-142q0 -99 -34 -199
t-91 -168l284 -293h-427zM520 566q-52 -34 -75.5 -72t-23.5 -88q0 -73 54.5 -116.5t144.5 -43.5q60 0 111 18t76 48l-255 270q-18 -7 -32 -16zM645 910q131 70 131 175q0 55 -33.5 90t-86.5 35q-54 0 -89.5 -35.5t-35.5 -88.5q0 -40 25 -78.5t89 -97.5z" />
    <glyph glyph-name="quotesingle" unicode="'" horiz-adv-x="502" 
d="M421 826h-340v617h340v-617z" />
    <glyph glyph-name="parenleft" unicode="(" horiz-adv-x="784" 
d="M759 -277h-398q-129 162 -200 391t-71 486q0 258 66 456.5t214 386.5h392q-107 -124 -177 -360t-70 -481q0 -236 58.5 -446.5t185.5 -432.5z" />
    <glyph glyph-name="parenright" unicode=")" horiz-adv-x="784" 
d="M25 -277q127 222 185.5 432.5t58.5 446.5q0 243 -70 479.5t-177 361.5h391q148 -189 214.5 -387.5t66.5 -455.5q0 -258 -71.5 -487.5t-200.5 -389.5h-397z" />
    <glyph glyph-name="asterisk" unicode="*" horiz-adv-x="1000" 
d="M788 785l-217 197l62 -287h-266l62 287l-217 -197l-133 230l283 90l-283 89l133 230l220 -202l-65 292h266l-65 -292l220 202l133 -230l-283 -89l283 -90z" />
    <glyph glyph-name="plus" unicode="+" horiz-adv-x="1413" 
d="M887 414v-416h-361v416h-390v348h390v416h361v-416h390v-348h-390z" />
    <glyph glyph-name="comma" unicode="," horiz-adv-x="618" 
d="M385 -285h-307l66 622h364z" />
    <glyph glyph-name="hyphen" unicode="-" horiz-adv-x="931" 
d="M795 414h-659v348h659v-348z" />
    <glyph glyph-name="hyphen" unicode="&#x2011;" horiz-adv-x="931" 
d="M795 414h-659v348h659v-348z" />
    <glyph glyph-name="period" unicode="." horiz-adv-x="618" 
d="M309 -14q-86 0 -147 61t-61 147t61 147t147 61t147 -61t61 -147t-61 -147t-147 -61z" />
    <glyph glyph-name="slash" unicode="/" horiz-adv-x="783" 
d="M387 -257h-387l388 1701h395z" />
    <glyph glyph-name="zero" unicode="0" horiz-adv-x="1423" 
d="M712 -40q-294 0 -465 204.5t-171 560.5q0 357 171.5 558t464.5 201t464 -200.5t171 -557.5q0 -356 -171 -561t-464 -205zM712 286q92 0 147.5 112t55.5 327t-55 324t-148 109t-148.5 -109t-55.5 -324t56 -327t148 -112z" />
    <glyph glyph-name="one" unicode="1" horiz-adv-x="1058" 
d="M440 0v1080h-8l-354 -234v355l362 242h424v-1443h-424z" />
    <glyph glyph-name="two" unicode="2" horiz-adv-x="1311" 
d="M62 990q0 222 161 357.5t428 135.5q260 0 412.5 -120.5t152.5 -318.5q0 -56 -19 -113.5t-43.5 -98.5t-63 -86t-61.5 -67t-56 -51l-339 -300v-8h599v-320h-1146v282l580 513q74 66 107.5 121.5t33.5 114.5q0 60 -46 99.5t-126 39.5q-83 0 -135.5 -50t-52.5 -129v-9h-386v8
z" />
    <glyph glyph-name="three" unicode="3" horiz-adv-x="1367" 
d="M495 594v284h176q83 0 131.5 40t48.5 109q0 68 -49 107.5t-136 39.5q-85 0 -138 -47.5t-53 -123.5h-382q1 217 163 348.5t428 131.5q256 0 406.5 -107.5t150.5 -290.5q0 -128 -84 -217.5t-217 -113.5v-8q161 -18 256 -108.5t95 -236.5q0 -202 -170 -321.5t-457 -119.5
q-262 0 -424.5 131.5t-173.5 352.5h404q2 -72 56 -113.5t147 -41.5q84 0 135.5 42.5t51.5 112.5q0 71 -50.5 110.5t-140.5 39.5h-174z" />
    <glyph glyph-name="four" unicode="4" horiz-adv-x="1414" 
d="M776 0v214h-710v351q183 358 524 878h586v-904h172v-325h-172v-214h-400zM418 534v-12h370v643h-8q-126 -194 -203 -325.5t-159 -305.5z" />
    <glyph glyph-name="five" unicode="5" horiz-adv-x="1362" 
d="M700 -40q-257 0 -421.5 132t-166.5 339h381q13 -67 71.5 -109t138.5 -42q90 0 145.5 57t55.5 147q0 95 -55 153t-146 58q-61 0 -113 -27.5t-84 -77.5h-371l64 853h1009v-320h-683l-22 -320h8q40 82 122.5 129t196.5 47q205 0 338 -136.5t133 -348.5q0 -241 -165 -387.5
t-436 -146.5z" />
    <glyph glyph-name="six" unicode="6" horiz-adv-x="1407" 
d="M728 -40q-150 0 -273.5 52t-206.5 153q-172 206 -172 557t177 556t473 205q228 0 392 -119.5t190 -304.5h-411q-14 47 -62 76t-110 29q-123 0 -193.5 -120.5t-54.5 -318.5h8q40 109 134 172.5t232 63.5q204 0 339.5 -135t135.5 -340q0 -153 -76 -273t-212.5 -186.5
t-309.5 -66.5zM724 281q83 0 140 55.5t57 137.5q0 81 -57 136t-140 55t-139.5 -55t-56.5 -136q0 -82 56.5 -137.5t139.5 -55.5z" />
    <glyph glyph-name="seven" unicode="7" horiz-adv-x="1223" 
d="M154 0l589 1115v8h-692v320h1110v-319l-563 -1124h-444z" />
    <glyph glyph-name="eight" unicode="8" horiz-adv-x="1445" 
d="M722 -40q-295 0 -470.5 118t-175.5 313q0 149 102.5 250.5t265.5 118.5v8q-136 23 -223 115t-87 217q0 168 163.5 275.5t424.5 107.5t424.5 -108t163.5 -276q0 -123 -87 -215.5t-221 -115.5v-8q163 -17 265 -118.5t102 -251.5q0 -193 -178 -311.5t-469 -118.5zM722 242
q88 0 143.5 51t55.5 129t-55.5 129t-143.5 51t-143.5 -51t-55.5 -129t55.5 -129t143.5 -51zM722 883q73 0 121.5 46t48.5 113q0 68 -48.5 114t-121.5 46t-121 -46t-48 -114q0 -67 48 -113t121 -46z" />
    <glyph glyph-name="nine" unicode="9" horiz-adv-x="1415" 
d="M686 -40q-151 0 -279.5 54.5t-209.5 151.5t-98 219h413q14 -47 64.5 -76t116.5 -29q122 0 189.5 117.5t51.5 321.5h-4h-2h-2q-34 -107 -129 -171.5t-237 -64.5q-203 0 -341 135.5t-138 339.5q0 152 77.5 272t214.5 186.5t309 66.5q152 0 277 -52t208 -152
q172 -206 172 -557q0 -353 -174.5 -557.5t-478.5 -204.5zM688 780q82 0 138.5 55t56.5 136q0 82 -56.5 137.5t-138.5 55.5q-83 0 -140.5 -56t-57.5 -137t57.5 -136t140.5 -55z" />
    <glyph glyph-name="colon" unicode=":" horiz-adv-x="618" 
d="M309 -14q-86 0 -147 61t-61 147t61 147t147 61t147 -61t61 -147t-61 -147t-147 -61zM309 680q-86 0 -147 61t-61 147t61 147t147 61t147 -61t61 -147t-61 -147t-147 -61z" />
    <glyph glyph-name="semicolon" unicode=";" horiz-adv-x="618" 
d="M309 680q-86 0 -147 61t-61 147t61 147t147 61t147 -61t61 -147t-61 -147t-147 -61zM355 -285h-307l66 622h364z" />
    <glyph glyph-name="less" unicode="&#x3c;" horiz-adv-x="1413" 
d="M1220 832l-606 -239v-11l606 -239v-395l-1027 485v309l1027 485v-395z" />
    <glyph glyph-name="equal" unicode="=" horiz-adv-x="1413" 
d="M1266 138h-1119v349h1119v-349zM1266 689h-1119v349h1119v-349z" />
    <glyph glyph-name="greater" unicode="&#x3e;" horiz-adv-x="1413" 
d="M193 832v395l1027 -485v-309l-1027 -485v395l606 239v11z" />
    <glyph glyph-name="question" unicode="?" horiz-adv-x="1184" 
d="M51 1010q0 207 143.5 327t392.5 120q240 0 383 -112t143 -300q0 -109 -51.5 -187.5t-166.5 -144.5q-106 -61 -142 -103t-36 -109v-42h-355l-3 24q-19 136 17.5 214t142.5 139q107 62 141 100.5t34 99.5q0 50 -38 81.5t-97 31.5t-97 -39t-39 -100h-372zM547 -40
q-88 0 -150 58t-62 142q0 83 62 141t150 58t150.5 -58t62.5 -141q0 -84 -62.5 -142t-150.5 -58z" />
    <glyph glyph-name="at" unicode="@" horiz-adv-x="1828" 
d="M897 806q-59 0 -92 -49.5t-33 -137.5q0 -87 33 -136t92 -49q58 0 91 49t33 136q0 88 -33 137.5t-91 49.5zM927 1463q239 0 423.5 -93.5t286.5 -264t102 -392.5q0 -233 -110 -368t-300 -135q-100 0 -166.5 38t-90.5 108h-20q-60 -149 -229 -149q-156 0 -250.5 115
t-94.5 305q0 182 89.5 293.5t235.5 111.5q82 0 142.5 -37t90.5 -105h20v117h254v-483q0 -54 20.5 -84t57.5 -30q58 0 91.5 73t33.5 198q0 273 -158 431.5t-428 158.5q-286 0 -462.5 -178.5t-176.5 -468.5q0 -292 183.5 -461t499.5 -169q129 0 210 22v-194q-105 -25 -238 -25
q-195 0 -359 60.5t-279 169t-179 263.5t-64 338q0 244 109 434t306 295.5t450 105.5z" />
    <glyph glyph-name="A" unicode="A" horiz-adv-x="1534" 
d="M1052 0l-75 287h-440l-75 -287h-432l471 1443h532l471 -1443h-452zM753 1110l-139 -524h286l-139 524h-8z" />
    <glyph glyph-name="B" unicode="B" horiz-adv-x="1382" 
d="M833 0h-733v1443h709q221 0 344.5 -95.5t123.5 -264.5q0 -123 -83 -209.5t-210 -102.5v-8q148 -4 253 -102.5t105 -240.5q0 -190 -139 -305t-370 -115zM524 1152v-287h164q81 0 129 39t48 105q0 67 -45.5 105t-125.5 38h-170zM524 291h181q99 0 152.5 43.5t53.5 124.5
q0 77 -54 120t-149 43h-184v-331z" />
    <glyph glyph-name="C" unicode="C" horiz-adv-x="1513" 
d="M781 -25q-334 0 -525 196.5t-191 550.5t191 550t525 196q189 0 341.5 -76t240.5 -215t88 -315h-406q-7 123 -80 198t-184 75q-131 0 -207.5 -110t-76.5 -302q0 -195 76 -305t209 -110q110 0 182.5 74.5t82.5 199.5h406q-1 -177 -87.5 -316t-239 -215t-345.5 -76z" />
    <glyph glyph-name="D" unicode="D" horiz-adv-x="1477" 
d="M100 1443h617q331 0 513 -183.5t182 -527.5q0 -346 -183.5 -539t-511.5 -193h-617v1443zM524 1106v-769h133q323 0 323 395q0 181 -84.5 277.5t-238.5 96.5h-133z" />
    <glyph glyph-name="E" unicode="E" horiz-adv-x="1216" 
d="M1118 337v-337h-1018v1443h1018v-337h-594v-233h557v-304h-557v-232h594z" />
    <glyph glyph-name="F" unicode="F" horiz-adv-x="1164" 
d="M524 0h-424v1443h1014v-337h-590v-277h534v-318h-534v-511z" />
    <glyph glyph-name="G" unicode="G" horiz-adv-x="1530" 
d="M1462 614q0 -297 -177.5 -468t-490.5 -171q-345 0 -537 195t-192 553q0 353 190 549t526 196q270 0 455 -143t209 -366h-417q-21 80 -87.5 127.5t-157.5 47.5q-135 0 -210.5 -106.5t-75.5 -298.5q0 -196 83 -308t224 -112q103 0 171 53t77 140l2 20h-220v282h628v-190z
" />
    <glyph glyph-name="H" unicode="H" horiz-adv-x="1556" 
d="M1456 0h-424v558h-508v-558h-424v1443h424v-548h508v548h424v-1443z" />
    <glyph glyph-name="I" unicode="I" horiz-adv-x="624" 
d="M524 0h-424v1443h424v-1443z" />
    <glyph glyph-name="J" unicode="J" horiz-adv-x="1271" 
d="M20 511h406q0 -85 41.5 -133t114.5 -48q70 0 106.5 44.5t36.5 129.5v939h424v-942q0 -252 -148 -389t-413 -137q-263 0 -415.5 143t-152.5 393z" />
    <glyph glyph-name="K" unicode="K" horiz-adv-x="1445" 
d="M524 0h-424v1443h424v-612h8l446 612h445l-475 -641l497 -802h-493l-315 530l-113 -152v-378z" />
    <glyph glyph-name="L" unicode="L" horiz-adv-x="1150" 
d="M1090 337v-337h-990v1443h424v-1106h566z" />
    <glyph glyph-name="M" unicode="M" horiz-adv-x="1833" 
d="M1733 1443v-1443h-370v836h-8l-325 -819h-227l-325 819h-8v-836h-370v1443h490l323 -842h8l322 842h490z" />
    <glyph glyph-name="N" unicode="N" horiz-adv-x="1494" 
d="M500 0h-400v1443h329l557 -748h8v748h400v-1443h-325l-561 760h-8v-760z" />
    <glyph glyph-name="O" unicode="O" horiz-adv-x="1584" 
d="M792 1468q335 0 531 -201t196 -546t-196 -545.5t-531 -200.5q-336 0 -531.5 200.5t-195.5 545.5t196 546t531 201zM792 1130q-133 0 -214 -111t-81 -298q0 -186 80.5 -297t214.5 -111t214.5 111t80.5 297q0 187 -81 298t-214 111z" />
    <glyph glyph-name="P" unicode="P" horiz-adv-x="1346" 
d="M100 1443h659q242 0 389.5 -143t147.5 -383q0 -237 -156 -380t-410 -143h-206v-394h-424v1443zM524 1124v-417h119q107 0 166 53.5t59 155.5q0 101 -58.5 154.5t-163.5 53.5h-122z" />
    <glyph glyph-name="Q" unicode="Q" horiz-adv-x="1583" 
d="M1495 -108h-384l-72 117q-114 -34 -247 -34q-337 0 -532 198.5t-195 547.5q0 344 196 545.5t531 201.5q334 0 530 -201.5t196 -545.5q0 -174 -50.5 -313.5t-147.5 -228.5zM792 307q29 0 53 6l-136 223h345l3 -4q29 90 29 189q0 187 -80.5 301t-213.5 114t-214 -113.5
t-81 -301.5q0 -187 80.5 -300.5t214.5 -113.5z" />
    <glyph glyph-name="R" unicode="R" horiz-adv-x="1395" 
d="M524 1130v-366h175q89 0 140.5 50t51.5 132q0 81 -53 132.5t-138 51.5h-176zM524 484v-484h-424v1443h641q286 0 434.5 -128t148.5 -362q0 -131 -61.5 -242t-171.5 -164l274 -547h-474l-228 484h-139z" />
    <glyph glyph-name="S" unicode="S" horiz-adv-x="1370" 
d="M60 425h401q9 -60 74 -98t152 -38q94 0 149.5 34t55.5 87q0 50 -45 76.5t-163 47.5l-191 34q-198 34 -303.5 144t-105.5 280q0 216 166 346t428 130q285 0 442 -122t159 -334h-387q-2 66 -60 104.5t-146 38.5q-83 0 -132 -32t-49 -86q0 -51 46 -81t150 -48l198 -34
q210 -37 310.5 -138.5t100.5 -277.5q0 -221 -171.5 -352t-459.5 -131q-292 0 -455 117.5t-164 332.5z" />
    <glyph glyph-name="T" unicode="T" horiz-adv-x="1274" 
d="M849 0h-424v1106h-380v337h1184v-337h-380v-1106z" />
    <glyph glyph-name="U" unicode="U" horiz-adv-x="1472" 
d="M524 1443v-882q0 -114 54.5 -174.5t157.5 -60.5t157.5 60.5t54.5 174.5v882h424v-929q0 -246 -174.5 -392.5t-461.5 -146.5t-461.5 146.5t-174.5 392.5v929h424z" />
    <glyph glyph-name="V" unicode="V" horiz-adv-x="1486" 
d="M1018 0h-550l-438 1443h488l231 -1041h8l231 1041h468z" />
    <glyph glyph-name="W" unicode="W" horiz-adv-x="2062" 
d="M1027 826l-215 -826h-400l-372 1443h438l166 -912h8l215 912h328l215 -912h8l166 912h438l-372 -1443h-400l-215 826h-8z" />
    <glyph glyph-name="X" unicode="X" horiz-adv-x="1507" 
d="M41 0l425 723v8l-426 712h494l227 -460h8l228 460h470l-447 -714v-8l445 -721h-472l-248 435h-9l-247 -435h-448z" />
    <glyph glyph-name="Y" unicode="Y" horiz-adv-x="1470" 
d="M947 0h-424v457l-493 986h453l253 -585h8l253 585h443l-493 -986v-457z" />
    <glyph glyph-name="Z" unicode="Z" horiz-adv-x="1321" 
d="M80 0v266l643 832v8h-637v337h1131v-265l-641 -833v-8h665v-337h-1161z" />
    <glyph glyph-name="bracketleft" unicode="[" horiz-adv-x="846" 
d="M90 1444h697v-294h-304v-1096h317v-294h-710v1684z" />
    <glyph glyph-name="backslash" unicode="\" horiz-adv-x="783" 
d="M397 -258l-397 1701h395l388 -1701h-386z" />
    <glyph glyph-name="bracketright" unicode="]" horiz-adv-x="846" 
d="M756 1444v-1684h-710v294h317v1096h-304v294h697z" />
    <glyph glyph-name="asciicircum" unicode="^" horiz-adv-x="1060" 
d="M520 1095l-151 -289h-335l334 596h329l329 -596h-348l-140 289h-18z" />
    <glyph glyph-name="underscore" unicode="_" horiz-adv-x="886" 
d="M924 -415h-962v308h962v-308z" />
    <glyph glyph-name="grave" unicode="`" horiz-adv-x="1015" 
d="M797 1275h-314l-265 321h347z" />
    <glyph glyph-name="a" unicode="a" horiz-adv-x="1231" 
d="M569 259q74 0 128 38.5t54 100.5v74l-181 -13q-61 -4 -94.5 -31t-33.5 -70q0 -46 34.5 -72.5t92.5 -26.5zM417 -16q-158 0 -268.5 97t-110.5 246q0 160 119 248t346 102l248 15v57q0 56 -38.5 87.5t-100.5 31.5q-63 0 -104 -30.5t-46 -75.5h-366q8 179 151.5 284.5
t386.5 105.5q232 0 374.5 -106t142.5 -277v-769h-400v152h-8q-43 -80 -133 -124t-193 -44z" />
    <glyph glyph-name="b" unicode="b" horiz-adv-x="1330" 
d="M843 -16q-123 0 -212 55.5t-128 154.5h-8v-194h-410v1518h410v-596h8q41 103 128 160.5t207 57.5q213 0 327.5 -150t114.5 -428t-113.5 -428t-323.5 -150zM677 823q-84 0 -133.5 -71t-50.5 -191q1 -121 50 -190.5t134 -69.5q84 0 133.5 70.5t49.5 190.5q0 119 -50 190
t-133 71z" />
    <glyph glyph-name="c" unicode="c" horiz-adv-x="1223" 
d="M1178 662h-373q-7 85 -51.5 134.5t-113.5 49.5q-85 0 -130 -73t-45 -210q0 -139 44.5 -212t130.5 -73q72 0 115.5 46.5t49.5 130.5h373q-4 -226 -149 -354.5t-394 -128.5q-273 0 -429 157t-156 434q0 274 156.5 431.5t426.5 157.5q244 0 392.5 -132.5t152.5 -357.5z" />
    <glyph glyph-name="d" unicode="d" horiz-adv-x="1325" 
d="M490 -16q-208 0 -324 153.5t-116 427.5q0 271 118 423t328 152q120 0 208.5 -60.5t122.5 -157.5h8v596h410v-1518h-410v194h-8q-29 -91 -121.5 -150.5t-215.5 -59.5zM653 823q-85 0 -134 -69.5t-49 -191.5q0 -123 48.5 -192t134.5 -69q87 0 135.5 68.5t48.5 191.5
q0 122 -49 192t-135 70z" />
    <glyph glyph-name="e" unicode="e" horiz-adv-x="1243" 
d="M631 869q-73 0 -123 -48t-56 -123h358q-5 78 -54 124.5t-125 46.5zM822 363h366q-26 -181 -174.5 -286t-377.5 -105q-275 0 -430.5 155t-155.5 429q0 275 154.5 435.5t418.5 160.5q260 0 415 -154t155 -412v-111h-747v-26q0 -86 55 -140.5t141 -54.5q65 0 113 29t67 80z
" />
    <glyph glyph-name="f" unicode="f" horiz-adv-x="839" 
d="M179 0v826h-149v298h149v96q0 168 96.5 239t328.5 71q91 0 173 -12v-261q-40 6 -80 6q-63 0 -91.5 -19t-28.5 -59v-61h202v-298h-190v-826h-410z" />
    <glyph glyph-name="g" unicode="g" horiz-adv-x="1325" 
d="M653 311q88 0 136 64t48 186t-49 192t-135 70q-85 0 -134 -69.5t-49 -191.5t48 -186.5t135 -64.5zM645 -421q-253 0 -408.5 95.5t-159.5 257.5h394q9 -41 59.5 -66t118.5 -25q84 0 135 40t51 109v224h-8q-29 -89 -120.5 -144.5t-216.5 -55.5q-201 0 -320.5 145.5
t-119.5 405.5q0 271 118 423t328 152q120 0 208.5 -60.5t122.5 -157.5h8v202h410v-1104q0 -199 -165 -320t-435 -121z" />
    <glyph glyph-name="h" unicode="h" horiz-adv-x="1308" 
d="M85 0v1518h400v-614h8q43 118 133 180t218 62q188 0 288.5 -111.5t100.5 -314.5v-720h-410v629q0 88 -42 137t-121 49q-78 0 -121.5 -51.5t-43.5 -134.5v-629h-410z" />
    <glyph glyph-name="i" unicode="i" horiz-adv-x="570" 
d="M80 0v1124h410v-1124h-410zM285 1190q-86 0 -145.5 55.5t-59.5 139.5t59.5 139.5t145.5 55.5t145.5 -55.5t59.5 -139.5t-59.5 -139.5t-145.5 -55.5z" />
    <glyph glyph-name="j" unicode="j" horiz-adv-x="570" 
d="M490 1124v-1143q0 -171 -118.5 -266t-332.5 -95q-77 0 -125 6v286q18 -3 47 -3q62 0 90.5 21.5t28.5 68.5v1125h410zM285 1190q-86 0 -145.5 55.5t-59.5 139.5t59.5 139.5t145.5 55.5t145.5 -55.5t59.5 -139.5t-59.5 -139.5t-145.5 -55.5z" />
    <glyph glyph-name="k" unicode="k" horiz-adv-x="1226" 
d="M503 715l280 409h452l-378 -480l404 -644h-471l-238 399l-57 -74v-325h-410v1518h410v-803h8z" />
    <glyph glyph-name="l" unicode="l" horiz-adv-x="580" 
d="M85 0v1518h410v-1518h-410z" />
    <glyph glyph-name="m" unicode="m" horiz-adv-x="1920" 
d="M80 0v1124h400v-226h8q31 113 118.5 180.5t202.5 67.5q128 0 210 -64t103 -182h8q29 111 123.5 178.5t221.5 67.5q164 0 267 -107t103 -279v-760h-410v654q0 163 -140 163q-64 0 -101 -43.5t-37 -119.5v-654h-389v654q0 163 -139 163q-64 0 -101.5 -44t-37.5 -119v-654
h-410z" />
    <glyph glyph-name="n" unicode="n" horiz-adv-x="1299" 
d="M80 0v1124h400v-220h8q88 242 345 242q188 0 289.5 -111.5t101.5 -314.5v-720h-410v629q0 88 -41 137t-120 49q-75 0 -119 -51.5t-44 -134.5v-629h-410z" />
    <glyph glyph-name="o" unicode="o" horiz-adv-x="1278" 
d="M639 -28q-276 0 -432.5 154.5t-156.5 436.5q0 275 159 432t430 157q273 0 431 -156.5t158 -432.5q0 -283 -156 -437t-433 -154zM639 266q81 0 127 77t46 219q0 139 -46.5 217.5t-126.5 78.5t-126.5 -78.5t-46.5 -217.5q0 -142 45.5 -219t127.5 -77z" />
    <glyph glyph-name="p" unicode="p" horiz-adv-x="1325" 
d="M833 1140q213 0 327.5 -150t114.5 -428t-113.5 -428t-323.5 -150q-123 0 -212 55.5t-128 154.5h-8v-554h-410v1484h410v-202h8q41 103 128 160.5t207 57.5zM672 301q84 0 133.5 70.5t49.5 190.5q0 119 -50 190t-133 71q-84 0 -133.5 -71t-50.5 -191q1 -121 50 -190.5
t134 -69.5z" />
    <glyph glyph-name="q" unicode="q" horiz-adv-x="1325" 
d="M496 1140q120 0 208.5 -60.5t122.5 -157.5h8v202h410v-1484h-410v554h-8q-29 -91 -121.5 -150.5t-215.5 -59.5q-208 0 -324 153.5t-116 427.5q0 271 118 423t328 152zM653 301q87 0 135.5 68.5t48.5 191.5q0 122 -49 192t-135 70q-85 0 -134 -69.5t-49 -191.5
q0 -123 48.5 -192t134.5 -69z" />
    <glyph glyph-name="r" unicode="r" horiz-adv-x="868" 
d="M80 0v1124h400v-220h8q62 236 263 236q54 0 97 -16v-345q-54 23 -121 23q-117 0 -177 -60t-60 -178v-564h-410z" />
    <glyph glyph-name="s" unicode="s" horiz-adv-x="1172" 
d="M60 776q0 175 139.5 275.5t383.5 100.5t382.5 -103.5t138.5 -286.5h-372q-1 56 -42 88.5t-110 32.5q-58 0 -92.5 -22t-34.5 -58q0 -55 111 -76l251 -50q167 -33 244.5 -107.5t77.5 -202.5q0 -181 -149 -288t-396 -107q-257 0 -401.5 104.5t-155.5 286.5h396
q7 -57 51 -89.5t115 -32.5q63 0 98.5 20.5t35.5 56.5q0 28 -25 45t-83 28l-216 43q-169 34 -258 121.5t-89 220.5z" />
    <glyph glyph-name="t" unicode="t" horiz-adv-x="847" 
d="M179 1371h410v-247h198v-298h-198v-423q0 -108 127 -108q41 0 71 5v-285q-73 -15 -170 -15q-235 0 -336.5 73t-101.5 240v513h-149v298h149v247z" />
    <glyph glyph-name="u" unicode="u" horiz-adv-x="1299" 
d="M1219 1124v-1124h-400v220h-8q-34 -116 -114.5 -179t-204.5 -63q-185 0 -301 114.5t-116 310.5v721h410v-629q0 -89 44.5 -137.5t120.5 -48.5q72 0 115.5 51t43.5 135v629h410z" />
    <glyph glyph-name="v" unicode="v" horiz-adv-x="1189" 
d="M1199 1124l-362 -1124h-480l-367 1124h442l167 -791h8l163 791h429z" />
    <glyph glyph-name="w" unicode="w" horiz-adv-x="1796" 
d="M1786 1124l-284 -1124h-445l-159 729h-8l-157 -729h-437l-286 1124h415l122 -764h8l151 764h391l154 -764h8l122 764h405z" />
    <glyph glyph-name="x" unicode="x" horiz-adv-x="1216" 
d="M599 356h-8l-158 -356h-422l326 558l-327 566h464l142 -344h8l141 344h441l-327 -558l327 -566h-443z" />
    <glyph glyph-name="y" unicode="y" horiz-adv-x="1246" 
d="M268 -412h-146v306h60q89 0 140 19.5t52 54.5v20l-374 1136h455l175 -828h8l175 828h433l-339 -1101q-72 -233 -221 -334t-418 -101z" />
    <glyph glyph-name="z" unicode="z" horiz-adv-x="1128" 
d="M60 0v209l506 603v8h-490v304h970v-244l-446 -568v-8h468v-304h-1008z" />
    <glyph glyph-name="braceleft" unicode="{" horiz-adv-x="940" 
d="M410 588q116 -10 176 -76t60 -184v-198q0 -116 38 -152.5t157 -36.5h44v-283h-149q-262 0 -372.5 94t-110.5 317v161q0 115 -34 159t-124 44v347q89 0 123.5 44.5t34.5 159.5v128q0 220 110 311t373 91h149v-284h-44q-120 0 -157.5 -36.5t-37.5 -152.5v-188
q0 -110 -56 -164.5t-180 -64.5v-36z" />
    <glyph glyph-name="bar" unicode="|" horiz-adv-x="760" 
d="M580 -259h-400v1702h400v-1702z" />
    <glyph glyph-name="braceright" unicode="}" horiz-adv-x="940" 
d="M532 588v36q-125 10 -182 64.5t-57 164.5v188q0 116 -37.5 152.5t-156.5 36.5h-44v284h150q263 0 372 -91t109 -311v-128q0 -115 35 -159.5t124 -44.5v-347q-90 0 -124.5 -44t-34.5 -159v-161q0 -224 -109.5 -317.5t-371.5 -93.5h-150v283h44q119 0 156.5 36.5
t37.5 152.5v198q0 118 61 184t178 76z" />
    <glyph glyph-name="asciitilde" unicode="~" horiz-adv-x="1159" 
d="M530 611q-36 36 -62 50t-58 14q-91 0 -91 -177h-296q-17 230 74.5 367t262.5 137q72 0 137 -32.5t136 -103.5q35 -35 59.5 -48.5t56.5 -13.5q91 0 91 178h296q17 -230 -74.5 -367t-262.5 -137q-71 0 -134.5 31.5t-134.5 101.5z" />
    <glyph glyph-name="nonbreakingspace" unicode="&#xa0;" horiz-adv-x="390" 
 />
    <glyph glyph-name="exclamdown" unicode="&#xa1;" horiz-adv-x="749" 
d="M165 -305l36 972h348l36 -972h-420zM375 780q-89 0 -151 58t-62 141q0 84 62 141.5t151 57.5q88 0 150 -58t62 -141t-62.5 -141t-149.5 -58z" />
    <glyph glyph-name="cent" unicode="&#xa2;" horiz-adv-x="1413" 
d="M1298 545q-11 -177 -126 -293.5t-300 -150.5v-195h-312v202q-205 46 -325 196t-120 376q0 224 120.5 374t324.5 196v203h312v-197q182 -36 298.5 -156.5t127.5 -296.5h-370q-13 69 -65.5 113.5t-121.5 44.5q-95 0 -156 -74.5t-61 -206.5q0 -134 60.5 -208.5t154.5 -74.5
q74 0 124.5 40.5t64.5 107.5h370z" />
    <glyph glyph-name="sterling" unicode="&#xa3;" horiz-adv-x="1413" 
d="M657 342h642v-342h-1185v312q136 10 216.5 92t80.5 211h-289v270h213q-56 131 -56 225q0 179 156 276t443 97q92 0 198.5 -14t161.5 -34v-312q-134 48 -293 48q-118 0 -181.5 -39.5t-63.5 -113.5q0 -55 29 -133h359v-270h-288q-8 -81 -47 -153t-96 -108v-12z" />
    <glyph glyph-name="currency" unicode="&#xa4;" horiz-adv-x="1462" 
d="M526 642q0 -83 61 -145t144 -62t144 62t61 145t-61 145t-144 62t-144 -62t-61 -145zM1318 1003l-132 -132q55 -108 55 -229t-55 -229l132 -132l-226 -226l-132 132q-108 -55 -229 -55t-229 55l-132 -132l-226 226l132 132q-55 108 -55 229t55 229l-132 132l226 226
l132 -132q108 55 229 55t229 -55l132 132z" />
    <glyph glyph-name="yen" unicode="&#xa5;" horiz-adv-x="1413" 
d="M1184 155h-265v-155h-424v155h-265v196h265v106h-265v196h167l-395 790h449l251 -579h12l248 579h449l-394 -790h167v-196h-265v-106h265v-196z" />
    <glyph glyph-name="brokenbar" unicode="&#xa6;" horiz-adv-x="760" 
d="M580 773h-400v670h400v-670zM580 -259h-400v670h400v-670z" />
    <glyph glyph-name="section" unicode="&#xa7;" horiz-adv-x="1000" 
d="M460 498l135 -54q26 16 43.5 43t17.5 52q0 34 -30.5 65t-82.5 50l-135 55q-26 -16 -43.5 -43.5t-17.5 -51.5q0 -34 30 -65t83 -51zM493 -310q-202 0 -330 100t-133 263h330q4 -43 41.5 -71.5t90.5 -28.5t86 28t33 73q0 31 -23.5 52.5t-76.5 41.5l-210 78
q-152 58 -218.5 131t-66.5 182q0 92 56 165.5t152 106.5v20q-105 55 -148.5 117.5t-43.5 157.5q0 163 129 260t346 97q202 0 330 -100t133 -263h-330q-4 43 -41.5 71.5t-90.5 28.5t-86 -28t-33 -73q0 -30 22 -50.5t78 -43.5l200 -78q158 -63 226.5 -136t68.5 -177
q0 -92 -56 -165.5t-152 -106.5v-20q105 -57 148.5 -119t43.5 -156q0 -163 -129 -260t-346 -97z" />
    <glyph glyph-name="dieresis" unicode="&#xa8;" horiz-adv-x="1016" 
d="M286 1256q-68 0 -113 44t-45 106q0 63 45 106.5t113 43.5t113 -43.5t45 -106.5q0 -62 -45 -106t-113 -44zM730 1256q-68 0 -113 44t-45 106q0 63 45 106.5t113 43.5t113 -43.5t45 -106.5q0 -62 -45 -106t-113 -44z" />
    <glyph glyph-name="copyright" unicode="&#xa9;" horiz-adv-x="1688" 
d="M844 -110q-212 0 -392.5 105.5t-286 286t-105.5 392.5t105.5 392.5t286 286t392.5 105.5t392.5 -105.5t286 -286t105.5 -392.5t-105.5 -392.5t-286 -286t-392.5 -105.5zM844 77q121 0 231.5 47.5t190.5 127.5t127.5 190.5t47.5 231.5t-47.5 231.5t-127.5 190.5
t-190.5 127.5t-231.5 47.5t-231.5 -47.5t-190.5 -127.5t-127.5 -190.5t-47.5 -231.5t47.5 -231.5t127.5 -190.5t190.5 -127.5t231.5 -47.5zM1200 752h-237q-5 47 -32.5 74t-69.5 27q-53 0 -82 -46.5t-29 -131.5q0 -88 28.5 -134t82.5 -46q43 0 70 25t32 69h237
q-10 -136 -101 -213t-241 -77q-172 0 -270.5 100t-98.5 276q0 173 98.5 273.5t268.5 100.5q148 0 241 -80t103 -217z" />
    <glyph glyph-name="ordfeminine" unicode="&#xaa;" horiz-adv-x="866" 
d="M405 888q41 0 68 18.5t27 46.5v46l-99 -8q-27 -2 -43 -16t-16 -35q0 -24 17 -38t46 -14zM281 681q-106 0 -179 67.5t-73 164.5q0 108 81 168.5t238 69.5l152 10v30q0 27 -19 43.5t-50 16.5q-34 0 -56.5 -16t-24.5 -41h-282q5 127 106 199t275 72q161 0 261 -71.5
t100 -187.5v-513h-312v93h-6q-26 -48 -83.5 -76.5t-127.5 -28.5z" />
    <glyph glyph-name="guillemotleft" unicode="&#xab;" horiz-adv-x="1409" 
d="M977 571v-6l342 -409h-347l-338 406v8l347 407h338zM433 571v-6l342 -409h-347l-338 406v8l347 407h338z" />
    <glyph glyph-name="logicalnot" unicode="&#xac;" horiz-adv-x="1413" 
d="M1277 762v-757h-362v409h-779v348h1141z" />
    <glyph glyph-name="registered" unicode="&#xae;" horiz-adv-x="1196" 
d="M598 537q-113 0 -213 41.5t-171 112.5t-112.5 171t-41.5 213t41.5 213t112.5 171t171 112.5t213 41.5t213 -41.5t171 -112.5t112.5 -171t41.5 -213t-41.5 -213t-112.5 -171t-171 -112.5t-213 -41.5zM598 694q161 0 266 107.5t105 273.5t-105 273.5t-266 107.5
t-266 -107.5t-105 -273.5t105 -273.5t266 -107.5zM532 841h-152v477h263q86 0 136.5 -43t50.5 -116q0 -51 -25 -90.5t-66 -55.5l116 -172h-177l-94 150h-52v-150zM532 1202v-104h74q65 0 65 50q0 26 -16.5 40t-46.5 14h-76z" />
    <glyph glyph-name="macron" unicode="&#xaf;" horiz-adv-x="1000" 
d="M852 1456v-180h-704v180h704z" />
    <glyph glyph-name="degree" unicode="&#xb0;" horiz-adv-x="770" 
d="M385 753q-150 0 -251 100.5t-101 251.5t100.5 251t251.5 100t251.5 -100t100.5 -251t-100.5 -251.5t-251.5 -100.5zM386 968q55 0 92.5 40.5t37.5 96.5q0 57 -37.5 96.5t-92.5 39.5q-54 0 -93 -40t-39 -96q0 -55 39 -96t93 -41z" />
    <glyph glyph-name="plusminus" unicode="&#xb1;" horiz-adv-x="1413" 
d="M1192 37h-975v288h975v-288zM881 640v-188h-350v188h-314v296h314v188h350v-188h315v-296h-315z" />
    <glyph glyph-name="two.sups" unicode="&#xb2;" horiz-adv-x="719" 
d="M17 1546q0 123 90 194t245 71q145 0 232.5 -61t87.5 -162q0 -60 -29.5 -107t-99.5 -99l-127 -94v-5h262v-218h-643v198l316 248q32 26 32 49q0 17 -12.5 27.5t-33.5 10.5q-22 0 -36 -14.5t-14 -37.5v-7h-270v7z" />
    <glyph glyph-name="three.sups" unicode="&#xb3;" horiz-adv-x="748" 
d="M280 1339v182h89q23 0 38 11t15 27q0 19 -15 30.5t-41 11.5q-27 0 -44 -16t-17 -42h-264q-5 122 84.5 195t243.5 73q146 0 235.5 -57t89.5 -151q0 -60 -42 -104.5t-110 -56.5v-6q82 -11 127.5 -56t45.5 -113q0 -106 -92.5 -167t-253.5 -61q-148 0 -241.5 74t-99.5 196
h284q0 -19 15 -31t39 -12t38 10t14 26q0 17 -14.5 27t-39.5 10h-84z" />
    <glyph glyph-name="acute" unicode="&#xb4;" horiz-adv-x="1015" 
d="M532 1275h-314l232 321h347z" />
    <glyph glyph-name="paragraph" unicode="&#xb6;" horiz-adv-x="1744" 
d="M1054 -290h-380v625h-20q-123 0 -230.5 44t-182.5 118.5t-118 176t-43 214.5q0 241 158 398t417 157h399v-1733zM1244 -290v1733h380v-1733h-380z" />
    <glyph glyph-name="periodcentered" unicode="&#xb7;" horiz-adv-x="744" 
d="M372 445q-86 0 -147 61t-61 147t61 147t147 61t147 -61t61 -147t-61 -147t-147 -61z" />
    <glyph glyph-name="cedilla" unicode="&#xb8;" horiz-adv-x="1015" 
d="M387 -225v127l63 114l180 -16l-46 -89q72 0 117 -46t45 -122q0 -195 -263 -195q-94 0 -133 15v141q38 -12 99 -12q94 0 94 37q0 26 -22 36t-78 10h-56z" />
    <glyph glyph-name="one.sups" unicode="&#xb9;" horiz-adv-x="604" 
d="M209 1065v477h-5l-166 -102v237l172 108h302v-720h-303z" />
    <glyph glyph-name="ordmasculine" unicode="&#xba;" horiz-adv-x="894" 
d="M447 671q-192 0 -299.5 103t-107.5 295q0 186 109.5 291t297.5 105q189 0 298 -104.5t109 -291.5q0 -193 -107 -295.5t-300 -102.5zM447 893q39 0 61 45.5t22 129.5q0 82 -22.5 128.5t-60.5 46.5t-60.5 -46.5t-22.5 -128.5q0 -85 22 -130t61 -45z" />
    <glyph glyph-name="guillemotright" unicode="&#xbb;" horiz-adv-x="1409" 
d="M432 571l-342 406h338l347 -407v-8l-338 -406h-347l342 409v6zM976 571l-342 406h338l347 -407v-8l-338 -406h-347l342 409v6z" />
    <glyph glyph-name="onequarter" unicode="&#xbc;" horiz-adv-x="1787" 
d="M476 0h-340l1051 1443h340zM1389 0v76h-350v243q92 183 222 401h409v-422h74v-222h-74v-76h-281zM1276 288v-5h123v253h-6q-44 -87 -117 -248zM219 728v477h-5l-166 -102v237l172 108h302v-720h-303z" />
    <glyph glyph-name="onehalf" unicode="&#xbd;" horiz-adv-x="1782" 
d="M476 0h-340l1051 1443h340zM219 728v477h-5l-166 -102v237l172 108h302v-720h-303zM1080 481q0 123 90 194t245 71q145 0 232.5 -61t87.5 -162q0 -60 -29.5 -107t-99.5 -99l-127 -94v-5h262v-218h-643v198l316 248q32 26 32 49q0 17 -12.5 27.5t-33.5 10.5
q-22 0 -36 -14.5t-14 -37.5v-7h-270v7z" />
    <glyph glyph-name="threequarters" unicode="&#xbe;" horiz-adv-x="1857" 
d="M576 0h-340l1051 1443h340zM1459 0v76h-350v243q92 183 222 401h409v-422h74v-222h-74v-76h-281zM1346 288v-5h123v253h-6q-44 -87 -117 -248zM280 1002v182h89q23 0 38 11t15 27q0 19 -15 30.5t-41 11.5q-27 0 -44 -16t-17 -42h-264q-5 122 84.5 195t243.5 73
q146 0 235.5 -57t89.5 -151q0 -60 -42 -104.5t-110 -56.5v-6q82 -11 127.5 -56t45.5 -113q0 -106 -92.5 -167t-253.5 -61q-148 0 -241.5 74t-99.5 196h284q0 -19 15 -31t39 -12t38 10t14 26q0 17 -14.5 27t-39.5 10h-84z" />
    <glyph glyph-name="questiondown" unicode="&#xbf;" horiz-adv-x="1184" 
d="M1134 128q-1 -207 -144.5 -327t-391.5 -120q-241 0 -384 112t-143 300q0 109 52 187.5t167 144.5q106 61 142 103t36 109v42h354l3 -24q19 -136 -17.5 -214t-142.5 -139q-107 -62 -141 -100.5t-34 -99.5q0 -50 38 -81t98 -31q59 0 96.5 38.5t38.5 99.5h373zM637 780
q-88 0 -150.5 58t-62.5 141q0 84 62.5 141.5t150.5 57.5t150.5 -58t62.5 -141t-63 -141t-150 -58z" />
    <glyph glyph-name="Agrave" unicode="&#xc0;" horiz-adv-x="1534" 
d="M1052 0l-75 287h-440l-75 -287h-432l471 1443h532l471 -1443h-452zM753 1110l-139 -524h286l-139 524h-8zM621 1564l-274 321h348l232 -321h-306z" />
    <glyph glyph-name="Aacute" unicode="&#xc1;" horiz-adv-x="1534" 
d="M1052 0l-75 287h-440l-75 -287h-432l471 1443h532l471 -1443h-452zM753 1110l-139 -524h286l-139 524h-8zM907 1555h-306l232 321h348z" />
    <glyph glyph-name="Acircumflex" unicode="&#xc2;" horiz-adv-x="1534" 
d="M1052 0l-75 287h-440l-75 -287h-432l471 1443h532l471 -1443h-452zM753 1110l-139 -524h286l-139 524h-8zM610 1872h314l255 -336h-276l-132 192h-8l-132 -192h-276z" />
    <glyph glyph-name="Atilde" unicode="&#xc3;" horiz-adv-x="1534" 
d="M1052 0l-75 287h-440l-75 -287h-432l471 1443h532l471 -1443h-452zM753 1110l-139 -524h286l-139 524h-8zM920 1546q-49 0 -93.5 18.5t-70 41t-54 41t-50.5 18.5q-32 0 -49.5 -28.5t-19.5 -72.5h-201q0 135 73 214t178 79q49 0 93.5 -18.5t70 -41t54 -41t50.5 -18.5
q64 0 69 106h201q0 -135 -73 -216.5t-178 -81.5z" />
    <glyph glyph-name="Adieresis" unicode="&#xc4;" horiz-adv-x="1534" 
d="M1052 0l-75 287h-440l-75 -287h-432l471 1443h532l471 -1443h-452zM753 1110l-139 -524h286l-139 524h-8zM545 1536q-68 0 -113 44t-45 106q0 63 45 106.5t113 43.5t113 -43.5t45 -106.5q0 -62 -45 -106t-113 -44zM989 1536q-68 0 -113 44t-45 106q0 63 45 106.5
t113 43.5t113 -43.5t45 -106.5q0 -62 -45 -106t-113 -44z" />
    <glyph glyph-name="Aring" unicode="&#xc5;" horiz-adv-x="1534" 
d="M1052 0l-75 287h-440l-75 -287h-432l471 1443h532l471 -1443h-452zM753 1110l-139 -524h286l-139 524h-8zM767 1520q-89 0 -154.5 62.5t-65.5 149.5q0 88 65 150.5t155 62.5t154.5 -62.5t64.5 -150.5q0 -87 -65 -149.5t-154 -62.5zM767 1656q32 0 56 22.5t24 53.5
q0 32 -24 55t-56 23t-56 -23t-24 -55q0 -31 24 -53.5t56 -22.5z" />
    <glyph glyph-name="AE" unicode="&#xc6;" horiz-adv-x="2104" 
d="M858 1129l-188 -543h300v543h-112zM970 0v286h-403l-99 -286h-418l540 1443h1395v-336h-643v-234h606v-304h-606v-233h643v-336h-1015z" />
    <glyph glyph-name="Ccedilla" unicode="&#xc7;" horiz-adv-x="1513" 
d="M1047 582h406q-1 -165 -76.5 -297t-209 -211t-305.5 -95l-35 -68q72 0 117 -46t45 -122q0 -195 -263 -195q-94 0 -133 15v141q37 -12 99 -12q94 0 94 37q0 26 -22 36t-78 10h-56v127l43 79q-286 31 -447 224t-161 517q0 354 191 550t525 196q189 0 341.5 -76t240.5 -215
t88 -315h-406q-7 123 -80 198t-184 75q-131 0 -207.5 -110t-76.5 -302q0 -195 76 -305t209 -110q110 0 182.5 74.5t82.5 199.5z" />
    <glyph glyph-name="Egrave" unicode="&#xc8;" horiz-adv-x="1216" 
d="M1118 337v-337h-1018v1443h1018v-337h-594v-233h557v-304h-557v-232h594zM462 1564l-274 321h348l232 -321h-306z" />
    <glyph glyph-name="Eacute" unicode="&#xc9;" horiz-adv-x="1216" 
d="M1118 337v-337h-1018v1443h1018v-337h-594v-233h557v-304h-557v-232h594zM748 1555h-306l232 321h348z" />
    <glyph glyph-name="Ecircumflex" unicode="&#xca;" horiz-adv-x="1216" 
d="M1118 337v-337h-1018v1443h1018v-337h-594v-233h557v-304h-557v-232h594zM451 1872h314l255 -336h-276l-132 192h-8l-132 -192h-276z" />
    <glyph glyph-name="Edieresis" unicode="&#xcb;" horiz-adv-x="1216" 
d="M1118 337v-337h-1018v1443h1018v-337h-594v-233h557v-304h-557v-232h594zM386 1536q-68 0 -113 44t-45 106q0 63 45 106.5t113 43.5t113 -43.5t45 -106.5q0 -62 -45 -106t-113 -44zM830 1536q-68 0 -113 44t-45 106q0 63 45 106.5t113 43.5t113 -43.5t45 -106.5
q0 -62 -45 -106t-113 -44z" />
    <glyph glyph-name="Igrave" unicode="&#xcc;" horiz-adv-x="624" 
d="M524 0h-424v1443h424v-1443zM166 1564l-274 321h348l232 -321h-306z" />
    <glyph glyph-name="Iacute" unicode="&#xcd;" horiz-adv-x="624" 
d="M524 0h-424v1443h424v-1443zM452 1555h-306l232 321h348z" />
    <glyph glyph-name="Icircumflex" unicode="&#xce;" horiz-adv-x="624" 
d="M524 0h-424v1443h424v-1443zM155 1872h314l255 -336h-276l-132 192h-8l-132 -192h-276z" />
    <glyph glyph-name="Idieresis" unicode="&#xcf;" horiz-adv-x="624" 
d="M524 0h-424v1443h424v-1443zM90 1536q-68 0 -113 44t-45 106q0 63 45 106.5t113 43.5t113 -43.5t45 -106.5q0 -62 -45 -106t-113 -44zM534 1536q-68 0 -113 44t-45 106q0 63 45 106.5t113 43.5t113 -43.5t45 -106.5q0 -62 -45 -106t-113 -44z" />
    <glyph glyph-name="Eth" unicode="&#xd0;" horiz-adv-x="1503" 
d="M550 337h133q323 0 323 395q0 181 -84.5 277.5t-238.5 96.5h-133v-246h233v-279h-233v-244zM126 1443h617q331 0 513 -183.5t182 -527.5q0 -346 -183.5 -539t-511.5 -193h-617v581h-66v279h66v583z" />
    <glyph glyph-name="Ntilde" unicode="&#xd1;" horiz-adv-x="1494" 
d="M500 0h-400v1443h329l557 -748h8v748h400v-1443h-325l-561 760h-8v-760zM900 1546q-49 0 -93.5 18.5t-70 41t-54 41t-50.5 18.5q-32 0 -49.5 -28.5t-19.5 -72.5h-201q0 135 73 214t178 79q49 0 93.5 -18.5t70 -41t54 -41t50.5 -18.5q64 0 69 106h201q0 -135 -73 -216.5
t-178 -81.5z" />
    <glyph glyph-name="Ograve" unicode="&#xd2;" horiz-adv-x="1584" 
d="M792 1468q335 0 531 -201t196 -546t-196 -545.5t-531 -200.5q-336 0 -531.5 200.5t-195.5 545.5t196 546t531 201zM792 1130q-133 0 -214 -111t-81 -298q0 -186 80.5 -297t214.5 -111t214.5 111t80.5 297q0 187 -81 298t-214 111zM646 1564l-274 321h348l232 -321h-306z
" />
    <glyph glyph-name="Oacute" unicode="&#xd3;" horiz-adv-x="1584" 
d="M792 1468q335 0 531 -201t196 -546t-196 -545.5t-531 -200.5q-336 0 -531.5 200.5t-195.5 545.5t196 546t531 201zM792 1130q-133 0 -214 -111t-81 -298q0 -186 80.5 -297t214.5 -111t214.5 111t80.5 297q0 187 -81 298t-214 111zM932 1555h-306l232 321h348z" />
    <glyph glyph-name="Ocircumflex" unicode="&#xd4;" horiz-adv-x="1584" 
d="M792 1468q335 0 531 -201t196 -546t-196 -545.5t-531 -200.5q-336 0 -531.5 200.5t-195.5 545.5t196 546t531 201zM792 1130q-133 0 -214 -111t-81 -298q0 -186 80.5 -297t214.5 -111t214.5 111t80.5 297q0 187 -81 298t-214 111zM635 1872h314l255 -336h-276l-132 192
h-8l-132 -192h-276z" />
    <glyph glyph-name="Otilde" unicode="&#xd5;" horiz-adv-x="1584" 
d="M792 1468q335 0 531 -201t196 -546t-196 -545.5t-531 -200.5q-336 0 -531.5 200.5t-195.5 545.5t196 546t531 201zM792 1130q-133 0 -214 -111t-81 -298q0 -186 80.5 -297t214.5 -111t214.5 111t80.5 297q0 187 -81 298t-214 111zM945 1546q-49 0 -93.5 18.5t-70 41
t-54 41t-50.5 18.5q-32 0 -49.5 -28.5t-19.5 -72.5h-201q0 135 73 214t178 79q49 0 93.5 -18.5t70 -41t54 -41t50.5 -18.5q64 0 69 106h201q0 -135 -73 -216.5t-178 -81.5z" />
    <glyph glyph-name="Odieresis" unicode="&#xd6;" horiz-adv-x="1584" 
d="M792 1468q335 0 531 -201t196 -546t-196 -545.5t-531 -200.5q-336 0 -531.5 200.5t-195.5 545.5t196 546t531 201zM792 1130q-133 0 -214 -111t-81 -298q0 -186 80.5 -297t214.5 -111t214.5 111t80.5 297q0 187 -81 298t-214 111zM570 1536q-68 0 -113 44t-45 106
q0 63 45 106.5t113 43.5t113 -43.5t45 -106.5q0 -62 -45 -106t-113 -44zM1014 1536q-68 0 -113 44t-45 106q0 63 45 106.5t113 43.5t113 -43.5t45 -106.5q0 -62 -45 -106t-113 -44z" />
    <glyph glyph-name="multiply" unicode="&#xd7;" horiz-adv-x="1414" 
d="M707 342l-301 -301l-246 246l301 301l-301 301l246 246l301 -301l301 301l246 -246l-301 -301l301 -301l-246 -246z" />
    <glyph glyph-name="Oslash" unicode="&#xd8;" horiz-adv-x="1584" 
d="M1033 974l-361 -633q56 -28 120 -28q134 0 214.5 111t80.5 297q0 151 -54 253zM579 422l370 656q-67 52 -157 52q-133 0 -214 -111t-81 -298t82 -299zM1317 1472l-76 -134q134 -96 206 -253.5t72 -363.5q0 -345 -196 -545.5t-531 -200.5q-167 0 -299 51l-64 -112l-103 58
l59 105q-154 92 -237 257.5t-83 386.5q0 345 196 546t531 201q190 0 338 -67l69 122z" />
    <glyph glyph-name="Ugrave" unicode="&#xd9;" horiz-adv-x="1472" 
d="M524 1443v-882q0 -114 54.5 -174.5t157.5 -60.5t157.5 60.5t54.5 174.5v882h424v-929q0 -246 -174.5 -392.5t-461.5 -146.5t-461.5 146.5t-174.5 392.5v929h424zM590 1564l-274 321h348l232 -321h-306z" />
    <glyph glyph-name="Uacute" unicode="&#xda;" horiz-adv-x="1472" 
d="M524 1443v-882q0 -114 54.5 -174.5t157.5 -60.5t157.5 60.5t54.5 174.5v882h424v-929q0 -246 -174.5 -392.5t-461.5 -146.5t-461.5 146.5t-174.5 392.5v929h424zM876 1555h-306l232 321h348z" />
    <glyph glyph-name="Ucircumflex" unicode="&#xdb;" horiz-adv-x="1472" 
d="M524 1443v-882q0 -114 54.5 -174.5t157.5 -60.5t157.5 60.5t54.5 174.5v882h424v-929q0 -246 -174.5 -392.5t-461.5 -146.5t-461.5 146.5t-174.5 392.5v929h424zM579 1872h314l255 -336h-276l-132 192h-8l-132 -192h-276z" />
    <glyph glyph-name="Udieresis" unicode="&#xdc;" horiz-adv-x="1472" 
d="M524 1443v-882q0 -114 54.5 -174.5t157.5 -60.5t157.5 60.5t54.5 174.5v882h424v-929q0 -246 -174.5 -392.5t-461.5 -146.5t-461.5 146.5t-174.5 392.5v929h424zM514 1536q-68 0 -113 44t-45 106q0 63 45 106.5t113 43.5t113 -43.5t45 -106.5q0 -62 -45 -106t-113 -44z
M958 1536q-68 0 -113 44t-45 106q0 63 45 106.5t113 43.5t113 -43.5t45 -106.5q0 -62 -45 -106t-113 -44z" />
    <glyph glyph-name="Yacute" unicode="&#xdd;" horiz-adv-x="1470" 
d="M947 0h-424v457l-493 986h453l253 -585h8l253 585h443l-493 -986v-457zM875 1555h-306l232 321h348z" />
    <glyph glyph-name="Thorn" unicode="&#xde;" horiz-adv-x="1428" 
d="M142 1443h427v-204h242q243 0 385 -134.5t142 -365.5q0 -229 -150 -363t-406 -134h-216v-242h-424v1443zM566 919v-363h129q106 0 160.5 46.5t54.5 135.5q0 88 -54 134.5t-158 46.5h-132z" />
    <glyph glyph-name="germandbls" unicode="&#xdf;" horiz-adv-x="1481" 
d="M524 0h-410v1061q0 190 155.5 299t425.5 109q255 0 414 -105t159 -274q0 -117 -56.5 -202.5t-150.5 -109.5v-20q148 -5 241 -106t93 -256q0 -193 -137 -302.5t-377 -109.5q-144 0 -218 18v313q53 -20 125 -20q91 0 138.5 34t47.5 99q0 64 -55.5 100t-152.5 36h-83v306h48
q63 0 102 37t39 96q0 69 -45 108t-125 39q-178 0 -178 -188v-962z" />
    <glyph glyph-name="agrave" unicode="&#xe0;" horiz-adv-x="1231" 
d="M569 259q74 0 128 38.5t54 100.5v74l-181 -13q-61 -4 -94.5 -31t-33.5 -70q0 -46 34.5 -72.5t92.5 -26.5zM417 -16q-158 0 -268.5 97t-110.5 246q0 160 119 248t346 102l248 15v57q0 56 -38.5 87.5t-100.5 31.5q-63 0 -104 -30.5t-46 -75.5h-366q8 179 151.5 284.5
t386.5 105.5q232 0 374.5 -106t142.5 -277v-769h-400v152h-8q-43 -80 -133 -124t-193 -44zM804 1275h-314l-265 321h347z" />
    <glyph glyph-name="aacute" unicode="&#xe1;" horiz-adv-x="1231" 
d="M569 259q74 0 128 38.5t54 100.5v74l-181 -13q-61 -4 -94.5 -31t-33.5 -70q0 -46 34.5 -72.5t92.5 -26.5zM417 -16q-158 0 -268.5 97t-110.5 246q0 160 119 248t346 102l248 15v57q0 56 -38.5 87.5t-100.5 31.5q-63 0 -104 -30.5t-46 -75.5h-366q8 179 151.5 284.5
t386.5 105.5q232 0 374.5 -106t142.5 -277v-769h-400v152h-8q-43 -80 -133 -124t-193 -44zM779 1275h-314l232 321h347z" />
    <glyph glyph-name="acircumflex" unicode="&#xe2;" horiz-adv-x="1231" 
d="M569 259q74 0 128 38.5t54 100.5v74l-181 -13q-61 -4 -94.5 -31t-33.5 -70q0 -46 34.5 -72.5t92.5 -26.5zM417 -16q-158 0 -268.5 97t-110.5 246q0 160 119 248t346 102l248 15v57q0 56 -38.5 87.5t-100.5 31.5q-63 0 -104 -30.5t-46 -75.5h-366q8 179 151.5 284.5
t386.5 105.5q232 0 374.5 -106t142.5 -277v-769h-400v152h-8q-43 -80 -133 -124t-193 -44zM787 1592l255 -336h-284l-124 180h-8l-124 -180h-284l255 336h314z" />
    <glyph glyph-name="atilde" unicode="&#xe3;" horiz-adv-x="1231" 
d="M569 259q74 0 128 38.5t54 100.5v74l-181 -13q-61 -4 -94.5 -31t-33.5 -70q0 -46 34.5 -72.5t92.5 -26.5zM417 -16q-158 0 -268.5 97t-110.5 246q0 160 119 248t346 102l248 15v57q0 56 -38.5 87.5t-100.5 31.5q-63 0 -104 -30.5t-46 -75.5h-366q8 179 151.5 284.5
t386.5 105.5q232 0 374.5 -106t142.5 -277v-769h-400v152h-8q-43 -80 -133 -124t-193 -44zM783 1258q-49 0 -93.5 18.5t-70 41t-54 41t-50.5 18.5q-32 0 -49.5 -28.5t-19.5 -72.5h-201q0 135 73 214t178 79q49 0 93.5 -18.5t70 -41t54 -41t50.5 -18.5q64 0 69 106h201
q0 -135 -73 -216.5t-178 -81.5z" />
    <glyph glyph-name="adieresis" unicode="&#xe4;" horiz-adv-x="1231" 
d="M569 259q74 0 128 38.5t54 100.5v74l-181 -13q-61 -4 -94.5 -31t-33.5 -70q0 -46 34.5 -72.5t92.5 -26.5zM417 -16q-158 0 -268.5 97t-110.5 246q0 160 119 248t346 102l248 15v57q0 56 -38.5 87.5t-100.5 31.5q-63 0 -104 -30.5t-46 -75.5h-366q8 179 151.5 284.5
t386.5 105.5q232 0 374.5 -106t142.5 -277v-769h-400v152h-8q-43 -80 -133 -124t-193 -44zM408 1256q-68 0 -113 44t-45 106q0 63 45 106.5t113 43.5t113 -43.5t45 -106.5q0 -62 -45 -106t-113 -44zM852 1256q-68 0 -113 44t-45 106q0 63 45 106.5t113 43.5t113 -43.5
t45 -106.5q0 -62 -45 -106t-113 -44z" />
    <glyph glyph-name="aring" unicode="&#xe5;" horiz-adv-x="1231" 
d="M569 259q74 0 128 38.5t54 100.5v74l-181 -13q-61 -4 -94.5 -31t-33.5 -70q0 -46 34.5 -72.5t92.5 -26.5zM417 -16q-158 0 -268.5 97t-110.5 246q0 160 119 248t346 102l248 15v57q0 56 -38.5 87.5t-100.5 31.5q-63 0 -104 -30.5t-46 -75.5h-366q8 179 151.5 284.5
t386.5 105.5q232 0 374.5 -106t142.5 -277v-769h-400v152h-8q-43 -80 -133 -124t-193 -44zM630 1235q-99 0 -171.5 69.5t-72.5 165.5q0 97 72.5 166.5t171.5 69.5t171 -69.5t72 -166.5t-72 -166t-171 -69zM630 1386q35 0 61.5 25t26.5 59q0 35 -26.5 60.5t-61.5 25.5
t-61.5 -25.5t-26.5 -60.5q0 -34 26.5 -59t61.5 -25z" />
    <glyph glyph-name="ae" unicode="&#xe6;" horiz-adv-x="1918" 
d="M1311 -28q-141 0 -253.5 51.5t-166.5 138.5h-8q-51 -84 -153 -131t-244 -47q-207 0 -327.5 95t-120.5 248q0 158 118 247.5t347 102.5l248 15v48q0 55 -42.5 91.5t-106.5 36.5q-62 0 -108 -30t-52 -76h-356q5 118 70.5 207t179 136t258.5 47q124 0 217 -33.5t146 -89.5h8
q121 123 360 123q243 0 393 -152t150 -414v-111h-747v-26q0 -86 55 -140.5t141 -54.5q65 0 113 29.5t67 79.5h366q-26 -181 -174.5 -286t-377.5 -105zM1306 869q-73 0 -123 -48t-56 -123h358q-5 78 -54 124.5t-125 46.5zM562 250q77 0 133 44t56 104v74l-196 -16
q-62 -5 -99 -31.5t-37 -69.5q0 -45 42 -75t101 -30z" />
    <glyph glyph-name="ccedilla" unicode="&#xe7;" horiz-adv-x="1223" 
d="M1178 662h-373q-7 85 -51.5 134.5t-113.5 49.5q-85 0 -130 -73t-45 -210q0 -139 44.5 -212t130.5 -73q72 0 115.5 46.5t49.5 130.5h373q-4 -208 -128 -334t-340 -146l-33 -64q72 0 117 -46t45 -122q0 -195 -263 -195q-94 0 -133 15v141q37 -12 99 -12q94 0 94 37
q0 26 -22 36t-78 10h-56v127l43 78q-223 31 -348 184t-125 399q0 274 156.5 431.5t426.5 157.5q244 0 392.5 -132.5t152.5 -357.5z" />
    <glyph glyph-name="egrave" unicode="&#xe8;" horiz-adv-x="1243" 
d="M631 869q-73 0 -123 -48t-56 -123h358q-5 78 -54 124.5t-125 46.5zM822 363h366q-26 -181 -174.5 -286t-377.5 -105q-275 0 -430.5 155t-155.5 429q0 275 154.5 435.5t418.5 160.5q260 0 415 -154t155 -412v-111h-747v-26q0 -86 55 -140.5t141 -54.5q65 0 113 29t67 80z
M796 1275h-314l-265 321h347z" />
    <glyph glyph-name="eacute" unicode="&#xe9;" horiz-adv-x="1243" 
d="M631 869q-73 0 -123 -48t-56 -123h358q-5 78 -54 124.5t-125 46.5zM822 363h366q-26 -181 -174.5 -286t-377.5 -105q-275 0 -430.5 155t-155.5 429q0 275 154.5 435.5t418.5 160.5q260 0 415 -154t155 -412v-111h-747v-26q0 -86 55 -140.5t141 -54.5q65 0 113 29t67 80z
M771 1275h-314l232 321h347z" />
    <glyph glyph-name="ecircumflex" unicode="&#xea;" horiz-adv-x="1243" 
d="M631 869q-73 0 -123 -48t-56 -123h358q-5 78 -54 124.5t-125 46.5zM822 363h366q-26 -181 -174.5 -286t-377.5 -105q-275 0 -430.5 155t-155.5 429q0 275 154.5 435.5t418.5 160.5q260 0 415 -154t155 -412v-111h-747v-26q0 -86 55 -140.5t141 -54.5q65 0 113 29t67 80z
M779 1592l255 -336h-284l-124 180h-8l-124 -180h-284l255 336h314z" />
    <glyph glyph-name="edieresis" unicode="&#xeb;" horiz-adv-x="1243" 
d="M631 869q-73 0 -123 -48t-56 -123h358q-5 78 -54 124.5t-125 46.5zM822 363h366q-26 -181 -174.5 -286t-377.5 -105q-275 0 -430.5 155t-155.5 429q0 275 154.5 435.5t418.5 160.5q260 0 415 -154t155 -412v-111h-747v-26q0 -86 55 -140.5t141 -54.5q65 0 113 29t67 80z
M400 1256q-68 0 -113 44t-45 106q0 63 45 106.5t113 43.5t113 -43.5t45 -106.5q0 -62 -45 -106t-113 -44zM844 1256q-68 0 -113 44t-45 106q0 63 45 106.5t113 43.5t113 -43.5t45 -106.5q0 -62 -45 -106t-113 -44z" />
    <glyph glyph-name="igrave" unicode="&#xec;" horiz-adv-x="570" 
d="M80 0v1124h410v-1124h-410zM459 1275h-314l-265 321h347z" />
    <glyph glyph-name="iacute" unicode="&#xed;" horiz-adv-x="570" 
d="M80 0v1124h410v-1124h-410zM434 1275h-314l232 321h347z" />
    <glyph glyph-name="icircumflex" unicode="&#xee;" horiz-adv-x="570" 
d="M80 0v1124h410v-1124h-410zM442 1592l255 -336h-284l-124 180h-8l-124 -180h-284l255 336h314z" />
    <glyph glyph-name="idieresis" unicode="&#xef;" horiz-adv-x="570" 
d="M80 0v1124h410v-1124h-410zM63 1256q-68 0 -113 44t-45 106q0 63 45 106.5t113 43.5t113 -43.5t45 -106.5q0 -62 -45 -106t-113 -44zM507 1256q-68 0 -113 44t-45 106q0 63 45 106.5t113 43.5t113 -43.5t45 -106.5q0 -62 -45 -106t-113 -44z" />
    <glyph glyph-name="eth" unicode="&#xf0;" horiz-adv-x="1365" 
d="M665 -16q-261 0 -425.5 156.5t-164.5 409.5q0 226 132 363t332 137q159 0 247 -90h20q-20 52 -66 114.5t-95 109.5l-291 -99l-76 168l225 77q-98 70 -283 178h520q44 -30 92 -67l280 96l80 -169l-201 -68q279 -291 279 -669q0 -295 -168.5 -471t-436.5 -176zM678 794
q-85 0 -134 -66.5t-49 -180.5q0 -115 48.5 -181t134.5 -66t135 65.5t49 180.5t-49.5 181.5t-134.5 66.5z" />
    <glyph glyph-name="ntilde" unicode="&#xf1;" horiz-adv-x="1299" 
d="M80 0v1124h400v-220h8q88 242 345 242q188 0 289.5 -111.5t101.5 -314.5v-720h-410v629q0 88 -41 137t-120 49q-75 0 -119 -51.5t-44 -134.5v-629h-410zM803 1258q-49 0 -93.5 18.5t-70 41t-54 41t-50.5 18.5q-32 0 -49.5 -28.5t-19.5 -72.5h-201q0 135 73 214t178 79
q49 0 93.5 -18.5t70 -41t54 -41t50.5 -18.5q64 0 69 106h201q0 -135 -73 -216.5t-178 -81.5z" />
    <glyph glyph-name="ograve" unicode="&#xf2;" horiz-adv-x="1278" 
d="M639 -28q-276 0 -432.5 154.5t-156.5 436.5q0 275 159 432t430 157q273 0 431 -156.5t158 -432.5q0 -283 -156 -437t-433 -154zM639 266q81 0 127 77t46 219q0 139 -46.5 217.5t-126.5 78.5t-126.5 -78.5t-46.5 -217.5q0 -142 45.5 -219t127.5 -77zM813 1275h-314
l-265 321h347z" />
    <glyph glyph-name="oacute" unicode="&#xf3;" horiz-adv-x="1278" 
d="M639 -28q-276 0 -432.5 154.5t-156.5 436.5q0 275 159 432t430 157q273 0 431 -156.5t158 -432.5q0 -283 -156 -437t-433 -154zM639 266q81 0 127 77t46 219q0 139 -46.5 217.5t-126.5 78.5t-126.5 -78.5t-46.5 -217.5q0 -142 45.5 -219t127.5 -77zM788 1275h-314
l232 321h347z" />
    <glyph glyph-name="ocircumflex" unicode="&#xf4;" horiz-adv-x="1278" 
d="M639 -28q-276 0 -432.5 154.5t-156.5 436.5q0 275 159 432t430 157q273 0 431 -156.5t158 -432.5q0 -283 -156 -437t-433 -154zM639 266q81 0 127 77t46 219q0 139 -46.5 217.5t-126.5 78.5t-126.5 -78.5t-46.5 -217.5q0 -142 45.5 -219t127.5 -77zM796 1592l255 -336
h-284l-124 180h-8l-124 -180h-284l255 336h314z" />
    <glyph glyph-name="otilde" unicode="&#xf5;" horiz-adv-x="1278" 
d="M639 -28q-276 0 -432.5 154.5t-156.5 436.5q0 275 159 432t430 157q273 0 431 -156.5t158 -432.5q0 -283 -156 -437t-433 -154zM639 266q81 0 127 77t46 219q0 139 -46.5 217.5t-126.5 78.5t-126.5 -78.5t-46.5 -217.5q0 -142 45.5 -219t127.5 -77zM792 1258
q-49 0 -93.5 18.5t-70 41t-54 41t-50.5 18.5q-32 0 -49.5 -28.5t-19.5 -72.5h-201q0 135 73 214t178 79q49 0 93.5 -18.5t70 -41t54 -41t50.5 -18.5q64 0 69 106h201q0 -135 -73 -216.5t-178 -81.5z" />
    <glyph glyph-name="odieresis" unicode="&#xf6;" horiz-adv-x="1278" 
d="M639 -28q-276 0 -432.5 154.5t-156.5 436.5q0 275 159 432t430 157q273 0 431 -156.5t158 -432.5q0 -283 -156 -437t-433 -154zM639 266q81 0 127 77t46 219q0 139 -46.5 217.5t-126.5 78.5t-126.5 -78.5t-46.5 -217.5q0 -142 45.5 -219t127.5 -77zM417 1256
q-68 0 -113 44t-45 106q0 63 45 106.5t113 43.5t113 -43.5t45 -106.5q0 -62 -45 -106t-113 -44zM861 1256q-68 0 -113 44t-45 106q0 63 45 106.5t113 43.5t113 -43.5t45 -106.5q0 -62 -45 -106t-113 -44z" />
    <glyph glyph-name="divide" unicode="&#xf7;" horiz-adv-x="1413" 
d="M707 817q-94 0 -151.5 53t-57.5 139q0 87 57 139.5t152 52.5t152 -52.5t57 -139.5t-57 -139.5t-152 -52.5zM707 -25q-94 0 -151.5 53t-57.5 139q0 87 57 139.5t152 52.5t152 -52.5t57 -139.5t-57 -139.5t-152 -52.5zM1277 444h-1141v288h1141v-288z" />
    <glyph glyph-name="oslash" unicode="&#xf8;" horiz-adv-x="1278" 
d="M798 694l-237 -405q35 -23 78 -23q81 0 127 77t46 219q0 73 -14 132zM487 400l244 422q-37 36 -92 36q-80 0 -126.5 -78.5t-46.5 -217.5q0 -96 21 -162zM1072 1163l-66 -114q107 -74 164.5 -198t57.5 -288q0 -283 -156 -437t-433 -154q-132 0 -241 37l-65 -111l-103 58
l60 104q-116 73 -178 200.5t-62 302.5q0 275 159 432t430 157q145 0 257 -45l64 110z" />
    <glyph glyph-name="ugrave" unicode="&#xf9;" horiz-adv-x="1299" 
d="M1219 1124v-1124h-400v220h-8q-34 -116 -114.5 -179t-204.5 -63q-185 0 -301 114.5t-116 310.5v721h410v-629q0 -89 44.5 -137.5t120.5 -48.5q72 0 115.5 51t43.5 135v629h410zM824 1275h-314l-265 321h347z" />
    <glyph glyph-name="uacute" unicode="&#xfa;" horiz-adv-x="1299" 
d="M1219 1124v-1124h-400v220h-8q-34 -116 -114.5 -179t-204.5 -63q-185 0 -301 114.5t-116 310.5v721h410v-629q0 -89 44.5 -137.5t120.5 -48.5q72 0 115.5 51t43.5 135v629h410zM799 1275h-314l232 321h347z" />
    <glyph glyph-name="ucircumflex" unicode="&#xfb;" horiz-adv-x="1299" 
d="M1219 1124v-1124h-400v220h-8q-34 -116 -114.5 -179t-204.5 -63q-185 0 -301 114.5t-116 310.5v721h410v-629q0 -89 44.5 -137.5t120.5 -48.5q72 0 115.5 51t43.5 135v629h410zM807 1592l255 -336h-284l-124 180h-8l-124 -180h-284l255 336h314z" />
    <glyph glyph-name="udieresis" unicode="&#xfc;" horiz-adv-x="1299" 
d="M1219 1124v-1124h-400v220h-8q-34 -116 -114.5 -179t-204.5 -63q-185 0 -301 114.5t-116 310.5v721h410v-629q0 -89 44.5 -137.5t120.5 -48.5q72 0 115.5 51t43.5 135v629h410zM428 1256q-68 0 -113 44t-45 106q0 63 45 106.5t113 43.5t113 -43.5t45 -106.5
q0 -62 -45 -106t-113 -44zM872 1256q-68 0 -113 44t-45 106q0 63 45 106.5t113 43.5t113 -43.5t45 -106.5q0 -62 -45 -106t-113 -44z" />
    <glyph glyph-name="yacute" unicode="&#xfd;" horiz-adv-x="1246" 
d="M268 -412h-146v306h60q89 0 140 19.5t52 54.5v20l-374 1136h455l175 -828h8l175 828h433l-339 -1101q-72 -233 -221 -334t-418 -101zM772 1275h-314l232 321h347z" />
    <glyph glyph-name="thorn" unicode="&#xfe;" horiz-adv-x="1335" 
d="M838 1140q213 0 327.5 -149.5t114.5 -428.5q0 -278 -113.5 -428t-323.5 -150q-120 0 -205.5 50t-122.5 140h-20v-506h-410v1840h410v-566h20q39 94 123 146t200 52zM677 300q86 0 134.5 69.5t48.5 192.5q0 122 -49 192t-134 70t-134 -70t-50 -193q1 -124 49.5 -192.5
t134.5 -68.5z" />
    <glyph glyph-name="ydieresis" unicode="&#xff;" horiz-adv-x="1246" 
d="M268 -412h-146v306h60q89 0 140 19.5t52 54.5v20l-374 1136h455l175 -828h8l175 828h433l-339 -1101q-72 -233 -221 -334t-418 -101zM401 1256q-68 0 -113 44t-45 106q0 63 45 106.5t113 43.5t113 -43.5t45 -106.5q0 -62 -45 -106t-113 -44zM845 1256q-68 0 -113 44
t-45 106q0 63 45 106.5t113 43.5t113 -43.5t45 -106.5q0 -62 -45 -106t-113 -44z" />
    <glyph glyph-name="Amacron" unicode="&#x100;" horiz-adv-x="1534" 
d="M1052 0l-75 287h-440l-75 -287h-432l471 1443h532l471 -1443h-452zM753 1110l-139 -524h286l-139 524h-8zM1141 1786v-180h-748v180h748z" />
    <glyph glyph-name="amacron" unicode="&#x101;" horiz-adv-x="1231" 
d="M569 259q74 0 128 38.5t54 100.5v74l-181 -13q-61 -4 -94.5 -31t-33.5 -70q0 -46 34.5 -72.5t92.5 -26.5zM417 -16q-158 0 -268.5 97t-110.5 246q0 160 119 248t346 102l248 15v57q0 56 -38.5 87.5t-100.5 31.5q-63 0 -104 -30.5t-46 -75.5h-366q8 179 151.5 284.5
t386.5 105.5q232 0 374.5 -106t142.5 -277v-769h-400v152h-8q-43 -80 -133 -124t-193 -44zM982 1456v-180h-704v180h704z" />
    <glyph glyph-name="Abreve" unicode="&#x102;" horiz-adv-x="1534" 
d="M1052 0l-75 287h-440l-75 -287h-432l471 1443h532l471 -1443h-452zM753 1110l-139 -524h286l-139 524h-8zM372 1870h236q3 -67 44.5 -107.5t114.5 -40.5t114.5 40.5t44.5 107.5h236q-5 -142 -109.5 -238t-285.5 -96t-285.5 96t-109.5 238z" />
    <glyph glyph-name="abreve" unicode="&#x103;" horiz-adv-x="1231" 
d="M569 259q74 0 128 38.5t54 100.5v74l-181 -13q-61 -4 -94.5 -31t-33.5 -70q0 -46 34.5 -72.5t92.5 -26.5zM417 -16q-158 0 -268.5 97t-110.5 246q0 160 119 248t346 102l248 15v57q0 56 -38.5 87.5t-100.5 31.5q-63 0 -104 -30.5t-46 -75.5h-366q8 179 151.5 284.5
t386.5 105.5q232 0 374.5 -106t142.5 -277v-769h-400v152h-8q-43 -80 -133 -124t-193 -44zM235 1590h236q3 -67 44.5 -107.5t114.5 -40.5t114.5 40.5t44.5 107.5h236q-5 -142 -109.5 -238t-285.5 -96t-285.5 96t-109.5 238z" />
    <glyph glyph-name="Aogonek" unicode="&#x104;" horiz-adv-x="1534" 
d="M753 1110l-139 -524h286l-139 524h-8zM1381 -468q-60 -26 -172 -26q-136 0 -221 67t-85 173q0 71 39.5 134t112.5 109l-78 298h-440l-75 -287h-432l471 1443h532l471 -1443l-89 -6q-88 -6 -159 -63t-71 -121q0 -46 32 -70t92 -24q56 0 72 9v-193z" />
    <glyph glyph-name="aogonek" unicode="&#x105;" horiz-adv-x="1231" 
d="M569 259q74 0 128 38.5t54 100.5v74l-181 -13q-61 -4 -94.5 -31t-33.5 -70q0 -46 34.5 -72.5t92.5 -26.5zM1087 -468q-60 -26 -172 -26q-137 0 -221.5 67t-84.5 173q0 67 40 131.5t102 102.5v172h-8q-43 -80 -133 -124t-193 -44q-158 0 -268.5 97t-110.5 246
q0 160 119 248t346 102l248 15v57q0 56 -38.5 87.5t-100.5 31.5q-63 0 -104 -30.5t-46 -75.5h-366q8 179 151.5 284.5t386.5 105.5q232 0 374.5 -106t142.5 -277v-769l-60 -8q-81 -11 -140.5 -63t-59.5 -119q0 -44 31 -69t93 -25q56 0 72 9v-193z" />
    <glyph glyph-name="Cacute" unicode="&#x106;" horiz-adv-x="1513" 
d="M781 -25q-334 0 -525 196.5t-191 550.5t191 550t525 196q189 0 341.5 -76t240.5 -215t88 -315h-406q-7 123 -80 198t-184 75q-131 0 -207.5 -110t-76.5 -302q0 -195 76 -305t209 -110q110 0 182.5 74.5t82.5 199.5h406q-1 -177 -87.5 -316t-239 -215t-345.5 -76z
M897 1555h-306l232 321h348z" />
    <glyph glyph-name="cacute" unicode="&#x107;" horiz-adv-x="1223" 
d="M1178 662h-373q-7 85 -51.5 134.5t-113.5 49.5q-85 0 -130 -73t-45 -210q0 -139 44.5 -212t130.5 -73q72 0 115.5 46.5t49.5 130.5h373q-4 -226 -149 -354.5t-394 -128.5q-273 0 -429 157t-156 434q0 274 156.5 431.5t426.5 157.5q244 0 392.5 -132.5t152.5 -357.5z
M756 1275h-314l232 321h347z" />
    <glyph glyph-name="Ccircumflex" unicode="&#x108;" horiz-adv-x="1513" 
d="M781 -25q-334 0 -525 196.5t-191 550.5t191 550t525 196q189 0 341.5 -76t240.5 -215t88 -315h-406q-7 123 -80 198t-184 75q-131 0 -207.5 -110t-76.5 -302q0 -195 76 -305t209 -110q110 0 182.5 74.5t82.5 199.5h406q-1 -177 -87.5 -316t-239 -215t-345.5 -76z
M600 1872h314l255 -336h-276l-132 192h-8l-132 -192h-276z" />
    <glyph glyph-name="ccircumflex" unicode="&#x109;" horiz-adv-x="1223" 
d="M1178 662h-373q-7 85 -51.5 134.5t-113.5 49.5q-85 0 -130 -73t-45 -210q0 -139 44.5 -212t130.5 -73q72 0 115.5 46.5t49.5 130.5h373q-4 -226 -149 -354.5t-394 -128.5q-273 0 -429 157t-156 434q0 274 156.5 431.5t426.5 157.5q244 0 392.5 -132.5t152.5 -357.5z
M764 1592l255 -336h-284l-124 180h-8l-124 -180h-284l255 336h314z" />
    <glyph glyph-name="Cdotaccent" unicode="&#x10a;" horiz-adv-x="1513" 
d="M781 -25q-334 0 -525 196.5t-191 550.5t191 550t525 196q189 0 341.5 -76t240.5 -215t88 -315h-406q-7 123 -80 198t-184 75q-131 0 -207.5 -110t-76.5 -302q0 -195 76 -305t209 -110q110 0 182.5 74.5t82.5 199.5h406q-1 -177 -87.5 -316t-239 -215t-345.5 -76z
M757 1536q-74 0 -125.5 52t-51.5 125t51 124.5t126 51.5t126 -51.5t51 -124.5t-51.5 -125t-125.5 -52z" />
    <glyph glyph-name="cdotaccent" unicode="&#x10b;" horiz-adv-x="1223" 
d="M1178 662h-373q-7 85 -51.5 134.5t-113.5 49.5q-85 0 -130 -73t-45 -210q0 -139 44.5 -212t130.5 -73q72 0 115.5 46.5t49.5 130.5h373q-4 -226 -149 -354.5t-394 -128.5q-273 0 -429 157t-156 434q0 274 156.5 431.5t426.5 157.5q244 0 392.5 -132.5t152.5 -357.5z
M605 1264q-75 0 -126 50.5t-51 122.5t51 122.5t126 50.5t126 -50.5t51 -122.5t-51 -122.5t-126 -50.5z" />
    <glyph glyph-name="Ccaron" unicode="&#x10c;" horiz-adv-x="1513" 
d="M781 -25q-334 0 -525 196.5t-191 550.5t191 550t525 196q189 0 341.5 -76t240.5 -215t88 -315h-406q-7 123 -80 198t-184 75q-131 0 -207.5 -110t-76.5 -302q0 -195 76 -305t209 -110q110 0 182.5 74.5t82.5 199.5h406q-1 -177 -87.5 -316t-239 -215t-345.5 -76z
M600 1536l-255 336h276l132 -192h8l132 192h276l-255 -336h-314z" />
    <glyph glyph-name="ccaron" unicode="&#x10d;" horiz-adv-x="1223" 
d="M1178 662h-373q-7 85 -51.5 134.5t-113.5 49.5q-85 0 -130 -73t-45 -210q0 -139 44.5 -212t130.5 -73q72 0 115.5 46.5t49.5 130.5h373q-4 -226 -149 -354.5t-394 -128.5q-273 0 -429 157t-156 434q0 274 156.5 431.5t426.5 157.5q244 0 392.5 -132.5t152.5 -357.5z
M764 1256h-314l-255 336h284l124 -180h8l124 180h284z" />
    <glyph glyph-name="Dcaron" unicode="&#x10e;" horiz-adv-x="1477" 
d="M100 1443h617q331 0 513 -183.5t182 -527.5q0 -346 -183.5 -539t-511.5 -193h-617v1443zM524 1106v-769h133q323 0 323 395q0 181 -84.5 277.5t-238.5 96.5h-133zM582 1536l-255 336h276l132 -192h8l132 192h276l-255 -336h-314z" />
    <glyph glyph-name="dcaron" unicode="&#x10f;" horiz-adv-x="1591" 
d="M1398 1508h293l-50 -518h-243v518zM490 -16q-208 0 -324 153.5t-116 427.5q0 271 118 423t328 152q120 0 208.5 -60.5t122.5 -157.5h8v596h410v-1518h-410v194h-8q-29 -91 -121.5 -150.5t-215.5 -59.5zM653 823q-85 0 -134 -69.5t-49 -191.5q0 -123 48.5 -192t134.5 -69
q87 0 135.5 68.5t48.5 191.5q0 122 -49 192t-135 70z" />
    <glyph glyph-name="Dcroat" unicode="&#x110;" horiz-adv-x="1503" 
d="M550 337h133q323 0 323 395q0 181 -84.5 277.5t-238.5 96.5h-133v-246h233v-279h-233v-244zM126 1443h617q331 0 513 -183.5t182 -527.5q0 -346 -183.5 -539t-511.5 -193h-617v581h-66v279h66v583z" />
    <glyph glyph-name="dcroat" unicode="&#x111;" horiz-adv-x="1355" 
d="M653 301q87 0 135.5 68.5t48.5 191.5q0 122 -49 192t-135 70q-85 0 -134 -69.5t-49 -191.5q0 -123 48.5 -192t134.5 -69zM1319 1413v-176h-74v-1237h-410v194h-8q-29 -91 -121.5 -150.5t-215.5 -59.5q-208 0 -324 153.5t-116 427.5q0 271 118 423t328 152
q120 0 208.5 -60.5t122.5 -157.5h8v315h-176v176h176v105h410v-105h74z" />
    <glyph glyph-name="Emacron" unicode="&#x112;" horiz-adv-x="1216" 
d="M1118 337v-337h-1018v1443h1018v-337h-594v-233h557v-304h-557v-232h594zM982 1786v-180h-748v180h748z" />
    <glyph glyph-name="emacron" unicode="&#x113;" horiz-adv-x="1243" 
d="M631 869q-73 0 -123 -48t-56 -123h358q-5 78 -54 124.5t-125 46.5zM822 363h366q-26 -181 -174.5 -286t-377.5 -105q-275 0 -430.5 155t-155.5 429q0 275 154.5 435.5t418.5 160.5q260 0 415 -154t155 -412v-111h-747v-26q0 -86 55 -140.5t141 -54.5q65 0 113 29t67 80z
M974 1456v-180h-704v180h704z" />
    <glyph glyph-name="Ebreve" unicode="&#x114;" horiz-adv-x="1216" 
d="M1118 337v-337h-1018v1443h1018v-337h-594v-233h557v-304h-557v-232h594zM213 1870h236q3 -67 44.5 -107.5t114.5 -40.5t114.5 40.5t44.5 107.5h236q-5 -142 -109.5 -238t-285.5 -96t-285.5 96t-109.5 238z" />
    <glyph glyph-name="ebreve" unicode="&#x115;" horiz-adv-x="1243" 
d="M631 869q-73 0 -123 -48t-56 -123h358q-5 78 -54 124.5t-125 46.5zM822 363h366q-26 -181 -174.5 -286t-377.5 -105q-275 0 -430.5 155t-155.5 429q0 275 154.5 435.5t418.5 160.5q260 0 415 -154t155 -412v-111h-747v-26q0 -86 55 -140.5t141 -54.5q65 0 113 29t67 80z
M227 1590h236q3 -67 44.5 -107.5t114.5 -40.5t114.5 40.5t44.5 107.5h236q-5 -142 -109.5 -238t-285.5 -96t-285.5 96t-109.5 238z" />
    <glyph glyph-name="Edotaccent" unicode="&#x116;" horiz-adv-x="1216" 
d="M1118 337v-337h-1018v1443h1018v-337h-594v-233h557v-304h-557v-232h594zM608 1536q-74 0 -125.5 52t-51.5 125t51 124.5t126 51.5t126 -51.5t51 -124.5t-51.5 -125t-125.5 -52z" />
    <glyph glyph-name="edotaccent" unicode="&#x117;" horiz-adv-x="1243" 
d="M631 869q-73 0 -123 -48t-56 -123h358q-5 78 -54 124.5t-125 46.5zM822 363h366q-26 -181 -174.5 -286t-377.5 -105q-275 0 -430.5 155t-155.5 429q0 275 154.5 435.5t418.5 160.5q260 0 415 -154t155 -412v-111h-747v-26q0 -86 55 -140.5t141 -54.5q65 0 113 29t67 80z
M620 1264q-75 0 -126 50.5t-51 122.5t51 122.5t126 50.5t126 -50.5t51 -122.5t-51 -122.5t-126 -50.5z" />
    <glyph glyph-name="Eogonek" unicode="&#x118;" horiz-adv-x="1216" 
d="M892 -494q-136 0 -220.5 66.5t-84.5 172.5q0 77 47.5 147t121.5 104v4h-656v1443h1018v-337h-594v-233h557v-304h-557v-232h594v-337l-50 -8q-78 -13 -139 -68.5t-61 -113.5q0 -46 32 -70t92 -24q56 0 72 9v-193q-60 -26 -172 -26z" />
    <glyph glyph-name="eogonek" unicode="&#x119;" horiz-adv-x="1243" 
d="M860 -494q-136 0 -221 67t-85 173q0 70 40.5 129t110.5 92v8q-21 -3 -69 -3q-275 0 -430.5 155t-155.5 429q0 275 154.5 435.5t418.5 160.5q260 0 415 -154t155 -412v-111h-747v-26q0 -86 55 -140.5t141 -54.5q65 0 113 29.5t67 79.5h366q-9 -70 -45.5 -137t-90.5 -112
q-216 -181 -216 -294q0 -104 124 -104q56 0 72 9v-193q-60 -26 -172 -26zM631 869q-73 0 -123 -48t-56 -123h358q-5 78 -54 124.5t-125 46.5z" />
    <glyph glyph-name="Ecaron" unicode="&#x11a;" horiz-adv-x="1216" 
d="M1118 337v-337h-1018v1443h1018v-337h-594v-233h557v-304h-557v-232h594zM451 1536l-255 336h276l132 -192h8l132 192h276l-255 -336h-314z" />
    <glyph glyph-name="ecaron" unicode="&#x11b;" horiz-adv-x="1243" 
d="M631 869q-73 0 -123 -48t-56 -123h358q-5 78 -54 124.5t-125 46.5zM822 363h366q-26 -181 -174.5 -286t-377.5 -105q-275 0 -430.5 155t-155.5 429q0 275 154.5 435.5t418.5 160.5q260 0 415 -154t155 -412v-111h-747v-26q0 -86 55 -140.5t141 -54.5q65 0 113 29t67 80z
M779 1256h-314l-255 336h284l124 -180h8l124 180h284z" />
    <glyph glyph-name="Gcircumflex" unicode="&#x11c;" horiz-adv-x="1530" 
d="M1462 614q0 -297 -177.5 -468t-490.5 -171q-345 0 -537 195t-192 553q0 353 190 549t526 196q270 0 455 -143t209 -366h-417q-21 80 -87.5 127.5t-157.5 47.5q-135 0 -210.5 -106.5t-75.5 -298.5q0 -196 83 -308t224 -112q103 0 171 53t77 140l2 20h-220v282h628v-190z
M599 1872h314l255 -336h-276l-132 192h-8l-132 -192h-276z" />
    <glyph glyph-name="gcircumflex" unicode="&#x11d;" horiz-adv-x="1325" 
d="M653 311q88 0 136 64t48 186t-49 192t-135 70q-85 0 -134 -69.5t-49 -191.5t48 -186.5t135 -64.5zM645 -421q-253 0 -408.5 95.5t-159.5 257.5h394q9 -41 59.5 -66t118.5 -25q84 0 135 40t51 109v224h-8q-29 -89 -120.5 -144.5t-216.5 -55.5q-201 0 -320.5 145.5
t-119.5 405.5q0 271 118 423t328 152q120 0 208.5 -60.5t122.5 -157.5h8v202h410v-1104q0 -199 -165 -320t-435 -121zM820 1592l255 -336h-284l-124 180h-8l-124 -180h-284l255 336h314z" />
    <glyph glyph-name="Gbreve" unicode="&#x11e;" horiz-adv-x="1530" 
d="M1462 614q0 -297 -177.5 -468t-490.5 -171q-345 0 -537 195t-192 553q0 353 190 549t526 196q270 0 455 -143t209 -366h-417q-21 80 -87.5 127.5t-157.5 47.5q-135 0 -210.5 -106.5t-75.5 -298.5q0 -196 83 -308t224 -112q103 0 171 53t77 140l2 20h-220v282h628v-190z
M361 1870h236q3 -67 44.5 -107.5t114.5 -40.5t114.5 40.5t44.5 107.5h236q-5 -142 -109.5 -238t-285.5 -96t-285.5 96t-109.5 238z" />
    <glyph glyph-name="gbreve" unicode="&#x11f;" horiz-adv-x="1325" 
d="M653 311q88 0 136 64t48 186t-49 192t-135 70q-85 0 -134 -69.5t-49 -191.5t48 -186.5t135 -64.5zM645 -421q-253 0 -408.5 95.5t-159.5 257.5h394q9 -41 59.5 -66t118.5 -25q84 0 135 40t51 109v224h-8q-29 -89 -120.5 -144.5t-216.5 -55.5q-201 0 -320.5 145.5
t-119.5 405.5q0 271 118 423t328 152q120 0 208.5 -60.5t122.5 -157.5h8v202h410v-1104q0 -199 -165 -320t-435 -121zM268 1590h236q3 -67 44.5 -107.5t114.5 -40.5t114.5 40.5t44.5 107.5h236q-5 -142 -109.5 -238t-285.5 -96t-285.5 96t-109.5 238z" />
    <glyph glyph-name="Gdotaccent" unicode="&#x120;" horiz-adv-x="1530" 
d="M1462 614q0 -297 -177.5 -468t-490.5 -171q-345 0 -537 195t-192 553q0 353 190 549t526 196q270 0 455 -143t209 -366h-417q-21 80 -87.5 127.5t-157.5 47.5q-135 0 -210.5 -106.5t-75.5 -298.5q0 -196 83 -308t224 -112q103 0 171 53t77 140l2 20h-220v282h628v-190z
M756 1536q-74 0 -125.5 52t-51.5 125t51 124.5t126 51.5t126 -51.5t51 -124.5t-51.5 -125t-125.5 -52z" />
    <glyph glyph-name="gdotaccent" unicode="&#x121;" horiz-adv-x="1325" 
d="M653 311q88 0 136 64t48 186t-49 192t-135 70q-85 0 -134 -69.5t-49 -191.5t48 -186.5t135 -64.5zM645 -421q-253 0 -408.5 95.5t-159.5 257.5h394q9 -41 59.5 -66t118.5 -25q84 0 135 40t51 109v224h-8q-29 -89 -120.5 -144.5t-216.5 -55.5q-201 0 -320.5 145.5
t-119.5 405.5q0 271 118 423t328 152q120 0 208.5 -60.5t122.5 -157.5h8v202h410v-1104q0 -199 -165 -320t-435 -121zM661 1264q-75 0 -126 50.5t-51 122.5t51 122.5t126 50.5t126 -50.5t51 -122.5t-51 -122.5t-126 -50.5z" />
    <glyph glyph-name="Gcommaaccent" unicode="&#x122;" horiz-adv-x="1530" 
d="M1462 614q0 -297 -177.5 -468t-490.5 -171q-345 0 -537 195t-192 553q0 353 190 549t526 196q270 0 455 -143t209 -366h-417q-21 80 -87.5 127.5t-157.5 47.5q-135 0 -210.5 -106.5t-75.5 -298.5q0 -196 83 -308t224 -112q103 0 171 53t77 140l2 20h-220v282h628v-190z
M727 -457h-308l152 321h359z" />
    <glyph glyph-name="gcommaaccent" unicode="&#x123;" horiz-adv-x="1325" 
d="M653 311q88 0 136 64t48 186t-49 192t-135 70q-85 0 -134 -69.5t-49 -191.5t48 -186.5t135 -64.5zM645 -421q-253 0 -408.5 95.5t-159.5 257.5h394q9 -41 59.5 -66t118.5 -25q84 0 135 40t51 109v224h-8q-29 -89 -120.5 -144.5t-216.5 -55.5q-201 0 -320.5 145.5
t-119.5 405.5q0 271 118 423t328 152q120 0 208.5 -60.5t122.5 -157.5h8v202h410v-1104q0 -199 -165 -320t-435 -121zM634 -854h-308l152 321h359z" />
    <glyph glyph-name="Hcircumflex" unicode="&#x124;" horiz-adv-x="1556" 
d="M1456 0h-424v558h-508v-558h-424v1443h424v-548h508v548h424v-1443zM621 1872h314l255 -336h-276l-132 192h-8l-132 -192h-276z" />
    <glyph glyph-name="hcircumflex" unicode="&#x125;" horiz-adv-x="1308" 
d="M85 0v1518h400v-614h8q43 118 133 180t218 62q188 0 288.5 -111.5t100.5 -314.5v-720h-410v629q0 88 -42 137t-121 49q-78 0 -121.5 -51.5t-43.5 -134.5v-629h-410zM131 1947h314l255 -336h-276l-132 192h-8l-132 -192h-276z" />
    <glyph glyph-name="Hbar" unicode="&#x126;" horiz-adv-x="1609" 
d="M1058 895v133h-508v-133h508zM1558 1307v-279h-76v-1028h-424v558h-508v-558h-424v1028h-75v279h75v136h424v-136h508v136h424v-136h76z" />
    <glyph glyph-name="hbar" unicode="&#x127;" horiz-adv-x="1308" 
d="M485 904h8q43 118 133 180t218 62q188 0 288.5 -111.5t100.5 -314.5v-720h-410v629q0 88 -42 137t-121 49q-78 0 -121.5 -51.5t-43.5 -134.5v-629h-410v1237h-49v176h49v105h400v-105h201v-176h-201v-333z" />
    <glyph glyph-name="Itilde" unicode="&#x128;" horiz-adv-x="624" 
d="M524 0h-424v1443h424v-1443zM465 1546q-49 0 -93.5 18.5t-70 41t-54 41t-50.5 18.5q-32 0 -49.5 -28.5t-19.5 -72.5h-201q0 135 73 214t178 79q49 0 93.5 -18.5t70 -41t54 -41t50.5 -18.5q64 0 69 106h201q0 -135 -73 -216.5t-178 -81.5z" />
    <glyph glyph-name="itilde" unicode="&#x129;" horiz-adv-x="570" 
d="M80 0v1124h410v-1124h-410zM438 1258q-49 0 -93.5 18.5t-70 41t-54 41t-50.5 18.5q-32 0 -49.5 -28.5t-19.5 -72.5h-201q0 135 73 214t178 79q49 0 93.5 -18.5t70 -41t54 -41t50.5 -18.5q64 0 69 106h201q0 -135 -73 -216.5t-178 -81.5z" />
    <glyph glyph-name="Imacron" unicode="&#x12a;" horiz-adv-x="624" 
d="M524 0h-424v1443h424v-1443zM686 1786v-180h-748v180h748z" />
    <glyph glyph-name="imacron" unicode="&#x12b;" horiz-adv-x="570" 
d="M80 0v1124h410v-1124h-410zM637 1456v-180h-704v180h704z" />
    <glyph glyph-name="Ibreve" unicode="&#x12c;" horiz-adv-x="624" 
d="M524 0h-424v1443h424v-1443zM-83 1870h236q3 -67 44.5 -107.5t114.5 -40.5t114.5 40.5t44.5 107.5h236q-5 -142 -109.5 -238t-285.5 -96t-285.5 96t-109.5 238z" />
    <glyph glyph-name="ibreve" unicode="&#x12d;" horiz-adv-x="570" 
d="M80 0v1124h410v-1124h-410zM-110 1590h236q3 -67 44.5 -107.5t114.5 -40.5t114.5 40.5t44.5 107.5h236q-5 -142 -109.5 -238t-285.5 -96t-285.5 96t-109.5 238z" />
    <glyph glyph-name="Iogonek" unicode="&#x12e;" horiz-adv-x="624" 
d="M100 -58v1501h424v-1443l-40 -8q-74 -14 -136 -62.5t-62 -111.5q0 -48 35.5 -75t102.5 -27q38 0 72 9v-193q-61 -26 -182 -26q-134 0 -217 67t-83 173q0 113 86 196z" />
    <glyph glyph-name="iogonek" unicode="&#x12f;" horiz-adv-x="570" 
d="M285 1190q-86 0 -145.5 55.5t-59.5 139.5t59.5 139.5t145.5 55.5t145.5 -55.5t59.5 -139.5t-59.5 -139.5t-145.5 -55.5zM80 -40v1164h410v-1124l-60 -8q-69 -9 -121.5 -58t-52.5 -114q0 -49 34 -76.5t100 -27.5q31 0 72 7v-191q-60 -26 -166 -26q-144 0 -230 68.5
t-86 181.5q0 57 26.5 111t73.5 93z" />
    <glyph glyph-name="Idotaccent" unicode="&#x130;" horiz-adv-x="624" 
d="M524 0h-424v1443h424v-1443zM312 1536q-74 0 -125.5 52t-51.5 125t51 124.5t126 51.5t126 -51.5t51 -124.5t-51.5 -125t-125.5 -52z" />
    <glyph glyph-name="dotlessi" unicode="&#x131;" horiz-adv-x="570" 
d="M80 0v1124h410v-1124h-410z" />
    <glyph glyph-name="u0132" unicode="&#x132;" horiz-adv-x="1895" 
d="M524 0h-424v1443h424v-1443zM644 511h406q0 -85 41.5 -133t114.5 -48q70 0 106.5 44.5t36.5 129.5v939h424v-942q0 -252 -148 -389t-413 -137q-263 0 -415.5 143t-152.5 393z" />
    <glyph glyph-name="u0133" unicode="&#x133;" horiz-adv-x="1140" 
d="M80 0v1124h410v-1124h-410zM285 1190q-86 0 -145.5 55.5t-59.5 139.5t59.5 139.5t145.5 55.5t145.5 -55.5t59.5 -139.5t-59.5 -139.5t-145.5 -55.5zM1060 1124v-1143q0 -171 -118.5 -266t-332.5 -95q-77 0 -125 6v286q18 -3 47 -3q62 0 90.5 21.5t28.5 68.5v1125h410z
M855 1190q-86 0 -145.5 55.5t-59.5 139.5t59.5 139.5t145.5 55.5t145.5 -55.5t59.5 -139.5t-59.5 -139.5t-145.5 -55.5z" />
    <glyph glyph-name="Jcircumflex" unicode="&#x134;" horiz-adv-x="1271" 
d="M20 511h406q0 -85 41.5 -133t114.5 -48q70 0 106.5 44.5t36.5 129.5v939h424v-942q0 -252 -148 -389t-413 -137q-263 0 -415.5 143t-152.5 393zM789 1872h314l255 -336h-276l-132 192h-8l-132 -192h-276z" />
    <glyph glyph-name="jcircumflex" unicode="&#x135;" horiz-adv-x="570" 
d="M490 1124v-1143q0 -171 -118.5 -266t-332.5 -95q-77 0 -125 6v286q18 -3 47 -3q62 0 90.5 21.5t28.5 68.5v1125h410zM442 1592l255 -336h-284l-124 180h-8l-124 -180h-284l255 336h314z" />
    <glyph glyph-name="Kcommaaccent" unicode="&#x136;" horiz-adv-x="1445" 
d="M524 0h-424v1443h424v-612h8l446 612h445l-475 -641l497 -802h-493l-315 530l-113 -152v-378zM694 -457h-308l152 321h359z" />
    <glyph glyph-name="kcommaaccent" unicode="&#x137;" horiz-adv-x="1226" 
d="M503 715l280 409h452l-378 -480l404 -644h-471l-238 399l-57 -74v-325h-410v1518h410v-803h8zM584 -457h-308l152 321h359z" />
    <glyph glyph-name="Lacute" unicode="&#x139;" horiz-adv-x="1150" 
d="M1090 337v-337h-990v1443h424v-1106h566zM451 1555h-306l232 321h348z" />
    <glyph glyph-name="lacute" unicode="&#x13a;" horiz-adv-x="580" 
d="M85 0v1518h410v-1518h-410zM430 1630h-306l232 321h348z" />
    <glyph glyph-name="Lcommaaccent" unicode="&#x13b;" horiz-adv-x="1150" 
d="M1090 337v-337h-990v1443h424v-1106h566zM546 -457h-308l152 321h359z" />
    <glyph glyph-name="lcommaaccent" unicode="&#x13c;" horiz-adv-x="580" 
d="M85 0v1518h410v-1518h-410zM261 -457h-308l152 321h359z" />
    <glyph glyph-name="Lcaron" unicode="&#x13d;" horiz-adv-x="1150" 
d="M760 1443h322l-50 -518h-272v518zM1090 337v-337h-990v1443h424v-1106h566z" />
    <glyph glyph-name="lcaron" unicode="&#x13e;" horiz-adv-x="863" 
d="M650 1508h293l-50 -518h-243v518zM85 0v1518h410v-1518h-410z" />
    <glyph glyph-name="Lslash" unicode="&#x141;" horiz-adv-x="1176" 
d="M550 337h566v-337h-990v573l-72 -39v256l72 39v614h424v-383l250 136v-256l-250 -136v-467z" />
    <glyph glyph-name="lslash" unicode="&#x142;" horiz-adv-x="630" 
d="M610 1168v-256l-90 -53v-859h-410v619l-90 -53v256l90 53v643h410v-403z" />
    <glyph glyph-name="Nacute" unicode="&#x143;" horiz-adv-x="1494" 
d="M500 0h-400v1443h329l557 -748h8v748h400v-1443h-325l-561 760h-8v-760zM887 1555h-306l232 321h348z" />
    <glyph glyph-name="nacute" unicode="&#x144;" horiz-adv-x="1299" 
d="M80 0v1124h400v-220h8q88 242 345 242q188 0 289.5 -111.5t101.5 -314.5v-720h-410v629q0 88 -41 137t-120 49q-75 0 -119 -51.5t-44 -134.5v-629h-410zM799 1275h-314l232 321h347z" />
    <glyph glyph-name="Ncommaaccent" unicode="&#x145;" horiz-adv-x="1494" 
d="M500 0h-400v1443h329l557 -748h8v748h400v-1443h-325l-561 760h-8v-760zM718 -457h-308l152 321h359z" />
    <glyph glyph-name="ncommaaccent" unicode="&#x146;" horiz-adv-x="1299" 
d="M80 0v1124h400v-220h8q88 242 345 242q188 0 289.5 -111.5t101.5 -314.5v-720h-410v629q0 88 -41 137t-120 49q-75 0 -119 -51.5t-44 -134.5v-629h-410zM623 -457h-308l152 321h359z" />
    <glyph glyph-name="Ncaron" unicode="&#x147;" horiz-adv-x="1494" 
d="M500 0h-400v1443h329l557 -748h8v748h400v-1443h-325l-561 760h-8v-760zM590 1536l-255 336h276l132 -192h8l132 192h276l-255 -336h-314z" />
    <glyph glyph-name="ncaron" unicode="&#x148;" horiz-adv-x="1299" 
d="M80 0v1124h400v-220h8q88 242 345 242q188 0 289.5 -111.5t101.5 -314.5v-720h-410v629q0 88 -41 137t-120 49q-75 0 -119 -51.5t-44 -134.5v-629h-410zM807 1256h-314l-255 336h284l124 -180h8l124 180h284z" />
    <glyph glyph-name="Omacron" unicode="&#x14c;" horiz-adv-x="1584" 
d="M792 1468q335 0 531 -201t196 -546t-196 -545.5t-531 -200.5q-336 0 -531.5 200.5t-195.5 545.5t196 546t531 201zM792 1130q-133 0 -214 -111t-81 -298q0 -186 80.5 -297t214.5 -111t214.5 111t80.5 297q0 187 -81 298t-214 111zM1166 1786v-180h-748v180h748z" />
    <glyph glyph-name="omacron" unicode="&#x14d;" horiz-adv-x="1278" 
d="M639 -28q-276 0 -432.5 154.5t-156.5 436.5q0 275 159 432t430 157q273 0 431 -156.5t158 -432.5q0 -283 -156 -437t-433 -154zM639 266q81 0 127 77t46 219q0 139 -46.5 217.5t-126.5 78.5t-126.5 -78.5t-46.5 -217.5q0 -142 45.5 -219t127.5 -77zM991 1456v-180h-704
v180h704z" />
    <glyph glyph-name="Obreve" unicode="&#x14e;" horiz-adv-x="1584" 
d="M792 1468q335 0 531 -201t196 -546t-196 -545.5t-531 -200.5q-336 0 -531.5 200.5t-195.5 545.5t196 546t531 201zM792 1130q-133 0 -214 -111t-81 -298q0 -186 80.5 -297t214.5 -111t214.5 111t80.5 297q0 187 -81 298t-214 111zM397 1870h236q3 -67 44.5 -107.5
t114.5 -40.5t114.5 40.5t44.5 107.5h236q-5 -142 -109.5 -238t-285.5 -96t-285.5 96t-109.5 238z" />
    <glyph glyph-name="obreve" unicode="&#x14f;" horiz-adv-x="1278" 
d="M639 -28q-276 0 -432.5 154.5t-156.5 436.5q0 275 159 432t430 157q273 0 431 -156.5t158 -432.5q0 -283 -156 -437t-433 -154zM639 266q81 0 127 77t46 219q0 139 -46.5 217.5t-126.5 78.5t-126.5 -78.5t-46.5 -217.5q0 -142 45.5 -219t127.5 -77zM244 1590h236
q3 -67 44.5 -107.5t114.5 -40.5t114.5 40.5t44.5 107.5h236q-5 -142 -109.5 -238t-285.5 -96t-285.5 96t-109.5 238z" />
    <glyph glyph-name="Ohungarumlaut" unicode="&#x150;" horiz-adv-x="1584" 
d="M792 1468q335 0 531 -201t196 -546t-196 -545.5t-531 -200.5q-336 0 -531.5 200.5t-195.5 545.5t196 546t531 201zM792 1130q-133 0 -214 -111t-81 -298q0 -186 80.5 -297t214.5 -111t214.5 111t80.5 297q0 187 -81 298t-214 111zM1178 1555h-306l232 321h348zM698 1555
h-306l232 321h348z" />
    <glyph glyph-name="ohungarumlaut" unicode="&#x151;" horiz-adv-x="1278" 
d="M639 -28q-276 0 -432.5 154.5t-156.5 436.5q0 275 159 432t430 157q273 0 431 -156.5t158 -432.5q0 -283 -156 -437t-433 -154zM639 266q81 0 127 77t46 219q0 139 -46.5 217.5t-126.5 78.5t-126.5 -78.5t-46.5 -217.5q0 -142 45.5 -219t127.5 -77zM699 1276l182 320h309
l-211 -320h-280zM274 1276l183 320h308l-211 -320h-280z" />
    <glyph glyph-name="OE" unicode="&#x152;" horiz-adv-x="2216" 
d="M802 1136q-133 0 -214 -114t-81 -301t80.5 -300.5t214.5 -113.5t214.5 113.5t80.5 300.5t-81 301t-214 114zM1160 0v244q-32 -122 -163 -203t-291 -81q-177 0 -321 96.5t-227 271t-83 393.5q0 220 83.5 394.5t229 271t325.5 96.5q156 0 276 -78t171 -216v254h958v-337
h-594v-233h557v-304h-557v-232h594v-337h-958z" />
    <glyph glyph-name="oe" unicode="&#x153;" horiz-adv-x="1987" 
d="M1425 -28q-134 0 -239.5 47.5t-157.5 130.5h-20q-129 -178 -388 -178q-261 0 -415.5 158.5t-154.5 426.5q0 269 154.5 432t409.5 163q129 0 230 -46t163 -132h20q52 81 155.5 129.5t226.5 48.5q235 0 381.5 -157.5t146.5 -408.5v-111h-725v-44q0 -78 54.5 -127.5
t140.5 -49.5q61 0 104 24t55 65h366q-23 -164 -165 -267.5t-342 -103.5zM1548 698q-4 79 -48.5 125.5t-115.5 46.5q-73 0 -121.5 -48.5t-50.5 -123.5h336zM451 559q0 -133 44.5 -207t124.5 -74t124.5 74t44.5 208q0 133 -45 209.5t-124 76.5t-124 -76.5t-45 -210.5z" />
    <glyph glyph-name="Racute" unicode="&#x154;" horiz-adv-x="1395" 
d="M524 1130v-366h175q89 0 140.5 50t51.5 132q0 81 -53 132.5t-138 51.5h-176zM524 484v-484h-424v1443h641q286 0 434.5 -128t148.5 -362q0 -131 -61.5 -242t-171.5 -164l274 -547h-474l-228 484h-139zM838 1555h-306l232 321h348z" />
    <glyph glyph-name="racute" unicode="&#x155;" horiz-adv-x="868" 
d="M80 0v1124h400v-220h8q62 236 263 236q54 0 97 -16v-345q-54 23 -121 23q-117 0 -177 -60t-60 -178v-564h-410zM589 1275h-314l232 321h347z" />
    <glyph glyph-name="Rcommaaccent" unicode="&#x156;" horiz-adv-x="1395" 
d="M524 1130v-366h175q89 0 140.5 50t51.5 132q0 81 -53 132.5t-138 51.5h-176zM524 484v-484h-424v1443h641q286 0 434.5 -128t148.5 -362q0 -131 -61.5 -242t-171.5 -164l274 -547h-474l-228 484h-139zM669 -457h-308l152 321h359z" />
    <glyph glyph-name="rcommaaccent" unicode="&#x157;" horiz-adv-x="868" 
d="M80 0v1124h400v-220h8q62 236 263 236q54 0 97 -16v-345q-54 23 -121 23q-117 0 -177 -60t-60 -178v-564h-410zM260 -457h-308l152 321h359z" />
    <glyph glyph-name="Rcaron" unicode="&#x158;" horiz-adv-x="1395" 
d="M524 1130v-366h175q89 0 140.5 50t51.5 132q0 81 -53 132.5t-138 51.5h-176zM524 484v-484h-424v1443h641q286 0 434.5 -128t148.5 -362q0 -131 -61.5 -242t-171.5 -164l274 -547h-474l-228 484h-139zM541 1536l-255 336h276l132 -192h8l132 192h276l-255 -336h-314z" />
    <glyph glyph-name="rcaron" unicode="&#x159;" horiz-adv-x="868" 
d="M80 0v1124h400v-220h8q62 236 263 236q54 0 97 -16v-345q-54 23 -121 23q-117 0 -177 -60t-60 -178v-564h-410zM597 1256h-314l-255 336h284l124 -180h8l124 180h284z" />
    <glyph glyph-name="Sacute" unicode="&#x15a;" horiz-adv-x="1370" 
d="M60 425h401q9 -60 74 -98t152 -38q94 0 149.5 34t55.5 87q0 50 -45 76.5t-163 47.5l-191 34q-198 34 -303.5 144t-105.5 280q0 216 166 346t428 130q285 0 442 -122t159 -334h-387q-2 66 -60 104.5t-146 38.5q-83 0 -132 -32t-49 -86q0 -51 46 -81t150 -48l198 -34
q210 -37 310.5 -138.5t100.5 -277.5q0 -221 -171.5 -352t-459.5 -131q-292 0 -455 117.5t-164 332.5zM825 1555h-306l232 321h348z" />
    <glyph glyph-name="sacute" unicode="&#x15b;" horiz-adv-x="1172" 
d="M60 776q0 175 139.5 275.5t383.5 100.5t382.5 -103.5t138.5 -286.5h-372q-1 56 -42 88.5t-110 32.5q-58 0 -92.5 -22t-34.5 -58q0 -55 111 -76l251 -50q167 -33 244.5 -107.5t77.5 -202.5q0 -181 -149 -288t-396 -107q-257 0 -401.5 104.5t-155.5 286.5h396
q7 -57 51 -89.5t115 -32.5q63 0 98.5 20.5t35.5 56.5q0 28 -25 45t-83 28l-216 43q-169 34 -258 121.5t-89 220.5zM735 1275h-314l232 321h347z" />
    <glyph glyph-name="Scircumflex" unicode="&#x15c;" horiz-adv-x="1370" 
d="M60 425h401q9 -60 74 -98t152 -38q94 0 149.5 34t55.5 87q0 50 -45 76.5t-163 47.5l-191 34q-198 34 -303.5 144t-105.5 280q0 216 166 346t428 130q285 0 442 -122t159 -334h-387q-2 66 -60 104.5t-146 38.5q-83 0 -132 -32t-49 -86q0 -51 46 -81t150 -48l198 -34
q210 -37 310.5 -138.5t100.5 -277.5q0 -221 -171.5 -352t-459.5 -131q-292 0 -455 117.5t-164 332.5zM528 1872h314l255 -336h-276l-132 192h-8l-132 -192h-276z" />
    <glyph glyph-name="scircumflex" unicode="&#x15d;" horiz-adv-x="1172" 
d="M60 776q0 175 139.5 275.5t383.5 100.5t382.5 -103.5t138.5 -286.5h-372q-1 56 -42 88.5t-110 32.5q-58 0 -92.5 -22t-34.5 -58q0 -55 111 -76l251 -50q167 -33 244.5 -107.5t77.5 -202.5q0 -181 -149 -288t-396 -107q-257 0 -401.5 104.5t-155.5 286.5h396
q7 -57 51 -89.5t115 -32.5q63 0 98.5 20.5t35.5 56.5q0 28 -25 45t-83 28l-216 43q-169 34 -258 121.5t-89 220.5zM743 1592l255 -336h-284l-124 180h-8l-124 -180h-284l255 336h314z" />
    <glyph glyph-name="Scedilla" unicode="&#x15e;" horiz-adv-x="1370" 
d="M701 908l198 -34q210 -37 310.5 -138.5t100.5 -277.5q0 -198 -139.5 -325t-379.5 -152l-36 -70q72 0 117 -46t45 -122q0 -195 -263 -195q-94 0 -133 15v141q37 -12 99 -12q94 0 94 37q0 26 -22 36t-78 10h-56v127l42 75q-256 16 -397.5 132t-142.5 316h401q9 -60 74 -98
t152 -38q94 0 149.5 34t55.5 87q0 50 -45 76.5t-163 47.5l-191 34q-198 34 -303.5 144t-105.5 280q0 216 166 346t428 130q285 0 442 -122t159 -334h-387q-2 66 -60 104.5t-146 38.5q-83 0 -132 -32t-49 -86q0 -51 46 -81t150 -48z" />
    <glyph glyph-name="scedilla" unicode="&#x15f;" horiz-adv-x="1172" 
d="M564 727l251 -50q167 -33 244.5 -107.5t77.5 -202.5q0 -162 -120.5 -266t-326.5 -124l-34 -66q72 0 117 -46t45 -122q0 -195 -263 -195q-94 0 -133 15v141q38 -12 99 -12q94 0 94 37q0 26 -22 36t-78 10h-56v127l41 74q-215 19 -335 121t-130 266h396q7 -57 51 -89.5
t115 -32.5q63 0 98.5 20.5t35.5 56.5q0 28 -25 45t-83 28l-216 43q-169 34 -258 121.5t-89 220.5q0 175 139.5 275.5t383.5 100.5t382.5 -103.5t138.5 -286.5h-372q-1 56 -42 88.5t-110 32.5q-58 0 -92.5 -22t-34.5 -58q0 -55 111 -76z" />
    <glyph glyph-name="Scaron" unicode="&#x160;" horiz-adv-x="1370" 
d="M60 425h401q9 -60 74 -98t152 -38q94 0 149.5 34t55.5 87q0 50 -45 76.5t-163 47.5l-191 34q-198 34 -303.5 144t-105.5 280q0 216 166 346t428 130q285 0 442 -122t159 -334h-387q-2 66 -60 104.5t-146 38.5q-83 0 -132 -32t-49 -86q0 -51 46 -81t150 -48l198 -34
q210 -37 310.5 -138.5t100.5 -277.5q0 -221 -171.5 -352t-459.5 -131q-292 0 -455 117.5t-164 332.5zM528 1536l-255 336h276l132 -192h8l132 192h276l-255 -336h-314z" />
    <glyph glyph-name="scaron" unicode="&#x161;" horiz-adv-x="1172" 
d="M60 776q0 175 139.5 275.5t383.5 100.5t382.5 -103.5t138.5 -286.5h-372q-1 56 -42 88.5t-110 32.5q-58 0 -92.5 -22t-34.5 -58q0 -55 111 -76l251 -50q167 -33 244.5 -107.5t77.5 -202.5q0 -181 -149 -288t-396 -107q-257 0 -401.5 104.5t-155.5 286.5h396
q7 -57 51 -89.5t115 -32.5q63 0 98.5 20.5t35.5 56.5q0 28 -25 45t-83 28l-216 43q-169 34 -258 121.5t-89 220.5zM743 1256h-314l-255 336h284l124 -180h8l124 180h284z" />
    <glyph glyph-name="Tcedilla" unicode="&#x162;" horiz-adv-x="1274" 
d="M849 0h-96l-46 -89q72 0 117 -46t45 -122q0 -195 -263 -195q-94 0 -133 15v141q37 -12 99 -12q94 0 94 37q0 26 -22 36t-78 10h-56v127l54 98h-139v1106h-380v337h1184v-337h-380v-1106z" />
    <glyph glyph-name="tcedilla" unicode="&#x163;" horiz-adv-x="847" 
d="M787 826h-198v-423q0 -108 127 -108q41 0 71 5v-285q-73 -15 -170 -15l-46 -89q72 0 117 -46t45 -122q0 -195 -263 -195q-94 0 -133 15v141q37 -12 99 -12q94 0 94 37q0 26 -22 36t-78 10h-56v127l62 112q-135 25 -196 96.5t-61 202.5v513h-149v298h149v247h410v-247h198
v-298z" />
    <glyph glyph-name="Tcaron" unicode="&#x164;" horiz-adv-x="1274" 
d="M849 0h-424v1106h-380v337h1184v-337h-380v-1106zM480 1536l-255 336h276l132 -192h8l132 192h276l-255 -336h-314z" />
    <glyph glyph-name="tcaron" unicode="&#x165;" horiz-adv-x="947" 
d="M736 1768h293l-50 -518h-243v518zM179 1371h410v-247h198v-298h-198v-423q0 -108 127 -108q41 0 71 5v-285q-73 -15 -170 -15q-235 0 -336.5 73t-101.5 240v513h-149v298h149v247z" />
    <glyph glyph-name="Tbar" unicode="&#x166;" horiz-adv-x="1345" 
d="M1249 1106h-380v-299h277v-279h-277v-528h-424v528h-245v279h245v299h-380v337h1184v-337z" />
    <glyph glyph-name="tbar" unicode="&#x167;" horiz-adv-x="947" 
d="M841 490h-252v-87q0 -108 127 -108q41 0 71 5v-285q-73 -15 -170 -15q-235 0 -336.5 73t-101.5 240v177h-128v176h128v160h-149v298h149v247h410v-247h198v-298h-198v-160h252v-176z" />
    <glyph glyph-name="Utilde" unicode="&#x168;" horiz-adv-x="1472" 
d="M524 1443v-882q0 -114 54.5 -174.5t157.5 -60.5t157.5 60.5t54.5 174.5v882h424v-929q0 -246 -174.5 -392.5t-461.5 -146.5t-461.5 146.5t-174.5 392.5v929h424zM889 1546q-49 0 -93.5 18.5t-70 41t-54 41t-50.5 18.5q-32 0 -49.5 -28.5t-19.5 -72.5h-201q0 135 73 214
t178 79q49 0 93.5 -18.5t70 -41t54 -41t50.5 -18.5q64 0 69 106h201q0 -135 -73 -216.5t-178 -81.5z" />
    <glyph glyph-name="utilde" unicode="&#x169;" horiz-adv-x="1299" 
d="M1219 1124v-1124h-400v220h-8q-34 -116 -114.5 -179t-204.5 -63q-185 0 -301 114.5t-116 310.5v721h410v-629q0 -89 44.5 -137.5t120.5 -48.5q72 0 115.5 51t43.5 135v629h410zM803 1258q-49 0 -93.5 18.5t-70 41t-54 41t-50.5 18.5q-32 0 -49.5 -28.5t-19.5 -72.5h-201
q0 135 73 214t178 79q49 0 93.5 -18.5t70 -41t54 -41t50.5 -18.5q64 0 69 106h201q0 -135 -73 -216.5t-178 -81.5z" />
    <glyph glyph-name="Umacron" unicode="&#x16a;" horiz-adv-x="1472" 
d="M524 1443v-882q0 -114 54.5 -174.5t157.5 -60.5t157.5 60.5t54.5 174.5v882h424v-929q0 -246 -174.5 -392.5t-461.5 -146.5t-461.5 146.5t-174.5 392.5v929h424zM1110 1786v-180h-748v180h748z" />
    <glyph glyph-name="umacron" unicode="&#x16b;" horiz-adv-x="1299" 
d="M1219 1124v-1124h-400v220h-8q-34 -116 -114.5 -179t-204.5 -63q-185 0 -301 114.5t-116 310.5v721h410v-629q0 -89 44.5 -137.5t120.5 -48.5q72 0 115.5 51t43.5 135v629h410zM1002 1456v-180h-704v180h704z" />
    <glyph glyph-name="Ubreve" unicode="&#x16c;" horiz-adv-x="1472" 
d="M524 1443v-882q0 -114 54.5 -174.5t157.5 -60.5t157.5 60.5t54.5 174.5v882h424v-929q0 -246 -174.5 -392.5t-461.5 -146.5t-461.5 146.5t-174.5 392.5v929h424zM341 1870h236q3 -67 44.5 -107.5t114.5 -40.5t114.5 40.5t44.5 107.5h236q-5 -142 -109.5 -238t-285.5 -96
t-285.5 96t-109.5 238z" />
    <glyph glyph-name="ubreve" unicode="&#x16d;" horiz-adv-x="1299" 
d="M1219 1124v-1124h-400v220h-8q-34 -116 -114.5 -179t-204.5 -63q-185 0 -301 114.5t-116 310.5v721h410v-629q0 -89 44.5 -137.5t120.5 -48.5q72 0 115.5 51t43.5 135v629h410zM255 1590h236q3 -67 44.5 -107.5t114.5 -40.5t114.5 40.5t44.5 107.5h236
q-5 -142 -109.5 -238t-285.5 -96t-285.5 96t-109.5 238z" />
    <glyph glyph-name="Uring" unicode="&#x16e;" horiz-adv-x="1472" 
d="M524 1443v-882q0 -114 54.5 -174.5t157.5 -60.5t157.5 60.5t54.5 174.5v882h424v-929q0 -246 -174.5 -392.5t-461.5 -146.5t-461.5 146.5t-174.5 392.5v929h424zM736 1520q-89 0 -154.5 62.5t-65.5 149.5q0 88 65 150.5t155 62.5t154.5 -62.5t64.5 -150.5
q0 -87 -65 -149.5t-154 -62.5zM736 1656q32 0 56 22.5t24 53.5q0 32 -24 55t-56 23t-56 -23t-24 -55q0 -31 24 -53.5t56 -22.5z" />
    <glyph glyph-name="uring" unicode="&#x16f;" horiz-adv-x="1299" 
d="M1219 1124v-1124h-400v220h-8q-34 -116 -114.5 -179t-204.5 -63q-185 0 -301 114.5t-116 310.5v721h410v-629q0 -89 44.5 -137.5t120.5 -48.5q72 0 115.5 51t43.5 135v629h410zM650 1235q-99 0 -171.5 69.5t-72.5 165.5q0 97 72.5 166.5t171.5 69.5t171 -69.5t72 -166.5
t-72 -166t-171 -69zM650 1386q35 0 61.5 25t26.5 59q0 35 -26.5 60.5t-61.5 25.5t-61.5 -25.5t-26.5 -60.5q0 -34 26.5 -59t61.5 -25z" />
    <glyph glyph-name="Uhungarumlaut" unicode="&#x170;" horiz-adv-x="1472" 
d="M524 1443v-882q0 -114 54.5 -174.5t157.5 -60.5t157.5 60.5t54.5 174.5v882h424v-929q0 -246 -174.5 -392.5t-461.5 -146.5t-461.5 146.5t-174.5 392.5v929h424zM1122 1555h-306l232 321h348zM642 1555h-306l232 321h348z" />
    <glyph glyph-name="uhungarumlaut" unicode="&#x171;" horiz-adv-x="1299" 
d="M1219 1124v-1124h-400v220h-8q-34 -116 -114.5 -179t-204.5 -63q-185 0 -301 114.5t-116 310.5v721h410v-629q0 -89 44.5 -137.5t120.5 -48.5q72 0 115.5 51t43.5 135v629h410zM710 1276l182 320h309l-211 -320h-280zM285 1276l183 320h308l-211 -320h-280z" />
    <glyph glyph-name="Uogonek" unicode="&#x172;" horiz-adv-x="1472" 
d="M964 -494q-136 0 -221 64t-85 166q0 68 48 136.5t116 99.5v8q-32 -5 -86 -5q-289 0 -462.5 147t-173.5 392v929h424v-882q0 -114 54.5 -174.5t157.5 -60.5t157.5 60.5t54.5 174.5v882h424v-929q0 -133 -53 -240.5t-153 -176.5q-119 -83 -172.5 -148.5t-53.5 -128.5
q0 -50 32.5 -77t91.5 -27q56 0 72 9v-193q-60 -26 -172 -26z" />
    <glyph glyph-name="uogonek" unicode="&#x173;" horiz-adv-x="1299" 
d="M1155 -468q-60 -26 -172 -26q-137 0 -221.5 67t-84.5 173q0 67 39.5 132t102.5 102v240h-8q-34 -116 -114.5 -179t-204.5 -63q-185 0 -301 114.5t-116 310.5v721h410v-629q0 -89 44.5 -137.5t120.5 -48.5q72 0 115.5 51t43.5 135v629h410v-1124l-60 -8
q-81 -11 -140.5 -63t-59.5 -119q0 -44 31 -69t93 -25q56 0 72 9v-193z" />
    <glyph glyph-name="Wcircumflex" unicode="&#x174;" horiz-adv-x="2062" 
d="M1027 826l-215 -826h-400l-372 1443h438l166 -912h8l215 912h328l215 -912h8l166 912h438l-372 -1443h-400l-215 826h-8zM874 1872h314l255 -336h-276l-132 192h-8l-132 -192h-276z" />
    <glyph glyph-name="wcircumflex" unicode="&#x175;" horiz-adv-x="1796" 
d="M1786 1124l-284 -1124h-445l-159 729h-8l-157 -729h-437l-286 1124h415l122 -764h8l151 764h391l154 -764h8l122 764h405zM1055 1592l255 -336h-284l-124 180h-8l-124 -180h-284l255 336h314z" />
    <glyph glyph-name="Ycircumflex" unicode="&#x176;" horiz-adv-x="1470" 
d="M947 0h-424v457l-493 986h453l253 -585h8l253 585h443l-493 -986v-457zM578 1872h314l255 -336h-276l-132 192h-8l-132 -192h-276z" />
    <glyph glyph-name="ycircumflex" unicode="&#x177;" horiz-adv-x="1246" 
d="M268 -412h-146v306h60q89 0 140 19.5t52 54.5v20l-374 1136h455l175 -828h8l175 828h433l-339 -1101q-72 -233 -221 -334t-418 -101zM780 1592l255 -336h-284l-124 180h-8l-124 -180h-284l255 336h314z" />
    <glyph glyph-name="Ydieresis" unicode="&#x178;" horiz-adv-x="1470" 
d="M947 0h-424v457l-493 986h453l253 -585h8l253 585h443l-493 -986v-457zM513 1536q-68 0 -113 44t-45 106q0 63 45 106.5t113 43.5t113 -43.5t45 -106.5q0 -62 -45 -106t-113 -44zM957 1536q-68 0 -113 44t-45 106q0 63 45 106.5t113 43.5t113 -43.5t45 -106.5
q0 -62 -45 -106t-113 -44z" />
    <glyph glyph-name="Zacute" unicode="&#x179;" horiz-adv-x="1321" 
d="M80 0v266l643 832v8h-637v337h1131v-265l-641 -833v-8h665v-337h-1161zM801 1555h-306l232 321h348z" />
    <glyph glyph-name="zacute" unicode="&#x17a;" horiz-adv-x="1128" 
d="M60 0v209l506 603v8h-490v304h970v-244l-446 -568v-8h468v-304h-1008zM713 1275h-314l232 321h347z" />
    <glyph glyph-name="Zdotaccent" unicode="&#x17b;" horiz-adv-x="1321" 
d="M80 0v266l643 832v8h-637v337h1131v-265l-641 -833v-8h665v-337h-1161zM661 1536q-74 0 -125.5 52t-51.5 125t51 124.5t126 51.5t126 -51.5t51 -124.5t-51.5 -125t-125.5 -52z" />
    <glyph glyph-name="zdotaccent" unicode="&#x17c;" horiz-adv-x="1128" 
d="M60 0v209l506 603v8h-490v304h970v-244l-446 -568v-8h468v-304h-1008zM562 1264q-75 0 -126 50.5t-51 122.5t51 122.5t126 50.5t126 -50.5t51 -122.5t-51 -122.5t-126 -50.5z" />
    <glyph glyph-name="Zcaron" unicode="&#x17d;" horiz-adv-x="1321" 
d="M80 0v266l643 832v8h-637v337h1131v-265l-641 -833v-8h665v-337h-1161zM504 1536l-255 336h276l132 -192h8l132 192h276l-255 -336h-314z" />
    <glyph glyph-name="zcaron" unicode="&#x17e;" horiz-adv-x="1128" 
d="M60 0v209l506 603v8h-490v304h970v-244l-446 -568v-8h468v-304h-1008zM721 1256h-314l-255 336h284l124 -180h8l124 180h284z" />
    <glyph glyph-name="florin" unicode="&#x192;" horiz-adv-x="1413" 
d="M1317 1421v-310q-63 29 -149 29q-174 0 -205 -184l-14 -86h329v-276h-376l-28 -169q-39 -234 -178 -341.5t-385 -107.5q-144 0 -215 33v311q70 -32 156 -32q89 0 135.5 43t63.5 141l20 122h-297v276h343l23 136q40 235 177.5 340.5t405.5 105.5q50 0 109 -9.5t85 -21.5z
" />
    <glyph glyph-name="Ohorn" unicode="&#x1a0;" horiz-adv-x="1700" 
d="M792 -25q-336 0 -531.5 200.5t-195.5 545.5t196 546t531 201q102 0 233.5 -30t213.5 -30q52 0 80 22.5t28 63.5v185h303v-270q0 -118 -59 -179t-173 -61h-63v-8q69 -59 116.5 -187.5t47.5 -252.5q0 -344 -195.5 -545t-531.5 -201zM792 313q134 0 214.5 111t80.5 297
t-80.5 297.5t-214.5 111.5t-214.5 -111.5t-80.5 -297.5t80.5 -297t214.5 -111z" />
    <glyph glyph-name="ohorn" unicode="&#x1a1;" horiz-adv-x="1400" 
d="M639 266q82 0 127.5 78t45.5 218q0 138 -46.5 217t-126.5 79t-126.5 -79t-46.5 -217q0 -141 45.5 -218.5t127.5 -77.5zM1227 526q0 -248 -159.5 -401t-418.5 -153q-285 0 -442 155t-157 436q0 273 158 431t431 158q86 0 178.5 -24t135.5 -24q59 0 85 18.5t26 59.5v153
h303v-252q0 -111 -53.5 -164.5t-163.5 -53.5h-36v-8q113 -113 113 -331z" />
    <glyph glyph-name="Uhorn" unicode="&#x1af;" horiz-adv-x="1773" 
d="M736 -26q-288 0 -462 147.5t-174 391.5v930h424v-883q0 -113 54.5 -173.5t157.5 -60.5t157.5 60t54.5 174v883h444q31 0 49.5 17t18.5 49v205h303v-290q0 -114 -67 -177t-185 -63h-139v-671q0 -245 -173.5 -392t-462.5 -147z" />
    <glyph glyph-name="uhorn" unicode="&#x1b0;" horiz-adv-x="1617" 
d="M811 220q-34 -116 -114.5 -179t-204.5 -63q-185 0 -301 114.5t-116 310.5v721h410v-629q0 -89 44.5 -137.5t120.5 -48.5q72 0 115.5 51t43.5 135v629h437q32 0 50 17.5t18 48.5v165h303v-250q0 -113 -66.5 -176.5t-185.5 -63.5h-146v-865h-400v220h-8z" />
    <glyph glyph-name="u01C4" unicode="&#x1c4;" horiz-adv-x="2798" 
d="M100 1443h617q331 0 513 -183.5t182 -527.5q0 -346 -183.5 -539t-511.5 -193h-617v1443zM524 1106v-769h133q323 0 323 395q0 181 -84.5 277.5t-238.5 96.5h-133zM1557 0v266l643 832v8h-637v337h1131v-265l-641 -833v-8h665v-337h-1161zM1981 1536l-255 336h276
l132 -192h8l132 192h276l-255 -336h-314z" />
    <glyph glyph-name="u01C5" unicode="&#x1c5;" horiz-adv-x="2605" 
d="M100 1443h617q331 0 513 -183.5t182 -527.5q0 -346 -183.5 -539t-511.5 -193h-617v1443zM524 1106v-769h133q323 0 323 395q0 181 -84.5 277.5t-238.5 96.5h-133zM1537 0v209l506 603v8h-490v304h970v-244l-446 -568v-8h468v-304h-1008zM2198 1256h-314l-255 336h284
l124 -180h8l124 180h284z" />
    <glyph glyph-name="u01C6" unicode="&#x1c6;" horiz-adv-x="2453" 
d="M490 -16q-208 0 -324 153.5t-116 427.5q0 271 118 423t328 152q120 0 208.5 -60.5t122.5 -157.5h8v596h410v-1518h-410v194h-8q-29 -91 -121.5 -150.5t-215.5 -59.5zM653 823q-85 0 -134 -69.5t-49 -191.5q0 -123 48.5 -192t134.5 -69q87 0 135.5 68.5t48.5 191.5
q0 122 -49 192t-135 70zM1385 0v209l506 603v8h-490v304h970v-244l-446 -568v-8h468v-304h-1008zM2046 1256h-314l-255 336h284l124 -180h8l124 180h284z" />
    <glyph glyph-name="u01C7" unicode="&#x1c7;" horiz-adv-x="2421" 
d="M1090 337v-337h-990v1443h424v-1106h566zM1170 511h406q0 -85 41.5 -133t114.5 -48q70 0 106.5 44.5t36.5 129.5v939h424v-942q0 -252 -148 -389t-413 -137q-263 0 -415.5 143t-152.5 393z" />
    <glyph glyph-name="u01C8" unicode="&#x1c8;" horiz-adv-x="1720" 
d="M1090 337v-337h-990v1443h424v-1106h566zM1640 1124v-1143q0 -171 -118.5 -266t-332.5 -95q-77 0 -125 6v286q18 -3 47 -3q62 0 90.5 21.5t28.5 68.5v1125h410zM1435 1190q-86 0 -145.5 55.5t-59.5 139.5t59.5 139.5t145.5 55.5t145.5 -55.5t59.5 -139.5t-59.5 -139.5
t-145.5 -55.5z" />
    <glyph glyph-name="u01C9" unicode="&#x1c9;" horiz-adv-x="1150" 
d="M85 0v1518h410v-1518h-410zM1070 1124v-1143q0 -171 -118.5 -266t-332.5 -95q-77 0 -125 6v286q18 -3 47 -3q62 0 90.5 21.5t28.5 68.5v1125h410zM865 1190q-86 0 -145.5 55.5t-59.5 139.5t59.5 139.5t145.5 55.5t145.5 -55.5t59.5 -139.5t-59.5 -139.5t-145.5 -55.5z
" />
    <glyph glyph-name="u01CA" unicode="&#x1ca;" horiz-adv-x="2765" 
d="M500 0h-400v1443h329l557 -748h8v748h400v-1443h-325l-561 760h-8v-760zM1514 511h406q0 -85 41.5 -133t114.5 -48q70 0 106.5 44.5t36.5 129.5v939h424v-942q0 -252 -148 -389t-413 -137q-263 0 -415.5 143t-152.5 393z" />
    <glyph glyph-name="u01CB" unicode="&#x1cb;" horiz-adv-x="2064" 
d="M500 0h-400v1443h329l557 -748h8v748h400v-1443h-325l-561 760h-8v-760zM1984 1124v-1143q0 -171 -118.5 -266t-332.5 -95q-77 0 -125 6v286q18 -3 47 -3q62 0 90.5 21.5t28.5 68.5v1125h410zM1779 1190q-86 0 -145.5 55.5t-59.5 139.5t59.5 139.5t145.5 55.5
t145.5 -55.5t59.5 -139.5t-59.5 -139.5t-145.5 -55.5z" />
    <glyph glyph-name="u01CC" unicode="&#x1cc;" horiz-adv-x="1869" 
d="M80 0v1124h400v-220h8q88 242 345 242q188 0 289.5 -111.5t101.5 -314.5v-720h-410v629q0 88 -41 137t-120 49q-75 0 -119 -51.5t-44 -134.5v-629h-410zM1789 1124v-1143q0 -171 -118.5 -266t-332.5 -95q-77 0 -125 6v286q18 -3 47 -3q62 0 90.5 21.5t28.5 68.5v1125h410
zM1584 1190q-86 0 -145.5 55.5t-59.5 139.5t59.5 139.5t145.5 55.5t145.5 -55.5t59.5 -139.5t-59.5 -139.5t-145.5 -55.5z" />
    <glyph glyph-name="Acaron" unicode="&#x1cd;" horiz-adv-x="1534" 
d="M1052 0l-75 287h-440l-75 -287h-432l471 1443h532l471 -1443h-452zM753 1110l-139 -524h286l-139 524h-8zM610 1536l-255 336h276l132 -192h8l132 192h276l-255 -336h-314z" />
    <glyph glyph-name="acaron" unicode="&#x1ce;" horiz-adv-x="1231" 
d="M569 259q74 0 128 38.5t54 100.5v74l-181 -13q-61 -4 -94.5 -31t-33.5 -70q0 -46 34.5 -72.5t92.5 -26.5zM417 -16q-158 0 -268.5 97t-110.5 246q0 160 119 248t346 102l248 15v57q0 56 -38.5 87.5t-100.5 31.5q-63 0 -104 -30.5t-46 -75.5h-366q8 179 151.5 284.5
t386.5 105.5q232 0 374.5 -106t142.5 -277v-769h-400v152h-8q-43 -80 -133 -124t-193 -44zM787 1256h-314l-255 336h284l124 -180h8l124 180h284z" />
    <glyph glyph-name="Icaron" unicode="&#x1cf;" horiz-adv-x="624" 
d="M524 0h-424v1443h424v-1443zM155 1536l-255 336h276l132 -192h8l132 192h276l-255 -336h-314z" />
    <glyph glyph-name="icaron" unicode="&#x1d0;" horiz-adv-x="570" 
d="M80 0v1124h410v-1124h-410zM442 1256h-314l-255 336h284l124 -180h8l124 180h284z" />
    <glyph glyph-name="Ocaron" unicode="&#x1d1;" horiz-adv-x="1584" 
d="M792 1468q335 0 531 -201t196 -546t-196 -545.5t-531 -200.5q-336 0 -531.5 200.5t-195.5 545.5t196 546t531 201zM792 1130q-133 0 -214 -111t-81 -298q0 -186 80.5 -297t214.5 -111t214.5 111t80.5 297q0 187 -81 298t-214 111zM635 1536l-255 336h276l132 -192h8
l132 192h276l-255 -336h-314z" />
    <glyph glyph-name="ocaron" unicode="&#x1d2;" horiz-adv-x="1278" 
d="M639 -28q-276 0 -432.5 154.5t-156.5 436.5q0 275 159 432t430 157q273 0 431 -156.5t158 -432.5q0 -283 -156 -437t-433 -154zM639 266q81 0 127 77t46 219q0 139 -46.5 217.5t-126.5 78.5t-126.5 -78.5t-46.5 -217.5q0 -142 45.5 -219t127.5 -77zM796 1256h-314
l-255 336h284l124 -180h8l124 180h284z" />
    <glyph glyph-name="Ucaron" unicode="&#x1d3;" horiz-adv-x="1472" 
d="M524 1443v-882q0 -114 54.5 -174.5t157.5 -60.5t157.5 60.5t54.5 174.5v882h424v-929q0 -246 -174.5 -392.5t-461.5 -146.5t-461.5 146.5t-174.5 392.5v929h424zM579 1536l-255 336h276l132 -192h8l132 192h276l-255 -336h-314z" />
    <glyph glyph-name="ucaron" unicode="&#x1d4;" horiz-adv-x="1299" 
d="M1219 1124v-1124h-400v220h-8q-34 -116 -114.5 -179t-204.5 -63q-185 0 -301 114.5t-116 310.5v721h410v-629q0 -89 44.5 -137.5t120.5 -48.5q72 0 115.5 51t43.5 135v629h410zM807 1256h-314l-255 336h284l124 -180h8l124 180h284z" />
    <glyph glyph-name="Udieresismacron" unicode="&#x1d5;" horiz-adv-x="1472" 
d="M524 1443v-882q0 -114 54.5 -174.5t157.5 -60.5t157.5 60.5t54.5 174.5v882h424v-929q0 -246 -174.5 -392.5t-461.5 -146.5t-461.5 146.5t-174.5 392.5v929h424zM514 1836q68 0 113 -43.5t45 -106.5q0 -62 -45 -106t-113 -44t-113 44t-45 106q0 63 45 106.5t113 43.5z
M362 2120h748v-180h-748v180zM958 1836q68 0 113 -43.5t45 -106.5q0 -62 -45 -106t-113 -44t-113 44t-45 106q0 63 45 106.5t113 43.5z" />
    <glyph glyph-name="udieresismacron" unicode="&#x1d6;" horiz-adv-x="1299" 
d="M1219 1124v-1124h-400v220h-8q-34 -116 -114.5 -179t-204.5 -63q-185 0 -301 114.5t-116 310.5v721h410v-629q0 -89 44.5 -137.5t120.5 -48.5q72 0 115.5 51t43.5 135v629h410zM441 1255q-64 0 -106.5 41t-42.5 100t42.5 100t106.5 41t106.5 -41t42.5 -100t-42.5 -100
t-106.5 -41zM859 1255q-64 0 -106.5 41t-42.5 100t42.5 100t106.5 41t106.5 -41t42.5 -100t-42.5 -100t-106.5 -41zM1002 1840v-180h-704v180h704z" />
    <glyph glyph-name="Udieresisacute" unicode="&#x1d7;" horiz-adv-x="1472" 
d="M524 1443v-882q0 -114 54.5 -174.5t157.5 -60.5t157.5 60.5t54.5 174.5v882h424v-929q0 -246 -174.5 -392.5t-461.5 -146.5t-461.5 146.5t-174.5 392.5v929h424zM580 1925l202 281h322l-238 -281h-286zM514 1536q-68 0 -113 44t-45 106q0 63 45 106.5t113 43.5t113 -43.5
t45 -106.5q0 -62 -45 -106t-113 -44zM958 1536q-68 0 -113 44t-45 106q0 63 45 106.5t113 43.5t113 -43.5t45 -106.5q0 -62 -45 -106t-113 -44z" />
    <glyph glyph-name="udieresisacute" unicode="&#x1d8;" horiz-adv-x="1299" 
d="M1219 1124v-1124h-400v220h-8q-34 -116 -114.5 -179t-204.5 -63q-185 0 -301 114.5t-116 310.5v721h410v-629q0 -89 44.5 -137.5t120.5 -48.5q72 0 115.5 51t43.5 135v629h410zM508 1651l202 281h322l-238 -281h-286zM428 1256q-68 0 -113 44t-45 106q0 63 45 106.5
t113 43.5t113 -43.5t45 -106.5q0 -62 -45 -106t-113 -44zM872 1256q-68 0 -113 44t-45 106q0 63 45 106.5t113 43.5t113 -43.5t45 -106.5q0 -62 -45 -106t-113 -44z" />
    <glyph glyph-name="Udieresiscaron" unicode="&#x1d9;" horiz-adv-x="1472" 
d="M524 1443v-882q0 -114 54.5 -174.5t157.5 -60.5t157.5 60.5t54.5 174.5v882h424v-929q0 -246 -174.5 -392.5t-461.5 -146.5t-461.5 146.5t-174.5 392.5v929h424zM594 1926l-247 305h267l111 -153h22l111 153h267l-247 -305h-284zM514 1836q68 0 113 -43.5t45 -106.5
q0 -62 -45 -106t-113 -44t-113 44t-45 106q0 63 45 106.5t113 43.5zM958 1836q68 0 113 -43.5t45 -106.5q0 -62 -45 -106t-113 -44t-113 44t-45 106q0 63 45 106.5t113 43.5z" />
    <glyph glyph-name="udieresiscaron" unicode="&#x1da;" horiz-adv-x="1299" 
d="M1219 1124v-1124h-400v220h-8q-34 -116 -114.5 -179t-204.5 -63q-185 0 -301 114.5t-116 310.5v721h410v-629q0 -89 44.5 -137.5t120.5 -48.5q72 0 115.5 51t43.5 135v629h410zM441 1255q-64 0 -106.5 41t-42.5 100t42.5 100t106.5 41t106.5 -41t42.5 -100t-42.5 -100
t-106.5 -41zM859 1255q-64 0 -106.5 41t-42.5 100t42.5 100t106.5 41t106.5 -41t42.5 -100t-42.5 -100t-106.5 -41zM807 1614h-314l-255 336h284l124 -180h8l124 180h284z" />
    <glyph glyph-name="Udieresisgrave" unicode="&#x1db;" horiz-adv-x="1472" 
d="M524 1443v-882q0 -114 54.5 -174.5t157.5 -60.5t157.5 60.5t54.5 174.5v882h424v-929q0 -246 -174.5 -392.5t-461.5 -146.5t-461.5 146.5t-174.5 392.5v929h424zM892 1925h-286l-238 281h322zM514 1536q-68 0 -113 44t-45 106q0 63 45 106.5t113 43.5t113 -43.5
t45 -106.5q0 -62 -45 -106t-113 -44zM958 1536q-68 0 -113 44t-45 106q0 63 45 106.5t113 43.5t113 -43.5t45 -106.5q0 -62 -45 -106t-113 -44z" />
    <glyph glyph-name="udieresisgrave" unicode="&#x1dc;" horiz-adv-x="1299" 
d="M1219 1124v-1124h-400v220h-8q-34 -116 -114.5 -179t-204.5 -63q-185 0 -301 114.5t-116 310.5v721h410v-629q0 -89 44.5 -137.5t120.5 -48.5q72 0 115.5 51t43.5 135v629h410zM802 1675h-282l-244 275h343zM428 1256q-68 0 -113 44t-45 106q0 63 45 106.5t113 43.5
t113 -43.5t45 -106.5q0 -62 -45 -106t-113 -44zM872 1256q-68 0 -113 44t-45 106q0 63 45 106.5t113 43.5t113 -43.5t45 -106.5q0 -62 -45 -106t-113 -44z" />
    <glyph glyph-name="Adieresismacron" unicode="&#x1de;" horiz-adv-x="1534" 
d="M1052 0l-75 287h-440l-75 -287h-432l471 1443h532l471 -1443h-452zM753 1110l-139 -524h286l-139 524h-8zM545 1836q68 0 113 -43.5t45 -106.5q0 -62 -45 -106t-113 -44t-113 44t-45 106q0 63 45 106.5t113 43.5zM393 2120h748v-180h-748v180zM989 1836q68 0 113 -43.5
t45 -106.5q0 -62 -45 -106t-113 -44t-113 44t-45 106q0 63 45 106.5t113 43.5z" />
    <glyph glyph-name="adieresismacron" unicode="&#x1df;" horiz-adv-x="1231" 
d="M569 259q74 0 128 38.5t54 100.5v74l-181 -13q-61 -4 -94.5 -31t-33.5 -70q0 -46 34.5 -72.5t92.5 -26.5zM417 -16q-158 0 -268.5 97t-110.5 246q0 160 119 248t346 102l248 15v57q0 56 -38.5 87.5t-100.5 31.5q-63 0 -104 -30.5t-46 -75.5h-366q8 179 151.5 284.5
t386.5 105.5q232 0 374.5 -106t142.5 -277v-769h-400v152h-8q-43 -80 -133 -124t-193 -44zM421 1255q-64 0 -106.5 41t-42.5 100t42.5 100t106.5 41t106.5 -41t42.5 -100t-42.5 -100t-106.5 -41zM839 1255q-64 0 -106.5 41t-42.5 100t42.5 100t106.5 41t106.5 -41t42.5 -100
t-42.5 -100t-106.5 -41zM982 1840v-180h-704v180h704z" />
    <glyph glyph-name="Adotmacron" unicode="&#x1e0;" horiz-adv-x="1534" 
d="M1052 0l-75 287h-440l-75 -287h-432l471 1443h532l471 -1443h-452zM753 1110l-139 -524h286l-139 524h-8zM767 1536q-68 0 -113 44t-45 106q0 63 45 106.5t113 43.5t113 -43.5t45 -106.5q0 -62 -45 -106t-113 -44zM1141 2120v-180h-748v180h748z" />
    <glyph glyph-name="adotmacron" unicode="&#x1e1;" horiz-adv-x="1231" 
d="M569 259q74 0 128 38.5t54 100.5v74l-181 -13q-61 -4 -94.5 -31t-33.5 -70q0 -46 34.5 -72.5t92.5 -26.5zM417 -16q-158 0 -268.5 97t-110.5 246q0 160 119 248t346 102l248 15v57q0 56 -38.5 87.5t-100.5 31.5q-63 0 -104 -30.5t-46 -75.5h-366q8 179 151.5 284.5
t386.5 105.5q232 0 374.5 -106t142.5 -277v-769h-400v152h-8q-43 -80 -133 -124t-193 -44zM630 1242q-75 0 -126 50.5t-51 122.5t51 122.5t126 50.5t126 -50.5t51 -122.5t-51 -122.5t-126 -50.5zM982 1850v-180h-704v180h704z" />
    <glyph glyph-name="AEmacron" unicode="&#x1e2;" horiz-adv-x="2104" 
d="M858 1129l-188 -543h300v543h-112zM970 0v286h-403l-99 -286h-418l540 1443h1395v-336h-643v-234h606v-304h-606v-233h643v-336h-1015zM1871 1786v-180h-748v180h748z" />
    <glyph glyph-name="aemacron" unicode="&#x1e3;" horiz-adv-x="1918" 
d="M1311 -28q-141 0 -253.5 51.5t-166.5 138.5h-8q-51 -84 -153 -131t-244 -47q-207 0 -327.5 95t-120.5 248q0 158 118 247.5t347 102.5l248 15v48q0 55 -42.5 91.5t-106.5 36.5q-62 0 -108 -30t-52 -76h-356q5 118 70.5 207t179 136t258.5 47q124 0 217 -33.5t146 -89.5h8
q121 123 360 123q243 0 393 -152t150 -414v-111h-747v-26q0 -86 55 -140.5t141 -54.5q65 0 113 29.5t67 79.5h366q-26 -181 -174.5 -286t-377.5 -105zM1306 869q-73 0 -123 -48t-56 -123h358q-5 78 -54 124.5t-125 46.5zM562 250q77 0 133 44t56 104v74l-196 -16
q-62 -5 -99 -31.5t-37 -69.5q0 -45 42 -75t101 -30zM1300 1456v-180h-704v180h704z" />
    <glyph glyph-name="Gcaron" unicode="&#x1e6;" horiz-adv-x="1530" 
d="M1462 614q0 -297 -177.5 -468t-490.5 -171q-345 0 -537 195t-192 553q0 353 190 549t526 196q270 0 455 -143t209 -366h-417q-21 80 -87.5 127.5t-157.5 47.5q-135 0 -210.5 -106.5t-75.5 -298.5q0 -196 83 -308t224 -112q103 0 171 53t77 140l2 20h-220v282h628v-190z
M599 1536l-255 336h276l132 -192h8l132 192h276l-255 -336h-314z" />
    <glyph glyph-name="gcaron" unicode="&#x1e7;" horiz-adv-x="1325" 
d="M653 311q88 0 136 64t48 186t-49 192t-135 70q-85 0 -134 -69.5t-49 -191.5t48 -186.5t135 -64.5zM645 -421q-253 0 -408.5 95.5t-159.5 257.5h394q9 -41 59.5 -66t118.5 -25q84 0 135 40t51 109v224h-8q-29 -89 -120.5 -144.5t-216.5 -55.5q-201 0 -320.5 145.5
t-119.5 405.5q0 271 118 423t328 152q120 0 208.5 -60.5t122.5 -157.5h8v202h410v-1104q0 -199 -165 -320t-435 -121zM820 1256h-314l-255 336h284l124 -180h8l124 180h284z" />
    <glyph glyph-name="Kcaron" unicode="&#x1e8;" horiz-adv-x="1445" 
d="M524 0h-424v1443h424v-612h8l446 612h445l-475 -641l497 -802h-493l-315 530l-113 -152v-378zM566 1536l-255 336h276l132 -192h8l132 192h276l-255 -336h-314z" />
    <glyph glyph-name="kcaron" unicode="&#x1e9;" horiz-adv-x="1226" 
d="M503 715l280 409h452l-378 -480l404 -644h-471l-238 399l-57 -74v-325h-410v1518h410v-803h8zM131 1611l-255 336h276l132 -192h8l132 192h276l-255 -336h-314z" />
    <glyph glyph-name="Oogonek" unicode="&#x1ea;" horiz-adv-x="1584" 
d="M1039 -494q-136 0 -221 64t-85 166q0 69 48.5 138.5t115.5 97.5v8q-43 -5 -105 -5q-336 0 -531.5 200.5t-195.5 545.5t196 546t531 201t531 -201t196 -546q0 -201 -69.5 -361.5t-199.5 -257.5q-125 -94 -180 -160t-55 -122q0 -50 32.5 -77t91.5 -27q56 0 72 9v-193
q-60 -26 -172 -26zM792 1130q-134 0 -214.5 -111.5t-80.5 -297.5t80.5 -297t214.5 -111t214.5 111t80.5 297t-80.5 297.5t-214.5 111.5z" />
    <glyph glyph-name="oogonek" unicode="&#x1eb;" horiz-adv-x="1278" 
d="M856 -494q-134 0 -214 66t-80 174q0 72 35 130.5t104 90.5v8q-36 -3 -62 -3q-276 0 -432.5 154.5t-156.5 436.5q0 275 159 432t430 157q273 0 431 -156.5t158 -432.5q0 -152 -53.5 -270t-148.5 -197q-101 -84 -147.5 -149t-46.5 -127q0 -104 124 -104q56 0 72 9v-193
q-60 -26 -172 -26zM639 266q81 0 127 77t46 219q0 139 -46.5 217.5t-126.5 78.5t-126.5 -78.5t-46.5 -217.5q0 -142 45.5 -219t127.5 -77z" />
    <glyph glyph-name="Oogonekmacron" unicode="&#x1ec;" horiz-adv-x="1584" 
d="M1166 1786v-180h-748v180h748zM1039 -494q-136 0 -221 64t-85 166q0 69 48.5 138.5t115.5 97.5v8q-43 -5 -105 -5q-336 0 -531.5 200.5t-195.5 545.5t196 546t531 201t531 -201t196 -546q0 -201 -69.5 -361.5t-199.5 -257.5q-125 -94 -180 -160t-55 -122q0 -50 32.5 -77
t91.5 -27q56 0 72 9v-193q-60 -26 -172 -26zM792 1130q-134 0 -214.5 -111.5t-80.5 -297.5t80.5 -297t214.5 -111t214.5 111t80.5 297t-80.5 297.5t-214.5 111.5z" />
    <glyph glyph-name="oogonekmacron" unicode="&#x1ed;" horiz-adv-x="1278" 
d="M991 1456v-180h-704v180h704zM856 -494q-134 0 -214 66t-80 174q0 72 35 130.5t104 90.5v8q-36 -3 -62 -3q-276 0 -432.5 154.5t-156.5 436.5q0 275 159 432t430 157q273 0 431 -156.5t158 -432.5q0 -152 -53.5 -270t-148.5 -197q-101 -84 -147.5 -149t-46.5 -127
q0 -104 124 -104q56 0 72 9v-193q-60 -26 -172 -26zM639 266q81 0 127 77t46 219q0 139 -46.5 217.5t-126.5 78.5t-126.5 -78.5t-46.5 -217.5q0 -142 45.5 -219t127.5 -77z" />
    <glyph glyph-name="u01F1" unicode="&#x1f1;" horiz-adv-x="2798" 
d="M100 1443h617q331 0 513 -183.5t182 -527.5q0 -346 -183.5 -539t-511.5 -193h-617v1443zM524 1106v-769h133q323 0 323 395q0 181 -84.5 277.5t-238.5 96.5h-133zM1557 0v266l643 832v8h-637v337h1131v-265l-641 -833v-8h665v-337h-1161z" />
    <glyph glyph-name="u01F2" unicode="&#x1f2;" horiz-adv-x="2605" 
d="M100 1443h617q331 0 513 -183.5t182 -527.5q0 -346 -183.5 -539t-511.5 -193h-617v1443zM524 1106v-769h133q323 0 323 395q0 181 -84.5 277.5t-238.5 96.5h-133zM1537 0v209l506 603v8h-490v304h970v-244l-446 -568v-8h468v-304h-1008z" />
    <glyph glyph-name="u01F3" unicode="&#x1f3;" horiz-adv-x="2453" 
d="M490 -16q-208 0 -324 153.5t-116 427.5q0 271 118 423t328 152q120 0 208.5 -60.5t122.5 -157.5h8v596h410v-1518h-410v194h-8q-29 -91 -121.5 -150.5t-215.5 -59.5zM653 823q-85 0 -134 -69.5t-49 -191.5q0 -123 48.5 -192t134.5 -69q87 0 135.5 68.5t48.5 191.5
q0 122 -49 192t-135 70zM1385 0v209l506 603v8h-490v304h970v-244l-446 -568v-8h468v-304h-1008z" />
    <glyph glyph-name="Gacute" unicode="&#x1f4;" horiz-adv-x="1530" 
d="M1462 614q0 -297 -177.5 -468t-490.5 -171q-345 0 -537 195t-192 553q0 353 190 549t526 196q270 0 455 -143t209 -366h-417q-21 80 -87.5 127.5t-157.5 47.5q-135 0 -210.5 -106.5t-75.5 -298.5q0 -196 83 -308t224 -112q103 0 171 53t77 140l2 20h-220v282h628v-190z
M896 1555h-306l232 321h348z" />
    <glyph glyph-name="gacute" unicode="&#x1f5;" horiz-adv-x="1325" 
d="M653 311q88 0 136 64t48 186t-49 192t-135 70q-85 0 -134 -69.5t-49 -191.5t48 -186.5t135 -64.5zM645 -421q-253 0 -408.5 95.5t-159.5 257.5h394q9 -41 59.5 -66t118.5 -25q84 0 135 40t51 109v224h-8q-29 -89 -120.5 -144.5t-216.5 -55.5q-201 0 -320.5 145.5
t-119.5 405.5q0 271 118 423t328 152q120 0 208.5 -60.5t122.5 -157.5h8v202h410v-1104q0 -199 -165 -320t-435 -121zM812 1275h-314l232 321h347z" />
    <glyph glyph-name="Ngrave" unicode="&#x1f8;" horiz-adv-x="1494" 
d="M500 0h-400v1443h329l557 -748h8v748h400v-1443h-325l-561 760h-8v-760zM601 1564l-274 321h348l232 -321h-306z" />
    <glyph glyph-name="ngrave" unicode="&#x1f9;" horiz-adv-x="1299" 
d="M80 0v1124h400v-220h8q88 242 345 242q188 0 289.5 -111.5t101.5 -314.5v-720h-410v629q0 88 -41 137t-120 49q-75 0 -119 -51.5t-44 -134.5v-629h-410zM824 1275h-314l-265 321h347z" />
    <glyph glyph-name="Aringacute" unicode="&#x1fa;" horiz-adv-x="1534" 
d="M1052 0l-75 287h-440l-75 -287h-432l471 1443h532l471 -1443h-452zM753 1110l-139 -524h286l-139 524h-8zM767 1518q-94 0 -154 58t-60 147t60 147t154 58q93 0 153 -57.5t60 -147.5t-60 -147.5t-153 -57.5zM767 1653q30 0 50 20t20 50t-20 49.5t-50 19.5
q-31 0 -51 -19.5t-20 -49.5t20 -50t51 -20zM745 2201h323l-162 -202h-276z" />
    <glyph glyph-name="aringacute" unicode="&#x1fb;" horiz-adv-x="1231" 
d="M569 259q74 0 128 38.5t54 100.5v74l-181 -13q-61 -4 -94.5 -31t-33.5 -70q0 -46 34.5 -72.5t92.5 -26.5zM417 -16q-158 0 -268.5 97t-110.5 246q0 160 119 248t346 102l248 15v57q0 56 -38.5 87.5t-100.5 31.5q-63 0 -104 -30.5t-46 -75.5h-366q8 179 151.5 284.5
t386.5 105.5q232 0 374.5 -106t142.5 -277v-769h-400v152h-8q-43 -80 -133 -124t-193 -44zM633 1236q-104 0 -170.5 64t-66.5 163q0 100 66.5 164t170.5 64t170.5 -64t66.5 -164q0 -99 -66.5 -163t-170.5 -64zM555 1463q0 -34 22 -55.5t56 -21.5t56 21.5t22 55.5t-22 56
t-56 22t-56 -22t-22 -56zM514 1771l144 230h314l-190 -230h-268z" />
    <glyph glyph-name="AEacute" unicode="&#x1fc;" horiz-adv-x="2104" 
d="M858 1129l-188 -543h300v543h-112zM970 0v286h-403l-99 -286h-418l540 1443h1395v-336h-643v-234h606v-304h-606v-233h643v-336h-1015zM1637 1555h-306l232 321h348z" />
    <glyph glyph-name="aeacute" unicode="&#x1fd;" horiz-adv-x="1918" 
d="M1311 -28q-141 0 -253.5 51.5t-166.5 138.5h-8q-51 -84 -153 -131t-244 -47q-207 0 -327.5 95t-120.5 248q0 158 118 247.5t347 102.5l248 15v48q0 55 -42.5 91.5t-106.5 36.5q-62 0 -108 -30t-52 -76h-356q5 118 70.5 207t179 136t258.5 47q124 0 217 -33.5t146 -89.5h8
q121 123 360 123q243 0 393 -152t150 -414v-111h-747v-26q0 -86 55 -140.5t141 -54.5q65 0 113 29.5t67 79.5h366q-26 -181 -174.5 -286t-377.5 -105zM1306 869q-73 0 -123 -48t-56 -123h358q-5 78 -54 124.5t-125 46.5zM562 250q77 0 133 44t56 104v74l-196 -16
q-62 -5 -99 -31.5t-37 -69.5q0 -45 42 -75t101 -30zM1097 1275h-314l232 321h347z" />
    <glyph glyph-name="Oslashacute" unicode="&#x1fe;" horiz-adv-x="1584" 
d="M1231 1876l-274 -321h-306l232 321h348zM1033 974l-361 -633q56 -28 120 -28q134 0 214.5 111t80.5 297q0 151 -54 253zM579 422l370 656q-67 52 -157 52q-133 0 -214 -111t-81 -298t82 -299zM1317 1472l-76 -134q134 -96 206 -253.5t72 -363.5q0 -345 -196 -545.5
t-531 -200.5q-167 0 -299 51l-64 -112l-103 58l59 105q-154 92 -237 257.5t-83 386.5q0 345 196 546t531 201q190 0 338 -67l69 122z" />
    <glyph glyph-name="oslashacute" unicode="&#x1ff;" horiz-adv-x="1278" 
d="M1053 1596l-265 -321h-314l232 321h347zM798 694l-237 -405q35 -23 78 -23q81 0 127 77t46 219q0 73 -14 132zM487 400l244 422q-37 36 -92 36q-80 0 -126.5 -78.5t-46.5 -217.5q0 -96 21 -162zM1072 1163l-66 -114q107 -74 164.5 -198t57.5 -288q0 -283 -156 -437
t-433 -154q-132 0 -241 37l-65 -111l-103 58l60 104q-116 73 -178 200.5t-62 302.5q0 275 159 432t430 157q145 0 257 -45l64 110z" />
    <glyph glyph-name="Adblgrave" unicode="&#x200;" horiz-adv-x="1534" 
d="M1052 0l-75 287h-440l-75 -287h-432l471 1443h532l471 -1443h-452zM753 1110l-139 -524h286l-139 524h-8zM861 1555l-274 321h348l232 -321h-306zM381 1555l-274 321h348l232 -321h-306z" />
    <glyph glyph-name="adblgrave" unicode="&#x201;" horiz-adv-x="1231" 
d="M569 259q74 0 128 38.5t54 100.5v74l-181 -13q-61 -4 -94.5 -31t-33.5 -70q0 -46 34.5 -72.5t92.5 -26.5zM417 -16q-158 0 -268.5 97t-110.5 246q0 160 119 248t346 102l248 15v57q0 56 -38.5 87.5t-100.5 31.5q-63 0 -104 -30.5t-46 -75.5h-366q8 179 151.5 284.5
t386.5 105.5q232 0 374.5 -106t142.5 -277v-769h-400v152h-8q-43 -80 -133 -124t-193 -44zM570 1276h-280l-211 320h309zM995 1276h-280l-211 320h308z" />
    <glyph glyph-name="Ainvertedbreve" unicode="&#x202;" horiz-adv-x="1534" 
d="M1052 0l-75 287h-440l-75 -287h-432l471 1443h532l471 -1443h-452zM753 1110l-139 -524h286l-139 524h-8zM372 1536q5 142 109.5 238t285.5 96t285.5 -96t109.5 -238h-236q-3 67 -44.5 107.5t-114.5 40.5t-114.5 -40.5t-44.5 -107.5h-236z" />
    <glyph glyph-name="ainvertedbreve" unicode="&#x203;" horiz-adv-x="1231" 
d="M569 259q74 0 128 38.5t54 100.5v74l-181 -13q-61 -4 -94.5 -31t-33.5 -70q0 -46 34.5 -72.5t92.5 -26.5zM417 -16q-158 0 -268.5 97t-110.5 246q0 160 119 248t346 102l248 15v57q0 56 -38.5 87.5t-100.5 31.5q-63 0 -104 -30.5t-46 -75.5h-366q8 179 151.5 284.5
t386.5 105.5q232 0 374.5 -106t142.5 -277v-769h-400v152h-8q-43 -80 -133 -124t-193 -44zM235 1256q5 142 109.5 238t285.5 96t285.5 -96t109.5 -238h-236q-3 67 -44.5 107.5t-114.5 40.5t-114.5 -40.5t-44.5 -107.5h-236z" />
    <glyph glyph-name="Edblgrave" unicode="&#x204;" horiz-adv-x="1216" 
d="M1118 337v-337h-1018v1443h1018v-337h-594v-233h557v-304h-557v-232h594zM702 1555l-274 321h348l232 -321h-306zM222 1555l-274 321h348l232 -321h-306z" />
    <glyph glyph-name="edblgrave" unicode="&#x205;" horiz-adv-x="1243" 
d="M631 869q-73 0 -123 -48t-56 -123h358q-5 78 -54 124.5t-125 46.5zM822 363h366q-26 -181 -174.5 -286t-377.5 -105q-275 0 -430.5 155t-155.5 429q0 275 154.5 435.5t418.5 160.5q260 0 415 -154t155 -412v-111h-747v-26q0 -86 55 -140.5t141 -54.5q65 0 113 29t67 80z
M562 1276h-280l-211 320h309zM987 1276h-280l-211 320h308z" />
    <glyph glyph-name="Einvertedbreve" unicode="&#x206;" horiz-adv-x="1216" 
d="M1118 337v-337h-1018v1443h1018v-337h-594v-233h557v-304h-557v-232h594zM213 1536q5 142 109.5 238t285.5 96t285.5 -96t109.5 -238h-236q-3 67 -44.5 107.5t-114.5 40.5t-114.5 -40.5t-44.5 -107.5h-236z" />
    <glyph glyph-name="einvertedbreve" unicode="&#x207;" horiz-adv-x="1243" 
d="M631 869q-73 0 -123 -48t-56 -123h358q-5 78 -54 124.5t-125 46.5zM822 363h366q-26 -181 -174.5 -286t-377.5 -105q-275 0 -430.5 155t-155.5 429q0 275 154.5 435.5t418.5 160.5q260 0 415 -154t155 -412v-111h-747v-26q0 -86 55 -140.5t141 -54.5q65 0 113 29t67 80z
M227 1256q5 142 109.5 238t285.5 96t285.5 -96t109.5 -238h-236q-3 67 -44.5 107.5t-114.5 40.5t-114.5 -40.5t-44.5 -107.5h-236z" />
    <glyph glyph-name="Idblgrave" unicode="&#x208;" horiz-adv-x="624" 
d="M524 0h-424v1443h424v-1443zM406 1555l-274 321h348l232 -321h-306zM-74 1555l-274 321h348l232 -321h-306z" />
    <glyph glyph-name="idblgrave" unicode="&#x209;" horiz-adv-x="570" 
d="M80 0v1124h410v-1124h-410zM225 1276h-280l-211 320h309zM650 1276h-280l-211 320h308z" />
    <glyph glyph-name="Iinvertedbreve" unicode="&#x20a;" horiz-adv-x="624" 
d="M524 0h-424v1443h424v-1443zM-83 1536q5 142 109.5 238t285.5 96t285.5 -96t109.5 -238h-236q-3 67 -44.5 107.5t-114.5 40.5t-114.5 -40.5t-44.5 -107.5h-236z" />
    <glyph glyph-name="iinvertedbreve" unicode="&#x20b;" horiz-adv-x="570" 
d="M80 0v1124h410v-1124h-410zM-110 1256q5 142 109.5 238t285.5 96t285.5 -96t109.5 -238h-236q-3 67 -44.5 107.5t-114.5 40.5t-114.5 -40.5t-44.5 -107.5h-236z" />
    <glyph glyph-name="Odblgrave" unicode="&#x20c;" horiz-adv-x="1584" 
d="M792 1468q335 0 531 -201t196 -546t-196 -545.5t-531 -200.5q-336 0 -531.5 200.5t-195.5 545.5t196 546t531 201zM792 1130q-133 0 -214 -111t-81 -298q0 -186 80.5 -297t214.5 -111t214.5 111t80.5 297q0 187 -81 298t-214 111zM886 1555l-274 321h348l232 -321h-306z
M406 1555l-274 321h348l232 -321h-306z" />
    <glyph glyph-name="odblgrave" unicode="&#x20d;" horiz-adv-x="1278" 
d="M639 -28q-276 0 -432.5 154.5t-156.5 436.5q0 275 159 432t430 157q273 0 431 -156.5t158 -432.5q0 -283 -156 -437t-433 -154zM639 266q81 0 127 77t46 219q0 139 -46.5 217.5t-126.5 78.5t-126.5 -78.5t-46.5 -217.5q0 -142 45.5 -219t127.5 -77zM579 1276h-280
l-211 320h309zM1004 1276h-280l-211 320h308z" />
    <glyph glyph-name="Oinvertedbreve" unicode="&#x20e;" horiz-adv-x="1584" 
d="M792 1468q335 0 531 -201t196 -546t-196 -545.5t-531 -200.5q-336 0 -531.5 200.5t-195.5 545.5t196 546t531 201zM792 1130q-133 0 -214 -111t-81 -298q0 -186 80.5 -297t214.5 -111t214.5 111t80.5 297q0 187 -81 298t-214 111zM397 1536q5 142 109.5 238t285.5 96
t285.5 -96t109.5 -238h-236q-3 67 -44.5 107.5t-114.5 40.5t-114.5 -40.5t-44.5 -107.5h-236z" />
    <glyph glyph-name="oinvertedbreve" unicode="&#x20f;" horiz-adv-x="1278" 
d="M639 -28q-276 0 -432.5 154.5t-156.5 436.5q0 275 159 432t430 157q273 0 431 -156.5t158 -432.5q0 -283 -156 -437t-433 -154zM639 266q81 0 127 77t46 219q0 139 -46.5 217.5t-126.5 78.5t-126.5 -78.5t-46.5 -217.5q0 -142 45.5 -219t127.5 -77zM244 1256
q5 142 109.5 238t285.5 96t285.5 -96t109.5 -238h-236q-3 67 -44.5 107.5t-114.5 40.5t-114.5 -40.5t-44.5 -107.5h-236z" />
    <glyph glyph-name="Rdblgrave" unicode="&#x210;" horiz-adv-x="1395" 
d="M524 1130v-366h175q89 0 140.5 50t51.5 132q0 81 -53 132.5t-138 51.5h-176zM524 484v-484h-424v1443h641q286 0 434.5 -128t148.5 -362q0 -131 -61.5 -242t-171.5 -164l274 -547h-474l-228 484h-139zM792 1555l-274 321h348l232 -321h-306zM312 1555l-274 321h348
l232 -321h-306z" />
    <glyph glyph-name="rdblgrave" unicode="&#x211;" horiz-adv-x="868" 
d="M80 0v1124h400v-220h8q62 236 263 236q54 0 97 -16v-345q-54 23 -121 23q-117 0 -177 -60t-60 -178v-564h-410zM380 1276h-280l-211 320h309zM805 1276h-280l-211 320h308z" />
    <glyph glyph-name="Rinvertedbreve" unicode="&#x212;" horiz-adv-x="1395" 
d="M524 1130v-366h175q89 0 140.5 50t51.5 132q0 81 -53 132.5t-138 51.5h-176zM524 484v-484h-424v1443h641q286 0 434.5 -128t148.5 -362q0 -131 -61.5 -242t-171.5 -164l274 -547h-474l-228 484h-139zM303 1536q5 142 109.5 238t285.5 96t285.5 -96t109.5 -238h-236
q-3 67 -44.5 107.5t-114.5 40.5t-114.5 -40.5t-44.5 -107.5h-236z" />
    <glyph glyph-name="rinvertedbreve" unicode="&#x213;" horiz-adv-x="868" 
d="M80 0v1124h400v-220h8q62 236 263 236q54 0 97 -16v-345q-54 23 -121 23q-117 0 -177 -60t-60 -178v-564h-410zM45 1256q5 142 109.5 238t285.5 96t285.5 -96t109.5 -238h-236q-3 67 -44.5 107.5t-114.5 40.5t-114.5 -40.5t-44.5 -107.5h-236z" />
    <glyph glyph-name="Udblgrave" unicode="&#x214;" horiz-adv-x="1472" 
d="M524 1443v-882q0 -114 54.5 -174.5t157.5 -60.5t157.5 60.5t54.5 174.5v882h424v-929q0 -246 -174.5 -392.5t-461.5 -146.5t-461.5 146.5t-174.5 392.5v929h424zM830 1555l-274 321h348l232 -321h-306zM350 1555l-274 321h348l232 -321h-306z" />
    <glyph glyph-name="udblgrave" unicode="&#x215;" horiz-adv-x="1299" 
d="M1219 1124v-1124h-400v220h-8q-34 -116 -114.5 -179t-204.5 -63q-185 0 -301 114.5t-116 310.5v721h410v-629q0 -89 44.5 -137.5t120.5 -48.5q72 0 115.5 51t43.5 135v629h410zM590 1276h-280l-211 320h309zM1015 1276h-280l-211 320h308z" />
    <glyph glyph-name="Uinvertedbreve" unicode="&#x216;" horiz-adv-x="1472" 
d="M524 1443v-882q0 -114 54.5 -174.5t157.5 -60.5t157.5 60.5t54.5 174.5v882h424v-929q0 -246 -174.5 -392.5t-461.5 -146.5t-461.5 146.5t-174.5 392.5v929h424zM341 1536q5 142 109.5 238t285.5 96t285.5 -96t109.5 -238h-236q-3 67 -44.5 107.5t-114.5 40.5
t-114.5 -40.5t-44.5 -107.5h-236z" />
    <glyph glyph-name="uinvertedbreve" unicode="&#x217;" horiz-adv-x="1299" 
d="M1219 1124v-1124h-400v220h-8q-34 -116 -114.5 -179t-204.5 -63q-185 0 -301 114.5t-116 310.5v721h410v-629q0 -89 44.5 -137.5t120.5 -48.5q72 0 115.5 51t43.5 135v629h410zM255 1256q5 142 109.5 238t285.5 96t285.5 -96t109.5 -238h-236q-3 67 -44.5 107.5
t-114.5 40.5t-114.5 -40.5t-44.5 -107.5h-236z" />
    <glyph glyph-name="Scommaaccent" unicode="&#x218;" horiz-adv-x="1370" 
d="M60 425h401q9 -60 74 -98t152 -38q94 0 149.5 34t55.5 87q0 50 -45 76.5t-163 47.5l-191 34q-198 34 -303.5 144t-105.5 280q0 216 166 346t428 130q285 0 442 -122t159 -334h-387q-2 66 -60 104.5t-146 38.5q-83 0 -132 -32t-49 -86q0 -51 46 -81t150 -48l198 -34
q210 -37 310.5 -138.5t100.5 -277.5q0 -221 -171.5 -352t-459.5 -131q-292 0 -455 117.5t-164 332.5zM656 -457h-308l152 321h359z" />
    <glyph glyph-name="scommaaccent" unicode="&#x219;" horiz-adv-x="1172" 
d="M60 776q0 175 139.5 275.5t383.5 100.5t382.5 -103.5t138.5 -286.5h-372q-1 56 -42 88.5t-110 32.5q-58 0 -92.5 -22t-34.5 -58q0 -55 111 -76l251 -50q167 -33 244.5 -107.5t77.5 -202.5q0 -181 -149 -288t-396 -107q-257 0 -401.5 104.5t-155.5 286.5h396
q7 -57 51 -89.5t115 -32.5q63 0 98.5 20.5t35.5 56.5q0 28 -25 45t-83 28l-216 43q-169 34 -258 121.5t-89 220.5zM557 -457h-308l152 321h359z" />
    <glyph glyph-name="Tcommaaccent" unicode="&#x21a;" horiz-adv-x="1274" 
d="M849 0h-424v1106h-380v337h1184v-337h-380v-1106zM608 -457h-308l152 321h359z" />
    <glyph glyph-name="tcommaaccent" unicode="&#x21b;" horiz-adv-x="847" 
d="M179 1371h410v-247h198v-298h-198v-423q0 -108 127 -108q41 0 71 5v-285q-73 -15 -170 -15q-235 0 -336.5 73t-101.5 240v513h-149v298h149v247zM452 -457h-308l152 321h359z" />
    <glyph glyph-name="Hcaron" unicode="&#x21e;" horiz-adv-x="1556" 
d="M1456 0h-424v558h-508v-558h-424v1443h424v-548h508v548h424v-1443zM621 1536l-255 336h276l132 -192h8l132 192h276l-255 -336h-314z" />
    <glyph glyph-name="hcaron" unicode="&#x21f;" horiz-adv-x="1308" 
d="M85 0v1518h400v-614h8q43 118 133 180t218 62q188 0 288.5 -111.5t100.5 -314.5v-720h-410v629q0 88 -42 137t-121 49q-78 0 -121.5 -51.5t-43.5 -134.5v-629h-410zM131 1611l-255 336h276l132 -192h8l132 192h276l-255 -336h-314z" />
    <glyph glyph-name="Adotaccent" unicode="&#x226;" horiz-adv-x="1534" 
d="M1052 0l-75 287h-440l-75 -287h-432l471 1443h532l471 -1443h-452zM753 1110l-139 -524h286l-139 524h-8zM767 1536q-74 0 -125.5 52t-51.5 125t51 124.5t126 51.5t126 -51.5t51 -124.5t-51.5 -125t-125.5 -52z" />
    <glyph glyph-name="adotaccent" unicode="&#x227;" horiz-adv-x="1231" 
d="M569 259q74 0 128 38.5t54 100.5v74l-181 -13q-61 -4 -94.5 -31t-33.5 -70q0 -46 34.5 -72.5t92.5 -26.5zM417 -16q-158 0 -268.5 97t-110.5 246q0 160 119 248t346 102l248 15v57q0 56 -38.5 87.5t-100.5 31.5q-63 0 -104 -30.5t-46 -75.5h-366q8 179 151.5 284.5
t386.5 105.5q232 0 374.5 -106t142.5 -277v-769h-400v152h-8q-43 -80 -133 -124t-193 -44zM628 1264q-75 0 -126 50.5t-51 122.5t51 122.5t126 50.5t126 -50.5t51 -122.5t-51 -122.5t-126 -50.5z" />
    <glyph glyph-name="Ecedilla" unicode="&#x228;" horiz-adv-x="1216" 
d="M1118 1106h-594v-233h557v-304h-557v-232h594v-337h-394l-46 -89q72 0 117 -46t45 -122q0 -195 -263 -195q-94 0 -133 15v141q38 -12 99 -12q94 0 94 37q0 26 -22 36t-78 10h-56v127l54 98h-435v1443h1018v-337z" />
    <glyph glyph-name="ecedilla" unicode="&#x229;" horiz-adv-x="1243" 
d="M452 698h358q-5 78 -54 124.5t-125 46.5q-73 0 -123 -48t-56 -123zM1193 475h-747v-26q0 -86 55 -140.5t141 -54.5q65 0 113 29t67 80h366q-23 -162 -146 -264t-316 -122l-34 -66q72 0 117 -46t45 -122q0 -195 -263 -195q-94 0 -133 15v141q38 -12 99 -12q94 0 94 37
q0 26 -22 36t-78 10h-56v127l42 76q-231 27 -359 178.5t-128 399.5q0 275 154.5 435.5t418.5 160.5q260 0 415 -154t155 -412v-111z" />
    <glyph glyph-name="Odieresismacron" unicode="&#x22a;" horiz-adv-x="1584" 
d="M792 1468q335 0 531 -201t196 -546t-196 -545.5t-531 -200.5q-336 0 -531.5 200.5t-195.5 545.5t196 546t531 201zM792 1130q-133 0 -214 -111t-81 -298q0 -186 80.5 -297t214.5 -111t214.5 111t80.5 297q0 187 -81 298t-214 111zM570 1836q68 0 113 -43.5t45 -106.5
q0 -62 -45 -106t-113 -44t-113 44t-45 106q0 63 45 106.5t113 43.5zM418 2120h748v-180h-748v180zM1014 1836q68 0 113 -43.5t45 -106.5q0 -62 -45 -106t-113 -44t-113 44t-45 106q0 63 45 106.5t113 43.5z" />
    <glyph glyph-name="odieresismacron" unicode="&#x22b;" horiz-adv-x="1278" 
d="M639 -28q-276 0 -432.5 154.5t-156.5 436.5q0 275 159 432t430 157q273 0 431 -156.5t158 -432.5q0 -283 -156 -437t-433 -154zM639 266q81 0 127 77t46 219q0 139 -46.5 217.5t-126.5 78.5t-126.5 -78.5t-46.5 -217.5q0 -142 45.5 -219t127.5 -77zM430 1255
q-64 0 -106.5 41t-42.5 100t42.5 100t106.5 41t106.5 -41t42.5 -100t-42.5 -100t-106.5 -41zM848 1255q-64 0 -106.5 41t-42.5 100t42.5 100t106.5 41t106.5 -41t42.5 -100t-42.5 -100t-106.5 -41zM991 1840v-180h-704v180h704z" />
    <glyph glyph-name="Otildemacron" unicode="&#x22c;" horiz-adv-x="1584" 
d="M792 1468q335 0 531 -201t196 -546t-196 -545.5t-531 -200.5q-336 0 -531.5 200.5t-195.5 545.5t196 546t531 201zM792 1130q-133 0 -214 -111t-81 -298q0 -186 80.5 -297t214.5 -111t214.5 111t80.5 297q0 187 -81 298t-214 111zM938 1536q-49 0 -93.5 19t-71 41.5
t-55.5 41.5t-51 19q-32 0 -49.5 -28.5t-19.5 -72.5h-201q0 136 71.5 214.5t177.5 78.5q49 0 93.5 -19t71 -41.5t55.5 -41.5t51 -19q64 0 69 106h201q0 -136 -71.5 -217t-177.5 -81zM1166 2120v-180h-748v180h748z" />
    <glyph glyph-name="otildemacron" unicode="&#x22d;" horiz-adv-x="1278" 
d="M639 -28q-276 0 -432.5 154.5t-156.5 436.5q0 275 159 432t430 157q273 0 431 -156.5t158 -432.5q0 -283 -156 -437t-433 -154zM639 266q81 0 127 77t46 219q0 139 -46.5 217.5t-126.5 78.5t-126.5 -78.5t-46.5 -217.5q0 -142 45.5 -219t127.5 -77zM792 1258
q-49 0 -93.5 18.5t-70 41t-54 41t-50.5 18.5q-32 0 -49.5 -28.5t-19.5 -72.5h-201q0 135 73 214t178 79q49 0 93.5 -18.5t70 -41t54 -41t50.5 -18.5q64 0 69 106h201q0 -135 -73 -216.5t-178 -81.5zM991 1840v-180h-704v180h704z" />
    <glyph glyph-name="Odotaccent" unicode="&#x22e;" horiz-adv-x="1584" 
d="M792 1468q335 0 531 -201t196 -546t-196 -545.5t-531 -200.5q-336 0 -531.5 200.5t-195.5 545.5t196 546t531 201zM792 1130q-133 0 -214 -111t-81 -298q0 -186 80.5 -297t214.5 -111t214.5 111t80.5 297q0 187 -81 298t-214 111zM792 1536q-74 0 -125.5 52t-51.5 125
t51 124.5t126 51.5t126 -51.5t51 -124.5t-51.5 -125t-125.5 -52z" />
    <glyph glyph-name="odotaccent" unicode="&#x22f;" horiz-adv-x="1278" 
d="M639 -28q-276 0 -432.5 154.5t-156.5 436.5q0 275 159 432t430 157q273 0 431 -156.5t158 -432.5q0 -283 -156 -437t-433 -154zM639 266q81 0 127 77t46 219q0 139 -46.5 217.5t-126.5 78.5t-126.5 -78.5t-46.5 -217.5q0 -142 45.5 -219t127.5 -77zM637 1264
q-75 0 -126 50.5t-51 122.5t51 122.5t126 50.5t126 -50.5t51 -122.5t-51 -122.5t-126 -50.5z" />
    <glyph glyph-name="Odotaccentmacron" unicode="&#x230;" horiz-adv-x="1584" 
d="M792 1468q335 0 531 -201t196 -546t-196 -545.5t-531 -200.5q-336 0 -531.5 200.5t-195.5 545.5t196 546t531 201zM792 1130q-133 0 -214 -111t-81 -298q0 -186 80.5 -297t214.5 -111t214.5 111t80.5 297q0 187 -81 298t-214 111zM792 1536q-68 0 -113 44t-45 106
q0 63 45 106.5t113 43.5t113 -43.5t45 -106.5q0 -62 -45 -106t-113 -44zM1166 2120v-180h-748v180h748z" />
    <glyph glyph-name="odotaccentmacron" unicode="&#x231;" horiz-adv-x="1278" 
d="M639 -28q-276 0 -432.5 154.5t-156.5 436.5q0 275 159 432t430 157q273 0 431 -156.5t158 -432.5q0 -283 -156 -437t-433 -154zM639 266q81 0 127 77t46 219q0 139 -46.5 217.5t-126.5 78.5t-126.5 -78.5t-46.5 -217.5q0 -142 45.5 -219t127.5 -77zM639 1242
q-75 0 -126 50.5t-51 122.5t51 122.5t126 50.5t126 -50.5t51 -122.5t-51 -122.5t-126 -50.5zM991 1850v-180h-704v180h704z" />
    <glyph glyph-name="Ymacron" unicode="&#x232;" horiz-adv-x="1470" 
d="M947 0h-424v457l-493 986h453l253 -585h8l253 585h443l-493 -986v-457zM1109 1786v-180h-748v180h748z" />
    <glyph glyph-name="ymacron" unicode="&#x233;" horiz-adv-x="1246" 
d="M268 -412h-146v306h60q89 0 140 19.5t52 54.5v20l-374 1136h455l175 -828h8l175 828h433l-339 -1101q-72 -233 -221 -334t-418 -101zM975 1456v-180h-704v180h704z" />
    <glyph glyph-name="dotlessj" unicode="&#x237;" horiz-adv-x="570" 
d="M490 1124v-1143q0 -171 -118.5 -266t-332.5 -95q-77 0 -125 6v286q18 -3 47 -3q62 0 90.5 21.5t28.5 68.5v1125h410z" />
    <glyph glyph-name="quoteright" unicode="&#x2bc;" horiz-adv-x="648" 
d="M422 826h-322l78 617h370z" />
    <glyph glyph-name="quoteright" unicode="&#x2019;" horiz-adv-x="648" 
d="M422 826h-322l78 617h370z" />
    <glyph glyph-name="circumflex" unicode="&#x2c6;" horiz-adv-x="1016" 
d="M665 1592l255 -336h-284l-124 180h-8l-124 -180h-284l255 336h314z" />
    <glyph glyph-name="caron" unicode="&#x2c7;" horiz-adv-x="1016" 
d="M665 1256h-314l-255 336h284l124 -180h8l124 180h284z" />
    <glyph glyph-name="breve" unicode="&#x2d8;" horiz-adv-x="1000" 
d="M105 1590h236q3 -67 44.5 -107.5t114.5 -40.5t114.5 40.5t44.5 107.5h236q-5 -142 -109.5 -238t-285.5 -96t-285.5 96t-109.5 238z" />
    <glyph glyph-name="dotaccent" unicode="&#x2d9;" horiz-adv-x="1000" 
d="M498 1264q-75 0 -126 50.5t-51 122.5t51 122.5t126 50.5t126 -50.5t51 -122.5t-51 -122.5t-126 -50.5z" />
    <glyph glyph-name="ring" unicode="&#x2da;" horiz-adv-x="1016" 
d="M508 1235q-99 0 -171.5 69.5t-72.5 165.5q0 97 72.5 166.5t171.5 69.5t171 -69.5t72 -166.5t-72 -166t-171 -69zM508 1386q35 0 61.5 25t26.5 59q0 35 -26.5 60.5t-61.5 25.5t-61.5 -25.5t-26.5 -60.5q0 -34 26.5 -59t61.5 -25z" />
    <glyph glyph-name="ogonek" unicode="&#x2db;" horiz-adv-x="1000" 
d="M718 -266v-185q-60 -23 -157 -23q-117 0 -191 63.5t-74 164.5q0 81 39.5 139.5t126.5 106.5h198q-66 -37 -96.5 -78.5t-30.5 -95.5q0 -44 31.5 -72t81.5 -28q36 0 72 8z" />
    <glyph glyph-name="tilde" unicode="&#x2dc;" horiz-adv-x="1015" 
d="M651 1258q-49 0 -93.5 18.5t-70 41t-54 41t-50.5 18.5q-32 0 -49.5 -28.5t-19.5 -72.5h-201q0 135 73 214t178 79q49 0 93.5 -18.5t70 -41t54 -41t50.5 -18.5q64 0 69 106h201q0 -135 -73 -216.5t-178 -81.5z" />
    <glyph glyph-name="hungarumlaut" unicode="&#x2dd;" horiz-adv-x="1000" 
d="M467 1276l182 320h309l-211 -320h-280zM42 1276l183 320h308l-211 -320h-280z" />
    <glyph glyph-name="gravecmb" unicode="&#x300;" 
d="M174 1275h-314l-265 321h347z" />
    <glyph glyph-name="acutecmb" unicode="&#x301;" 
d="M149 1275h-314l232 321h347z" />
    <glyph glyph-name="circumflexcmb" unicode="&#x302;" 
d="M157 1592l255 -336h-284l-124 180h-8l-124 -180h-284l255 336h314z" />
    <glyph glyph-name="tildecmb" unicode="&#x303;" 
d="M153 1258q-49 0 -93.5 18.5t-70 41t-54 41t-50.5 18.5q-32 0 -49.5 -28.5t-19.5 -72.5h-201q0 135 73 214t178 79q49 0 93.5 -18.5t70 -41t54 -41t50.5 -18.5q64 0 69 106h201q0 -135 -73 -216.5t-178 -81.5z" />
    <glyph glyph-name="macroncmb" unicode="&#x304;" 
d="M352 1456v-180h-704v180h704z" />
    <glyph glyph-name="brevecmb" unicode="&#x306;" 
d="M-395 1590h236q3 -67 44.5 -107.5t114.5 -40.5t114.5 40.5t44.5 107.5h236q-5 -142 -109.5 -238t-285.5 -96t-285.5 96t-109.5 238z" />
    <glyph glyph-name="dotaccentcmb" unicode="&#x307;" 
d="M-2 1264q-75 0 -126 50.5t-51 122.5t51 122.5t126 50.5t126 -50.5t51 -122.5t-51 -122.5t-126 -50.5z" />
    <glyph glyph-name="dieresiscmb" unicode="&#x308;" 
d="M-222 1256q-68 0 -113 44t-45 106q0 63 45 106.5t113 43.5t113 -43.5t45 -106.5q0 -62 -45 -106t-113 -44zM222 1256q-68 0 -113 44t-45 106q0 63 45 106.5t113 43.5t113 -43.5t45 -106.5q0 -62 -45 -106t-113 -44z" />
    <glyph glyph-name="hookabovecmb" unicode="&#x309;" 
d="M-188 1538v164q28 12 77.5 21t87.5 9q127 0 202 -64.5t75 -173.5q0 -78 -56.5 -148t-159.5 -120l-108 125q55 29 77 56t22 66q0 38 -31.5 60.5t-83.5 22.5q-56 0 -102 -18z" />
    <glyph glyph-name="ringcmb" unicode="&#x30a;" 
d="M0 1235q-99 0 -171.5 69.5t-72.5 165.5q0 97 72.5 166.5t171.5 69.5t171 -69.5t72 -166.5t-72 -166t-171 -69zM0 1386q35 0 61.5 25t26.5 59q0 35 -26.5 60.5t-61.5 25.5t-61.5 -25.5t-26.5 -60.5q0 -34 26.5 -59t61.5 -25z" />
    <glyph glyph-name="hungarumlautcmb" unicode="&#x30b;" 
d="M60 1276l182 320h309l-211 -320h-280zM-365 1276l183 320h308l-211 -320h-280z" />
    <glyph glyph-name="caroncmb" unicode="&#x30c;" 
d="M157 1256h-314l-255 336h284l124 -180h8l124 180h284z" />
    <glyph glyph-name="dblgravecmb" unicode="&#x30f;" 
d="M-60 1276h-280l-211 320h309zM365 1276h-280l-211 320h308z" />
    <glyph glyph-name="invertedbrevecmb" unicode="&#x311;" 
d="M-395 1256q5 142 109.5 238t285.5 96t285.5 -96t109.5 -238h-236q-3 67 -44.5 107.5t-114.5 40.5t-114.5 -40.5t-44.5 -107.5h-236z" />
    <glyph glyph-name="horncmb" unicode="&#x31b;" 
d="M0 875v248q23 -3 39 0q41 10 41 79v149h285v-210q0 -132 -64 -205.5t-177 -73.5q-87 0 -124 13z" />
    <glyph glyph-name="dotbelowcmb" unicode="&#x323;" 
d="M0 -524q-74 0 -125.5 52t-51.5 125t51 124.5t126 51.5t126 -51.5t51 -124.5t-51.5 -125t-125.5 -52z" />
    <glyph glyph-name="dieresisbelowcmb" unicode="&#x324;" 
d="M-222 -476q-68 0 -113 44t-45 106q0 63 45 106.5t113 43.5t113 -43.5t45 -106.5q0 -62 -45 -106t-113 -44zM222 -476q-68 0 -113 44t-45 106q0 63 45 106.5t113 43.5t113 -43.5t45 -106.5q0 -62 -45 -106t-113 -44z" />
    <glyph glyph-name="ringbelowcmb" unicode="&#x325;" 
d="M0 -603q-99 0 -171.5 69.5t-72.5 165.5q0 97 72.5 166.5t171.5 69.5t171 -69.5t72 -166.5t-72 -166t-171 -69zM0 -452q35 0 61.5 25t26.5 59q0 35 -26.5 60.5t-61.5 25.5t-61.5 -25.5t-26.5 -60.5q0 -34 26.5 -59t61.5 -25z" />
    <glyph glyph-name="commabelowcmb" unicode="&#x326;" 
d="M-29 -457h-308l152 321h359z" />
    <glyph glyph-name="cedillacmb" unicode="&#x327;" 
d="M-127 -225v127l63 114l180 -16l-46 -89q72 0 117 -46t45 -122q0 -195 -263 -195q-94 0 -133 15v141q37 -12 99 -12q94 0 94 37q0 26 -22 36t-78 10h-56z" />
    <glyph glyph-name="ogonekcmb" unicode="&#x328;" 
d="M236 -266v-185q-60 -23 -157 -23q-117 0 -191 63.5t-74 164.5q0 81 39.5 139.5t126.5 106.5h198q-66 -37 -96.5 -78.5t-30.5 -95.5q0 -44 31.5 -72t81.5 -28q36 0 72 8z" />
    <glyph glyph-name="circumflexbelowcmb" unicode="&#x32d;" 
d="M-157 -154h314l255 -336h-276l-132 192h-8l-132 -192h-276z" />
    <glyph glyph-name="brevebelowcmb" unicode="&#x32e;" 
d="M-395 -156h236q3 -67 44.5 -107.5t114.5 -40.5t114.5 40.5t44.5 107.5h236q-5 -142 -109.5 -238t-285.5 -96t-285.5 96t-109.5 238z" />
    <glyph glyph-name="tildebelowcmb" unicode="&#x330;" 
d="M153 -456q-49 0 -93.5 18.5t-70 41t-54 41t-50.5 18.5q-32 0 -49.5 -28.5t-19.5 -72.5h-201q0 135 73 214t178 79q49 0 93.5 -18.5t70 -41t54 -41t50.5 -18.5q64 0 69 106h201q0 -135 -73 -216.5t-178 -81.5z" />
    <glyph glyph-name="macronbelowcmb" unicode="&#x331;" 
d="M374 -240v-180h-748v180h748z" />
    <glyph glyph-name="greekquestionmark" unicode="&#x37e;" horiz-adv-x="618" 
d="M309 680q-86 0 -147 61t-61 147t61 147t147 61t147 -61t61 -147t-61 -147t-147 -61zM355 -285h-307l66 622h364z" />
    <glyph glyph-name="tonosgreek" unicode="&#x384;" horiz-adv-x="912" 
d="M218 1275l84 341h392l-156 -341h-320z" />
    <glyph glyph-name="dieresistonosgreek" unicode="&#x385;" horiz-adv-x="1396" 
d="M296 1256q-68 0 -113 44t-45 106q0 63 45 106.5t113 43.5t113 -43.5t45 -106.5q0 -62 -45 -106t-113 -44zM1100 1256q-68 0 -113 44t-45 106q0 63 45 106.5t113 43.5t113 -43.5t45 -106.5q0 -62 -45 -106t-113 -44zM783 1276h-250l20 340h373z" />
    <glyph glyph-name="Alphatonosgreek" unicode="&#x386;" horiz-adv-x="1710" 
d="M1228 0l-75 287h-440l-75 -287h-432l471 1443h532l471 -1443h-452zM929 1110l-139 -524h286l-139 524h-8zM372 1102h-300l74 341h392z" />
    <glyph glyph-name="anoteleia" unicode="&#x387;" horiz-adv-x="744" 
d="M372 707q-86 0 -147 61t-61 147t61 147t147 61t147 -61t61 -147t-61 -147t-147 -61z" />
    <glyph glyph-name="Epsilontonosgreek" unicode="&#x388;" horiz-adv-x="1731" 
d="M1633 337v-337h-1018v1443h1018v-337h-594v-233h557v-304h-557v-232h594zM320 1102h-300l74 341h392z" />
    <glyph glyph-name="Etatonosgreek" unicode="&#x389;" horiz-adv-x="2071" 
d="M1971 0h-424v558h-508v-558h-424v1443h424v-548h508v548h424v-1443zM320 1102h-300l74 341h392z" />
    <glyph glyph-name="Iotatonosgreek" unicode="&#x38a;" horiz-adv-x="1139" 
d="M1039 0h-424v1443h424v-1443zM320 1102h-300l74 341h392z" />
    <glyph glyph-name="Omicrontonosgreek" unicode="&#x38c;" horiz-adv-x="1909" 
d="M1117 1468q335 0 531 -201t196 -546t-196 -545.5t-531 -200.5q-336 0 -531.5 200.5t-195.5 545.5t196 546t531 201zM1117 1130q-133 0 -214 -111t-81 -298q0 -186 80.5 -297t214.5 -111t214.5 111t80.5 297q0 187 -81 298t-214 111zM320 1102h-300l74 341h392z" />
    <glyph glyph-name="Upsilontonosgreek" unicode="&#x38e;" horiz-adv-x="1994" 
d="M1471 0h-424v457l-493 986h453l253 -585h8l253 585h443l-493 -986v-457zM320 1102h-300l74 341h392z" />
    <glyph glyph-name="Omegatonosgreek" unicode="&#x38f;" horiz-adv-x="1944" 
d="M1457 782q0 164 -87 256t-228 92t-228 -92t-87 -256q0 -266 206 -378v-404h-628v316h273v8q-123 63 -198 194.5t-75 303.5q0 191 92.5 338t260.5 227.5t384 80.5t384 -80.5t260.5 -227.5t92.5 -338q0 -172 -75 -303.5t-198 -194.5v-8h273v-316h-628v404q206 112 206 378z
M320 1102h-300l74 341h392z" />
    <glyph glyph-name="iotadieresistonosgreek" unicode="&#x390;" horiz-adv-x="728" 
d="M85 1124h410v-721q0 -108 128 -108q34 0 70 5l10 -285q-70 -15 -179 -15q-234 0 -336.5 73t-102.5 240v811zM-84 1256q-68 0 -113 44t-45 106q0 63 45 106.5t113 43.5t113 -43.5t45 -106.5q0 -62 -45 -106t-113 -44zM720 1256q-68 0 -113 44t-45 106q0 63 45 106.5
t113 43.5t113 -43.5t45 -106.5q0 -62 -45 -106t-113 -44zM403 1276h-250l20 340h373z" />
    <glyph glyph-name="Alphagreek" unicode="&#x391;" horiz-adv-x="1534" 
d="M1052 0l-75 287h-440l-75 -287h-432l471 1443h532l471 -1443h-452zM753 1110l-139 -524h286l-139 524h-8z" />
    <glyph glyph-name="Betagreek" unicode="&#x392;" horiz-adv-x="1382" 
d="M833 0h-733v1443h709q221 0 344.5 -95.5t123.5 -264.5q0 -123 -83 -209.5t-210 -102.5v-8q148 -4 253 -102.5t105 -240.5q0 -190 -139 -305t-370 -115zM524 1152v-287h164q81 0 129 39t48 105q0 67 -45.5 105t-125.5 38h-170zM524 291h181q99 0 152.5 43.5t53.5 124.5
q0 77 -54 120t-149 43h-184v-331z" />
    <glyph glyph-name="Gammagreek" unicode="&#x393;" horiz-adv-x="1144" 
d="M524 0h-424v1443h994v-337h-570v-1106z" />
    <glyph glyph-name="Deltagreek" unicode="&#x394;" horiz-adv-x="1490" 
d="M1440 0h-1390v217l429 1226h532l429 -1226v-217zM484 344v-8h479v8l-232 775h-8z" />
    <glyph glyph-name="Epsilongreek" unicode="&#x395;" horiz-adv-x="1216" 
d="M1118 337v-337h-1018v1443h1018v-337h-594v-233h557v-304h-557v-232h594z" />
    <glyph glyph-name="Zetagreek" unicode="&#x396;" horiz-adv-x="1321" 
d="M80 0v266l643 832v8h-637v337h1131v-265l-641 -833v-8h665v-337h-1161z" />
    <glyph glyph-name="Etagreek" unicode="&#x397;" horiz-adv-x="1556" 
d="M1456 0h-424v558h-508v-558h-424v1443h424v-548h508v548h424v-1443z" />
    <glyph glyph-name="Thetagreek" unicode="&#x398;" horiz-adv-x="1663" 
d="M1039 568h-418v294h418v-294zM832 1468q366 0 566 -201t200 -545q0 -343 -204 -545t-562 -202q-359 0 -563 202t-204 545q0 344 200 545t567 201zM832 1130q-164 0 -252.5 -106.5t-88.5 -301.5t88.5 -302t252.5 -107q163 0 251.5 107t88.5 302t-88.5 301.5t-251.5 106.5z
" />
    <glyph glyph-name="Iotagreek" unicode="&#x399;" horiz-adv-x="624" 
d="M524 0h-424v1443h424v-1443z" />
    <glyph glyph-name="Kappagreek" unicode="&#x39a;" horiz-adv-x="1445" 
d="M524 0h-424v1443h424v-612h8l446 612h445l-475 -641l497 -802h-493l-315 530l-113 -152v-378z" />
    <glyph glyph-name="Lambdagreek" unicode="&#x39b;" horiz-adv-x="1513" 
d="M1012 0l-259 1090h-8l-263 -1090h-452l461 1443h532l460 -1443h-471z" />
    <glyph glyph-name="Mugreek" unicode="&#x39c;" horiz-adv-x="1833" 
d="M1733 1443v-1443h-370v836h-8l-325 -819h-227l-325 819h-8v-836h-370v1443h490l323 -842h8l322 842h490z" />
    <glyph glyph-name="Nugreek" unicode="&#x39d;" horiz-adv-x="1494" 
d="M500 0h-400v1443h329l557 -748h8v748h400v-1443h-325l-561 760h-8v-760z" />
    <glyph glyph-name="Xigreek" unicode="&#x39e;" horiz-adv-x="1312" 
d="M98 1443h1116v-346h-1116v346zM1127 563h-942v314h942v-314zM98 346h1116v-346h-1116v346z" />
    <glyph glyph-name="Omicrongreek" unicode="&#x39f;" horiz-adv-x="1584" 
d="M792 1468q335 0 531 -201t196 -546t-196 -545.5t-531 -200.5q-336 0 -531.5 200.5t-195.5 545.5t196 546t531 201zM792 1130q-133 0 -214 -111t-81 -298q0 -186 80.5 -297t214.5 -111t214.5 111t80.5 297q0 187 -81 298t-214 111z" />
    <glyph glyph-name="Pigreek" unicode="&#x3a0;" horiz-adv-x="1536" 
d="M1436 0h-424v1107h-488v-1107h-424v1443h1336v-1443z" />
    <glyph glyph-name="Rhogreek" unicode="&#x3a1;" horiz-adv-x="1346" 
d="M100 1443h659q242 0 389.5 -143t147.5 -383q0 -237 -156 -380t-410 -143h-206v-394h-424v1443zM524 1124v-417h119q107 0 166 53.5t59 155.5q0 101 -58.5 154.5t-163.5 53.5h-122z" />
    <glyph glyph-name="Sigmagreek" unicode="&#x3a3;" horiz-adv-x="1300" 
d="M601 345v-8h619v-337h-1140v239l345 483l-321 436v285h1093v-337h-561v-8l251 -363v-8z" />
    <glyph glyph-name="Taugreek" unicode="&#x3a4;" horiz-adv-x="1274" 
d="M849 0h-424v1106h-380v337h1184v-337h-380v-1106z" />
    <glyph glyph-name="Upsilongreek" unicode="&#x3a5;" horiz-adv-x="1470" 
d="M947 0h-424v457l-493 986h453l253 -585h8l253 585h443l-493 -986v-457z" />
    <glyph glyph-name="Phigreek" unicode="&#x3a6;" horiz-adv-x="1946" 
d="M1488 710q0 166 -85.5 267t-242.5 121v-776q157 20 242.5 121t85.5 267zM458 710q0 -166 85.5 -267t242.5 -121v776q-157 -20 -242.5 -121t-85.5 -267zM1160 -153h-374v158q-159 8 -295.5 63t-233.5 147t-152 219.5t-55 275.5t55 275.5t152 219.5t233.5 147t295.5 63v158
h374v-158q159 -8 295.5 -63t233.5 -147t152 -219.5t55 -275.5t-55 -275.5t-152 -219.5t-233.5 -147t-295.5 -63v-158z" />
    <glyph glyph-name="Chigreek" unicode="&#x3a7;" horiz-adv-x="1507" 
d="M41 0l425 723v8l-426 712h494l227 -460h8l228 460h470l-447 -714v-8l445 -721h-472l-248 435h-9l-247 -435h-448z" />
    <glyph glyph-name="Psigreek" unicode="&#x3a8;" horiz-adv-x="1790" 
d="M1092 0h-394v279q-293 9 -455.5 176t-162.5 453v535h394v-546q0 -132 54 -204t170 -89v839h394v-839q116 17 170 89t54 204v546h394v-535q0 -286 -162.5 -453t-455.5 -176v-279z" />
    <glyph glyph-name="Omegagreek" unicode="&#x3a9;" horiz-adv-x="1604" 
d="M1117 782q0 164 -87 256t-228 92t-228 -92t-87 -256q0 -266 206 -378v-404h-628v316h273v8q-123 63 -198 194.5t-75 303.5q0 191 92.5 338t260.5 227.5t384 80.5t384 -80.5t260.5 -227.5t92.5 -338q0 -172 -75 -303.5t-198 -194.5v-8h273v-316h-628v404q206 112 206 378z
" />
    <glyph glyph-name="Iotadieresisgreek" unicode="&#x3aa;" horiz-adv-x="624" 
d="M524 0h-424v1443h424v-1443zM90 1536q-68 0 -113 44t-45 106q0 63 45 106.5t113 43.5t113 -43.5t45 -106.5q0 -62 -45 -106t-113 -44zM534 1536q-68 0 -113 44t-45 106q0 63 45 106.5t113 43.5t113 -43.5t45 -106.5q0 -62 -45 -106t-113 -44z" />
    <glyph glyph-name="Upsilondieresisgreek" unicode="&#x3ab;" horiz-adv-x="1470" 
d="M947 0h-424v457l-493 986h453l253 -585h8l253 585h443l-493 -986v-457zM513 1536q-68 0 -113 44t-45 106q0 63 45 106.5t113 43.5t113 -43.5t45 -106.5q0 -62 -45 -106t-113 -44zM957 1536q-68 0 -113 44t-45 106q0 63 45 106.5t113 43.5t113 -43.5t45 -106.5
q0 -62 -45 -106t-113 -44z" />
    <glyph glyph-name="alphatonosgreek" unicode="&#x3ac;" horiz-adv-x="1437" 
d="M648 301q83 0 131 69.5t48 190.5q0 120 -49 191.5t-131 71.5q-81 0 -129 -71t-48 -191q0 -121 47.5 -191t130.5 -70zM510 -16q-220 0 -340 151.5t-120 429.5q0 273 119.5 424t335.5 151q112 0 187 -53t125 -165h8v202h410v-727q0 -65 21.5 -92t67.5 -27q40 0 58 11
l10 -276q-73 -23 -194 -23q-123 0 -199.5 38t-120.5 123q-10 19 -19 41h-8q-58 -108 -139 -158t-202 -50zM499 1275l84 341h392l-156 -341h-320z" />
    <glyph glyph-name="epsilontonosgreek" unicode="&#x3ad;" horiz-adv-x="1285" 
d="M611 -28q-258 0 -407 88.5t-149 243.5q0 95 55 167t151 102v8q-93 35 -137 92t-44 145q0 153 149.5 243.5t397.5 90.5q265 0 420 -105.5t179 -306.5h-397q-33 118 -191 118q-154 0 -154 -86q0 -38 34 -55t122 -17h138v-267h-136q-168 0 -168 -80q0 -42 38 -64.5
t110 -22.5q90 0 142.5 33.5t74.5 106.5h421q-15 -128 -102.5 -227t-230 -153t-316.5 -54zM475 1275l84 341h392l-156 -341h-320z" />
    <glyph glyph-name="etatonosgreek" unicode="&#x3ae;" horiz-adv-x="1445" 
d="M1355 -360h-410v989q0 88 -41 137t-120 49q-74 0 -118.5 -52t-44.5 -134v-629h-410v725q0 66 -21 93.5t-67 27.5q-36 0 -73 -11v276q74 23 197 23q260 0 343 -178q10 -19 20 -52h8q40 114 127 178t219 64q187 0 289 -112t102 -314v-1080zM503 1275l84 341h392l-156 -341
h-320z" />
    <glyph glyph-name="iotatonosgreek" unicode="&#x3af;" horiz-adv-x="728" 
d="M85 1128h410v-721q0 -108 128 -108q34 0 70 5l10 -285q-70 -15 -179 -15q-234 0 -336.5 73t-102.5 240v811zM118 1275l84 341h392l-156 -341h-320z" />
    <glyph glyph-name="upsilondieresistonosgreek" unicode="&#x3b0;" horiz-adv-x="1235" 
d="M603 -22q-273 0 -400.5 124.5t-127.5 378.5v643h380v-603q0 -115 35.5 -163t116.5 -48q94 0 130 67.5t36 230.5q0 237 -80 516h390q82 -210 82 -519q0 -307 -141.5 -467t-420.5 -160zM186 1256q-68 0 -113 44t-45 106q0 63 45 106.5t113 43.5t113 -43.5t45 -106.5
q0 -62 -45 -106t-113 -44zM990 1256q-68 0 -113 44t-45 106q0 63 45 106.5t113 43.5t113 -43.5t45 -106.5q0 -62 -45 -106t-113 -44zM673 1276h-250l20 340h373z" />
    <glyph glyph-name="alphagreek" unicode="&#x3b1;" horiz-adv-x="1437" 
d="M648 301q83 0 131 69.5t48 190.5q0 120 -49 191.5t-131 71.5q-81 0 -129 -71t-48 -191q0 -121 47.5 -191t130.5 -70zM510 -16q-220 0 -340 151.5t-120 429.5q0 273 119.5 424t335.5 151q112 0 187 -53t125 -165h8v202h410v-727q0 -65 21.5 -92t67.5 -27q40 0 58 11
l10 -276q-73 -23 -194 -23q-123 0 -199.5 38t-120.5 123q-10 19 -19 41h-8q-58 -108 -139 -158t-202 -50z" />
    <glyph glyph-name="betagreek" unicode="&#x3b2;" horiz-adv-x="1324" 
d="M578 653v278h57q77 0 118.5 39t41.5 108q0 71 -40 108.5t-113 37.5q-154 0 -154 -204v-450q0 -137 47.5 -203t151.5 -66q77 0 122.5 43.5t45.5 117.5q0 90 -53 140.5t-159 50.5h-65zM80 926q0 301 141 452.5t433 151.5q236 0 368 -101t132 -286q0 -108 -56.5 -189.5
t-158.5 -122.5v-8q173 -36 254 -137t81 -273q0 -199 -117.5 -314t-317.5 -115q-122 0 -210 54t-131 156h-8v-554h-410v1286z" />
    <glyph glyph-name="gammagreek" unicode="&#x3b3;" horiz-adv-x="1266" 
d="M1206 939q0 -243 -94.5 -468.5t-307.5 -517.5v-305h-400v256l-414 1220h423l216 -801h8q90 150 129.5 289.5t39.5 324.5q0 107 -12 187h398q14 -95 14 -185z" />
    <glyph glyph-name="deltagreek" unicode="&#x3b4;" horiz-adv-x="1251" 
d="M625 -28q-276 0 -425.5 135t-149.5 380q0 174 100.5 300.5t268.5 168.5v8q-89 43 -137.5 114.5t-48.5 157.5q0 142 116 218t332 76q267 0 416 -62l-10 -269q-156 59 -323 59q-96 0 -96 -64q0 -23 15.5 -42.5t59.5 -45.5q136 -81 227.5 -158t139.5 -152t67 -142t19 -147
q0 -243 -155 -389t-416 -146zM618 245q77 0 116.5 67t39.5 192q0 123 -40.5 191.5t-115.5 68.5q-76 0 -118 -69t-42 -191q0 -125 41 -192t119 -67z" />
    <glyph glyph-name="epsilongreek" unicode="&#x3b5;" horiz-adv-x="1285" 
d="M611 -28q-258 0 -407 88.5t-149 243.5q0 95 55 167t151 102v8q-93 35 -137 92t-44 145q0 153 149.5 243.5t397.5 90.5q265 0 420 -105.5t179 -306.5h-397q-33 118 -191 118q-154 0 -154 -86q0 -38 34 -55t122 -17h138v-267h-136q-168 0 -168 -80q0 -42 38 -64.5
t110 -22.5q90 0 142.5 33.5t74.5 106.5h421q-15 -128 -102.5 -227t-230 -153t-316.5 -54z" />
    <glyph glyph-name="zetagreek" unicode="&#x3b6;" horiz-adv-x="1071" 
d="M895 -373l-303 72q50 75 67 116t17 83q0 61 -40 99.5t-141 73.5q-173 59 -274.5 131t-141 153.5t-39.5 191.5q0 159 99.5 332t287.5 323v8h-321v308h926v-247q-307 -206 -444.5 -361.5t-137.5 -294.5q0 -55 15.5 -87t66.5 -64.5t157 -72.5q203 -76 280 -163t77 -238
q0 -165 -151 -363z" />
    <glyph glyph-name="etagreek" unicode="&#x3b7;" horiz-adv-x="1430" 
d="M1355 -360h-410v989q0 88 -41 137t-120 49q-74 0 -118.5 -52t-44.5 -134v-629h-410v725q0 66 -21 93.5t-67 27.5q-36 0 -73 -11v276q74 23 197 23q260 0 343 -178q10 -19 20 -52h8q40 114 127 178t219 64q187 0 289 -112t102 -314v-1080z" />
    <glyph glyph-name="thetagreek" unicode="&#x3b8;" horiz-adv-x="1319" 
d="M660 -28q-305 0 -452.5 194t-147.5 592q0 381 152 576.5t448 195.5t447.5 -195.5t151.5 -576.5q0 -397 -147.5 -591.5t-451.5 -194.5zM660 252q100 0 146 87.5t46 278.5h-385q0 -191 46.5 -278.5t146.5 -87.5zM467 896h385q0 355 -192 355q-193 0 -193 -355z" />
    <glyph glyph-name="iotagreek" unicode="&#x3b9;" horiz-adv-x="728" 
d="M85 1124h410v-721q0 -108 128 -108q34 0 70 5l10 -285q-70 -15 -179 -15q-234 0 -336.5 73t-102.5 240v811z" />
    <glyph glyph-name="kappagreek" unicode="&#x3ba;" horiz-adv-x="1318" 
d="M85 0v1124h400v-437h8l222 253q101 115 168.5 154.5t170.5 39.5q108 0 169 -22v-277q-24 11 -70 11q-41 0 -66 -13.5t-62 -52.5l-158 -169l395 -611h-422l-254 393l-101 -110v-283h-400z" />
    <glyph glyph-name="lambdagreek" unicode="&#x3bb;" horiz-adv-x="1272" 
d="M0 0l459 1055l-17 45q-30 80 -73.5 111t-123.5 31q-67 0 -89 -11v276q25 9 78.5 16t98.5 7q97 0 160 -16.5t119 -65.5t99.5 -131.5t92.5 -221.5l244 -689q27 -75 56 -101.5t84 -26.5q39 0 59 11l10 -276q-57 -23 -196 -23q-137 0 -215 48.5t-113 159.5l-117 375h-8
l-213 -573h-395z" />
    <glyph glyph-name="mugreek" unicode="&#x3bc;" horiz-adv-x="1411" 
d="M80 -360v1484h405v-623q0 -95 39.5 -143.5t127.5 -48.5q78 0 122.5 52t44.5 134v629h405v-727q0 -67 17.5 -93t61.5 -26q40 0 58 11l10 -276q-85 -23 -199 -23q-122 0 -193 39.5t-118 130.5q-5 10 -15 32h-8q-24 -101 -83.5 -157.5t-143.5 -56.5q-64 0 -113 32h-8v-370
h-410z" />
    <glyph glyph-name="nugreek" unicode="&#x3bd;" horiz-adv-x="1265" 
d="M370 0l-380 1124h423l216 -801h8q95 161 131.5 294t36.5 320q0 108 -12 187h398q14 -98 14 -185q0 -233 -78.5 -431.5t-286.5 -507.5h-470z" />
    <glyph glyph-name="xigreek" unicode="&#x3be;" horiz-adv-x="1100" 
d="M915 -373l-303 72q49 75 66.5 116t17.5 78q0 67 -40 104.5t-158 80.5q-140 51 -224 91.5t-135.5 86.5t-70 94.5t-18.5 118.5q0 105 64.5 175t188.5 95v8q-99 39 -145 94t-46 139q0 91 56.5 145t174.5 77v8h-227v308h907v-269l-156 -21q-148 -20 -223.5 -41.5
t-103.5 -49.5t-28 -75q0 -55 47.5 -80t145.5 -25h237v-288h-261q-220 0 -220 -106q0 -33 15 -54.5t71 -50.5t172 -71q192 -70 269.5 -158.5t77.5 -237.5q0 -88 -37 -175t-114 -189z" />
    <glyph glyph-name="omicrongreek" unicode="&#x3bf;" horiz-adv-x="1278" 
d="M639 -28q-278 0 -433.5 155.5t-155.5 435.5q0 273 158 431t431 158q275 0 432 -157t157 -432q0 -280 -155 -435.5t-434 -155.5zM639 278q80 0 124.5 74.5t44.5 209.5q0 132 -45 208t-124 76t-124 -76t-45 -208q0 -135 44.5 -209.5t124.5 -74.5z" />
    <glyph glyph-name="pigreek" unicode="&#x3c0;" horiz-adv-x="1610" 
d="M293 0v815h-228v309h1475v-309h-242v-420q0 -60 27.5 -88.5t85.5 -28.5q24 0 58 11l10 -276q-66 -23 -206 -23q-205 0 -285 73.5t-80 261.5v490h-225v-815h-390z" />
    <glyph glyph-name="rhogreek" unicode="&#x3c1;" horiz-adv-x="1309" 
d="M654 301q88 0 136.5 69t48.5 198q0 131 -47 204.5t-131 73.5q-91 0 -138.5 -72.5t-47.5 -206.5q0 -130 46 -198t133 -68zM65 -360v902q0 289 162 449.5t441 160.5t435 -156t156 -434q0 -271 -121 -424.5t-336 -153.5q-110 0 -195 55.5t-125 154.5h-8v-554h-409z" />
    <glyph glyph-name="sigmafinalgreek" unicode="&#x3c2;" horiz-adv-x="1211" 
d="M915 -373l-303 72q48 72 66 113.5t18 80.5q0 65 -38 102.5t-140 74.5q-255 92 -361.5 212t-106.5 318q0 260 154 406t423 146q243 0 387.5 -131.5t151.5 -358.5h-369q-8 86 -52 135t-111 49q-84 0 -129 -50t-45 -149q0 -90 51.5 -145.5t196.5 -109.5q203 -76 280.5 -163
t77.5 -238q0 -166 -151 -364z" />
    <glyph glyph-name="sigmagreek" unicode="&#x3c3;" horiz-adv-x="1453" 
d="M637 -28q-276 0 -431.5 147t-155.5 407q0 267 170.5 432.5t445.5 165.5h717v-309h-253v-8q87 -112 87 -292q0 -119 -38 -218.5t-110 -172t-182.5 -112.5t-249.5 -40zM636 270q79 0 126 75.5t47 204.5q0 115 -45 182.5t-118 67.5q-83 0 -129.5 -69.5t-46.5 -193.5
q0 -122 47 -194.5t119 -72.5z" />
    <glyph glyph-name="taugreek" unicode="&#x3c4;" horiz-adv-x="1216" 
d="M801 0q-234 0 -336 73t-102 240v502h-323v309h1111v-309h-378v-412q0 -108 129 -108q28 0 69 5l10 -285q-73 -15 -180 -15z" />
    <glyph glyph-name="upsilongreek" unicode="&#x3c5;" horiz-adv-x="1235" 
d="M603 -22q-273 0 -400.5 124.5t-127.5 378.5v643h380v-603q0 -115 35.5 -163t116.5 -48q94 0 130 67.5t36 230.5q0 237 -80 516h390q82 -210 82 -519q0 -307 -141.5 -467t-420.5 -160z" />
    <glyph glyph-name="phigreek" unicode="&#x3c6;" horiz-adv-x="1694" 
d="M664 -360v331q-130 4 -242 45t-198 114t-135 184.5t-49 248.5t49 248.5t135 185t198.5 114.5t241.5 45v215h366v-215q129 -4 241.5 -45t198.5 -114.5t135 -185t49 -248.5t-49 -248.5t-135 -184.5t-198 -114t-242 -45v-331h-366zM1020 271q116 6 182 79.5t66 212.5
t-65.5 212.5t-182.5 79.5v-584zM674 271v584q-117 -6 -182.5 -79.5t-65.5 -212.5t66 -212.5t182 -79.5z" />
    <glyph glyph-name="chigreek" unicode="&#x3c7;" horiz-adv-x="1349" 
d="M62 -360l413 729l-197 353q-43 77 -73.5 100.5t-84.5 23.5q-36 0 -65 -11v277q77 22 183 22q131 0 208 -44t134 -149l127 -233h8l220 416h399l-437 -756l198 -356q31 -56 56.5 -75t65.5 -19q42 0 69 11l10 -276q-71 -23 -179 -23q-140 0 -209 39.5t-125 141.5l-121 219
h-8l-192 -390h-400z" />
    <glyph glyph-name="psigreek" unicode="&#x3c8;" horiz-adv-x="1708" 
d="M647 -360v339q-281 1 -426.5 128.5t-145.5 374.5v642h380v-542q0 -70 5 -114.5t16.5 -77t35 -49t55 -23.5t80.5 -7v1060h385v-1057q102 0 158 77t56 219q0 236 -80 514h390q82 -210 82 -518q0 -306 -155 -466.5t-451 -160.5v-339h-385z" />
    <glyph glyph-name="omegagreek" unicode="&#x3c9;" horiz-adv-x="1712" 
d="M516 -28q-456 0 -456 563q0 336 152 589h397q-159 -312 -159 -604q0 -114 28.5 -165t91.5 -51q106 0 106 130v370h360v-370q0 -130 105 -130q63 0 92 51.5t29 164.5q0 292 -159 604h397q152 -253 152 -589q0 -563 -456 -563q-235 0 -336 251h-8q-101 -251 -336 -251z" />
    <glyph glyph-name="iotadieresisgreek" unicode="&#x3ca;" horiz-adv-x="728" 
d="M85 1124h410v-721q0 -108 128 -108q34 0 70 5l10 -285q-70 -15 -179 -15q-234 0 -336.5 73t-102.5 240v811zM68 1256q-68 0 -113 44t-45 106q0 63 45 106.5t113 43.5t113 -43.5t45 -106.5q0 -62 -45 -106t-113 -44zM512 1256q-68 0 -113 44t-45 106q0 63 45 106.5
t113 43.5t113 -43.5t45 -106.5q0 -62 -45 -106t-113 -44z" />
    <glyph glyph-name="upsilondieresisgreek" unicode="&#x3cb;" horiz-adv-x="1235" 
d="M603 -22q-273 0 -400.5 124.5t-127.5 378.5v643h380v-603q0 -115 35.5 -163t116.5 -48q94 0 130 67.5t36 230.5q0 237 -80 516h390q82 -210 82 -519q0 -307 -141.5 -467t-420.5 -160zM374 1256q-68 0 -113 44t-45 106q0 63 45 106.5t113 43.5t113 -43.5t45 -106.5
q0 -62 -45 -106t-113 -44zM818 1256q-68 0 -113 44t-45 106q0 63 45 106.5t113 43.5t113 -43.5t45 -106.5q0 -62 -45 -106t-113 -44z" />
    <glyph glyph-name="omicrontonosgreek" unicode="&#x3cc;" horiz-adv-x="1278" 
d="M639 -28q-278 0 -433.5 155.5t-155.5 435.5q0 273 158 431t431 158q275 0 432 -157t157 -432q0 -280 -155 -435.5t-434 -155.5zM639 278q80 0 124.5 74.5t44.5 209.5q0 132 -45 208t-124 76t-124 -76t-45 -208q0 -135 44.5 -209.5t124.5 -74.5zM492 1275l84 341h392
l-156 -341h-320z" />
    <glyph glyph-name="upsilontonosgreek" unicode="&#x3cd;" horiz-adv-x="1235" 
d="M603 -22q-273 0 -400.5 124.5t-127.5 378.5v643h380v-603q0 -115 35.5 -163t116.5 -48q94 0 130 67.5t36 230.5q0 237 -80 516h390q82 -210 82 -519q0 -307 -141.5 -467t-420.5 -160zM421 1275l84 341h392l-156 -341h-320z" />
    <glyph glyph-name="omegatonosgreek" unicode="&#x3ce;" horiz-adv-x="1712" 
d="M516 -28q-456 0 -456 563q0 336 152 589h397q-159 -312 -159 -604q0 -114 28.5 -165t91.5 -51q106 0 106 130v370h360v-370q0 -130 105 -130q63 0 92 51.5t29 164.5q0 292 -159 604h397q152 -253 152 -589q0 -563 -456 -563q-235 0 -336 251h-8q-101 -251 -336 -251z
M695 1275l84 341h392l-156 -341h-320z" />
    <glyph glyph-name="Iocyrillic" unicode="&#x401;" horiz-adv-x="1238" 
d="M1128 337v-337h-1018v1443h1018v-337h-594v-233h557v-304h-557v-232h594zM396 1536q-68 0 -113 44t-45 106q0 63 45 106.5t113 43.5t113 -43.5t45 -106.5q0 -62 -45 -106t-113 -44zM840 1536q-68 0 -113 44t-45 106q0 63 45 106.5t113 43.5t113 -43.5t45 -106.5
q0 -62 -45 -106t-113 -44z" />
    <glyph glyph-name="Djecyrillic" unicode="&#x402;" horiz-adv-x="1809" 
d="M1152 -118q-46 0 -86.5 4t-57.5 8l-18 5v312q34 -9 109 -9q95 0 149.5 46.5t54.5 133.5q0 81 -53.5 126.5t-150.5 45.5q-80 0 -139.5 -31t-89.5 -84v-439h-424v1107h-381v336h1186v-336h-381v-298h8q125 97 330 97q128 0 229 -38t164 -105.5t95.5 -155.5t32.5 -191
q0 -242 -153.5 -388t-423.5 -146z" />
    <glyph glyph-name="Gjecyrillic" unicode="&#x403;" horiz-adv-x="1174" 
d="M534 0h-424v1443h1004v-336h-580v-1107zM793 1525h-306l232 321h348z" />
    <glyph glyph-name="Ecyrillic" unicode="&#x404;" horiz-adv-x="1532" 
d="M1462 542q-17 -258 -203.5 -420t-467.5 -162q-332 0 -524 203t-192 559t192 558.5t524 202.5q181 0 330 -74.5t238.5 -207t100.5 -298.5h-410q-18 106 -88.5 169t-170.5 63q-104 0 -179.5 -68.5t-94.5 -188.5h492v-306h-494q18 -124 94.5 -194t182.5 -70q100 0 170.5 63
t89.5 171h410z" />
    <glyph glyph-name="Dzecyrillic" unicode="&#x405;" horiz-adv-x="1392" 
d="M70 425h401q9 -60 74 -98t152 -38q94 0 149.5 34t55.5 87q0 50 -45 76.5t-163 47.5l-191 34q-198 34 -303.5 144t-105.5 280q0 216 166 346t428 130q285 0 442 -122t159 -334h-387q-2 66 -60 104.5t-146 38.5q-83 0 -132 -32t-49 -86q0 -51 46 -81t150 -48l198 -34
q210 -37 310.5 -138.5t100.5 -277.5q0 -221 -171.5 -352t-459.5 -131q-292 0 -455 117.5t-164 332.5z" />
    <glyph glyph-name="Icyrillic" unicode="&#x406;" horiz-adv-x="644" 
d="M534 0h-424v1443h424v-1443z" />
    <glyph glyph-name="Yicyrillic" unicode="&#x407;" horiz-adv-x="644" 
d="M534 0h-424v1443h424v-1443zM100 1536q-68 0 -113 44t-45 106q0 63 45 106.5t113 43.5t113 -43.5t45 -106.5q0 -62 -45 -106t-113 -44zM544 1536q-68 0 -113 44t-45 106q0 63 45 106.5t113 43.5t113 -43.5t45 -106.5q0 -62 -45 -106t-113 -44z" />
    <glyph glyph-name="Jecyrillic" unicode="&#x408;" horiz-adv-x="1291" 
d="M30 511h406q0 -85 41.5 -133t114.5 -48q70 0 106.5 44.5t36.5 129.5v939h424v-942q0 -252 -148 -389t-413 -137q-263 0 -415.5 143t-152.5 393z" />
    <glyph glyph-name="Ljecyrillic" unicode="&#x409;" horiz-adv-x="2298" 
d="M704 600q-7 -141 -36 -250t-85 -193t-148 -128.5t-218 -44.5q-91 0 -147 16v367q51 -9 80 -9q47 0 80 20.5t51 60t26 85t11 109.5l34 810h1114v-434h206q254 0 410 -137.5t156 -365.5q0 -231 -147.5 -368.5t-389.5 -137.5h-659v1107h-314zM1466 320h122q104 0 161 47.5
t57 139.5t-58 140t-163 48h-119v-375z" />
    <glyph glyph-name="Njecyrillic" unicode="&#x40a;" horiz-adv-x="2278" 
d="M1446 320h152q94 0 144.5 37.5t50.5 107.5q0 68 -51.5 104.5t-146.5 36.5h-149v-286zM534 589v-589h-424v1443h424v-528h488v528h424v-528h206q256 0 411 -124.5t155 -329.5q0 -209 -146.5 -335t-390.5 -126h-659v589h-488z" />
    <glyph glyph-name="Tshecyrillic" unicode="&#x40b;" horiz-adv-x="1809" 
d="M1088 554q-145 0 -218 -115v-439h-424v1107h-381v336h1186v-336h-381v-298h8q124 97 315 97q248 0 377 -147t129 -392v-367h-424v342q0 100 -49 156t-138 56z" />
    <glyph glyph-name="Kjecyrillic" unicode="&#x40c;" horiz-adv-x="1487" 
d="M1197 1846l-274 -321h-306l232 321h348zM903 766l567 -766h-507l-421 567h-8v-567h-424v1443h424v-558h8l446 558h455z" />
    <glyph glyph-name="Ushortcyrillic" unicode="&#x40e;" horiz-adv-x="1451" 
d="M407 -16q-40 0 -82.5 4t-64.5 8l-22 4v330q24 -10 96 -10q59 0 100 12t71 48l-465 1063h449l243 -669h8l222 669h449l-442 -1030q-46 -106 -95 -180.5t-115 -133t-153.5 -87t-198.5 -28.5zM352 1827h229q2 -66 43.5 -101t110.5 -35t110.5 35t43.5 101h229
q0 -148 -105 -234.5t-278 -86.5t-278 86.5t-105 234.5z" />
    <glyph glyph-name="Dzhecyrillic" unicode="&#x40f;" horiz-adv-x="1566" 
d="M583 0h-473v1443h424v-1107h498v1107h424v-1443h-473v-285h-400v285z" />
    <glyph glyph-name="Acyrillic" unicode="&#x410;" horiz-adv-x="1554" 
d="M1062 0l-75 287h-440l-75 -287h-432l471 1443h532l471 -1443h-452zM763 1110l-139 -524h286l-139 524h-8z" />
    <glyph glyph-name="Becyrillic" unicode="&#x411;" horiz-adv-x="1356" 
d="M1306 476q0 -217 -147.5 -346.5t-389.5 -129.5h-659v1443h1074v-336h-650v-173h216q250 0 403 -125t153 -333zM534 320h132q98 0 153 40t55 117q0 78 -55 118t-156 40h-129v-315z" />
    <glyph glyph-name="Vecyrillic" unicode="&#x412;" horiz-adv-x="1402" 
d="M843 0h-733v1443h709q221 0 344.5 -95.5t123.5 -264.5q0 -123 -83 -209.5t-210 -102.5v-8q148 -4 253 -102.5t105 -240.5q0 -190 -139 -305t-370 -115zM534 1152v-287h164q81 0 129 39t48 105q0 67 -45.5 105t-125.5 38h-170zM534 291h181q99 0 152.5 43.5t53.5 124.5
q0 77 -54 120t-149 43h-184v-331z" />
    <glyph glyph-name="Gecyrillic" unicode="&#x413;" horiz-adv-x="1174" 
d="M534 0h-424v1443h1004v-336h-580v-1107z" />
    <glyph glyph-name="Decyrillic" unicode="&#x414;" horiz-adv-x="1642" 
d="M630 679q-9 -127 -29.5 -207.5t-61.5 -126.5v-8h479v771h-359zM400 0v-285h-380v622h95q68 59 93 139.5t35 243.5l45 723h1154v-1106h180v-622h-380v285h-842z" />
    <glyph glyph-name="Iecyrillic" unicode="&#x415;" horiz-adv-x="1238" 
d="M1128 337v-337h-1018v1443h1018v-337h-594v-233h557v-304h-557v-232h594z" />
    <glyph glyph-name="Zhecyrillic" unicode="&#x416;" horiz-adv-x="2161" 
d="M1636 765l510 -765h-497l-359 567h-8v-567h-408v567h-8l-359 -567h-492l505 757l-493 686h455l384 -558h8v558h408v-558h8l384 558h450z" />
    <glyph glyph-name="Zecyrillic" unicode="&#x417;" horiz-adv-x="1385" 
d="M498 582v310h187q86 0 136 37.5t50 102.5q0 66 -51 103.5t-140 37.5q-90 0 -145.5 -47t-55.5 -123h-383q2 220 162.5 350t430.5 130q261 0 418.5 -108.5t157.5 -287.5q0 -125 -76 -214t-200 -111v-8q148 -14 237 -108.5t89 -237.5q0 -200 -176 -324t-461 -124
q-267 0 -432.5 132t-175.5 352h404q1 -73 58 -114.5t155 -41.5q87 0 140 43t53 113q0 65 -52.5 101.5t-144.5 36.5h-185z" />
    <glyph glyph-name="Iicyrillic" unicode="&#x418;" horiz-adv-x="1586" 
d="M1052 0v803h-8l-530 -803h-404v1443h424v-803h8l530 803h404v-1443h-424z" />
    <glyph glyph-name="Iishortcyrillic" unicode="&#x419;" horiz-adv-x="1586" 
d="M1052 0v803h-8l-530 -803h-404v1443h424v-803h8l530 803h404v-1443h-424zM422 1827h229q2 -66 43.5 -101t110.5 -35t110.5 35t43.5 101h229q0 -148 -105 -234.5t-278 -86.5t-278 86.5t-105 234.5z" />
    <glyph glyph-name="Kacyrillic" unicode="&#x41a;" horiz-adv-x="1485" 
d="M903 766l567 -766h-507l-421 567h-8v-567h-424v1443h424v-558h8l446 558h455z" />
    <glyph glyph-name="Elcyrillic" unicode="&#x41b;" horiz-adv-x="1546" 
d="M1436 0h-424v1107h-314l-24 -507q-7 -141 -36 -250t-85 -193t-148 -128.5t-218 -44.5q-91 0 -147 16v367q51 -9 80 -9q47 0 80 20.5t51 60t26 85t11 109.5l34 810h1114v-1443z" />
    <glyph glyph-name="Emcyrillic" unicode="&#x41c;" horiz-adv-x="1853" 
d="M1743 1443v-1443h-370v836h-8l-325 -819h-227l-325 819h-8v-836h-370v1443h490l323 -842h8l322 842h490z" />
    <glyph glyph-name="Encyrillic" unicode="&#x41d;" horiz-adv-x="1576" 
d="M1466 0h-424v558h-508v-558h-424v1443h424v-548h508v548h424v-1443z" />
    <glyph glyph-name="Ocyrillic" unicode="&#x41e;" horiz-adv-x="1604" 
d="M802 1468q335 0 531 -201t196 -546t-196 -545.5t-531 -200.5q-336 0 -531.5 200.5t-195.5 545.5t196 546t531 201zM802 1130q-133 0 -214 -111t-81 -298q0 -186 80.5 -297t214.5 -111t214.5 111t80.5 297q0 187 -81 298t-214 111z" />
    <glyph glyph-name="Pecyrillic" unicode="&#x41f;" horiz-adv-x="1566" 
d="M1456 0h-424v1107h-498v-1107h-424v1443h1346v-1443z" />
    <glyph glyph-name="Ercyrillic" unicode="&#x420;" horiz-adv-x="1388" 
d="M110 1443h659q242 0 389.5 -143t147.5 -383q0 -237 -156 -380t-410 -143h-206v-394h-424v1443zM534 1124v-417h119q107 0 166 53.5t59 155.5q0 101 -58.5 154.5t-163.5 53.5h-122z" />
    <glyph glyph-name="Escyrillic" unicode="&#x421;" horiz-adv-x="1532" 
d="M791 -40q-332 0 -524 203t-192 559t192 558.5t524 202.5q181 0 330 -74.5t238.5 -207t100.5 -298.5h-410q-18 106 -88.5 169t-170.5 63q-131 0 -207.5 -110t-76.5 -302q0 -195 76 -305t209 -110q100 0 170.5 63t89.5 171h410q-17 -258 -203.5 -420t-467.5 -162z" />
    <glyph glyph-name="Tecyrillic" unicode="&#x422;" horiz-adv-x="1325" 
d="M859 0h-424v1106h-380v337h1184v-337h-380v-1106z" />
    <glyph glyph-name="Ucyrillic" unicode="&#x423;" horiz-adv-x="1451" 
d="M407 -16q-40 0 -82.5 4t-64.5 8l-22 4v330q24 -10 96 -10q59 0 100 12t71 48l-465 1063h449l243 -669h8l222 669h449l-442 -1030q-46 -106 -95 -180.5t-115 -133t-153.5 -87t-198.5 -28.5z" />
    <glyph glyph-name="Efcyrillic" unicode="&#x424;" horiz-adv-x="1928" 
d="M763 441v561q-123 -8 -198 -82t-75 -198t75 -198.5t198 -82.5zM1438 721q0 124 -75 198.5t-198 82.5v-561q123 8 198 82t75 198zM756 117q-315 12 -503 170t-188 435q0 275 188.5 433.5t502.5 170.5v157h416v-157q315 -12 503 -170t188 -435q0 -275 -188.5 -433.5
t-502.5 -170.5v-157h-416v157z" />
    <glyph glyph-name="Xacyrillic" unicode="&#x425;" horiz-adv-x="1527" 
d="M51 0l425 723v8l-426 712h494l227 -460h8l228 460h470l-447 -714v-8l445 -721h-472l-248 435h-9l-247 -435h-448z" />
    <glyph glyph-name="Tsecyrillic" unicode="&#x426;" horiz-adv-x="1656" 
d="M1636 -285h-380v285h-1146v1443h424v-1107h498v1107h424v-1107h180v-621z" />
    <glyph glyph-name="Checyrillic" unicode="&#x427;" horiz-adv-x="1536" 
d="M1426 0h-424v557h-8q-134 -97 -340 -97q-240 0 -387 147t-147 392v444h424v-397q0 -114 59 -174t171 -60q167 0 228 115v516h424v-1443z" />
    <glyph glyph-name="Shacyrillic" unicode="&#x428;" horiz-adv-x="2088" 
d="M110 0v1443h424v-1107h298v1107h424v-1107h298v1107h424v-1443h-1868z" />
    <glyph glyph-name="Shchacyrillic" unicode="&#x429;" horiz-adv-x="2178" 
d="M2158 -285h-380v285h-1668v1443h424v-1107h298v1107h424v-1107h298v1107h424v-1107h180v-621z" />
    <glyph glyph-name="Hardsigncyrillic" unicode="&#x42a;" horiz-adv-x="1656" 
d="M1059 0h-659v1108h-340v335h764v-434h206q254 0 410 -137.5t156 -365.5q0 -231 -147.5 -368.5t-389.5 -137.5zM824 320h122q104 0 161 47.5t57 139.5t-58 140t-163 48h-119v-375z" />
    <glyph glyph-name="Yericyrillic" unicode="&#x42b;" horiz-adv-x="1964" 
d="M110 0v1443h424v-434h206q254 0 410 -137.5t156 -365.5q0 -231 -147.5 -368.5t-389.5 -137.5h-659zM534 320h122q104 0 161 47.5t57 139.5t-58 140t-163 48h-119v-375zM1854 0h-424v1443h424v-1443z" />
    <glyph glyph-name="Softsigncyrillic" unicode="&#x42c;" horiz-adv-x="1366" 
d="M110 0v1443h424v-434h206q254 0 410 -137.5t156 -365.5q0 -231 -147.5 -368.5t-389.5 -137.5h-659zM534 320h122q104 0 161 47.5t57 139.5t-58 140t-163 48h-119v-375z" />
    <glyph glyph-name="Ereversedcyrillic" unicode="&#x42d;" horiz-adv-x="1532" 
d="M747 -40q-283 0 -471.5 162.5t-205.5 419.5h410q19 -108 91 -171t175 -63q105 0 180.5 70.5t90.5 193.5h-494v306h492q-16 119 -91 188t-177 69q-103 0 -175 -63t-90 -169h-410q11 166 101.5 298.5t241 207t332.5 74.5q329 0 519.5 -202.5t190.5 -558.5t-190 -559
t-520 -203z" />
    <glyph glyph-name="IUcyrillic" unicode="&#x42e;" horiz-adv-x="2186" 
d="M1395 -40q-288 0 -475 158.5t-230 440.5h-156v-559h-424v1443h424v-548h158q46 276 232.5 432t470.5 156q328 0 522 -204.5t194 -556.5q0 -353 -194 -557.5t-522 -204.5zM1393 1137q-128 0 -207.5 -113.5t-79.5 -301.5q0 -189 79.5 -302.5t207.5 -113.5
q127 0 206.5 113.5t79.5 302.5q0 188 -79.5 301.5t-206.5 113.5z" />
    <glyph glyph-name="IAcyrillic" unicode="&#x42f;" horiz-adv-x="1450" 
d="M921 774v356h-181q-86 0 -138.5 -49.5t-52.5 -129.5q0 -82 51.5 -129.5t140.5 -47.5h180zM797 487l-288 -487h-454l345 548q-129 53 -206.5 159.5t-77.5 245.5q0 224 155 357t431 133h638v-1443h-419v487h-124z" />
    <glyph glyph-name="acyrillic" unicode="&#x430;" horiz-adv-x="1251" 
d="M579 259q74 0 128 38.5t54 100.5v74l-181 -13q-61 -4 -94.5 -31t-33.5 -70q0 -46 34.5 -72.5t92.5 -26.5zM427 -16q-158 0 -268.5 97t-110.5 246q0 160 119 248t346 102l248 15v57q0 56 -38.5 87.5t-100.5 31.5q-63 0 -104 -30.5t-46 -75.5h-366q8 179 151.5 284.5
t386.5 105.5q232 0 374.5 -106t142.5 -277v-769h-400v152h-8q-43 -80 -133 -124t-193 -44z" />
    <glyph glyph-name="becyrillic" unicode="&#x431;" horiz-adv-x="1313" 
d="M670 -28q-288 0 -446.5 170t-158.5 494q0 239 45.5 412.5t132 276.5t201 153t264.5 54l173 5q76 2 150.5 10.5t110.5 16.5l37 7v-302q-93 -29 -269 -33l-159 -4q-182 -4 -271 -97.5t-111 -284.5h8q104 220 372 220q228 0 366 -141.5t138 -381.5q0 -266 -157 -420.5
t-426 -154.5zM659 278q82 0 128 66t46 188q0 119 -46.5 186.5t-127.5 67.5t-127.5 -67.5t-46.5 -186.5q0 -122 46 -188t128 -66z" />
    <glyph glyph-name="vecyrillic" unicode="&#x432;" horiz-adv-x="1251" 
d="M594 893h-104v-214h100q65 0 102.5 29t37.5 78q0 50 -36 78.5t-100 28.5zM606 479h-116v-248h113q79 0 121.5 32.5t42.5 94.5q0 57 -43 89t-118 32zM90 0v1124h635q191 0 298.5 -74t107.5 -206q0 -94 -62.5 -163.5t-157.5 -80.5v-8q119 -13 194.5 -86t75.5 -179
q0 -148 -119 -237.5t-319 -89.5h-653z" />
    <glyph glyph-name="gecyrillic" unicode="&#x433;" horiz-adv-x="987" 
d="M927 825h-427v-825h-410v1124h837v-299z" />
    <glyph glyph-name="decyrillic" unicode="&#x434;" horiz-adv-x="1433" 
d="M848 299v528h-263l-16 -250q-11 -168 -74 -270v-8h353zM390 -285h-370v584h79q58 27 83 105t33 205l31 515h1010v-825h157v-584h-370v285h-653v-285z" />
    <glyph glyph-name="iecyrillic" unicode="&#x435;" horiz-adv-x="1263" 
d="M641 869q-73 0 -123 -48t-56 -123h358q-5 78 -54 124.5t-125 46.5zM832 363h366q-26 -181 -174.5 -286t-377.5 -105q-275 0 -430.5 155t-155.5 429q0 275 154.5 435.5t418.5 160.5q260 0 415 -154t155 -412v-111h-747v-26q0 -86 55 -140.5t141 -54.5q65 0 113 29t67 80z
" />
    <glyph glyph-name="zhecyrillic" unicode="&#x436;" horiz-adv-x="1849" 
d="M1485 610l364 -610h-471l-246 430h-8v-430h-403v430h-8l-247 -430h-466l360 602l-344 522h457l240 -413h8v413h403v-413h8l239 413h452z" />
    <glyph glyph-name="zecyrillic" unicode="&#x437;" horiz-adv-x="1224" 
d="M616 -28q-249 0 -394 115.5t-162 325.5h382q42 -134 174 -134q63 0 97.5 24t34.5 67q0 80 -130 80h-143v239h127q118 0 118 79q0 42 -31 65t-87 23q-124 0 -143 -119h-380q14 196 151.5 305.5t368.5 109.5q253 0 386 -85.5t133 -248.5q0 -83 -40.5 -142t-114.5 -83v-8
q95 -29 145.5 -92t50.5 -152q0 -175 -143 -272t-400 -97z" />
    <glyph glyph-name="iicyrillic" unicode="&#x438;" horiz-adv-x="1334" 
d="M490 0h-400v1124h400v-585h8l346 585h400v-1124h-400v600h-8z" />
    <glyph glyph-name="iishortcyrillic" unicode="&#x439;" horiz-adv-x="1334" 
d="M490 0h-400v1124h400v-585h8l346 585h400v-1124h-400v600h-8zM284 1624h229q3 -74 44 -117.5t109 -43.5t109 43.5t44 117.5h229q0 -158 -104.5 -253t-277.5 -95t-277.5 95t-104.5 253z" />
    <glyph glyph-name="kacyrillic" unicode="&#x43a;" horiz-adv-x="1277" 
d="M859 614l418 -614h-481l-288 430h-8v-430h-410v1124h410v-413h8l281 413h452z" />
    <glyph glyph-name="elcyrillic" unicode="&#x43b;" horiz-adv-x="1308" 
d="M596 577q-7 -139 -32 -243t-74.5 -185t-132.5 -123t-198 -42q-70 0 -124 15v336q35 -7 73 -7t64 22t40 63.5t21 87.5t9 108l21 515h955v-1124h-410v825h-200z" />
    <glyph glyph-name="emcyrillic" unicode="&#x43c;" horiz-adv-x="1674" 
d="M466 0h-376v1124h545l199 -610h8l198 610h544v-1124h-376v711h-8l-227 -622h-272l-227 622h-8v-711z" />
    <glyph glyph-name="encyrillic" unicode="&#x43d;" horiz-adv-x="1324" 
d="M824 0v420h-324v-420h-410v1124h410v-405h324v405h410v-1124h-410z" />
    <glyph glyph-name="ocyrillic" unicode="&#x43e;" horiz-adv-x="1298" 
d="M649 -28q-276 0 -432.5 154.5t-156.5 436.5q0 275 159 432t430 157q273 0 431 -156.5t158 -432.5q0 -283 -156 -437t-433 -154zM649 266q81 0 127 77t46 219q0 139 -46.5 217.5t-126.5 78.5t-126.5 -78.5t-46.5 -217.5q0 -142 45.5 -219t127.5 -77z" />
    <glyph glyph-name="pecyrillic" unicode="&#x43f;" horiz-adv-x="1314" 
d="M814 0v825h-314v-825h-410v1124h1134v-1124h-410z" />
    <glyph glyph-name="ercyrillic" unicode="&#x440;" horiz-adv-x="1350" 
d="M843 1140q213 0 327.5 -150t114.5 -428t-113.5 -428t-323.5 -150q-123 0 -212 55.5t-128 154.5h-8v-554h-410v1484h410v-202h8q41 103 128 160.5t207 57.5zM682 301q84 0 133.5 70.5t49.5 190.5q0 119 -50 190t-133 71q-84 0 -133.5 -71t-50.5 -191q1 -121 50 -190.5
t134 -69.5z" />
    <glyph glyph-name="escyrillic" unicode="&#x441;" horiz-adv-x="1229" 
d="M1174 706h-374q-15 66 -56 103t-100 37q-84 0 -129 -73t-45 -210q0 -139 44.5 -212t129.5 -73q62 0 103 36.5t55 103.5h372q-15 -210 -157 -328t-378 -118q-270 0 -424.5 157t-154.5 434q0 274 154.5 431.5t422.5 157.5q230 0 374 -120t163 -326z" />
    <glyph glyph-name="tecyrillic" unicode="&#x442;" horiz-adv-x="1130" 
d="M1080 1124v-299h-310v-825h-410v825h-310v299h1030z" />
    <glyph glyph-name="ucyrillic" unicode="&#x443;" horiz-adv-x="1266" 
d="M278 -412h-146v306h60q89 0 140 19.5t52 54.5v20l-374 1136h455l175 -828h8l175 828h433l-339 -1101q-72 -233 -221 -334t-418 -101z" />
    <glyph glyph-name="efcyrillic" unicode="&#x444;" horiz-adv-x="1788" 
d="M698 275v574q-102 -4 -163 -80t-61 -207q0 -135 59.5 -209t164.5 -78zM1314 562q0 135 -60 209t-165 78v-574q102 4 163.5 80t61.5 207zM693 -18q-296 8 -464.5 159.5t-168.5 421.5q0 263 171 417t462 162v326h402v-326q296 -8 464.5 -159.5t168.5 -421.5
q0 -263 -171 -417t-462 -162v-342h-402v342z" />
    <glyph glyph-name="hacyrillic" unicode="&#x445;" horiz-adv-x="1236" 
d="M609 356h-8l-158 -356h-422l326 558l-327 566h464l142 -344h8l141 344h441l-327 -558l327 -566h-443z" />
    <glyph glyph-name="tsecyrillic" unicode="&#x446;" horiz-adv-x="1404" 
d="M1384 -285h-370v285h-924v1124h410v-825h314v825h410v-825h160v-584z" />
    <glyph glyph-name="checyrillic" unicode="&#x447;" horiz-adv-x="1299" 
d="M1209 0h-410v468h-8q-45 -69 -127 -109.5t-192 -40.5q-175 0 -286 114.5t-111 310.5v381h410v-299q0 -83 43.5 -129t111.5 -46q106 0 159 87v387h410v-1124z" />
    <glyph glyph-name="shacyrillic" unicode="&#x448;" horiz-adv-x="1858" 
d="M90 0v1124h410v-825h224v825h410v-825h224v825h410v-1124h-1678z" />
    <glyph glyph-name="shchacyrillic" unicode="&#x449;" horiz-adv-x="1935" 
d="M1915 -285h-370v285h-1455v1124h410v-825h224v825h410v-825h224v825h410v-825h147v-584z" />
    <glyph glyph-name="hardsigncyrillic" unicode="&#x44a;" horiz-adv-x="1462" 
d="M965 0h-635v825h-280v299h690v-295h225q205 0 326 -112.5t121 -302.5t-121 -302t-326 -112zM873 540h-133v-246h133q60 0 96 34.5t36 88.5t-36 88.5t-96 34.5z" />
    <glyph glyph-name="yericyrillic" unicode="&#x44b;" horiz-adv-x="1754" 
d="M1254 0v1124h410v-1124h-410zM633 540h-133v-246h133q60 0 96 34.5t36 88.5t-36 88.5t-96 34.5zM90 0v1124h410v-295h225q205 0 326 -112.5t121 -302.5t-121 -302t-326 -112h-635z" />
    <glyph glyph-name="softsigncyrillic" unicode="&#x44c;" horiz-adv-x="1222" 
d="M633 540h-133v-246h133q60 0 96 34.5t36 88.5t-36 88.5t-96 34.5zM90 0v1124h410v-295h225q205 0 326 -112.5t121 -302.5t-121 -302t-326 -112h-635z" />
    <glyph glyph-name="ereversedcyrillic" unicode="&#x44d;" horiz-adv-x="1229" 
d="M427 418q13 -67 57 -103.5t110 -36.5q64 0 109.5 45t54.5 127h-311v239h308q-12 75 -56 116t-105 41q-63 0 -106.5 -37t-58.5 -103h-374q19 206 166 326t380 120q264 0 416 -157.5t152 -431.5q0 -277 -151.5 -434t-418.5 -157q-240 0 -384.5 118t-159.5 328h372z" />
    <glyph glyph-name="iucyrillic" unicode="&#x44e;" horiz-adv-x="1853" 
d="M1204 -28q-238 0 -389 116t-188 332h-127v-420h-410v1124h410v-405h130q43 205 194 319t380 114q273 0 431 -156.5t158 -432.5q0 -283 -156 -437t-433 -154zM1202 278q80 0 125.5 74t45.5 210q0 133 -46 208.5t-125 75.5t-125.5 -76t-46.5 -208q0 -136 46 -210t126 -74z
" />
    <glyph glyph-name="iacyrillic" unicode="&#x44f;" horiz-adv-x="1256" 
d="M612 598h156v233h-156q-55 0 -88.5 -33t-33.5 -84t33.5 -83.5t88.5 -32.5zM768 0v330h-57l-218 -330h-448l280 385q-114 39 -177.5 125t-63.5 209q0 184 129 294.5t342 110.5h611v-1124h-398z" />
    <glyph glyph-name="iocyrillic" unicode="&#x451;" horiz-adv-x="1263" 
d="M641 869q-73 0 -123 -48t-56 -123h358q-5 78 -54 124.5t-125 46.5zM832 363h366q-26 -181 -174.5 -286t-377.5 -105q-275 0 -430.5 155t-155.5 429q0 275 154.5 435.5t418.5 160.5q260 0 415 -154t155 -412v-111h-747v-26q0 -86 55 -140.5t141 -54.5q65 0 113 29t67 80z
M410 1256q-68 0 -113 44t-45 106q0 63 45 106.5t113 43.5t113 -43.5t45 -106.5q0 -62 -45 -106t-113 -44zM854 1256q-68 0 -113 44t-45 106q0 63 45 106.5t113 43.5t113 -43.5t45 -106.5q0 -62 -45 -106t-113 -44z" />
    <glyph glyph-name="djecyrillic" unicode="&#x452;" horiz-adv-x="1328" 
d="M495 904h8q43 118 133 180t218 62q188 0 288.5 -111.5t100.5 -314.5v-739q0 -171 -118.5 -266t-332.5 -95q-77 0 -125 6v286q18 -3 47 -3q62 0 90.5 21.5t28.5 68.5v630q0 88 -42 137t-121 49q-78 0 -121.5 -51.5t-43.5 -134.5v-629h-410v1237h-49v176h49v105h400v-105
h201v-176h-201v-333z" />
    <glyph glyph-name="gjecyrillic" unicode="&#x453;" horiz-adv-x="1010" 
d="M927 825h-427v-825h-410v1124h837v-299zM671 1275h-314l232 321h347z" />
    <glyph glyph-name="ecyrillic" unicode="&#x454;" horiz-adv-x="1234" 
d="M807 418h372q-15 -210 -157 -328t-378 -118q-270 0 -424.5 157t-154.5 434q0 274 154.5 431.5t422.5 157.5q230 0 374 -120t163 -326h-374q-15 66 -57.5 103t-103.5 37q-63 0 -107.5 -41t-56.5 -116h306v-239h-309q9 -83 55 -127.5t112 -44.5q64 0 106.5 36.5t56.5 103.5
z" />
    <glyph glyph-name="dzecyrillic" unicode="&#x455;" horiz-adv-x="1192" 
d="M70 776q0 175 139.5 275.5t383.5 100.5t382.5 -103.5t138.5 -286.5h-372q-1 56 -42 88.5t-110 32.5q-58 0 -92.5 -22t-34.5 -58q0 -55 111 -76l251 -50q167 -33 244.5 -107.5t77.5 -202.5q0 -181 -149 -288t-396 -107q-257 0 -401.5 104.5t-155.5 286.5h396
q7 -57 51 -89.5t115 -32.5q63 0 98.5 20.5t35.5 56.5q0 28 -25 45t-83 28l-216 43q-169 34 -258 121.5t-89 220.5z" />
    <glyph glyph-name="icyrillic" unicode="&#x456;" horiz-adv-x="590" 
d="M90 0v1124h410v-1124h-410zM295 1190q-86 0 -145.5 55.5t-59.5 139.5t59.5 139.5t145.5 55.5t145.5 -55.5t59.5 -139.5t-59.5 -139.5t-145.5 -55.5z" />
    <glyph glyph-name="yicyrillic" unicode="&#x457;" horiz-adv-x="584" 
d="M100 1236q-68 0 -113 46.5t-45 113.5t45 113.5t113 46.5t113 -46.5t45 -113.5t-45 -113.5t-113 -46.5zM484 1236q-68 0 -113 46.5t-45 113.5t45 113.5t113 46.5t113 -46.5t45 -113.5t-45 -113.5t-113 -46.5zM80 0v1124h410v-1124h-410z" />
    <glyph glyph-name="jecyrillic" unicode="&#x458;" horiz-adv-x="591" 
d="M501 1124v-1143q0 -171 -118.5 -266t-332.5 -95q-77 0 -125 6v286q18 -3 47 -3q62 0 90.5 21.5t28.5 68.5v1125h410zM296 1190q-86 0 -145.5 55.5t-59.5 139.5t59.5 139.5t145.5 55.5t145.5 -55.5t59.5 -139.5t-59.5 -139.5t-145.5 -55.5z" />
    <glyph glyph-name="ljecyrillic" unicode="&#x459;" horiz-adv-x="1940" 
d="M596 577q-7 -139 -32 -243t-74.5 -185t-132.5 -123t-198 -42q-70 0 -124 15v336q35 -7 73 -7t64 22t40 63.5t21 87.5t9 108l21 515h955v-295h225q205 0 326 -112.5t121 -302.5t-121 -302t-326 -112h-635v825h-200zM1351 540h-133v-246h133q60 0 96 34.5t36 88.5t-36 88.5
t-96 34.5z" />
    <glyph glyph-name="njecyrillic" unicode="&#x45a;" horiz-adv-x="1946" 
d="M1384 485h-160v-196h160q50 0 81 28.5t31 69.5t-31 69.5t-81 28.5zM814 0v469h-314v-469h-410v1124h410v-365h314v365h410v-355h225q205 0 326 -104.5t121 -280.5t-121 -280t-326 -104h-635z" />
    <glyph glyph-name="tshecyrillic" unicode="&#x45b;" horiz-adv-x="1328" 
d="M495 904h8q43 118 133 180t218 62q188 0 288.5 -111.5t100.5 -314.5v-720h-410v629q0 88 -42 137t-121 49q-78 0 -121.5 -51.5t-43.5 -134.5v-629h-410v1237h-49v176h49v105h400v-105h201v-176h-201v-333z" />
    <glyph glyph-name="kjecyrillic" unicode="&#x45c;" horiz-adv-x="1277" 
d="M1106 1596l-265 -321h-314l232 321h347zM859 614l418 -614h-481l-288 430h-8v-430h-410v1124h410v-413h8l281 413h452z" />
    <glyph glyph-name="ushortcyrillic" unicode="&#x45e;" horiz-adv-x="1266" 
d="M278 -412h-146v306h60q89 0 140 19.5t52 54.5v20l-374 1136h455l175 -828h8l175 828h433l-339 -1101q-72 -233 -221 -334t-418 -101zM261 1624h229q3 -74 44 -117.5t109 -43.5t109 43.5t44 117.5h229q0 -158 -104.5 -253t-277.5 -95t-277.5 95t-104.5 253z" />
    <glyph glyph-name="dzhecyrillic" unicode="&#x45f;" horiz-adv-x="1324" 
d="M1234 0h-387v-285h-370v285h-387v1124h410v-825h324v825h410v-1124z" />
    <glyph glyph-name="Geupturncyrillic" unicode="&#x490;" horiz-adv-x="1174" 
d="M534 1107v-1107h-424v1443h604v285h400v-621h-580z" />
    <glyph glyph-name="geupturncyrillic" unicode="&#x491;" horiz-adv-x="987" 
d="M927 825h-427v-825h-410v1124h467v285h370v-584z" />
    <glyph glyph-name="baht" unicode="&#xe3f;" horiz-adv-x="1413" 
d="M746 619v-327q150 14 150 167q0 147 -150 160zM498 290h101v331h-101v-331zM498 1153v-288h101v288h-101zM746 1149v-279q57 12 89.5 48.5t32.5 90.5q0 56 -32 93t-90 47zM988 777v-20q140 -4 239.5 -102.5t99.5 -234.5q0 -190 -138.5 -305t-369.5 -115h-73v-134h-147
v134h-513v1443h513v136h147v-136h49q221 0 344 -95.5t123 -264.5q0 -117 -78 -204t-196 -102z" />
    <glyph glyph-name="Aringbelow" unicode="&#x1e00;" horiz-adv-x="1534" 
d="M1052 0l-75 287h-440l-75 -287h-432l471 1443h532l471 -1443h-452zM753 1110l-139 -524h286l-139 524h-8zM767 -603q-99 0 -171.5 69.5t-72.5 165.5q0 97 72.5 166.5t171.5 69.5t171 -69.5t72 -166.5t-72 -166t-171 -69zM767 -452q35 0 61.5 25t26.5 59q0 35 -26.5 60.5
t-61.5 25.5t-61.5 -25.5t-26.5 -60.5q0 -34 26.5 -59t61.5 -25z" />
    <glyph glyph-name="aringbelow" unicode="&#x1e01;" horiz-adv-x="1231" 
d="M569 259q74 0 128 38.5t54 100.5v74l-181 -13q-61 -4 -94.5 -31t-33.5 -70q0 -46 34.5 -72.5t92.5 -26.5zM417 -16q-158 0 -268.5 97t-110.5 246q0 160 119 248t346 102l248 15v57q0 56 -38.5 87.5t-100.5 31.5q-63 0 -104 -30.5t-46 -75.5h-366q8 179 151.5 284.5
t386.5 105.5q232 0 374.5 -106t142.5 -277v-769h-400v152h-8q-43 -80 -133 -124t-193 -44zM621 -603q-99 0 -171.5 69.5t-72.5 165.5q0 97 72.5 166.5t171.5 69.5t171 -69.5t72 -166.5t-72 -166t-171 -69zM621 -452q35 0 61.5 25t26.5 59q0 35 -26.5 60.5t-61.5 25.5
t-61.5 -25.5t-26.5 -60.5q0 -34 26.5 -59t61.5 -25z" />
    <glyph glyph-name="Bdotaccent" unicode="&#x1e02;" horiz-adv-x="1382" 
d="M833 0h-733v1443h709q221 0 344.5 -95.5t123.5 -264.5q0 -123 -83 -209.5t-210 -102.5v-8q148 -4 253 -102.5t105 -240.5q0 -190 -139 -305t-370 -115zM524 1152v-287h164q81 0 129 39t48 105q0 67 -45.5 105t-125.5 38h-170zM524 291h181q99 0 152.5 43.5t53.5 124.5
q0 77 -54 120t-149 43h-184v-331zM691 1536q-74 0 -125.5 52t-51.5 125t51 124.5t126 51.5t126 -51.5t51 -124.5t-51.5 -125t-125.5 -52z" />
    <glyph glyph-name="bdotaccent" unicode="&#x1e03;" horiz-adv-x="1330" 
d="M843 -16q-123 0 -212 55.5t-128 154.5h-8v-194h-410v1518h410v-596h8q41 103 128 160.5t207 57.5q213 0 327.5 -150t114.5 -428t-113.5 -428t-323.5 -150zM677 823q-84 0 -133.5 -71t-50.5 -191q1 -121 50 -190.5t134 -69.5q84 0 133.5 70.5t49.5 190.5q0 119 -50 190
t-133 71zM290 1611q-74 0 -125.5 52t-51.5 125t51 124.5t126 51.5t126 -51.5t51 -124.5t-51.5 -125t-125.5 -52z" />
    <glyph glyph-name="Bdotbelow" unicode="&#x1e04;" horiz-adv-x="1382" 
d="M833 0h-733v1443h709q221 0 344.5 -95.5t123.5 -264.5q0 -123 -83 -209.5t-210 -102.5v-8q148 -4 253 -102.5t105 -240.5q0 -190 -139 -305t-370 -115zM524 1152v-287h164q81 0 129 39t48 105q0 67 -45.5 105t-125.5 38h-170zM524 291h181q99 0 152.5 43.5t53.5 124.5
q0 77 -54 120t-149 43h-184v-331zM691 -524q-74 0 -125.5 52t-51.5 125t51 124.5t126 51.5t126 -51.5t51 -124.5t-51.5 -125t-125.5 -52z" />
    <glyph glyph-name="bdotbelow" unicode="&#x1e05;" horiz-adv-x="1330" 
d="M843 -16q-123 0 -212 55.5t-128 154.5h-8v-194h-410v1518h410v-596h8q41 103 128 160.5t207 57.5q213 0 327.5 -150t114.5 -428t-113.5 -428t-323.5 -150zM677 823q-84 0 -133.5 -71t-50.5 -191q1 -121 50 -190.5t134 -69.5q84 0 133.5 70.5t49.5 190.5q0 119 -50 190
t-133 71zM665 -524q-74 0 -125.5 52t-51.5 125t51 124.5t126 51.5t126 -51.5t51 -124.5t-51.5 -125t-125.5 -52z" />
    <glyph glyph-name="Blinebelow" unicode="&#x1e06;" horiz-adv-x="1382" 
d="M833 0h-733v1443h709q221 0 344.5 -95.5t123.5 -264.5q0 -123 -83 -209.5t-210 -102.5v-8q148 -4 253 -102.5t105 -240.5q0 -190 -139 -305t-370 -115zM524 1152v-287h164q81 0 129 39t48 105q0 67 -45.5 105t-125.5 38h-170zM524 291h181q99 0 152.5 43.5t53.5 124.5
q0 77 -54 120t-149 43h-184v-331zM1065 -240v-180h-748v180h748z" />
    <glyph glyph-name="blinebelow" unicode="&#x1e07;" horiz-adv-x="1330" 
d="M843 -16q-123 0 -212 55.5t-128 154.5h-8v-194h-410v1518h410v-596h8q41 103 128 160.5t207 57.5q213 0 327.5 -150t114.5 -428t-113.5 -428t-323.5 -150zM677 823q-84 0 -133.5 -71t-50.5 -191q1 -121 50 -190.5t134 -69.5q84 0 133.5 70.5t49.5 190.5q0 119 -50 190
t-133 71zM1039 -240v-180h-748v180h748z" />
    <glyph glyph-name="Ccedillaacute" unicode="&#x1e08;" horiz-adv-x="1513" 
d="M1171 1876l-274 -321h-306l232 321h348zM1047 582h406q-1 -165 -76.5 -297t-209 -211t-305.5 -95l-35 -68q72 0 117 -46t45 -122q0 -195 -263 -195q-94 0 -133 15v141q37 -12 99 -12q94 0 94 37q0 26 -22 36t-78 10h-56v127l43 79q-286 31 -447 224t-161 517
q0 354 191 550t525 196q189 0 341.5 -76t240.5 -215t88 -315h-406q-7 123 -80 198t-184 75q-131 0 -207.5 -110t-76.5 -302q0 -195 76 -305t209 -110q110 0 182.5 74.5t82.5 199.5z" />
    <glyph glyph-name="ccedillaacute" unicode="&#x1e09;" horiz-adv-x="1223" 
d="M1021 1596l-265 -321h-314l232 321h347zM1178 662h-373q-7 85 -51.5 134.5t-113.5 49.5q-85 0 -130 -73t-45 -210q0 -139 44.5 -212t130.5 -73q72 0 115.5 46.5t49.5 130.5h373q-4 -208 -128 -334t-340 -146l-33 -64q72 0 117 -46t45 -122q0 -195 -263 -195
q-94 0 -133 15v141q37 -12 99 -12q94 0 94 37q0 26 -22 36t-78 10h-56v127l43 78q-223 31 -348 184t-125 399q0 274 156.5 431.5t426.5 157.5q244 0 392.5 -132.5t152.5 -357.5z" />
    <glyph glyph-name="Ddotaccent" unicode="&#x1e0a;" horiz-adv-x="1477" 
d="M100 1443h617q331 0 513 -183.5t182 -527.5q0 -346 -183.5 -539t-511.5 -193h-617v1443zM524 1106v-769h133q323 0 323 395q0 181 -84.5 277.5t-238.5 96.5h-133zM739 1536q-74 0 -125.5 52t-51.5 125t51 124.5t126 51.5t126 -51.5t51 -124.5t-51.5 -125t-125.5 -52z" />
    <glyph glyph-name="ddotaccent" unicode="&#x1e0b;" horiz-adv-x="1325" 
d="M490 -16q-208 0 -324 153.5t-116 427.5q0 271 118 423t328 152q120 0 208.5 -60.5t122.5 -157.5h8v596h410v-1518h-410v194h-8q-29 -91 -121.5 -150.5t-215.5 -59.5zM653 823q-85 0 -134 -69.5t-49 -191.5q0 -123 48.5 -192t134.5 -69q87 0 135.5 68.5t48.5 191.5
q0 122 -49 192t-135 70zM1053 1611q-74 0 -125.5 52t-51.5 125t51 124.5t126 51.5t126 -51.5t51 -124.5t-51.5 -125t-125.5 -52z" />
    <glyph glyph-name="Ddotbelow" unicode="&#x1e0c;" horiz-adv-x="1477" 
d="M100 1443h617q331 0 513 -183.5t182 -527.5q0 -346 -183.5 -539t-511.5 -193h-617v1443zM524 1106v-769h133q323 0 323 395q0 181 -84.5 277.5t-238.5 96.5h-133zM739 -524q-74 0 -125.5 52t-51.5 125t51 124.5t126 51.5t126 -51.5t51 -124.5t-51.5 -125t-125.5 -52z" />
    <glyph glyph-name="ddotbelow" unicode="&#x1e0d;" horiz-adv-x="1325" 
d="M490 -16q-208 0 -324 153.5t-116 427.5q0 271 118 423t328 152q120 0 208.5 -60.5t122.5 -157.5h8v596h410v-1518h-410v194h-8q-29 -91 -121.5 -150.5t-215.5 -59.5zM653 823q-85 0 -134 -69.5t-49 -191.5q0 -123 48.5 -192t134.5 -69q87 0 135.5 68.5t48.5 191.5
q0 122 -49 192t-135 70zM663 -524q-74 0 -125.5 52t-51.5 125t51 124.5t126 51.5t126 -51.5t51 -124.5t-51.5 -125t-125.5 -52z" />
    <glyph glyph-name="Dlinebelow" unicode="&#x1e0e;" horiz-adv-x="1477" 
d="M100 1443h617q331 0 513 -183.5t182 -527.5q0 -346 -183.5 -539t-511.5 -193h-617v1443zM524 1106v-769h133q323 0 323 395q0 181 -84.5 277.5t-238.5 96.5h-133zM1113 -240v-180h-748v180h748z" />
    <glyph glyph-name="dlinebelow" unicode="&#x1e0f;" horiz-adv-x="1325" 
d="M490 -16q-208 0 -324 153.5t-116 427.5q0 271 118 423t328 152q120 0 208.5 -60.5t122.5 -157.5h8v596h410v-1518h-410v194h-8q-29 -91 -121.5 -150.5t-215.5 -59.5zM653 823q-85 0 -134 -69.5t-49 -191.5q0 -123 48.5 -192t134.5 -69q87 0 135.5 68.5t48.5 191.5
q0 122 -49 192t-135 70zM1037 -240v-180h-748v180h748z" />
    <glyph glyph-name="Dcommaaccent" unicode="&#x1e10;" horiz-adv-x="1477" 
d="M100 1443h617q331 0 513 -183.5t182 -527.5q0 -346 -183.5 -539t-511.5 -193h-617v1443zM524 1106v-769h133q323 0 323 395q0 181 -84.5 277.5t-238.5 96.5h-133zM710 -457h-308l152 321h359z" />
    <glyph glyph-name="dcommaaccent" unicode="&#x1e11;" horiz-adv-x="1325" 
d="M490 -16q-208 0 -324 153.5t-116 427.5q0 271 118 423t328 152q120 0 208.5 -60.5t122.5 -157.5h8v596h410v-1518h-410v194h-8q-29 -91 -121.5 -150.5t-215.5 -59.5zM653 823q-85 0 -134 -69.5t-49 -191.5q0 -123 48.5 -192t134.5 -69q87 0 135.5 68.5t48.5 191.5
q0 122 -49 192t-135 70zM634 -457h-308l152 321h359z" />
    <glyph glyph-name="Dcircumflexbelow" unicode="&#x1e12;" horiz-adv-x="1477" 
d="M100 1443h617q331 0 513 -183.5t182 -527.5q0 -346 -183.5 -539t-511.5 -193h-617v1443zM524 1106v-769h133q323 0 323 395q0 181 -84.5 277.5t-238.5 96.5h-133zM582 -154h314l255 -336h-276l-132 192h-8l-132 -192h-276z" />
    <glyph glyph-name="dcircumflexbelow" unicode="&#x1e13;" horiz-adv-x="1325" 
d="M490 -16q-208 0 -324 153.5t-116 427.5q0 271 118 423t328 152q120 0 208.5 -60.5t122.5 -157.5h8v596h410v-1518h-410v194h-8q-29 -91 -121.5 -150.5t-215.5 -59.5zM653 823q-85 0 -134 -69.5t-49 -191.5q0 -123 48.5 -192t134.5 -69q87 0 135.5 68.5t48.5 191.5
q0 122 -49 192t-135 70zM506 -154h314l255 -336h-276l-132 192h-8l-132 -192h-276z" />
    <glyph glyph-name="Emacrongrave" unicode="&#x1e14;" horiz-adv-x="1216" 
d="M1118 337v-337h-1018v1443h1018v-337h-594v-233h557v-304h-557v-232h594zM234 1606v180h748v-180h-748zM764 1925h-286l-238 281h322z" />
    <glyph glyph-name="emacrongrave" unicode="&#x1e15;" horiz-adv-x="1243" 
d="M631 869q-73 0 -123 -48t-56 -123h358q-5 78 -54 124.5t-125 46.5zM822 363h366q-26 -181 -174.5 -286t-377.5 -105q-275 0 -430.5 155t-155.5 429q0 275 154.5 435.5t418.5 160.5q260 0 415 -154t155 -412v-111h-747v-26q0 -86 55 -140.5t141 -54.5q65 0 113 29t67 80z
M758 1645h-261l-233 287h322zM974 1456v-180h-704v180h704z" />
    <glyph glyph-name="Emacronacute" unicode="&#x1e16;" horiz-adv-x="1216" 
d="M1118 337v-337h-1018v1443h1018v-337h-594v-233h557v-304h-557v-232h594zM982 1606h-748v180h748v-180zM452 1925l202 281h322l-238 -281h-286z" />
    <glyph glyph-name="emacronacute" unicode="&#x1e17;" horiz-adv-x="1243" 
d="M631 869q-73 0 -123 -48t-56 -123h358q-5 78 -54 124.5t-125 46.5zM822 363h366q-26 -181 -174.5 -286t-377.5 -105q-275 0 -430.5 155t-155.5 429q0 275 154.5 435.5t418.5 160.5q260 0 415 -154t155 -412v-111h-747v-26q0 -86 55 -140.5t141 -54.5q65 0 113 29t67 80z
M480 1651l202 281h322l-238 -281h-286zM974 1456v-180h-704v180h704z" />
    <glyph glyph-name="Ecircumflexbelow" unicode="&#x1e18;" horiz-adv-x="1216" 
d="M1118 337v-337h-1018v1443h1018v-337h-594v-233h557v-304h-557v-232h594zM451 -154h314l255 -336h-276l-132 192h-8l-132 -192h-276z" />
    <glyph glyph-name="ecircumflexbelow" unicode="&#x1e19;" horiz-adv-x="1243" 
d="M631 869q-73 0 -123 -48t-56 -123h358q-5 78 -54 124.5t-125 46.5zM822 363h366q-26 -181 -174.5 -286t-377.5 -105q-275 0 -430.5 155t-155.5 429q0 275 154.5 435.5t418.5 160.5q260 0 415 -154t155 -412v-111h-747v-26q0 -86 55 -140.5t141 -54.5q65 0 113 29t67 80z
M465 -154h314l255 -336h-276l-132 192h-8l-132 -192h-276z" />
    <glyph glyph-name="Etildebelow" unicode="&#x1e1a;" horiz-adv-x="1216" 
d="M1118 337v-337h-1018v1443h1018v-337h-594v-233h557v-304h-557v-232h594zM761 -456q-49 0 -93.5 18.5t-70 41t-54 41t-50.5 18.5q-32 0 -49.5 -28.5t-19.5 -72.5h-201q0 135 73 214t178 79q49 0 93.5 -18.5t70 -41t54 -41t50.5 -18.5q64 0 69 106h201q0 -135 -73 -216.5
t-178 -81.5z" />
    <glyph glyph-name="etildebelow" unicode="&#x1e1b;" horiz-adv-x="1243" 
d="M631 869q-73 0 -123 -48t-56 -123h358q-5 78 -54 124.5t-125 46.5zM822 363h366q-26 -181 -174.5 -286t-377.5 -105q-275 0 -430.5 155t-155.5 429q0 275 154.5 435.5t418.5 160.5q260 0 415 -154t155 -412v-111h-747v-26q0 -86 55 -140.5t141 -54.5q65 0 113 29t67 80z
M775 -456q-49 0 -93.5 18.5t-70 41t-54 41t-50.5 18.5q-32 0 -49.5 -28.5t-19.5 -72.5h-201q0 135 73 214t178 79q49 0 93.5 -18.5t70 -41t54 -41t50.5 -18.5q64 0 69 106h201q0 -135 -73 -216.5t-178 -81.5z" />
    <glyph glyph-name="Ecedillabreve" unicode="&#x1e1c;" horiz-adv-x="1216" 
d="M767 1870h236q-5 -142 -109.5 -238t-285.5 -96t-285.5 96t-109.5 238h236q3 -67 44.5 -107.5t114.5 -40.5t114.5 40.5t44.5 107.5zM1118 1106h-594v-233h557v-304h-557v-232h594v-337h-394l-46 -89q72 0 117 -46t45 -122q0 -195 -263 -195q-94 0 -133 15v141
q38 -12 99 -12q94 0 94 37q0 26 -22 36t-78 10h-56v127l54 98h-435v1443h1018v-337z" />
    <glyph glyph-name="ecedillabreve" unicode="&#x1e1d;" horiz-adv-x="1243" 
d="M781 1590h236q-5 -142 -109.5 -238t-285.5 -96t-285.5 96t-109.5 238h236q3 -67 44.5 -107.5t114.5 -40.5t114.5 40.5t44.5 107.5zM452 698h358q-5 78 -54 124.5t-125 46.5q-73 0 -123 -48t-56 -123zM1193 475h-747v-26q0 -86 55 -140.5t141 -54.5q65 0 113 29t67 80h366
q-23 -162 -146 -264t-316 -122l-34 -66q72 0 117 -46t45 -122q0 -195 -263 -195q-94 0 -133 15v141q38 -12 99 -12q94 0 94 37q0 26 -22 36t-78 10h-56v127l42 76q-231 27 -359 178.5t-128 399.5q0 275 154.5 435.5t418.5 160.5q260 0 415 -154t155 -412v-111z" />
    <glyph glyph-name="Fdotaccent" unicode="&#x1e1e;" horiz-adv-x="1164" 
d="M524 0h-424v1443h1014v-337h-590v-277h534v-318h-534v-511zM582 1536q-74 0 -125.5 52t-51.5 125t51 124.5t126 51.5t126 -51.5t51 -124.5t-51.5 -125t-125.5 -52z" />
    <glyph glyph-name="fdotaccent" unicode="&#x1e1f;" horiz-adv-x="839" 
d="M179 0v826h-149v298h149v96q0 168 96.5 239t328.5 71q91 0 173 -12v-261q-40 6 -80 6q-63 0 -91.5 -19t-28.5 -59v-61h202v-298h-190v-826h-410zM507 1617q-74 0 -125.5 52t-51.5 125t51 124.5t126 51.5t126 -51.5t51 -124.5t-51.5 -125t-125.5 -52z" />
    <glyph glyph-name="Gmacron" unicode="&#x1e20;" horiz-adv-x="1530" 
d="M1462 614q0 -297 -177.5 -468t-490.5 -171q-345 0 -537 195t-192 553q0 353 190 549t526 196q270 0 455 -143t209 -366h-417q-21 80 -87.5 127.5t-157.5 47.5q-135 0 -210.5 -106.5t-75.5 -298.5q0 -196 83 -308t224 -112q103 0 171 53t77 140l2 20h-220v282h628v-190z
M1130 1786v-180h-748v180h748z" />
    <glyph glyph-name="gmacron" unicode="&#x1e21;" horiz-adv-x="1325" 
d="M653 311q88 0 136 64t48 186t-49 192t-135 70q-85 0 -134 -69.5t-49 -191.5t48 -186.5t135 -64.5zM645 -421q-253 0 -408.5 95.5t-159.5 257.5h394q9 -41 59.5 -66t118.5 -25q84 0 135 40t51 109v224h-8q-29 -89 -120.5 -144.5t-216.5 -55.5q-201 0 -320.5 145.5
t-119.5 405.5q0 271 118 423t328 152q120 0 208.5 -60.5t122.5 -157.5h8v202h410v-1104q0 -199 -165 -320t-435 -121zM1015 1456v-180h-704v180h704z" />
    <glyph glyph-name="Hdotaccent" unicode="&#x1e22;" horiz-adv-x="1556" 
d="M1456 0h-424v558h-508v-558h-424v1443h424v-548h508v548h424v-1443zM778 1536q-74 0 -125.5 52t-51.5 125t51 124.5t126 51.5t126 -51.5t51 -124.5t-51.5 -125t-125.5 -52z" />
    <glyph glyph-name="hdotaccent" unicode="&#x1e23;" horiz-adv-x="1308" 
d="M85 0v1518h400v-614h8q43 118 133 180t218 62q188 0 288.5 -111.5t100.5 -314.5v-720h-410v629q0 88 -42 137t-121 49q-78 0 -121.5 -51.5t-43.5 -134.5v-629h-410zM288 1611q-74 0 -125.5 52t-51.5 125t51 124.5t126 51.5t126 -51.5t51 -124.5t-51.5 -125t-125.5 -52z
" />
    <glyph glyph-name="Hdotbelow" unicode="&#x1e24;" horiz-adv-x="1556" 
d="M1456 0h-424v558h-508v-558h-424v1443h424v-548h508v548h424v-1443zM778 -524q-74 0 -125.5 52t-51.5 125t51 124.5t126 51.5t126 -51.5t51 -124.5t-51.5 -125t-125.5 -52z" />
    <glyph glyph-name="hdotbelow" unicode="&#x1e25;" horiz-adv-x="1308" 
d="M85 0v1518h400v-614h8q43 118 133 180t218 62q188 0 288.5 -111.5t100.5 -314.5v-720h-410v629q0 88 -42 137t-121 49q-78 0 -121.5 -51.5t-43.5 -134.5v-629h-410zM654 -524q-74 0 -125.5 52t-51.5 125t51 124.5t126 51.5t126 -51.5t51 -124.5t-51.5 -125t-125.5 -52z
" />
    <glyph glyph-name="Hdieresis" unicode="&#x1e26;" horiz-adv-x="1556" 
d="M1456 0h-424v558h-508v-558h-424v1443h424v-548h508v548h424v-1443zM556 1536q-68 0 -113 44t-45 106q0 63 45 106.5t113 43.5t113 -43.5t45 -106.5q0 -62 -45 -106t-113 -44zM1000 1536q-68 0 -113 44t-45 106q0 63 45 106.5t113 43.5t113 -43.5t45 -106.5
q0 -62 -45 -106t-113 -44z" />
    <glyph glyph-name="hdieresis" unicode="&#x1e27;" horiz-adv-x="1308" 
d="M85 0v1518h400v-614h8q43 118 133 180t218 62q188 0 288.5 -111.5t100.5 -314.5v-720h-410v629q0 88 -42 137t-121 49q-78 0 -121.5 -51.5t-43.5 -134.5v-629h-410zM66 1611q-68 0 -113 44t-45 106q0 63 45 106.5t113 43.5t113 -43.5t45 -106.5q0 -62 -45 -106t-113 -44z
M510 1611q-68 0 -113 44t-45 106q0 63 45 106.5t113 43.5t113 -43.5t45 -106.5q0 -62 -45 -106t-113 -44z" />
    <glyph glyph-name="Hcedilla" unicode="&#x1e28;" horiz-adv-x="1556" 
d="M1032 1443h424v-1443h-424v558h-508v-558h-198l-46 -89q72 0 117 -46t45 -122q0 -195 -263 -195q-94 0 -133 15v141q38 -12 99 -12q94 0 94 37q0 26 -22 36t-78 10h-56v127l54 98h-37v1443h424v-548h508v548z" />
    <glyph glyph-name="hcedilla" unicode="&#x1e29;" horiz-adv-x="1308" 
d="M485 904h8q43 118 133 180t218 62q188 0 288.5 -111.5t100.5 -314.5v-720h-410v629q0 88 -42 137t-121 49q-78 0 -121.5 -51.5t-43.5 -134.5v-629h-169l-46 -89q72 0 117 -46t45 -122q0 -195 -263 -195q-94 0 -133 15v141q38 -12 99 -12q94 0 94 37q0 26 -22 36t-78 10
h-56v127l54 98h-52v1518h400v-614z" />
    <glyph glyph-name="Hbrevebelow" unicode="&#x1e2a;" horiz-adv-x="1556" 
d="M1456 0h-424v558h-508v-558h-424v1443h424v-548h508v548h424v-1443zM383 -156h236q3 -67 44.5 -107.5t114.5 -40.5t114.5 40.5t44.5 107.5h236q-5 -142 -109.5 -238t-285.5 -96t-285.5 96t-109.5 238z" />
    <glyph glyph-name="hbrevebelow" unicode="&#x1e2b;" horiz-adv-x="1308" 
d="M85 0v1518h400v-614h8q43 118 133 180t218 62q188 0 288.5 -111.5t100.5 -314.5v-720h-410v629q0 88 -42 137t-121 49q-78 0 -121.5 -51.5t-43.5 -134.5v-629h-410zM259 -156h236q3 -67 44.5 -107.5t114.5 -40.5t114.5 40.5t44.5 107.5h236q-5 -142 -109.5 -238
t-285.5 -96t-285.5 96t-109.5 238z" />
    <glyph glyph-name="Itildebelow" unicode="&#x1e2c;" horiz-adv-x="624" 
d="M524 0h-424v1443h424v-1443zM465 -456q-49 0 -93.5 18.5t-70 41t-54 41t-50.5 18.5q-32 0 -49.5 -28.5t-19.5 -72.5h-201q0 135 73 214t178 79q49 0 93.5 -18.5t70 -41t54 -41t50.5 -18.5q64 0 69 106h201q0 -135 -73 -216.5t-178 -81.5z" />
    <glyph glyph-name="itildebelow" unicode="&#x1e2d;" horiz-adv-x="570" 
d="M80 0v1124h410v-1124h-410zM285 1190q-86 0 -145.5 55.5t-59.5 139.5t59.5 139.5t145.5 55.5t145.5 -55.5t59.5 -139.5t-59.5 -139.5t-145.5 -55.5zM438 -456q-49 0 -93.5 18.5t-70 41t-54 41t-50.5 18.5q-32 0 -49.5 -28.5t-19.5 -72.5h-201q0 135 73 214t178 79
q49 0 93.5 -18.5t70 -41t54 -41t50.5 -18.5q64 0 69 106h201q0 -135 -73 -216.5t-178 -81.5z" />
    <glyph glyph-name="Idieresisacute" unicode="&#x1e2e;" horiz-adv-x="624" 
d="M524 0h-424v1443h424v-1443zM156 1925l202 281h322l-238 -281h-286zM90 1536q-68 0 -113 44t-45 106q0 63 45 106.5t113 43.5t113 -43.5t45 -106.5q0 -62 -45 -106t-113 -44zM534 1536q-68 0 -113 44t-45 106q0 63 45 106.5t113 43.5t113 -43.5t45 -106.5q0 -62 -45 -106
t-113 -44z" />
    <glyph glyph-name="idieresisacute" unicode="&#x1e2f;" horiz-adv-x="570" 
d="M80 0v1124h410v-1124h-410zM143 1651l202 281h322l-238 -281h-286zM63 1256q-68 0 -113 44t-45 106q0 63 45 106.5t113 43.5t113 -43.5t45 -106.5q0 -62 -45 -106t-113 -44zM507 1256q-68 0 -113 44t-45 106q0 63 45 106.5t113 43.5t113 -43.5t45 -106.5q0 -62 -45 -106
t-113 -44z" />
    <glyph glyph-name="Kacute" unicode="&#x1e30;" horiz-adv-x="1445" 
d="M524 0h-424v1443h424v-612h8l446 612h445l-475 -641l497 -802h-493l-315 530l-113 -152v-378zM863 1555h-306l232 321h348z" />
    <glyph glyph-name="kacute" unicode="&#x1e31;" horiz-adv-x="1226" 
d="M503 715l280 409h452l-378 -480l404 -644h-471l-238 399l-57 -74v-325h-410v1518h410v-803h8zM428 1630h-306l232 321h348z" />
    <glyph glyph-name="Kdotbelow" unicode="&#x1e32;" horiz-adv-x="1445" 
d="M524 0h-424v1443h424v-612h8l446 612h445l-475 -641l497 -802h-493l-315 530l-113 -152v-378zM723 -524q-74 0 -125.5 52t-51.5 125t51 124.5t126 51.5t126 -51.5t51 -124.5t-51.5 -125t-125.5 -52z" />
    <glyph glyph-name="kdotbelow" unicode="&#x1e33;" horiz-adv-x="1226" 
d="M503 715l280 409h452l-378 -480l404 -644h-471l-238 399l-57 -74v-325h-410v1518h410v-803h8zM613 -524q-74 0 -125.5 52t-51.5 125t51 124.5t126 51.5t126 -51.5t51 -124.5t-51.5 -125t-125.5 -52z" />
    <glyph glyph-name="Klinebelow" unicode="&#x1e34;" horiz-adv-x="1445" 
d="M524 0h-424v1443h424v-612h8l446 612h445l-475 -641l497 -802h-493l-315 530l-113 -152v-378zM1097 -240v-180h-748v180h748z" />
    <glyph glyph-name="klinebelow" unicode="&#x1e35;" horiz-adv-x="1226" 
d="M503 715l280 409h452l-378 -480l404 -644h-471l-238 399l-57 -74v-325h-410v1518h410v-803h8zM987 -240v-180h-748v180h748z" />
    <glyph glyph-name="Ldotbelow" unicode="&#x1e36;" horiz-adv-x="1150" 
d="M1090 337v-337h-990v1443h424v-1106h566zM575 -524q-74 0 -125.5 52t-51.5 125t51 124.5t126 51.5t126 -51.5t51 -124.5t-51.5 -125t-125.5 -52z" />
    <glyph glyph-name="ldotbelow" unicode="&#x1e37;" horiz-adv-x="580" 
d="M85 0v1518h410v-1518h-410zM290 -524q-74 0 -125.5 52t-51.5 125t51 124.5t126 51.5t126 -51.5t51 -124.5t-51.5 -125t-125.5 -52z" />
    <glyph glyph-name="Ldotbelowmacron" unicode="&#x1e38;" horiz-adv-x="1150" 
d="M1090 337v-337h-990v1443h424v-1106h566zM575 -524q-74 0 -125.5 52t-51.5 125t51 124.5t126 51.5t126 -51.5t51 -124.5t-51.5 -125t-125.5 -52zM685 1786v-180h-748v180h748z" />
    <glyph glyph-name="ldotbelowmacron" unicode="&#x1e39;" horiz-adv-x="580" 
d="M85 0v1518h410v-1518h-410zM290 -524q-74 0 -125.5 52t-51.5 125t51 124.5t126 51.5t126 -51.5t51 -124.5t-51.5 -125t-125.5 -52zM664 1861v-180h-748v180h748z" />
    <glyph glyph-name="Llinebelow" unicode="&#x1e3a;" horiz-adv-x="1150" 
d="M1090 337v-337h-990v1443h424v-1106h566zM949 -240v-180h-748v180h748z" />
    <glyph glyph-name="llinebelow" unicode="&#x1e3b;" horiz-adv-x="580" 
d="M85 0v1518h410v-1518h-410zM664 -240v-180h-748v180h748z" />
    <glyph glyph-name="Lcircumflexbelow" unicode="&#x1e3c;" horiz-adv-x="1150" 
d="M1090 337v-337h-990v1443h424v-1106h566zM418 -154h314l255 -336h-276l-132 192h-8l-132 -192h-276z" />
    </font>
</defs>
</svg>
