<svg xmlns="http://www.w3.org/2000/svg" width="21.424" height="21.199" viewBox="0 0 21.424 21.199"><defs><style>.a,.b{fill:#bac0c2;stroke:#bac0c2;}.a{stroke-width:0.2px;}.b{stroke-linejoin:round;stroke-width:0.5px;}</style></defs><g transform="translate(-8913.066 3329.1)"><path class="a" d="M9662.974-3357.057a.564.564,0,0,1,.563-.563l4.067-.024a1.693,1.693,0,0,0,1.691-1.692V-3374a1.693,1.693,0,0,0-1.691-1.691h-2.079a.572.572,0,0,1-.127.014l-11.329-.014a1.693,1.693,0,0,0-1.691,1.691l-.054,3.371a.566.566,0,0,1-.565.565.563.563,0,0,1-.562-.565l.053-3.371a2.823,2.823,0,0,1,2.82-2.82l11.152.014a.563.563,0,0,1,.126-.014h2.257a2.823,2.823,0,0,1,2.82,2.82v14.661a2.823,2.823,0,0,1-2.82,2.82l-4.067.024A.564.564,0,0,1,9662.974-3357.057Zm-2.834-7.354c-.183,0-.33-.252-.33-.563s.147-.565.33-.565h6.572c.182,0,.327.252.327.565s-.146.563-.327.563Zm-3.271-3.383a.531.531,0,0,1-.486-.565.53.53,0,0,1,.486-.563h9.686a.528.528,0,0,1,.485.563.529.529,0,0,1-.485.565Zm-1.673-3.383a.565.565,0,0,1-.562-.566.563.563,0,0,1,.563-.563h11.28a.563.563,0,0,1,.563.563.565.565,0,0,1-.563.566Z" transform="translate(-736.034 47.818)"/><path class="b" d="M327.22,248.708a13.408,13.408,0,0,0,4.462,3.482,6.964,6.964,0,0,0,2.5.736c.06,0,.118.005.178.005a2.071,2.071,0,0,0,1.6-.686.059.059,0,0,0,.011-.013,6.747,6.747,0,0,1,.506-.522c.123-.117.249-.24.369-.366a1.257,1.257,0,0,0-.005-1.877l-1.575-1.569a1.276,1.276,0,0,0-.922-.423,1.32,1.32,0,0,0-.933.42l-.938.934c-.087-.05-.176-.094-.259-.136a3.207,3.207,0,0,1-.288-.157,9.912,9.912,0,0,1-2.371-2.151,5.694,5.694,0,0,1-.8-1.274c.246-.222.477-.454.7-.681.079-.081.16-.162.241-.243a1.233,1.233,0,0,0,0-1.879l-.781-.778c-.092-.091-.178-.18-.267-.271-.173-.177-.354-.36-.532-.525a1.309,1.309,0,0,0-.922-.4,1.347,1.347,0,0,0-.933.4l-.98.976a2,2,0,0,0-.6,1.284,4.814,4.814,0,0,0,.364,2.088A12.141,12.141,0,0,0,327.22,248.708Zm-1.9-5.654a1.379,1.379,0,0,1,.417-.888l.975-.971a.707.707,0,0,1,.482-.222.671.671,0,0,1,.472.227c.175.162.341.331.519.512l.273.277.781.778a.607.607,0,0,1,0,.976l-.244.245c-.244.245-.472.478-.723.7l-.013.013a.509.509,0,0,0-.131.579l.008.021a6.137,6.137,0,0,0,.92,1.491,10.464,10.464,0,0,0,2.526,2.292,3.752,3.752,0,0,0,.346.188,3.267,3.267,0,0,1,.288.157l.029.016a.549.549,0,0,0,.254.065.556.556,0,0,0,.39-.177l.98-.976a.7.7,0,0,1,.48-.232.658.658,0,0,1,.464.232l1.58,1.572a.628.628,0,0,1-.008.984c-.11.117-.225.23-.349.347a7.507,7.507,0,0,0-.548.566,1.441,1.441,0,0,1-1.124.475c-.045,0-.092,0-.136-.005a6.327,6.327,0,0,1-2.259-.674,12.738,12.738,0,0,1-4.247-3.315,11.622,11.622,0,0,1-2.07-3.433A4.2,4.2,0,0,1,325.317,243.053Z" transform="translate(8588.648 -3561.082)"/></g></svg>