<svg xmlns="http://www.w3.org/2000/svg" width="20.978" height="20.348" viewBox="0 0 20.978 20.348"><defs><style>.achart,.bchart{fill:#fff;}.bchart{stroke:#fff;stroke-width:0.4px;}</style></defs><g transform="translate(-448.8 -304)"><path class="achart" d="M309.478,63.872H307.39V61.784a.759.759,0,1,0-1.518,0v2.088h-2.088a.759.759,0,0,0,0,1.518h2.088v2.088a.759.759,0,1,0,1.518,0V65.39h2.088a.759.759,0,0,0,0-1.518Z" transform="translate(158.579 242.975)"/><path class="bchart" d="M4.646,195.05a.6.6,0,0,0,.244.047.63.63,0,0,0,.427-.17l4.253-4.07h8a3.013,3.013,0,0,0,3.011-3.011v-4.538a.617.617,0,1,0-1.234,0v4.538a1.779,1.779,0,0,1-1.777,1.777H9.319a.63.63,0,0,0-.427.17L5.5,193.035v-2.788a.619.619,0,0,0-.617-.617H3.011a1.779,1.779,0,0,1-1.777-1.777v-8.885a1.785,1.785,0,0,1,1.777-1.784h7.278a.617.617,0,0,0,0-1.234H3.011A3.013,3.013,0,0,0,0,178.961v8.885a3.013,3.013,0,0,0,3.011,3.011H4.273v3.629A.616.616,0,0,0,4.646,195.05Z" transform="translate(449 129.051)"/></g></svg>