<svg xmlns="http://www.w3.org/2000/svg" width="16" height="23" viewBox="0 0 16 23"><defs><style>.a,.d{fill:none;}.a{stroke:#333;}.b{fill:#333;}.c{stroke:none;}</style></defs><g transform="translate(-411 -323)"><g class="a" transform="translate(411 323)"><rect class="c" width="16" height="23" rx="4"/><rect class="d" x="0.5" y="0.5" width="15" height="22" rx="3.5"/></g><path class="b" d="M2448,762.5a1.5,1.5,0,1,1,1.5,1.5A1.5,1.5,0,0,1,2448,762.5Zm0-5a1.5,1.5,0,1,1,1.5,1.5A1.5,1.5,0,0,1,2448,757.5Zm0-5a1.5,1.5,0,1,1,1.5,1.5A1.5,1.5,0,0,1,2448,752.5Z" transform="translate(-2030 -423)"/></g></svg>