<svg xmlns="http://www.w3.org/2000/svg" width="183.123" height="183.598"
    viewBox="0 0 183.123 183.598">
    <defs>
        <clipPath id="prefix__a">
            <path
                d="M354.426 232.769c-4.564-6.847-15.468-8.875-24.09-11.665s-13.693-8.368-11.411-22.061 14.2-36.008 13.947-40.066-41.08-3.8-44.883-2.536-4.565 1.014-8.115 5.579a62.84 62.84 0 00-5.325 7.861l4.4-9.25.318.018a11.811 11.811 0 012.015-3.357 25.665 25.665 0 006.211-16.114c.168-8.729-6.043-7.889-7.218-5.2s-8.057 11.918-10.071 14.436-6.211 9.4-6.211 9.4l-4.663 16.158s-1.014 4.818-6.847 23.076-3.3 26.625-3.3 26.625-1.521-.76-5.071 10.143-2.029 24.851 4.31 31.444 14.708 6.34 24.091 2.536a28.83 28.83 0 0013.693-12.172s9.89-2.536 17.243-8.114 12.933-11.412 23.583-10.9 22.822 6.593 26.88 6.339 5.079-5.333.514-12.18z"
                transform="translate(-242.243 -134.131)" stroke-linejoin="round" stroke-linecap="round" stroke="#263238"
                fill="#fff" />
        </clipPath>
        <style>
            .prefix__e,
            .prefix__h {
                fill: #fff
            }

            .prefix__g,
            .prefix__h,
            .prefix__j {
                stroke-linecap: round
            }

            .prefix__g,
            .prefix__h {
                stroke-linejoin: round
            }

            .prefix__o {
                fill: #9dbafc
            }

            .prefix__g,
            .prefix__j {
                fill: none
            }

            .prefix__g,
            .prefix__h,
            .prefix__j {
                stroke: #c7d6f6
            }

            .prefix__j {
                stroke-miterlimit: 10;
                stroke-width: 2.064px
            }
        </style>
    </defs>
    <ellipse cx="34.145" cy="48.58" rx="34.145" ry="48.58" transform="translate(.499 85.938)" fill="#f9fbff"
        stroke="#c1d4f8" />
    <path
        d="M44.484 97.298s-2.136-3.561-4.094-3.738-25.283 14.422-28.844 22.078-6.945 22.91 2.522 37.618c9.213 14.312 23.65 13.837 31.128 13.125s12.487-3.151 20.095-9.237 14.538-15.045 15.553-21.132-2.7-9.466-5.071-10.312-16.06-.676-26.035-10.819-5.254-17.583-5.254-17.583z"
        stroke="#759fff" fill="#9dbafc" stroke-linejoin="round" stroke-linecap="round" />
    <path
        d="M47.511 92.669s-6.054 2.315-9.793 6.409-6.053 10.5-6.231 19.941 2.849 20.119 14.6 24.748 22.255 1.069 25.639-2.136 7.478-12.285 7.478-12.285-18.694 4.985-27.6-5.52-4.093-31.157-4.093-31.157z"
        fill="#c1d4f8" stroke="#ebf1ff" stroke-linejoin="round" stroke-linecap="round" />
    <path class="prefix__e"
        d="M152.101 99.242c-4.564-6.847-15.468-8.875-24.09-11.665s-13.693-8.368-11.411-22.061 14.2-36.008 13.947-40.066-41.08-3.8-44.883-2.536-4.565 1.014-8.115 5.579a62.84 62.84 0 00-5.325 7.861l4.4-9.25.318.018a11.811 11.811 0 012.015-3.357 25.665 25.665 0 006.211-16.114c.168-8.729-6.043-7.889-7.218-5.2s-8.057 11.918-10.071 14.436-6.211 9.4-6.211 9.4l-4.663 16.158s-1.014 4.818-6.847 23.076-3.3 26.625-3.3 26.625-1.521-.76-5.071 10.143-2.029 24.851 4.31 31.444 14.708 6.34 24.091 2.536a28.83 28.83 0 0013.693-12.172s9.89-2.536 17.243-8.114 12.933-11.412 23.583-10.9 22.822 6.593 26.88 6.339 5.079-5.333.514-12.18z" />
    <g clip-path="url(#prefix__a)" transform="translate(39.918 .604)">
        <path class="prefix__e"
            d="M46.774 74.863C18.558 79.074 9.69 85.811 12.512 95.076a14.207 14.207 0 002.788 4.969c.01.181.026.368.052.567 0 0 .5.307 1.249.831a23.762 23.762 0 003.192 2.588c1.852 1.76 3.508 3.961 3.168 6-.725 4.349-10.871 11.958-15.943 12.32s-6.885-4.711-7.609.724 10.508 18.842 21.378 17.392 19.929-16.668 19.929-16.668-1.45-2.536 5.8-10.145c4.79-5.03 11.629-7.209 16.872-9.26a96.918 96.918 0 0014.426-5.53c12.9-6.316 28.217-2.105 28.217-2.105s-31.04-26.107-59.257-21.896z" />
    </g>
    <path class="prefix__g"
        d="M152.101 99.242c-4.564-6.847-15.468-8.875-24.09-11.665s-13.693-8.368-11.411-22.061 14.2-36.008 13.947-40.066-41.08-3.8-44.883-2.536-4.565 1.014-8.115 5.579a62.84 62.84 0 00-5.325 7.861l4.4-9.25.318.018a11.811 11.811 0 012.015-3.357 25.665 25.665 0 006.211-16.114c.168-8.729-6.043-7.889-7.218-5.2s-8.057 11.918-10.071 14.436-6.211 9.4-6.211 9.4l-4.663 16.158s-1.014 4.818-6.847 23.076-3.3 26.625-3.3 26.625-1.521-.76-5.071 10.143-2.029 24.851 4.31 31.444 14.708 6.34 24.091 2.536a28.83 28.83 0 0013.693-12.172s9.89-2.536 17.243-8.114 12.933-11.412 23.583-10.9 22.822 6.593 26.88 6.339 5.079-5.333.514-12.18z" />
    <path class="prefix__h"
        d="M152.202 111.363s.534-2.136-5.52-4.985-8.546-.89-8.546.534 13.176 4.451 14.066 4.451zM94.905 13.693L79.631 25.442h20.478s0-14.435-5.204-11.749z" />
    <path class="prefix__g"
        d="M75.748 98.457a21.522 21.522 0 017.907-5.61M72.974 102.996a10.415 10.415 0 01.914-1.946M66.888 118.856a22.257 22.257 0 01-2.284-2.328M83.888 124.094a22.391 22.391 0 01-13.592-2.79" />
    <path
        d="M140.986 24.436h-76.95c-10.625 0-19.238 8.224-19.238 18.37v36.256c0 8.821 6.512 16.187 15.2 17.961l-4.058 12.011 18.813-11.6h66.237c10.625 0 19.238-8.224 19.238-18.37V42.806c-.004-10.146-8.617-18.37-19.242-18.37z"
        stroke-miterlimit="10" fill="#ebf1ff" stroke-width="2" stroke="#c7d6f6" />
    <path class="prefix__j" d="M57.328 48.851h86.508M57.328 57.755h86.508M57.328 66.658h86.508M57.328 75.562h86.508" />
    <g transform="translate(139.139 41.497)">
        <ellipse cx="21.742" cy="20.761" rx="21.742" ry="20.761" stroke="#c1d3f8" fill="#fff" />
    </g>
    <g>
        <path class="prefix__h"
            d="M118.371 19.065s.335 6.714 6.378 9.9 13.764 2.518 13.932-1.511-4.532-8.224-7.721-13.6-10.239-2.35-13.261 1.343" />
        <path class="prefix__h"
            d="M128.777 24.433c-.5 2.686 1.343 4.2 3.022 5.035s5.035.336 6.882-2.015c.082-1.96-.994-3.963-2.483-6.119-2.119.237-7.027.999-7.421 3.099z" />
    </g>
    <g>
        <path class="prefix__h"
            d="M105.781 19.065s.336 6.714 6.379 9.9 13.763 2.518 13.932-1.511-4.532-8.224-7.721-13.6-10.239-2.35-13.261 1.343" />
        <path class="prefix__h"
            d="M116.188 24.433c-.5 2.686 1.343 4.2 3.021 5.035s5.036.336 6.883-2.015c.082-1.96-.994-3.963-2.483-6.119-2.119.237-7.027.999-7.421 3.099z" />
    </g>
    <g>
        <path class="prefix__h"
            d="M94.067 19.065s.335 6.714 6.378 9.9 13.764 2.518 13.932-1.511-4.532-8.224-7.721-13.6-10.239-2.346-13.261 1.354" />
        <path class="prefix__h"
            d="M104.473 24.433c-.5 2.686 1.343 4.2 3.021 5.035s5.035.336 6.882-2.015c.082-1.96-.994-3.963-2.483-6.119-2.118.237-7.026.999-7.42 3.099z" />
    </g>
    <path class="prefix__g" d="M46.865 92.142s.468 10.32 6.166 17.264" />
    <path class="prefix__e"
        d="M30.298 135.251c0 2.1-1.4 3.8-3.127 3.8s-3.127-1.7-3.127-3.8 1.4-3.8 3.127-3.8 3.127 1.699 3.127 3.8z" />
    <path d="M22.521 139.983c0 2.1-1.4 3.8-3.127 3.8s-3.127-1.7-3.127-3.8 1.4-3.8 3.127-3.8 3.127 1.7 3.127 3.8z"
        stroke="#c1d3f8" fill="none" stroke-linejoin="round" stroke-linecap="round" />
    <g>
        <path fill="none" d="M150.397 50.608h21.354v22.371h-21.354z" />
        <path
            d="M150.397 55.941c.187 1.66 0 11.1 0 11.1a43.439 43.439 0 004.536 2.175 16.636 16.636 0 010 3.834l5.092-4.289h8.928v-6.868s-4.636.343-6.181-2.919 1.1-4.865-2.06-4.865h-7.787s-2.715.173-2.528 1.832z"
            fill="#dfe9ff" />
        <path class="prefix__o"
            d="M170.526 55.329h-2.257v-2.255a.821.821 0 10-1.641 0v2.255h-2.257a.821.821 0 000 1.642h2.255v2.258a.821.821 0 101.641 0v-2.256h2.259a.821.821 0 000-1.642z" />
        <path class="prefix__o"
            d="M154.948 73.986a.652.652 0 00.264.051.681.681 0 00.462-.183l4.6-4.4h8.645a3.258 3.258 0 003.256-3.256v-4.905a.667.667 0 10-1.335 0v4.905a1.923 1.923 0 01-1.921 1.921H160a.681.681 0 00-.462.183l-3.666 3.5v-3.014a.67.67 0 00-.667-.667h-2.024a1.923 1.923 0 01-1.921-1.921v-9.606a1.929 1.929 0 011.921-1.928h7.868a.667.667 0 000-1.335h-7.868a3.258 3.258 0 00-3.256 3.261v9.606a3.258 3.258 0 003.256 3.256h1.363v3.923a.666.666 0 00.404.609z" />
    </g>
</svg>