<svg xmlns="http://www.w3.org/2000/svg" width="23.668" height="23.173" viewBox="0 0 23.668 23.173"><defs><style>.a{fill:#333;}</style></defs><g transform="translate(-2746 25.975)"><path class="a" d="M310.447,64.3h-2.4V61.9a.873.873,0,1,0-1.746,0v2.4h-2.4a.873.873,0,0,0,0,1.746h2.4v2.4a.873.873,0,1,0,1.746,0v-2.4h2.4a.873.873,0,0,0,0-1.746Z" transform="translate(2457.472 -87)"/><g transform="translate(2746 -24.824)"><path class="a" d="M5.344,197.918a.694.694,0,0,0,.281.055.724.724,0,0,0,.491-.2l4.891-4.681h9.2a3.466,3.466,0,0,0,3.464-3.464v-5.219a.71.71,0,0,0-1.42,0v5.219a2.046,2.046,0,0,1-2.044,2.044H10.719a.724.724,0,0,0-.491.2l-3.9,3.729v-3.206a.712.712,0,0,0-.71-.71H3.464a2.046,2.046,0,0,1-2.044-2.044V179.421a2.053,2.053,0,0,1,2.044-2.052h8.371a.71.71,0,0,0,0-1.42H3.464A3.466,3.466,0,0,0,0,179.414v10.219A3.466,3.466,0,0,0,3.464,193.1H4.915v4.174A.708.708,0,0,0,5.344,197.918Z" transform="translate(0 -175.95)"/></g></g></svg>