<svg xmlns="http://www.w3.org/2000/svg"  fill="#fff" width="10.105" height="13.982" viewBox="0 0 10.105 13.982">
    <g transform="translate(0)">
        <path 
            d="M148.88,10.584a2.5,2.5,0,0,0,1.907-.863,2.961,2.961,0,0,0,.793-2.076V2.94a2.961,2.961,0,0,0-.793-2.076,2.538,2.538,0,0,0-3.814,0,2.961,2.961,0,0,0-.793,2.076v4.7a2.962,2.962,0,0,0,.793,2.076A2.5,2.5,0,0,0,148.88,10.584Z"
            transform="translate(-143.827 0)" />
        <path 
            d="M83.025,182.9a.533.533,0,0,0-.789,0,.579.579,0,0,0-.167.413v1.176a4.06,4.06,0,0,1-1.154,2.908,3.794,3.794,0,0,1-5.552,0,4.06,4.06,0,0,1-1.153-2.908v-1.176a.579.579,0,0,0-.167-.413.534.534,0,0,0-.789,0,.578.578,0,0,0-.167.413v1.176a5.241,5.241,0,0,0,1.294,3.532,4.829,4.829,0,0,0,3.2,1.722v1.213H78.7v-1.213a4.829,4.829,0,0,0,3.2-1.722,5.241,5.241,0,0,0,1.294-3.532v-1.176A.578.578,0,0,0,83.025,182.9Z"
            transform="translate(-73.087 -176.974)" />
    </g>
</svg>