<svg data-name="user (5)"  fill="#fff" xmlns="http://www.w3.org/2000/svg" width="12.082" height="13.497" viewBox="0 0 12.082 13.497">
    <g data-name="Group 8898">
        <g data-name="Group 8897">
            <path data-name="Path 10875" d="M6.046 0a3.5 3.5 0 103.5 3.5 3.514 3.514 0 00-3.5-3.5z" />
        </g>
    </g>
    <g data-name="Group 8900">
        <g data-name="Group 8899">
            <path data-name="Path 10876"
                d="M12.055 9.808a3.266 3.266 0 00-.352-.643 4.356 4.356 0 00-3.015-1.9.645.645 0 00-.444.107 3.736 3.736 0 01-4.407 0 .574.574 0 00-.444-.107 4.324 4.324 0 00-3.015 1.9 3.765 3.765 0 00-.352.643.325.325 0 00.015.291 6.1 6.1 0 00.413.612 5.818 5.818 0 00.7.8 9.186 9.186 0 00.7.612 6.979 6.979 0 008.325 0 6.729 6.729 0 00.7-.612 7.066 7.066 0 00.7-.8 5.362 5.362 0 00.413-.612.261.261 0 00.063-.291z"
                />
        </g>
    </g>
</svg>