<svg xmlns="http://www.w3.org/2000/svg" fill="#fff" width="13.859" height="9.229" viewBox="0 0 13.859 9.229">

    <g transform="translate(-2 -7.5)">
        <path 
            d="M9.879,16.729H3.051A1.208,1.208,0,0,1,2,15.411V8.818A1.208,1.208,0,0,1,3.051,7.5H9.879a1.208,1.208,0,0,1,1.051,1.318v6.592A1.208,1.208,0,0,1,9.879,16.729Z"
            transform="translate(0 0)" />
        <path 
            d="M21,10.452v3.992l2.739,1.972a.578.578,0,0,0,.633.033.675.675,0,0,0,.325-.587V9.034a.675.675,0,0,0-.326-.587.578.578,0,0,0-.633.033Z"
            transform="translate(-8.838 -0.333)" />
    </g>
</svg>