<svg xmlns="http://www.w3.org/2000/svg"  fill="#4879f9" width="13.947" height="13.947" viewBox="0 0 13.947 13.947">
    <path class="a"
        d="M6.831,5.853l3.361-3.361a.721.721,0,0,0-.046-1.017.721.721,0,0,0-1.017-.046L5.768,4.789,2.089,1.11a.721.721,0,0,0-1.017-.046.722.722,0,0,0,.046,1.017L4.8,5.761,1.428,9.129a.721.721,0,0,0,.046,1.017.786.786,0,0,0,.518.234.655.655,0,0,0,.5-.188L5.86,6.824,9.54,10.5a.788.788,0,0,0,.518.234.657.657,0,0,0,.5-.188.721.721,0,0,0-.046-1.017Z"
        transform="translate(-1.243 6.979) rotate(-45)" />
</svg>