<svg xmlns="http://www.w3.org/2000/svg" width="23.504" height="29.602" viewBox="0 0 23.504 29.602">
  <g id="csv" transform="translate(-1.279)">
    <path id="Path_9793" data-name="Path 9793" d="M76.239,26.959A2.646,2.646,0,0,1,73.591,29.6H55.383a2.646,2.646,0,0,1-2.648-2.643V2.643A2.646,2.646,0,0,1,55.383,0H66.718a1.988,1.988,0,0,1,1.406.582l7.535,7.536a1.98,1.98,0,0,1,.58,1.4Z" transform="translate(-51.455 0)" fill="#1ec656"/>
    <path id="Path_9796" data-name="Path 9796" d="M317.357,11.62h-6.729a1.791,1.791,0,0,1-1.79-1.791V3.1a1.967,1.967,0,0,1,.582.4l7.535,7.536a1.967,1.967,0,0,1,.4.581Z" transform="translate(-292.751 -2.922)" fill="#14974a"/>
    <text id="CSV-2" data-name="CSV" transform="translate(4.409 20)" fill="#fff" font-size="8" font-family="SFUIDisplay-Heavy, SF UI Display" font-weight="800"><tspan x="0" y="0">CSV</tspan></text>
  </g>
</svg>
