<svg xmlns="http://www.w3.org/2000/svg" width="23.504" height="29.602" viewBox="0 0 23.504 29.602">
  <g id="text" transform="translate(-1.279)">
    <path id="Path_9793" data-name="Path 9793" d="M76.239,26.959A2.646,2.646,0,0,1,73.591,29.6H55.383a2.646,2.646,0,0,1-2.648-2.643V2.643A2.646,2.646,0,0,1,55.383,0H66.718a1.988,1.988,0,0,1,1.406.582l7.535,7.536a1.98,1.98,0,0,1,.58,1.4Z" transform="translate(-51.455 0)" fill="#959595"/>
    <path id="Path_9796" data-name="Path 9796" d="M317.357,11.62h-6.729a1.791,1.791,0,0,1-1.79-1.791V3.1a1.967,1.967,0,0,1,.582.4l7.535,7.536a1.967,1.967,0,0,1,.4.581Z" transform="translate(-292.751 -2.922)" fill="#fff"/>
    <g id="Group_15695" data-name="Group 15695" transform="translate(6.636 15.193)">
      <rect id="Rectangle_4490" data-name="Rectangle 4490" width="12.79" height="1.421" transform="translate(0)" fill="#fff"/>
      <rect id="Rectangle_4491" data-name="Rectangle 4491" width="12.79" height="1.421" transform="translate(0 3.174)" fill="#fff"/>
      <rect id="Rectangle_4492" data-name="Rectangle 4492" width="9.096" height="1.421" transform="translate(0 6.348)" fill="#fff"/>
    </g>
  </g>
</svg>
