
<svg xmlns="http://www.w3.org/2000/svg" width="18.2" height="17.384" viewBox="0 0 18.2 17.384">
  <g id="noun_chat_4059929" transform="translate(-1.9 -1.9)">
    <g id="Group_15747" data-name="Group 15747" transform="translate(2 2)">
      <path id="Path_13821" data-name="Path 13821" d="M16.786,2H5.214A3.214,3.214,0,0,0,2,5.214V13.8a2.353,2.353,0,0,0,2.346,2.346.244.244,0,0,1,.174.424,1.524,1.524,0,0,0-.167,1.974,1.5,1.5,0,0,0,1.241.643,1.652,1.652,0,0,0,.643-.148l5.786-2.719a1.929,1.929,0,0,1,.836-.174h3.928A3.214,3.214,0,0,0,20,12.929V5.214A3.214,3.214,0,0,0,16.786,2Zm1.929,10.929a1.929,1.929,0,0,1-1.929,1.929H12.858a3.131,3.131,0,0,0-1.363.309L5.709,17.885a.238.238,0,0,1-.315-.084.231.231,0,0,1,0-.321,1.539,1.539,0,0,0-1.048-2.623A1.061,1.061,0,0,1,3.286,13.8V5.214A1.929,1.929,0,0,1,5.214,3.286H16.786a1.929,1.929,0,0,1,1.929,1.929Z" transform="translate(-2 -2)" stroke="#fff" stroke-width="0.2"/>
      <circle id="Ellipse_1568" data-name="Ellipse 1568" cx="1.286" cy="1.286" r="1.286" transform="translate(3.214 5.786)" stroke="#fff" stroke-width="0.2"/>
      <circle id="Ellipse_1569" data-name="Ellipse 1569" cx="1.286" cy="1.286" r="1.286" transform="translate(7.714 5.786)" stroke="#fff" stroke-width="0.2"/>
      <circle id="Ellipse_1570" data-name="Ellipse 1570" cx="1.286" cy="1.286" r="1.286" transform="translate(12.214 5.786)" stroke="#fff" stroke-width="0.2"/>
    </g>
  </g>
</svg>
