<svg xmlns="http://www.w3.org/2000/svg" width="19.25" height="19" viewBox="0 0 19.25 19">
  <g id="Group_30871" data-name="Group 30871" transform="translate(-154.75 -154)">
    <rect id="Rectangle_7805" data-name="Rectangle 7805" width="19" height="19" transform="translate(155 154)" fill="none"/>
    <g id="people" transform="translate(155 156.71)">
      <path id="Path_40319" data-name="Path 40319" d="M42.658,58.243a2.069,2.069,0,1,1,2.088-2.069A2.081,2.081,0,0,1,42.658,58.243Zm0-3.557a1.488,1.488,0,1,0,1.507,1.488A1.5,1.5,0,0,0,42.658,54.686Zm0,0" transform="translate(-39.098 -52.142)" stroke="currentColor" stroke-width="0.5"/>
      <path id="Path_40320" data-name="Path 40320" d="M4.4,187.1H.759A.757.757,0,0,1,0,186.343v-.95a3.568,3.568,0,0,1,5.685-2.829.29.29,0,0,1-.345.467,2.987,2.987,0,0,0-4.76,2.362v.95a.176.176,0,0,0,.178.173H4.4a.29.29,0,1,1,0,.581Zm0,0" transform="translate(0 -175.268)" stroke="currentColor" stroke-width="0.5"/>
      <path id="Path_40321" data-name="Path 40321" d="M338.034,181.045h-3.642a.29.29,0,0,1,0-.581h3.642a.176.176,0,0,0,.178-.173v-.95a2.966,2.966,0,0,0-2.98-2.945,3.007,3.007,0,0,0-1.887.666.29.29,0,1,1-.365-.451,3.59,3.59,0,0,1,2.252-.795,3.547,3.547,0,0,1,3.56,3.526v.95A.757.757,0,0,1,338.034,181.045Zm0,0" transform="translate(-320.794 -169.436)" stroke="currentColor" stroke-width="0.5"/>
      <path id="Path_40322" data-name="Path 40322" d="M342.44,54.29a2.069,2.069,0,1,1,2.088-2.069A2.081,2.081,0,0,1,342.44,54.29Zm0-3.557a1.488,1.488,0,1,0,1.508,1.488A1.5,1.5,0,0,0,342.44,50.733Zm0,0" transform="translate(-328.001 -48.333)" stroke="currentColor" stroke-width="0.5"/>
      <path id="Path_40323" data-name="Path 40323" d="M122.092,162.95h-7.88a.947.947,0,0,1-.949-.942v-1.336a4.89,4.89,0,0,1,9.779,0v1.336A.947.947,0,0,1,122.092,162.95Zm-3.94-6.538a4.29,4.29,0,0,0-4.309,4.26v1.336a.366.366,0,0,0,.369.362h7.88a.366.366,0,0,0,.369-.362v-1.336A4.289,4.289,0,0,0,118.151,156.412Zm0,0" transform="translate(-109.152 -150.177)" stroke="currentColor" stroke-width="0.5"/>
      <path id="Path_40324" data-name="Path 40324" d="M173.965,5.315a2.674,2.674,0,0,1-2.683-2.658,2.683,2.683,0,0,1,5.366,0,2.674,2.674,0,0,1-2.683,2.658Zm0-4.735a2.092,2.092,0,0,0-2.1,2.077,2.1,2.1,0,0,0,4.205,0,2.093,2.093,0,0,0-2.1-2.077Zm0,0" transform="translate(-165.066)" stroke="currentColor" stroke-width="0.5"/>
    </g>
  </g>
</svg>
