<svg xmlns="http://www.w3.org/2000/svg" width="18.625" height="18.625" viewBox="0 0 18.625 18.625">
    <g stroke="#fff" stroke-width=".6">
        <path
            d="M9.313.3a9.013 9.013 0 109.013 9.013A9.023 9.023 0 009.313.3zm0 16.387a7.374 7.374 0 117.374-7.374 7.382 7.382 0 01-7.374 7.374z" />
        <path
            d="M9.312 4.124a1.092 1.092 0 101.092 1.093 1.094 1.094 0 00-1.092-1.093zM9.312 7.947a.819.819 0 00-.819.819v4.916a.82.82 0 101.639 0V8.766a.819.819 0 00-.82-.819z" />
    </g>
</svg>