<svg xmlns="http://www.w3.org/2000/svg" width="104.37" height="100.506" viewBox="0 0 104.37 100.506">
  <g id="Group_15548" data-name="Group 15548" transform="translate(-135.13 -246.783)">
    <g id="time-management" transform="translate(135.13 246.783)">
      <path id="Path_13765" data-name="Path 13765" d="M75.082,86.011,73.033,98.5a2.485,2.485,0,0,0,.481,1.915l4.349,5.667a2.485,2.485,0,0,0,3.943,0l4.349-5.667a2.485,2.485,0,0,0,.481-1.915L84.586,86.011a20.986,20.986,0,0,1-2.45.418l2.046,12.477-4.349,5.667-4.349-5.667,2.046-12.477a20.993,20.993,0,0,1-2.45-.418Z" transform="translate(-27.649 -34.509)" fill="#c7d6f6"/>
      <ellipse id="Ellipse_1595" data-name="Ellipse 1595" cx="1.243" cy="1.243" rx="1.243" ry="1.243" transform="translate(0 89.323)" fill="#d1defd"/>
      <path id="Path_13768" data-name="Path 13768" d="M9.106,146.89H7.243a1.243,1.243,0,0,0,0,2.485H9.106a1.243,1.243,0,0,0,0-2.485Zm92.566,0H99.809a1.243,1.243,0,0,0,0,2.485h1.864a1.243,1.243,0,0,0,0-2.485Z" transform="translate(-2.272 -57.567)" fill="#c7d6f6"/>
      <ellipse id="Ellipse_1596" data-name="Ellipse 1596" cx="1.243" cy="1.243" rx="1.243" ry="1.243" transform="translate(101.885 89.323)" fill="#d1defd"/>
      <path id="Path_13769" data-name="Path 13769" d="M91.583,142.013H86.422a1.246,1.246,0,0,0,0,2.485h5.161a1.246,1.246,0,0,0,0-2.485Zm-37.275,0H49.147a1.246,1.246,0,0,0,0,2.485h5.161a1.246,1.246,0,0,0,0-2.485Zm28.482,0H57.94a1.243,1.243,0,0,0,0,2.485h9.9v1.242H62.91a1.243,1.243,0,1,0,0,2.485H78.441a1.243,1.243,0,0,0,0-2.485H72.887V144.5h9.9a1.243,1.243,0,0,0,0-2.485Zm-24.85-19.88v14.91H55.455v-14.91a1.243,1.243,0,1,1,2.485,0Zm27.335,0v14.91H82.79v-14.91a1.242,1.242,0,1,1,2.485,0Z" transform="translate(-18.18 -47.719)" fill="#c7d6f6"/>
      <path id="Path_13770" data-name="Path 13770" d="M100.733,93.676a1.34,1.34,0,0,1-1.416,1.243h-82.9a1.253,1.253,0,1,1,0-2.485H31.2a4.957,4.957,0,0,1-.671-2.485V66.341a27.3,27.3,0,0,1,9.627-20.8,21.251,21.251,0,0,0,1.474,2,24.779,24.779,0,0,0-8.617,18.805V89.949A2.484,2.484,0,0,0,35.5,92.434h44.73a2.484,2.484,0,0,0,2.485-2.485V66.341A24.779,24.779,0,0,0,74.1,47.536a21.251,21.251,0,0,0,1.472-2A27.3,27.3,0,0,1,85.2,66.341V89.949a4.957,4.957,0,0,1-.671,2.485H99.316A1.34,1.34,0,0,1,100.733,93.676ZM83.953,28.134a1.864,1.864,0,1,0-1.864-1.864,1.864,1.864,0,0,0,1.864,1.864Zm0-2.8a.932.932,0,1,1-.932.932A.932.932,0,0,1,83.953,25.338ZM99.49,43.355a1.243,1.243,0,1,0,1.243,1.243A1.242,1.242,0,0,0,99.49,43.355Zm0,1.864a.621.621,0,1,1,.621-.621A.621.621,0,0,1,99.49,45.218ZM17.278,4.837A1.243,1.243,0,1,0,18.52,6.079a1.243,1.243,0,0,0-1.242-1.243Zm0,1.864a.621.621,0,1,1,.621-.621.621.621,0,0,1-.621.621Zm71.03-3.59A1.243,1.243,0,1,0,89.55,4.353,1.243,1.243,0,0,0,88.308,3.11Zm0,1.864a.621.621,0,1,1,.621-.621A.621.621,0,0,1,88.308,4.974ZM26.182,39.88a1.243,1.243,0,1,0-1.243,1.243A1.243,1.243,0,0,0,26.182,39.88Zm-1.864,0a.621.621,0,1,1,.621.621.621.621,0,0,1-.621-.621Z" transform="translate(-5.681 -3.111)" fill="#9dbafc"/>
      <path id="Path_13771" data-name="Path 13771" d="M5.206,44.889l.924-1.215-.583-.331L4.954,44.7h-.02l-.6-1.351-.594.34.914,1.186V44.9l-1.429-.185v.661l1.439-.185v.02L3.738,46.4l.554.35.632-1.371h.019l.583,1.361.613-.35-.933-1.167V45.2l1.467.175v-.661l-1.467.194Z" transform="translate(-1.221 -18.349)" fill="#c7d6f6"/>
      <path id="Path_13772" data-name="Path 13772" d="M47.229,26.472l-.532.683.319.2.364-.79h.011l.335.783.353-.2-.537-.672v-.011l.845.1v-.381l-.845.112v-.011l.532-.7-.335-.19-.342.783h-.011L47.04,25.4l-.342.2.527.683v.011l-.823-.107v.381l.828-.106Z" transform="translate(-17.574 -11.552)" fill="#0bceb2"/>
      <path id="Path_13773" data-name="Path 13773" d="M159.966,24.7v-.648l-1.439.191v-.019l.906-1.192-.572-.324-.581,1.334h-.019l-.591-1.325-.582.334.9,1.163v.019l-1.4-.181V24.7l1.411-.181v.019l-.906,1.163.544.344.62-1.345h.019l.572,1.335.6-.343-.915-1.144v-.019Z" transform="translate(-59.305 -10.534)" fill="#c7d6f6"/>
      <path id="Path_13774" data-name="Path 13774" d="M78.979,5.1l.781-1.028-.493-.28-.5,1.151h-.017L78.238,3.8l-.5.288.773,1V5.11L77.3,4.953v.559l1.218-.156v.016l-.782,1,.469.3.535-1.16h.016l.493,1.152.518-.3-.789-.987V5.365l1.241.148V4.953l-1.241.165Z" transform="translate(-29.277 -3.369)" fill="#c7d6f6"/>
    </g>
    <g id="signal" transform="translate(167.79 258.557)">
      <g id="Group_15495" data-name="Group 15495" transform="translate(0 -0.001)">
        <path id="Path_13717" data-name="Path 13717" d="M33.258,5.771A19.36,19.36,0,0,0,19.514,0,19.515,19.515,0,1,0,39.029,19.515,19.36,19.36,0,0,0,33.258,5.771ZM19.514,34.379A14.86,14.86,0,0,1,7.509,10.756L28.273,31.5A14.574,14.574,0,0,1,19.514,34.379ZM31.5,28.273,10.756,7.509A14.86,14.86,0,0,1,34.379,19.515,14.574,14.574,0,0,1,31.5,28.273Z" fill="#9dbafc" stroke="#fff" stroke-width="2.5"/>
      </g>
    </g>
  </g>
</svg>