<svg xmlns="http://www.w3.org/2000/svg" width="14.579" height="16.588" viewBox="0 0 14.579 16.588"><g transform="translate(-30.999)"><path d="M43.31,8.516V6.966A5.031,5.031,0,0,0,39.746,2.16v-.7a1.458,1.458,0,1,0-2.916,0v.7a5.031,5.031,0,0,0-3.564,4.806V8.516a7.631,7.631,0,0,1-2.133,5.305.486.486,0,0,0,.351.822h4.423a2.43,2.43,0,0,0,4.762,0h4.423a.486.486,0,0,0,.351-.822A7.631,7.631,0,0,1,43.31,8.516ZM37.8,1.458a.486.486,0,1,1,.972,0v.51c-.16-.015-.322-.024-.486-.024s-.326.008-.486.024Zm.486,14.158a1.46,1.46,0,0,1-1.374-.972h2.749A1.46,1.46,0,0,1,38.288,15.616Zm-5.756-1.944a8.592,8.592,0,0,0,1.706-5.156V6.966a4.05,4.05,0,1,1,8.1,0V8.516a8.592,8.592,0,0,0,1.706,5.156Z"/><path d="M391.485,56.8a.486.486,0,1,0,.972,0,7.242,7.242,0,0,0-2.135-5.155.486.486,0,0,0-.687.687A6.276,6.276,0,0,1,391.485,56.8Z" transform="translate(-346.879 -49.838)"/><path d="M31.486,57.29a.486.486,0,0,0,.486-.486,6.276,6.276,0,0,1,1.85-4.467.486.486,0,0,0-.687-.687A7.242,7.242,0,0,0,31,56.8.486.486,0,0,0,31.486,57.29Z" transform="translate(-0.001 -49.839)"/></g></svg>