<svg xmlns="http://www.w3.org/2000/svg" width="14" height="14" viewBox="0 0 14 14">
  <g id="settings" transform="translate(0 0.001)">
    <path id="Path_13807" data-name="Path 13807"
      d="M13.284,5.532,12.3,5.365a5.549,5.549,0,0,0-.4-.953l.579-.81a.862.862,0,0,0-.094-1.114l-.872-.872a.859.859,0,0,0-.611-.254.85.85,0,0,0-.5.161L9.6,2.1a5.491,5.491,0,0,0-.989-.407L8.443.723A.864.864,0,0,0,7.589,0H6.358A.864.864,0,0,0,5.5.723l-.17.994a5.412,5.412,0,0,0-.951.4l-.8-.579a.864.864,0,0,0-1.114.094L1.591,2.5A.866.866,0,0,0,1.5,3.619l.585.822A5.42,5.42,0,0,0,1.7,5.4l-.971.164A.864.864,0,0,0,0,6.415V7.646A.864.864,0,0,0,.722,8.5l.994.17a5.412,5.412,0,0,0,.4.951l-.576.8a.862.862,0,0,0,.094,1.114l.872.872a.86.86,0,0,0,1.111.093l.822-.585a5.533,5.533,0,0,0,.924.38l.164.983A.864.864,0,0,0,6.382,14H7.616a.864.864,0,0,0,.854-.722l.167-.983a5.549,5.549,0,0,0,.953-.4l.81.579a.859.859,0,0,0,.5.161h0a.859.859,0,0,0,.611-.254l.872-.872a.866.866,0,0,0,.094-1.114L11.9,9.588a5.509,5.509,0,0,0,.395-.953l.983-.164A.864.864,0,0,0,14,7.617V6.386A.854.854,0,0,0,13.284,5.532Zm-.067,2.085a.076.076,0,0,1-.064.076l-1.228.2a.393.393,0,0,0-.316.29,4.682,4.682,0,0,1-.509,1.23.4.4,0,0,0,.018.43l.722,1.018a.08.08,0,0,1-.009.1l-.872.872a.074.074,0,0,1-.056.023.072.072,0,0,1-.044-.015l-1.015-.722a.4.4,0,0,0-.43-.018,4.682,4.682,0,0,1-1.225.509.388.388,0,0,0-.29.316l-.208,1.228a.076.076,0,0,1-.076.064H6.385a.076.076,0,0,1-.076-.064l-.2-1.228a.393.393,0,0,0-.29-.316,4.862,4.862,0,0,1-1.2-.491.4.4,0,0,0-.2-.053.385.385,0,0,0-.228.073l-1.024.728a.087.087,0,0,1-.044.015.078.078,0,0,1-.056-.023L2.2,10.987a.079.079,0,0,1-.009-.1L2.9,9.878a.4.4,0,0,0,.018-.433A4.638,4.638,0,0,1,2.4,8.222a.4.4,0,0,0-.316-.29L.854,7.722A.076.076,0,0,1,.79,7.646V6.415a.076.076,0,0,1,.064-.076l1.22-.2a.4.4,0,0,0,.319-.292,4.677,4.677,0,0,1,.5-1.228.39.39,0,0,0-.02-.427L2.144,3.163a.08.08,0,0,1,.009-.1l.872-.872a.074.074,0,0,1,.056-.023.072.072,0,0,1,.044.015L4.133,2.9a.4.4,0,0,0,.433.018A4.638,4.638,0,0,1,5.789,2.4a.4.4,0,0,0,.29-.316L6.288.852A.076.076,0,0,1,6.364.788H7.6a.076.076,0,0,1,.076.064l.2,1.22a.4.4,0,0,0,.292.319,4.747,4.747,0,0,1,1.255.515.4.4,0,0,0,.43-.018l1.009-.725a.087.087,0,0,1,.044-.015.078.078,0,0,1,.056.023l.872.872a.079.079,0,0,1,.009.1L11.12,4.157a.4.4,0,0,0-.018.43,4.682,4.682,0,0,1,.509,1.225.388.388,0,0,0,.316.29l1.228.208a.076.076,0,0,1,.064.076V7.617Z"
      transform="translate(0 -0.001)" fill="currenColor" />
    <path id="Path_13808" data-name="Path 13808"
      d="M139.121,136a3.021,3.021,0,1,0,3.021,3.021A3.021,3.021,0,0,0,139.121,136Zm0,5.253a2.232,2.232,0,1,1,2.232-2.232,2.232,2.232,0,0,1-2.232,2.232Z"
      transform="translate(-132.12 -132.023)" fill="currenColor" />
  </g>
</svg>