<svg xmlns="http://www.w3.org/2000/svg" viewBox="0 0 32 32" width="32" height="32">
	<style>
		tspan { white-space:pre }
		.shp0 { fill: #ffffff } 
	</style>
	<g id="phone-call-button">
		<g id="call">
			<path id="Path_9631" class="shp0" d="M8.48 14.23C8.99 15.19 9.56 16.11 10.21 16.98C10.85 17.85 11.55 18.66 12.31 19.42C13.08 20.18 13.89 20.88 14.76 21.51C15.62 22.14 16.53 22.7 17.48 23.19L20.38 20.1C20.45 20 20.55 19.91 20.65 19.84C20.76 19.78 20.87 19.73 20.99 19.7C21.11 19.67 21.24 19.67 21.36 19.69C21.48 19.7 21.6 19.74 21.71 19.8C22.1 19.93 22.5 20.05 22.89 20.15C23.29 20.25 23.7 20.33 24.1 20.39C24.51 20.45 24.91 20.5 25.32 20.52C25.73 20.55 26.14 20.55 26.55 20.54C26.73 20.53 26.91 20.55 27.08 20.61C27.25 20.68 27.4 20.77 27.53 20.9C27.66 21.03 27.76 21.19 27.83 21.36C27.89 21.53 27.92 21.71 27.92 21.9L28 26.59C28.01 26.78 27.99 26.96 27.93 27.13C27.87 27.31 27.77 27.47 27.65 27.6C27.52 27.73 27.37 27.84 27.2 27.91C27.04 27.97 26.86 28 26.68 28C23.69 28.05 20.71 27.5 17.93 26.37C15.14 25.24 12.6 23.56 10.44 21.41C8.29 19.27 6.57 16.71 5.38 13.88C4.18 11.06 3.55 8.01 3.5 4.93C3.48 4.75 3.5 4.56 3.57 4.39C3.63 4.21 3.72 4.05 3.85 3.92C3.97 3.79 4.12 3.68 4.29 3.62C4.45 3.55 4.63 3.52 4.81 3.53L9.51 3.44C9.68 3.43 9.86 3.45 10.03 3.51C10.2 3.57 10.36 3.67 10.48 3.8C10.61 3.93 10.71 4.09 10.78 4.26C10.85 4.43 10.88 4.61 10.87 4.8C10.88 5.22 10.9 5.64 10.94 6.06C10.99 6.48 11.04 6.9 11.12 7.31C11.19 7.73 11.28 8.14 11.39 8.55C11.5 8.95 11.62 9.36 11.76 9.75C11.79 9.87 11.8 9.99 11.81 10.11C11.81 10.23 11.8 10.35 11.78 10.47C11.76 10.59 11.73 10.71 11.68 10.82C11.64 10.93 11.58 11.04 11.51 11.14L8.48 14.23Z" />
		</g>
	</g>
</svg>