<svg fill="currentColor" id="turn-microphone-off-button" xmlns="http://www.w3.org/2000/svg" width="19.144" height="20.207" viewBox="0 0 19.144 20.207">
  <g id="mic-off" transform="translate(0)">
    <path id="Path_9637" data-name="Path 9637" d="M369.433,229.5h-1.808a6.878,6.878,0,0,1-.425,2.127l1.276,1.276A6.073,6.073,0,0,0,369.433,229.5Z" transform="translate(-352.417 -219.928)" />
    <path id="Path_9638" data-name="Path 9638" d="M172.131,9.785V3.191a3.191,3.191,0,1,0-6.381,0V3.4Z" transform="translate(-159.369)" />
    <path id="Path_9639" data-name="Path 9639" d="M14.133,25.5,12.75,26.883l6.381,6.381v.744A3.134,3.134,0,0,0,22.322,37.2a2.076,2.076,0,0,0,.744-.106L24.874,38.9a6.309,6.309,0,0,1-2.446.532,5.492,5.492,0,0,1-5.637-5.424H14.877a7.4,7.4,0,0,0,6.381,7.126v3.51h2.127v-3.51a7.217,7.217,0,0,0,2.659-.957l4.467,4.467,1.383-1.383Z" transform="translate(-12.75 -24.436)" />
  </g>
</svg>
