<svg height="13" width="13" viewBox="0 0 19.953 20.82"><path fill="#fff" d="M10.844 0H9.109a3.04 3.04 0 00-3.036 3.036v8.674a3 3 0 00.114.778l7.694-8.044V3.036A3.04 3.04 0 0010.844 0zM9.11 14.747h1.731a3.04 3.04 0 003.036-3.036V6.956L19.833.733a.434.434 0 10-.627-.6L.12 20.087a.434.434 0 00.627.6L5.705 15.5a3.845 3.845 0 002.538.979h1.3v3.47H6.507a.434.434 0 000 .868h6.94a.434.434 0 100-.868h-3.036v-3.47h1.3a3.909 3.909 0 003.9-3.9V8.241a.434.434 0 00-.868 0v4.338a3.04 3.04 0 01-3.036 3.036H8.241A2.977 2.977 0 016.3 14.88l.848-.886a2.976 2.976 0 001.962.753zm-3.904-2.169V8.24a.434.434 0 00-.868 0v4.338a3.878 3.878 0 00.309 1.521l.682-.713a2.993 2.993 0 01-.123-.808z"/></svg>