<svg xmlns="http://www.w3.org/2000/svg"  width="5.713" height="10.628" viewBox="0 0 5.713 10.628">
    <g data-name="Group 15858">
        <path data-name="Path 13842"
            d="M5.612 5.572L4.535 3.86 5.162.54A.455.455 0 004.715 0H.995a.455.455 0 00-.447.54l.627 3.32-1.1 1.751a.455.455 0 00.385.7h1.944v3.861a.456.456 0 10.911 0V6.309h1.94a.455.455 0 00.354-.741zm-4.331-.169l.76-1.2a.455.455 0 00.062-.327L1.545.92h2.62l-.558 2.956a.455.455 0 00.062.327l.76 1.2z"
            fill="#fff" />
        <path data-name="Path 13859" d="M1.073.565H4.65l-.6 3.279 1.254 2.143H.348l1.285-2.143z" fill="#fff" />
    </g>
</svg>