<svg xmlns="http://www.w3.org/2000/svg" width="10.87" height="11.474" viewBox="0 0 10.87 11.474">
    <path fill="#999999" d="M9.662 5.435H8.635a3.906 3.906 0 01-.242 1.208l.725.725a3.448 3.448 0 00.544-1.933zM7.246 5.556V1.812a1.812 1.812 0 00-3.623 0v.121zM.785.604L0 1.389l3.623 3.623v.423a1.779 1.779 0 001.812 1.812 1.179 1.179 0 00.423-.06l1.027 1.027a3.582 3.582 0 01-1.389.3 3.119 3.119 0 01-3.2-3.08H1.208A4.2 4.2 0 004.831 9.48v1.994h1.208V9.481a4.1 4.1 0 001.51-.543l2.536 2.536.785-.785z" />
</svg>