<svg version="1.2" baseProfile="tiny-ps" xmlns="http://www.w3.org/2000/svg" viewBox="0 0 20 12" width="20" height="12">
	<g id="prefix__Layer">
		<path id="prefix__Layer"
			d="M2.17 11.89c-.2 0-.39-.04-.57-.11a1.27 1.27 0 01-.47-.32c-.14-.13-.25-.29-.33-.47a1.55 1.55 0 01-.11-.56V1.64c0-.19.04-.38.11-.56C.88.9.99.74 1.12.61c.14-.14.3-.25.48-.32s.37-.11.57-.11h11.81c.19 0 .38.04.56.11.18.07.34.18.48.32.13.13.24.29.32.47.07.18.11.37.11.56v1.59l2.48-2.05c.11-.09.24-.15.38-.17.14-.01.28.01.41.07a.8.8 0 01.31.27c.07.11.11.25.11.39v8.59c0 .14-.04.27-.11.39a.8.8 0 01-.31.27c-.13.06-.27.08-.41.06a.68.68 0 01-.38-.16l-2.48-2.05v1.59c0 .19-.04.38-.11.56-.08.18-.19.34-.32.47-.14.14-.3.25-.48.32s-.37.11-.56.11H2.17z"
			fill="#fff" />
	</g>
</svg>