<svg xmlns="http://www.w3.org/2000/svg" width="19.297" height="14.815" viewBox="0 0 19.297 14.815" >
    <g data-name="Group 15368">
        <g data-name="Group 15366">
            <path data-name="Path 1"
                d="M19.296 14.816h-19.3c.5-1 .967-2.342 1.43-3.292.113-.232.308-.2.5-.2h15.438c.195 0 .4-.025.506.2.458.928.915 2.256 1.426 3.292z"
                fill="#fff" />
            <rect data-name="Rectangle 4439" width="16" height="11" rx="1" transform="translate(1.527)" fill="#fff" />
            <path fill="#000" data-name="Path 10931"
                d="M13.609 4.913l-2.937-3.055a.339.339 0 00-.583.235v1.473h-.113a4.411 4.411 0 00-4.41 4.407v.678a.334.334 0 00.264.324.3.3 0 00.075.009.351.351 0 00.31-.193A3.707 3.707 0 019.549 6.73h.537v1.469a.339.339 0 00.583.235l2.938-3.051a.339.339 0 000-.47zm0 0" />
        </g>
    </g>
</svg>