<svg xmlns="http://www.w3.org/2000/svg" width="15" height="15" viewBox="0 0 15 15">
  <g id="Group_16257" data-name="Group 16257" transform="translate(723 -3284)">
    <path id="Path_13937" data-name="Path 13937" d="M0,0H15V15H0Z" transform="translate(-723 3284)" fill="none"/>
    <g id="Group_16236" data-name="Group 16236" transform="translate(-800 2817.743)">
      <path id="Forma_1" data-name="Forma 1" d="M1.122,10A1.191,1.191,0,0,1,0,8.75V1.25A1.191,1.191,0,0,1,1.122,0H10.1a1.191,1.191,0,0,1,1.122,1.25V2.721L13.812.854a.785.785,0,0,1,.46-.146A.683.683,0,0,1,15,1.335v7.33a.682.682,0,0,1-.728.626.782.782,0,0,1-.46-.146L11.218,7.279V8.75A1.191,1.191,0,0,1,10.1,10Z" transform="translate(77 469)" fill="#44bf3d"/>
      <path id="missedcall-incoming" d="M.1,6.648a.349.349,0,0,0,.495,0L6.049,1.2v3a.362.362,0,0,0,.3.357.351.351,0,0,0,.4-.347V.35A.352.352,0,0,0,6.4,0H2.9a.362.362,0,0,0-.358.3.351.351,0,0,0,.347.4H5.555L.1,6.151a.353.353,0,0,0,0,.5Z" transform="translate(79.458 470.625)" fill="#fff"/>
    </g>
  </g>
</svg>
