<svg fill="currentColor" xmlns="http://www.w3.org/2000/svg" width="13.802" height="12.882" viewBox="0 0 13.802 12.882">
  <g id="video-camera-slash-fill" transform="translate(0)">
    <path id="Path_13748" data-name="Path 13748"
      d="M20.762,28.112a.46.46,0,1,1-.681.619l-2.435-2.679a.921.921,0,0,1-.905.759H10.3a2.3,2.3,0,0,1-2.3-2.3V18.99a.921.921,0,0,1,.92-.92H10.39l-1.183-1.3a.46.46,0,1,1,.681-.619Zm.811-8.83a.46.46,0,0,0-.459,0l-2.3,1.315a.46.46,0,0,0-.232.4v2.892a.46.46,0,0,0,.232.4l2.3,1.315a.46.46,0,0,0,.688-.4V19.68a.46.46,0,0,0-.229-.4Zm-4.712,3.17a.46.46,0,0,0,.8-.31V20.37a2.3,2.3,0,0,0-2.3-2.3H13.917a.46.46,0,0,0-.34.77Z"
      transform="translate(-8 -15.999)"/>
  </g>
</svg>