<svg xmlns="http://www.w3.org/2000/svg" width="15.562" height="15.51" viewBox="0 0 15.562 15.51">
    <path fill ="#bac0c2" stroke ="#bac0c2" stroke-linejoin ="round" stroke-width =" 0.5px"
        d="M327.706,250.311a15.967,15.967,0,0,0,5.313,4.149,8.288,8.288,0,0,0,2.973.877c.072,0,.14.006.212.006a2.466,2.466,0,0,0,1.909-.818.068.068,0,0,0,.012-.016,8.032,8.032,0,0,1,.6-.622c.147-.14.3-.286.44-.435a1.5,1.5,0,0,0-.006-2.236l-1.875-1.869a1.52,1.52,0,0,0-1.1-.5,1.571,1.571,0,0,0-1.111.5l-1.117,1.113c-.1-.059-.209-.112-.309-.162a3.835,3.835,0,0,1-.343-.187,11.806,11.806,0,0,1-2.824-2.563,6.782,6.782,0,0,1-.955-1.518c.293-.264.568-.541.833-.812.094-.1.19-.193.287-.289a1.469,1.469,0,0,0,0-2.239l-.93-.927c-.109-.109-.212-.215-.318-.323-.206-.211-.421-.429-.633-.625a1.558,1.558,0,0,0-1.1-.479,1.6,1.6,0,0,0-1.111.482l-1.167,1.163a2.387,2.387,0,0,0-.714,1.53,5.74,5.74,0,0,0,.434,2.488A14.468,14.468,0,0,0,327.706,250.311Zm-2.265-6.737a1.643,1.643,0,0,1,.5-1.058l1.161-1.157a.841.841,0,0,1,.574-.264.8.8,0,0,1,.562.271c.209.193.406.395.618.61.106.109.215.218.325.33l.93.927a.723.723,0,0,1,0,1.163c-.1.1-.193.2-.29.292-.29.292-.562.569-.861.834l-.016.016a.607.607,0,0,0-.156.69c0,.009.006.016.009.025a7.313,7.313,0,0,0,1.1,1.776,12.461,12.461,0,0,0,3.008,2.731,4.458,4.458,0,0,0,.412.224,3.89,3.89,0,0,1,.343.187l.034.019a.653.653,0,0,0,.3.078.663.663,0,0,0,.465-.211l1.167-1.163a.827.827,0,0,1,.571-.277.784.784,0,0,1,.552.277l1.881,1.872a.749.749,0,0,1-.009,1.172c-.131.14-.268.274-.415.414a8.951,8.951,0,0,0-.652.675,1.715,1.715,0,0,1-1.338.566c-.053,0-.109,0-.162-.006a7.53,7.53,0,0,1-2.689-.8,15.168,15.168,0,0,1-5.057-3.95,13.849,13.849,0,0,1-2.465-4.09A5,5,0,0,1,325.441,243.574Z"
        transform="translate(-324.418 -240.083)" />
</svg>