<svg xmlns="http://www.w3.org/2000/svg" width="14.028" height="14.028" viewBox="0 0 14.028 14.028">
    <g transform="translate(0 0.241) rotate(-1)">
        <g transform="translate(0 0)">
            <path fill= "#fff" d="M2.758,5.975a11.926,11.926,0,0,0,5.056,5.056L9.5,9.346a.61.61,0,0,1,.766-.153,8.013,8.013,0,0,0,2.758.46.724.724,0,0,1,.766.766v2.6a.724.724,0,0,1-.766.766A13.012,13.012,0,0,1,0,.766.724.724,0,0,1,.766,0H3.447a.724.724,0,0,1,.766.766,8.676,8.676,0,0,0,.46,2.758.943.943,0,0,1-.153.766Z" />
        </g>
    </g>
</svg>