<svg xmlns="http://www.w3.org/2000/svg" fill="#6a92c5" width="25.076" height="25.035" viewBox="0 0 25.076 25.035">
  <g id="emergency-call" transform="translate(-0.523 -0.5)">
    <path id="Path_13649" data-name="Path 13649" d="M21.649,25.6l1.121-3.309-.48-.16a26.383,26.383,0,0,1-6.459-3.31L15.4,18.5l-1.708,2.4a29.366,29.366,0,0,1-6.032-6.032l2.4-1.708-.32-.427A26.383,26.383,0,0,1,6.436,6.28l-.16-.48L2.966,6.921A3.542,3.542,0,0,0,.831,8.9a3.744,3.744,0,0,0,.107,3.2A32.984,32.984,0,0,0,16.471,27.632a3.8,3.8,0,0,0,1.708.374,3.582,3.582,0,0,0,1.495-.32A3.2,3.2,0,0,0,21.649,25.6Zm-2.4,1.174a2.993,2.993,0,0,1-2.349-.053A32.173,32.173,0,0,1,1.845,11.672h0a2.782,2.782,0,0,1-.053-2.349A2.411,2.411,0,0,1,3.286,7.935l2.3-.747a29.311,29.311,0,0,0,2.936,5.765L6.97,14.02a24,24,0,0,1-2.082-3.576l-.907.48a26.285,26.285,0,0,0,2.189,3.737h0l.32.427h0a29,29,0,0,0,6.993,6.993h0l.427.32h0a32.567,32.567,0,0,0,3.737,2.189l.48-.961a24,24,0,0,1-3.576-2.082L15.617,20a26.673,26.673,0,0,0,5.765,2.936l-.8,2.3A2.287,2.287,0,0,1,19.247,26.778Z" transform="translate(0 -2.471)"/>
    <path id="Path_13650" data-name="Path 13650" d="M35.285,7.012a6.486,6.486,0,1,0-12.971,0,6.456,6.456,0,0,0,.641,2.829L21.3,14.485l4.644-1.655a6.523,6.523,0,0,0,9.341-5.818ZM28.773,12.4a5.365,5.365,0,0,1-2.562-.641L26,11.656l-2.989,1.068,1.068-2.989-.107-.214a5.365,5.365,0,0,1-.641-2.562A5.445,5.445,0,1,1,28.773,12.4Z" transform="translate(-9.686)"/>
    <path id="Path_13651" data-name="Path 13651" d="M32.71,5.9H31.643V9H28.6v1.068h3.043v3.043H32.71V10.064h3.1V9h-3.1Z" transform="translate(-13.09 -2.518)"/>
  </g>
</svg>
